<?xml version="1.0" encoding="UTF-8" standalone="no"?>
<svg width="1024px" height="1024px" viewBox="0 0 1024 1024" version="1.1" xmlns="http://www.w3.org/2000/svg" xmlns:xlink="http://www.w3.org/1999/xlink">
    <!-- Generator: Sketch 3.7.1 (28215) - http://www.bohemiancoding.com/sketch -->
    <title>arrow-next</title>
    <desc>Created with Sketch.</desc>
    <defs></defs>
    <g id="Page-1" stroke="none" stroke-width="1" fill="none" fill-rule="evenodd">
        <g id="arrow-next" fill="#000000">
            <path d="M614.913659,855.770903 L916.342399,554.342163 C939.885867,530.800579 939.885867,492.628397 916.342399,469.084928 L614.913659,167.656188 C591.37019,144.114604 553.199892,144.114604 529.656424,167.656188 C506.112955,191.199657 506.112955,229.369955 529.656424,252.913424 L728.17174,451.42874 L150.285748,451.42874 C116.99106,451.42874 90,478.419799 90,511.714488 C90,545.009176 116.99106,572.000235 150.285748,572.000235 L728.17174,572.000235 L529.656424,770.515552 C517.885632,782.286344 512.000235,797.715728 512.000235,813.143227 C512.000235,828.570727 517.885632,844.00011 529.656424,855.770903 C553.199892,879.314371 591.37019,879.314371 614.913659,855.770903 L614.913659,855.770903 Z" id="Shape"></path>
        </g>
    </g>
</svg>