<?xml version="1.0" encoding="UTF-8" standalone="no"?>
<svg width="1024px" height="1024px" viewBox="0 0 1024 1024" version="1.1" xmlns="http://www.w3.org/2000/svg" xmlns:xlink="http://www.w3.org/1999/xlink">
    <!-- Generator: Sketch 42 (36781) - http://www.bohemiancoding.com/sketch -->
    <title>column-info</title>
    <desc>Created with Sketch.</desc>
    <defs></defs>
    <g id="Page-1" stroke="none" stroke-width="1" fill="none" fill-rule="evenodd">
        <g id="column-info" fill="#000000">
            <polyline id="Line-Copy-2" points="307 210.831009 307 155 107 155 107 210.831009 107 840.789245 107 896.620254 307 896.620254 307 840.789245"></polyline>
            <path d="M581,599.152845 L581,840.789245 L581,896.620254 L381,896.620254 L381,840.789245 L381,210.831009 L381,155 L510.005387,155 C469.865471,207.19857 446,272.562245 446,343.5 C446,449.701678 499.490652,543.409946 581,599.152845 Z" id="Combined-Shape"></path>
            <path d="M855,636.658842 L855,840.789245 L855,896.620254 L655,896.620254 L655,840.789245 L655,636.317635 C686.511898,647.130594 720.320513,653 755.5,653 C790.307644,653 823.773242,647.254016 855,636.658842 Z" id="Combined-Shape"></path>
            <path d="M754.591186,598.538119 C613.643001,598.538119 498.985669,480.702971 498.985669,335.848298 C498.985669,191.031153 613.643001,73.1584776 754.591186,73.1584776 C895.53937,73.1584776 1010.1967,191.031153 1010.1967,335.848298 C1010.1967,480.702971 895.53937,598.538119 754.591186,598.538119 Z M754.591186,148.212712 C653.919127,148.212712 572.015817,232.386036 572.015817,335.848298 C572.015817,439.310561 653.919127,523.483885 754.591186,523.483885 C855.263244,523.483885 937.166554,439.310561 937.166554,335.848298 C937.166554,232.386036 855.263244,148.212712 754.591186,148.212712 Z M718.076112,335.848298 L791.106259,335.848298 L791.106259,485.956768 L718.076112,485.956768 L718.076112,335.848298 Z M754.591186,298.321181 C734.424467,298.321181 718.076112,281.519719 718.076112,260.794064 C718.076112,240.068409 734.424467,223.266947 754.591186,223.266947 C774.757904,223.266947 791.106259,240.068409 791.106259,260.794064 C791.106259,281.519719 774.757904,298.321181 754.591186,298.321181 Z" id="Combined-Shape"></path>
        </g>
    </g>
</svg>