<?xml version="1.0" encoding="UTF-8" standalone="no"?>
<svg width="381px" height="513px" viewBox="0 0 381 513" version="1.1" xmlns="http://www.w3.org/2000/svg" xmlns:xlink="http://www.w3.org/1999/xlink">
    <defs></defs>
    <g id="Page-1" stroke="none" stroke-width="1" fill="none" fill-rule="evenodd">
        <path d="M190.5,513 C295.710245,513 381,427.710245 381,322.5 C381,217.289755 201.257812,1.77635684e-15 190.5,0 C179.742188,-1.77635684e-15 0,217.289755 0,322.5 C0,427.710245 85.2897552,513 190.5,513 L190.5,513 Z M280.555891,228 C308.695378,251.108262 326.645336,286.169388 326.645336,325.422953 C326.645336,395.010831 270.233215,451.422953 200.645336,451.422953 C170.434205,451.422953 142.70645,440.790359 121,423.063103 C133.976144,427.193838 147.800421,429.422953 162.145336,429.422953 C236.97992,429.422953 297.645336,368.757536 297.645336,293.922953 C297.645336,269.993013 291.44208,247.511921 280.555891,228 L280.555891,228 L280.555891,228 Z" id="droplet" fill="#000000"></path>
    </g>
</svg>