<?xml version="1.0" encoding="UTF-8" standalone="no"?>
<svg width="1024px" height="1024px" viewBox="0 0 1024 1024" version="1.1" xmlns="http://www.w3.org/2000/svg" xmlns:xlink="http://www.w3.org/1999/xlink">
    <!-- Generator: Sketch 3.7.1 (28215) - http://www.bohemiancoding.com/sketch -->
    <title>email</title>
    <desc>Created with Sketch.</desc>
    <defs></defs>
    <g id="Page-1" stroke="none" stroke-width="1" fill="none" fill-rule="evenodd">
        <g id="email" fill="#000000">
            <path d="M982,216.919016 L512,570.433113 L42,216.919016 C42,200.654831 47.7372473,186.769108 59.2119142,175.261431 C70.6865807,163.753753 84.532471,158 100.75,158 L923.25,158 C939.467528,158 953.31342,163.753753 964.788087,175.261431 C976.262753,186.769108 982,200.654831 982,216.919016 L982,216.919016 L982,216.919016 Z M42,322.789124 L512,676.303221 L982,322.789124 L982,806.109177 C982,822.37336 976.262753,836.259086 964.788087,847.766764 C953.31342,859.274441 939.467528,865.028193 923.25,865.028193 L100.75,865.028193 C84.532471,865.028193 70.6865807,859.274441 59.2119142,847.766764 C47.7372473,836.259086 42,822.37336 42,806.109177 L42,322.789124 L42,322.789124 Z" id="Shape"></path>
        </g>
    </g>
</svg>