<?xml version="1.0" encoding="UTF-8" standalone="no"?>
<svg width="1024px" height="1024px" viewBox="0 0 1024 1024" version="1.1" xmlns="http://www.w3.org/2000/svg" xmlns:xlink="http://www.w3.org/1999/xlink">
    <!-- Generator: Sketch 3.8.3 (29802) - http://www.bohemiancoding.com/sketch -->
    <title>eye-blocked</title>
    <desc>Created with Sketch.</desc>
    <defs></defs>
    <g id="Page-1" stroke="none" stroke-width="1" fill="none" fill-rule="evenodd">
        <g id="eye-blocked" fill="#000000">
            <path d="M213.035703,695.209063 C206.762812,691.320625 200.931953,687.575938 195.606016,684.050469 C156.216719,657.992188 119.968359,628.167656 93.538125,600.064531 C61.5501562,566.056875 46,537.364375 46,512.346484 C46,487.326797 61.5501562,458.634297 93.5345312,424.626641 C119.964766,396.525312 156.213125,366.698984 195.602422,340.640703 C254.378203,301.758125 372.860547,236.526172 505.998203,236.526172 C517.340078,236.526172 528.565156,237.032891 539.668047,237.924141 L478.209531,323.965703 C383.796328,331.819844 298.694531,377.336484 254.153594,405.486328 C184.48875,449.516953 143.618828,494.122578 133.71625,512.348281 C143.618828,530.573984 184.486953,575.179609 254.151797,619.208438 C257.025,621.023281 260.081484,622.917188 263.283516,624.863203 L213.035703,695.209063 L213.035703,695.209063 Z M918.461875,424.624844 C892.029844,396.523516 855.781484,366.697187 816.393984,340.638906 C787.06,321.232656 742.833516,295.282187 689.351328,274.141953 L792.531484,129.687578 L736.968516,90 L161.968516,895 L217.531484,934.689375 L343.470859,758.372812 C392.329687,775.673125 447.756094,788.165 506,788.165 C639.139453,788.165 757.618203,722.934844 816.393984,684.052266 C855.783281,657.993984 892.031641,628.167656 918.461875,600.068125 C950.448047,566.058672 965.998203,537.366172 966,512.341094 C965.998203,487.325 950.448047,458.6325 918.461875,424.624844 L918.461875,424.624844 Z M757.846406,619.204844 C708.973203,650.094922 611.264531,701.915 506,701.915 C467.669062,701.915 430.347969,695.038359 396.018672,684.806953 L448.194531,611.762187 C465.180391,621.662969 484.922656,627.346484 506,627.346484 C569.514141,627.346484 621,575.860625 621,512.346484 C621,477.629062 605.597187,446.534141 581.271094,425.455 L637.437812,346.82375 C688.012656,364.456484 730.548281,388.234531 757.846406,405.486328 C827.513047,449.516953 868.379375,494.120781 878.281953,512.346484 C868.379375,530.572187 827.51125,575.176016 757.846406,619.204844 L757.846406,619.204844 Z" id="Shape"></path>
        </g>
    </g>
</svg>