<?xml version="1.0" encoding="UTF-8" standalone="no"?>
<svg width="1024px" height="1024px" viewBox="0 0 1024 1024" version="1.1" xmlns="http://www.w3.org/2000/svg" xmlns:xlink="http://www.w3.org/1999/xlink">
    <!-- Generator: Sketch 3.8.3 (29802) - http://www.bohemiancoding.com/sketch -->
    <title>eye</title>
    <desc>Created with Sketch.</desc>
    <defs></defs>
    <g id="Page-1" stroke="none" stroke-width="1" fill="none" fill-rule="evenodd">
        <g id="eye" fill="#000000">
            <g transform="translate(44.000000, 234.000000)" id="Shape">
                <path d="M458,550 C325.439414,550 207.474,484.963844 148.953766,446.196906 C109.735727,420.216124 73.6449687,390.478502 47.3296484,362.460749 C15.4825469,328.552443 0,299.945277 0,275.001792 C0,250.056515 15.4825469,221.449349 47.3314375,187.541042 C73.6467578,159.52329 109.737516,129.785668 148.955555,103.804886 C207.474,65.0379479 325.441203,0 458,0 C590.558797,0 708.524211,65.0379479 767.044445,103.804886 C806.260695,129.785668 842.351453,159.52329 868.668562,187.541042 C900.515664,221.447557 915.998211,250.054723 916,274.994625 C915.998211,299.945277 900.515664,328.552443 868.668562,362.460749 C842.353242,390.478502 806.262484,420.214332 767.044445,446.195114 C708.524211,484.963844 590.560586,550 458,550 L458,550 Z M87.3366641,275 C97.1961875,293.171498 137.886625,337.644463 207.248578,381.542345 C255.911078,412.338762 353.19493,464.004723 458,464.004723 C562.806859,464.004723 660.090711,412.338762 708.751422,381.540554 C778.113375,337.642671 818.803812,293.171498 828.661547,275 C818.800234,256.828502 778.111586,212.357329 708.749633,168.457655 C660.088922,137.659446 562.80507,85.9934853 458,85.9934853 C353.19493,85.9934853 255.911078,137.659446 207.250367,168.457655 C137.888414,212.355537 97.1961875,256.828502 87.3366641,275 L87.3366641,275 Z M343.5,275 C343.5,211.676547 394.763797,160.34202 458,160.34202 C521.236203,160.34202 572.5,211.676547 572.5,275 C572.5,338.323453 521.236203,389.65798 458,389.65798 C394.763797,389.65798 343.5,338.323453 343.5,275 L343.5,275 Z"></path>
            </g>
        </g>
    </g>
</svg>