<?xml version="1.0" encoding="UTF-8" standalone="no"?>
<svg width="1024px" height="1024px" viewBox="0 0 1024 1024" version="1.1" xmlns="http://www.w3.org/2000/svg" xmlns:xlink="http://www.w3.org/1999/xlink">
    <!-- Generator: Sketch 3.7.1 (28215) - http://www.bohemiancoding.com/sketch -->
    <title>geo</title>
    <desc>Created with Sketch.</desc>
    <defs></defs>
    <g id="Page-1" stroke="none" stroke-width="1" fill="none" fill-rule="evenodd">
        <g id="geo" fill="#000000">
            <path d="M726.766133,876.02418 C660.979902,914.422813 589.384766,933.623047 512,933.623047 C434.600547,933.623047 363.01,914.42373 297.233867,876.02418 C231.447637,837.630137 179.3575,785.54 140.958867,719.74918 C102.560234,653.973047 83.36,582.3825 83.36,504.977539 C83.36,427.596445 102.559316,356.001309 140.958867,290.211406 C179.3575,224.435273 231.447637,172.335039 297.233867,133.936406 C363.01,95.5377734 434.600547,76.3430469 512,76.3430469 C589.385684,76.3430469 660.98082,95.5423633 726.766133,133.941914 C792.547773,172.340547 844.64709,224.440781 883.041133,290.216914 C921.439766,356.003145 940.64,427.598281 940.64,504.983047 C940.64,582.38709 921.440684,653.977637 883.041133,719.74918 C844.64709,785.53541 792.542266,837.625547 726.766133,876.02418 L726.766133,876.02418 Z M369.12,810.388496 C338.758184,744.30209 320.005,661.562812 312.861367,562.134863 L183.376367,562.134863 C192.306367,618.09791 213.136914,667.508496 245.886367,710.373047 C278.617461,753.23668 319.700234,786.58373 369.12,810.389414 L369.12,810.388496 Z M184.268633,447.83123 L313.753633,447.83123 C319.699316,353.775234 338.155996,272.803047 369.12,204.934863 C319.699316,228.153047 278.77168,260.456367 246.3325,301.825547 C213.874043,343.209414 193.198633,391.877363 184.268633,447.83123 L184.268633,447.83123 Z M479.851816,809.942363 C494.14,831.679863 504.855449,842.53668 512,842.53668 C519.144551,842.53668 529.86,831.679863 544.148184,809.942363 C558.436367,788.214043 573.015547,754.571406 587.905,709.028223 C602.780684,663.485039 612.016367,614.529766 615.588184,562.134863 L408.411816,562.134863 C411.983633,614.530684 421.205547,663.490547 436.095,709.028223 C450.966094,754.571406 465.563633,788.214043 479.851816,809.942363 L479.851816,809.942363 Z M614.695,447.83123 C612.311953,410.324863 607.687227,375.051914 600.853867,342.010547 C594.00123,308.96918 586.565684,281.888184 578.528867,260.747363 C570.492051,239.62123 561.853047,221.31418 552.632051,205.828047 C543.396367,190.351094 535.359551,179.193184 528.520684,172.335957 C521.668047,165.49709 516.154727,162.066641 512,162.066641 C507.825996,162.066641 502.313594,165.498008 495.479316,172.335957 C488.63127,179.188594 480.594453,190.351094 471.367949,205.828047 C462.132266,221.31418 453.507949,239.62123 445.471133,260.747363 C437.434316,281.883594 429.985,308.96918 423.146133,342.010547 C416.293496,375.051914 411.673359,410.324863 409.305,447.83123 L614.695,447.83123 L614.695,447.83123 Z M839.731367,447.83123 C830.805957,391.877363 810.112188,343.209414 777.6675,301.825547 C745.213633,260.456367 704.285996,228.153047 654.88,204.934863 C685.829316,272.803047 704.285996,353.774316 710.240859,447.83123 L839.730449,447.83123 L839.731367,447.83123 Z M654.88,810.388496 C704.285996,786.582813 745.36418,753.23668 778.113633,710.372129 C810.849316,667.508496 831.693633,618.096992 840.623633,562.133945 L711.138633,562.133945 C703.995,661.562813 685.241816,744.305762 654.88,810.387578 L654.88,810.388496 Z" id="Shape"></path>
        </g>
    </g>
</svg>