<?xml version="1.0" encoding="UTF-8"?>
<svg width="1024px" height="1024px" viewBox="0 0 1024 1024" version="1.1" xmlns="http://www.w3.org/2000/svg" xmlns:xlink="http://www.w3.org/1999/xlink">
    <!-- Generator: Sketch 43.1 (39012) - http://www.bohemiancoding.com/sketch -->
    <title>id</title>
    <desc>Created with Sketch.</desc>
    <defs></defs>
    <g id="Page-1" stroke="none" stroke-width="1" fill="none" fill-rule="evenodd">
        <g id="id" fill="#000000">
            <path d="M512.5,944 C274.741415,944 82,751.258585 82,513.5 C82,275.741415 274.741415,83 512.5,83 C750.258585,83 943,275.741415 943,513.5 C943,751.258585 750.258585,944 512.5,944 Z M467,621.263906 L416.294978,621.263906 L416.294978,415.299472 L467,415.299472 L467,310 L257,310 L257,415.299472 L307.705022,415.299472 L307.705022,621.263906 L257,621.263906 L257,725 L467,725 L467,621.263906 Z M511,310 L511,725 L660.790333,725 C692.808246,725 720.736763,717.752509 744.012181,702.94648 C765.725716,690.226156 783.646172,673.139186 796.592242,652.33828 C801.12707,644.981752 804.992371,637.922677 808.244317,631.047499 C812.153314,622.059802 814.728688,613.060778 816.399949,603.258222 C819.528486,586.182516 821,557.837514 821,517.5 C821,479.981156 820.059854,453.44425 818.071758,437.204694 C815.04192,417.665391 808.113197,399.907398 797.327054,383.246775 C768.344697,335.522218 722.915659,310.39336 664.693891,310.000615 L537.991037,310 L511,310 Z M616,617 L616,414.024017 L654.341568,414.024017 C673.985841,413.564355 686.952587,419.692741 696.806254,433.282044 C702.185037,439.559259 704.802922,445.6618 706.059856,454.24262 C707.285322,465.556664 708,487.135118 708,517.486483 C708,548.479058 707.286697,569.540915 705.989962,579.760901 C705.01092,586.789384 702.905581,592.114813 699.924485,595.89798 C690.093761,610.581096 676.434175,617 654.341568,617 L616,617 Z" id="Combined-Shape"></path>
        </g>
    </g>
</svg>