<?xml version="1.0" encoding="UTF-8" standalone="no"?>
<svg width="1024px" height="1024px" viewBox="0 0 1024 1024" version="1.1" xmlns="http://www.w3.org/2000/svg" xmlns:xlink="http://www.w3.org/1999/xlink">
    <!-- Generator: Sketch 3.7.1 (28215) - http://www.bohemiancoding.com/sketch -->
    <title>info-inverse</title>
    <desc>Created with Sketch.</desc>
    <defs></defs>
    <g id="Page-1" stroke="none" stroke-width="1" fill="none" fill-rule="evenodd">
        <g id="info-inverse" fill="#04002B">
            <path d="M512,102 C285.539062,102 102,285.539062 102,512 C102,738.460937 285.539062,922 512,922 C738.460937,922 922,738.460937 922,512 C922,285.539062 738.460937,102 512,102 L512,102 Z M512,845.125 C327.980469,845.125 178.875,696.019531 178.875,512 C178.875,327.980469 327.980469,178.875 512,178.875 C696.019531,178.875 845.125,327.980469 845.125,512 C845.125,696.019531 696.019531,845.125 512,845.125 L512,845.125 Z" id="Shape"></path>
            <path d="M571.257812,344.476562 C571.257812,376.097813 545.623203,401.732422 514.001953,401.732422 C482.380703,401.732422 456.746094,376.097813 456.746094,344.476562 C456.746094,312.855313 482.380703,287.220703 514.001953,287.220703 C545.623203,287.220703 571.257812,312.855313 571.257812,344.476562 L571.257812,344.476562 Z" id="Shape"></path>
            <path d="M514.001953,432.242188 C488.777344,432.242188 468.357422,452.662109 468.357422,477.886719 L468.357422,718.441406 C468.357422,743.666016 488.777344,764.085938 514.001953,764.085938 C539.226562,764.085938 559.646484,743.666016 559.646484,718.441406 L559.646484,477.886719 C559.646484,452.742188 539.226562,432.242188 514.001953,432.242188 L514.001953,432.242188 Z" id="Shape"></path>
        </g>
    </g>
</svg>