<?xml version="1.0" encoding="UTF-8" standalone="no"?>
<svg width="1024px" height="1024px" viewBox="0 0 1024 1024" version="1.1" xmlns="http://www.w3.org/2000/svg" xmlns:xlink="http://www.w3.org/1999/xlink">
    <!-- Generator: Sketch 3.7.1 (28215) - http://www.bohemiancoding.com/sketch -->
    <title>list-numbered</title>
    <desc>Created with Sketch.</desc>
    <defs></defs>
    <g id="Page-1" stroke="none" stroke-width="1" fill="none" fill-rule="evenodd">
        <g id="list-numbered" fill="#000000">
            <path d="M400.625,792.1875 L960,792.1875 L960,904.0625 L400.625,904.0625 L400.625,792.1875 Z M400.625,456.5625 L960,456.5625 L960,568.4375 L400.625,568.4375 L400.625,456.5625 Z M400.625,120.9375 L960,120.9375 L960,232.8125 L400.625,232.8125 L400.625,120.9375 Z M232.8125,65 L232.8125,288.75 L176.875,288.75 L176.875,120.9375 L120.9375,120.9375 L120.9375,65 L232.8125,65 Z M176.875,524.736328 L176.875,568.4375 L288.75,568.4375 L288.75,624.375 L120.9375,624.375 L120.9375,496.767578 L232.8125,444.326172 L232.8125,400.625 L120.9375,400.625 L120.9375,344.6875 L288.75,344.6875 L288.75,472.294922 L176.875,524.736328 Z M288.75,680.3125 L288.75,960 L120.9375,960 L120.9375,904.0625 L232.8125,904.0625 L232.8125,848.125 L120.9375,848.125 L120.9375,792.1875 L232.8125,792.1875 L232.8125,736.25 L120.9375,736.25 L120.9375,680.3125 L288.75,680.3125 Z" id="Shape"></path>
        </g>
    </g>
</svg>