<?xml version="1.0" encoding="UTF-8" standalone="no"?>
<svg width="1024px" height="1024px" viewBox="0 0 1024 1024" version="1.1" xmlns="http://www.w3.org/2000/svg" xmlns:xlink="http://www.w3.org/1999/xlink">
    <!-- Generator: Sketch 3.7.1 (28215) - http://www.bohemiancoding.com/sketch -->
    <title>map</title>
    <desc>Created with Sketch.</desc>
    <defs></defs>
    <g id="Page-1" stroke="none" stroke-width="1" fill="none" fill-rule="evenodd">
        <g id="map" fill="#000000">
            <path d="M721.875,558 C766.4375,484.6875 800.9375,407.0625 800.9375,340.9375 C800.9375,182.8125 673,53.4375 513.4375,53.4375 C355.3125,53.4375 225.9375,181.375 225.9375,340.9375 C225.9375,407.0625 260.4375,483.25 303.5625,555.125 L52,703.1875 L513.4375,969.125 L972,703.1875 L721.875,558 L721.875,558 Z M507.6875,250.375 C558,250.375 598.25,290.625 598.25,340.9375 C598.25,391.25 558,431.5 507.6875,431.5 C457.375,431.5 417.125,391.25 417.125,340.9375 C417.125,290.625 457.375,250.375 507.6875,250.375 L507.6875,250.375 Z M165.5625,703.1875 L309.3125,619.8125 L374,657.1875 C391.25,680.1875 408.5,701.75 424.3125,720.4375 L310.75,786.5625 L165.5625,703.1875 L165.5625,703.1875 Z M513.4375,903 L368.25,819.625 L463.125,765 C493.3125,798.0625 513.4375,819.625 513.4375,819.625 C513.4375,819.625 533.5625,799.5 563.75,766.4375 L657.1875,819.625 L513.4375,903 L513.4375,903 Z M601.125,721.875 C618.375,700.3125 638.5,677.3125 657.1875,651.4375 L711.8125,619.8125 L857,703.1875 L713.25,786.5625 L601.125,721.875 L601.125,721.875 Z" id="Shape"></path>
        </g>
    </g>
</svg>