<?xml version="1.0" encoding="UTF-8" standalone="no"?>
<svg width="1024px" height="1024px" viewBox="0 0 1024 1024" version="1.1" xmlns="http://www.w3.org/2000/svg" xmlns:xlink="http://www.w3.org/1999/xlink">
    <!-- Generator: Sketch 3.7.1 (28215) - http://www.bohemiancoding.com/sketch -->
    <title>number</title>
    <desc>Created with Sketch.</desc>
    <defs></defs>
    <g id="Page-1" stroke="none" stroke-width="1" fill="none" fill-rule="evenodd">
        <g id="number" fill="#000000">
            <path d="M951.875,417.125 L972,306.4375 L753.5,306.4375 L792.3125,86.5 L681.625,86.5 L641.375,307.875 L454.5,307.875 L493.3125,87.9375 L382.625,87.9375 L343.8125,307.875 L123.875,307.875 L103.75,418.5625 L322.25,418.5625 L289.1875,606.875 L72.125,606.875 L52,716.125 L270.5,716.125 L231.6875,936.0625 L342.375,936.0625 L382.625,716.125 L569.5,716.125 L530.6875,936.0625 L641.375,936.0625 L680.1875,716.125 L900.125,716.125 L920.25,605.4375 L700.3125,605.4375 L733.375,417.125 L951.875,417.125 L951.875,417.125 Z M622.6875,417.125 L589.625,605.4375 L401.3125,605.4375 L434.375,417.125 L622.6875,417.125 L622.6875,417.125 Z" id="Shape"></path>
        </g>
    </g>
</svg>