<?xml version="1.0" encoding="UTF-8" standalone="no"?>
<svg width="1024px" height="1024px" viewBox="0 0 1024 1024" version="1.1" xmlns="http://www.w3.org/2000/svg" xmlns:xlink="http://www.w3.org/1999/xlink">
    <!-- Generator: Sketch 3.7.1 (28215) - http://www.bohemiancoding.com/sketch -->
    <title>presentation</title>
    <desc>Created with Sketch.</desc>
    <defs></defs>
    <g id="Page-1" stroke="none" stroke-width="1" fill="none" fill-rule="evenodd">
        <g id="presentation" fill="#000000">
            <path d="M899.375,60 L123.125,60 C99.40625,60 80,79.40625 80,103.125 L80,764.375 C80,788.09375 99.40625,807.5 123.125,807.5 L379.25875,807.5 L261.973125,924.785625 C249.342891,937.415859 249.342891,957.894844 261.973125,970.525078 C268.289141,976.841094 276.567344,980 284.84375,980 C293.120156,980 301.398359,976.841094 307.714375,970.526875 L470.74125,807.5 L482.5,807.5 L482.5,951.25 C482.5,967.128984 495.372813,980 511.25,980 C527.127188,980 540,967.128984 540,951.25 L540,807.5 L551.760547,807.5 L714.787422,970.526875 C721.101641,976.841094 729.379844,980 737.65625,980 C745.932656,980 754.210859,976.841094 760.526875,970.526875 C773.158906,957.896641 773.158906,937.417656 760.526875,924.787422 L643.239453,807.5 L899.375,807.5 C923.09375,807.5 942.5,788.09375 942.5,764.375 L942.5,103.125 C942.5,79.40625 923.09375,60 899.375,60 L899.375,60 Z M425,232.5 L655,376.25 L425,520 L425,232.5 L425,232.5 Z M798.75,692.5 L223.75,692.5 C207.872813,692.5 195,679.628984 195,663.75 C195,647.871016 207.872813,635 223.75,635 L798.75,635 C814.628984,635 827.5,647.871016 827.5,663.75 C827.5,679.628984 814.628984,692.5 798.75,692.5 L798.75,692.5 Z" id="Shape"></path>
        </g>
    </g>
</svg>