<?xml version="1.0" encoding="UTF-8" standalone="no"?>
<svg width="1024px" height="1024px" viewBox="0 0 1024 1024" version="1.1" xmlns="http://www.w3.org/2000/svg" xmlns:xlink="http://www.w3.org/1999/xlink">
    <!-- Generator: Sketch 3.7.1 (28215) - http://www.bohemiancoding.com/sketch -->
    <title>puzzle</title>
    <desc>Created with Sketch.</desc>
    <defs></defs>
    <g id="Page-1" stroke="none" stroke-width="1" fill="none" fill-rule="evenodd">
        <g id="puzzle" fill="#000000">
            <path d="M191,924.304687 L191,346.878906 L374.820312,346.878906 C418.394531,346.878906 434.746094,322.351562 434.746094,293.78125 C434.746094,265.210937 400.695312,227.027344 400.695312,176.625 C400.695312,126.222656 441.574219,99 487.84375,99 C534.113281,99 587.300781,129.007812 587.300781,188.933594 C587.300781,248.859375 569.601562,244.816406 569.601562,280.214844 C569.601562,315.613281 596.824219,340.140625 628.179688,340.140625 C659.535156,340.140625 828.351562,326.484375 828.351562,326.484375 C828.351562,326.484375 833.832031,469.515625 833.832031,519.917969 C833.832031,570.320312 794.300781,568.972656 786.125,568.972656 C786.125,568.972656 727.546875,526.746094 668.96875,526.746094 C610.390625,526.746094 595.476562,600.148437 595.476562,617.847656 C595.476562,635.546875 596.824219,710.476562 670.40625,710.476562 C711.285156,710.476562 703.109375,703.648437 730.332031,703.648437 C757.554688,703.648437 768.425781,710.476562 778.039062,758.09375 C787.5625,805.800781 799.871094,924.214844 799.871094,924.214844 L191,924.214844 L191,924.304687 Z" id="Shape"></path>
        </g>
    </g>
</svg>