<?xml version="1.0" standalone="no"?>
<!DOCTYPE svg PUBLIC "-//W3C//DTD SVG 1.1//EN" "http://www.w3.org/Graphics/SVG/1.1/DTD/svg11.dtd" >
<svg xmlns="http://www.w3.org/2000/svg" xmlns:xlink="http://www.w3.org/1999/xlink" version="1.1" viewBox="0 0 1024 1024">
  <g transform="matrix(1 0 0 -1 0 819)">
   <path fill="currentColor"
d="M972 669.451c-25.306 -37.8693 -57.3086 -71.1296 -94.184 -97.7539c0.363437 -8.09706 0.545155 -16.2413 0.545155 -24.4292c0 -249.541 -189.849 -537.288 -537.025 -537.288c-106.591 0 -205.806 31.2604 -289.336 84.839
c14.7663 -1.74398 29.7917 -2.63618 45.0258 -2.63618c88.4296 0 169.816 30.1898 234.413 80.836c-82.5944 1.52514 -152.3 56.1206 -176.317 131.145c11.5223 -2.20523 23.3475 -3.38696 35.5091 -3.38696c17.2161 0 33.8905 2.30623 49.7303 6.62242
c-86.3465 17.3456 -151.408 93.6701 -151.408 185.165c0 0.794556 0 1.58575 0.0134606 2.37357c25.4507 -14.1438 54.5525 -22.6381 85.4952 -23.6178c-50.6456 33.8629 -83.9707 91.6635 -83.9707 157.177c0 34.6069 9.30802 67.0457 25.555 94.936
c93.0937 -114.248 232.172 -189.427 389.042 -197.302c-3.21709 13.8206 -4.88957 28.2337 -4.88957 43.034c0 104.285 84.5125 188.835 188.755 188.835c54.2867 0 103.341 -22.9344 137.773 -59.6355c42.9932 8.47077 83.3886 24.1868 119.857 45.825
c-14.0933 -44.0945 -44.0196 -81.1019 -82.9915 -104.474c38.1811 4.56533 74.5584 14.7161 108.409 29.7352z" />
  </g>

</svg>
