<?xml version="1.0" encoding="UTF-8" standalone="no"?>
<svg width="166px" height="118px" viewBox="0 0 166 118" version="1.1" xmlns="http://www.w3.org/2000/svg" xmlns:xlink="http://www.w3.org/1999/xlink">
    <defs></defs>
    <g id="Blocks" stroke="none" stroke-width="1" fill="none" fill-rule="evenodd">
        <g transform="translate(-11.000000, -1852.000000)" id="author">
            <g transform="translate(11.000000, 1852.000000)">
                <g id="Block-Frame" fill="#FFFFFF">
                    <rect id="Block-Border-Add-in-CSS" x="0" y="0" width="165.236842" height="117.108098"></rect>
                </g>
                <g id="Rectangle-6-Copy-21-+-Imported-Layers-Copy-2" transform="translate(10.000000, 32.000000)" stroke="#CCCCCC" stroke-dasharray="6,3">
                    <rect id="Rectangle-6-Copy-21" x="0.469148616" y="0" width="47" height="44"></rect>
                </g>
                <path d="M63,37 L63,32 L127,32 L127,37 L108.755008,37 L63,37 Z" id="Rectangle-10-Copy-81" fill="#787878"></path>
                <path d="M62.9729091,43 L145.778425,43 L145.778425,48 L62.9729091,48 L62.9729091,43 Z" id="Rectangle-10-Copy-72" fill="#C2C2C2"></path>
                <path d="M62.9729091,57 L62.9729091,52 L150.796831,52 L150.796831,57 L115.998564,57 L62.9729091,57 Z" id="Rectangle-10-Copy-73" fill="#C2C2C2"></path>
                <path d="M62.9729091,66 L62.9729091,61 L127.199901,61 L127.199901,66 L101.751391,66 L62.9729091,66 Z" id="Rectangle-10-Copy-75" fill="#C2C2C2"></path>
                <path d="M63.0125331,75 L63.0125331,70 L133.218817,70 L133.218817,75 L105.401146,75 L63.0125331,75 Z" id="Rectangle-10-Copy-104" fill="#C2C2C2"></path>
                <g id="user" transform="translate(20.000000, 39.000000)">
                    <g id="Group">
                        <g id="icomoon-ignore"></g>
                        <path d="M16.875,19.7015234 L16.875,18.1552344 C18.9403711,16.9913281 20.625,14.0896484 20.625,11.1875 C20.625,6.52759766 20.625,2.75 15,2.75 C9.375,2.75 9.375,6.52759766 9.375,11.1875 C9.375,14.0896484 11.0596289,16.9913281 13.125,18.1552344 L13.125,19.7015234 C6.76458984,20.2214844 1.875,23.3466406 1.875,27.125 L28.125,27.125 C28.125,23.3466406 23.2354102,20.2214844 16.875,19.7015234 L16.875,19.7015234 Z" id="Shape" fill="#787878"></path>
                    </g>
                </g>
            </g>
        </g>
    </g>
</svg>