<?xml version="1.0" encoding="UTF-8" standalone="no"?>
<svg width="166px" height="118px" viewBox="0 0 166 118" version="1.1" xmlns="http://www.w3.org/2000/svg" xmlns:xlink="http://www.w3.org/1999/xlink">
    <defs></defs>
    <g id="Blocks" stroke="none" stroke-width="1" fill="none" fill-rule="evenodd">
        <g transform="translate(-11.000000, -1714.000000)" id="cover-image">
            <g transform="translate(11.000000, 1714.000000)">
                <g id="Block-Frame" fill="#FFFFFF">
                    <rect id="Block-Border-Add-in-CSS" x="0" y="0" width="165.236842" height="117.108098"></rect>
                </g>
                <g id="Imported-Layers" transform="translate(71.000000, 48.000000)" fill="#4A4A4A">
                    <g id="Group">
                        <path d="M0,19.7144774 L24.2896329,19.7144774 L24.2896329,0.0185818856 L0,0.0185818856 L0,19.7144774 Z M1.51810205,1.80030289 L22.7715308,1.80030289 L22.7715308,17.8206413 L1.51810205,17.8206413 L1.51810205,1.80030289 Z" id="Fill-3"></path>
                        <path d="M8.72301441,8.72416769 C9.98000291,8.72416769 10.9971313,7.7060414 10.9971313,6.4500493 C10.9971313,5.19557226 9.98000291,4.17896104 8.72301441,4.17896104 C7.4629897,4.17896104 6.44282512,5.19557226 6.44282512,6.4500493 C6.44282512,7.7060414 7.4629897,8.72416769 8.72301441,8.72416769" id="Fill-4"></path>
                        <path d="M19.7353267,9.67411588 L17.3306531,5.32132298 L14.0697698,12.3573029 L12.1448164,10.3937736 C12.1448164,10.3937736 9.47902923,11.3815985 8.60156624,12.8966674 C7.20187615,12.139133 6.44282512,12.8966674 6.44282512,12.8966674 L4.55430616,15.1692707 L19.7353267,15.1692707 L19.7353267,9.67411588" id="Fill-5"></path>
                    </g>
                </g>
                <path id="Path-35" stroke="#979797" d=""></path>
                <path d="M1,86 L165.310962,86" id="Path-722" stroke="#CCCCCC" stroke-dasharray="6,4"></path>
                <path d="M1,29 L165.310962,29" id="Path-722" stroke="#CCCCCC" stroke-dasharray="6,4"></path>
            </g>
        </g>
    </g>
</svg>