<?xml version="1.0" encoding="UTF-8" standalone="no"?>
<svg width="166px" height="118px" viewBox="0 0 166 118" version="1.1" xmlns="http://www.w3.org/2000/svg" xmlns:xlink="http://www.w3.org/1999/xlink">
    <defs></defs>
    <g id="Blocks" stroke="none" stroke-width="1" fill="none" fill-rule="evenodd">
        <g transform="translate(-12.000000, -306.000000)" id="text-12-blockquote">
            <g transform="translate(12.000000, 306.000000)">
                <g id="Block-Frame" fill="#FFFFFF">
                    <rect id="Block-Border-Add-in-CSS" x="0" y="0" width="165.236842" height="117.108098"></rect>
                </g>
                <path d="M22.0791712,28 L22.0791712,22 L145.001816,22 L145.001816,28 L22.0791712,28 Z" id="Rectangle-10-Copy-146" fill="#C2C2C2"></path>
                <path d="M99.1459413,40 L22.2377732,40 L22.2377732,34 L149.617187,34 L149.617187,40 L99.1459413,40 Z" id="Rectangle-10-Copy-144" fill="#C2C2C2"></path>
                <path d="M97.623864,53 L22.2377732,53 L22.2377732,47 L147.096242,47 L147.096242,53 L97.623864,53 Z" id="Rectangle-10-Copy-145" fill="#C2C2C2"></path>
                <path d="M22.136919,66 L22.136919,60 L94.0352452,60 L94.0352452,66 L65.5471403,66 L22.136919,66 Z" id="Rectangle-10-Copy-148" fill="#C2C2C2"></path>
                <path d="M18.9150239,48.5 L-15.5,48.5 L-15.5,46.5 L41.5,46.5 L41.5,48.5 L18.9150239,48.5 Z" id="Rectangle-10-Copy-147" fill="#C2C2C2" transform="translate(13.000000, 47.500000) rotate(-270.000000) translate(-13.000000, -47.500000) "></path>
                <path d="M145.001816,71.64 C145.001816,72.8666728 144.60182,73.8399964 143.801816,74.56 C143.001812,75.2800036 141.988488,75.64 140.761816,75.64 C139.321808,75.64 138.135154,75.1600048 137.201816,74.2 C136.268478,73.2399952 135.801816,71.826676 135.801816,69.96 C135.801816,68.1999912 136.055146,66.6933396 136.561816,65.44 C137.068485,64.1866604 137.681812,63.1200044 138.401816,62.24 C139.121819,61.3599956 139.868478,60.653336 140.641816,60.12 C141.415153,59.586664 142.095146,59.2133344 142.681816,59 L144.681816,61.8 C143.508476,62.3866696 142.561819,63.1733284 141.841816,64.16 C141.121812,65.1466716 140.761816,66.3866592 140.761816,67.88 C140.97515,67.8266664 141.26848,67.8 141.641816,67.8 C142.708488,67.8 143.535146,68.1733296 144.121816,68.92 C144.708485,69.6666704 145.001816,70.573328 145.001816,71.64 L145.001816,71.64 Z M133.321816,71.64 C133.321816,72.8666728 132.92182,73.8399964 132.121816,74.56 C131.321812,75.2800036 130.308488,75.64 129.081816,75.64 C127.641808,75.64 126.455154,75.1600048 125.521816,74.2 C124.588478,73.2399952 124.121816,71.826676 124.121816,69.96 C124.121816,68.1999912 124.375146,66.6933396 124.881816,65.44 C125.388485,64.1866604 126.001812,63.1200044 126.721816,62.24 C127.441819,61.3599956 128.188478,60.653336 128.961816,60.12 C129.735153,59.586664 130.415146,59.2133344 131.001816,59 L133.001816,61.8 C131.828476,62.3866696 130.881819,63.1733284 130.161816,64.16 C129.441812,65.1466716 129.081816,66.3866592 129.081816,67.88 C129.29515,67.8266664 129.58848,67.8 129.961816,67.8 C131.028488,67.8 131.855146,68.1733296 132.441816,68.92 C133.028485,69.6666704 133.321816,70.573328 133.321816,71.64 L133.321816,71.64 Z" id="“" fill="#C2C2C2" transform="translate(134.561816, 67.320000) rotate(-180.000000) translate(-134.561816, -67.320000) "></path>
            </g>
        </g>
    </g>
</svg>