<?xml version="1.0" encoding="UTF-8" standalone="no"?>
<svg width="166px" height="118px" viewBox="0 0 166 118" version="1.1" xmlns="http://www.w3.org/2000/svg" xmlns:xlink="http://www.w3.org/1999/xlink">
    <defs></defs>
    <g id="Blocks" stroke="none" stroke-width="1" fill="none" fill-rule="evenodd">
        <g transform="translate(-11.000000, -26.000000)" id="text-12">
            <g transform="translate(11.000000, 26.000000)">
                <g id="Block-Frame" fill="#FFFFFF">
                    <rect id="Block-Border-Add-in-CSS" x="0" y="0" width="165.236842" height="117.108098"></rect>
                </g>
                <path id="Path-35" stroke="#979797" d=""></path>
                <rect id="Rectangle-10-Copy-70" fill="#C2C2C2" x="16.1229909" y="25" width="141.009187" height="5"></rect>
                <rect id="Rectangle-10-Copy-60" fill="#787878" x="5" y="7" width="151.677149" height="10"></rect>
                <path d="M5,34 L158.140597,34 L158.140597,39 L97.4620576,39 L5,39 L5,34 Z" id="Rectangle-10-Copy-61" fill="#C2C2C2"></path>
                <path d="M5,52 L157.132177,52 L157.132177,57 L96.853202,57 L5,57 L5,52 Z" id="Rectangle-10-Copy-62" fill="#C2C2C2"></path>
                <path d="M5,43 L155.109815,43 L155.109815,48 L95.6321558,48 L5,48 L5,43 Z" id="Rectangle-10-Copy-63" fill="#C2C2C2"></path>
                <path d="M5,61 L158.140597,61 L158.140597,66 L97.4620576,66 L5,66 L5,61 Z" id="Rectangle-10-Copy-64" fill="#C2C2C2"></path>
                <path d="M5,70 L155.109815,70 L155.109815,75 L95.6321558,75 L5,75 L5,70 Z" id="Rectangle-10-Copy-65" fill="#C2C2C2"></path>
                <path d="M5,79 L157.132177,79 L157.132177,84 L96.853202,84 L5,84 L5,79 Z" id="Rectangle-10-Copy-66" fill="#C2C2C2"></path>
                <path d="M5,88 L158.140597,88 L158.140597,93 L97.4620576,93 L5,93 L5,88 Z" id="Rectangle-10-Copy-67" fill="#C2C2C2"></path>
                <path d="M5,97 L155.109815,97 L155.109815,102 L95.6321558,102 L5,102 L5,97 Z" id="Rectangle-10-Copy-68" fill="#C2C2C2"></path>
                <path d="M5,106 L101.517223,106 L101.517223,111 L63.2744303,111 L5,111 L5,106 Z" id="Rectangle-10-Copy-69" fill="#C2C2C2"></path>
            </g>
        </g>
    </g>
</svg>