<?xml version="1.0" encoding="UTF-8" standalone="no"?>
<svg width="166px" height="118px" viewBox="0 0 166 118" version="1.1" xmlns="http://www.w3.org/2000/svg" xmlns:xlink="http://www.w3.org/1999/xlink">
    <defs></defs>
    <g id="Blocks" stroke="none" stroke-width="1" fill="none" fill-rule="evenodd">
        <g transform="translate(-203.000000, -26.000000)" id="text-6-6">
            <g transform="translate(203.000000, 26.000000)">
                <g id="Block-Frame" fill="#FFFFFF">
                    <rect id="Block-Border-Add-in-CSS" x="0" y="0" width="165.236842" height="117.108098"></rect>
                </g>
                <path id="Path-35" stroke="#979797" d=""></path>
                <path d="M74,28 L6,28 L6,23 L74,23 L74,28 Z" id="Rectangle-10-Copy-70" fill="#C2C2C2"></path>
                <path d="M75.7920714,16 L6,16 L6,9 L75.7920714,9 L75.7920714,16 Z" id="Rectangle-10-Copy-60" fill="#787878"></path>
                <path d="M76.4654559,37 L48.5450938,37 L6,37 L6,32 L76.4654559,32 L76.4654559,37 Z" id="Rectangle-10-Copy-61" fill="#C2C2C2"></path>
                <path d="M76.0014462,55 L48.2649376,55 L6,55 L6,50 L76.0014462,50 L76.0014462,55 Z" id="Rectangle-10-Copy-62" fill="#C2C2C2"></path>
                <path d="M75.0708853,46 L47.7030906,46 L6,46 L6,41 L75.0708853,41 L75.0708853,46 Z" id="Rectangle-10-Copy-63" fill="#C2C2C2"></path>
                <path d="M76.4654559,64 L48.5450938,64 L6,64 L6,59 L76.4654559,59 L76.4654559,64 Z" id="Rectangle-10-Copy-64" fill="#C2C2C2"></path>
                <path d="M75.0708853,73 L47.7030906,73 L6,73 L6,68 L75.0708853,68 L75.0708853,73 Z" id="Rectangle-10-Copy-65" fill="#C2C2C2"></path>
                <path d="M76.0014462,82 L48.2649376,82 L6,82 L6,77 L76.0014462,77 L76.0014462,82 Z" id="Rectangle-10-Copy-66" fill="#C2C2C2"></path>
                <path d="M76.4654559,91 L48.5450938,91 L6,91 L6,86 L76.4654559,86 L76.4654559,91 Z" id="Rectangle-10-Copy-67" fill="#C2C2C2"></path>
                <path d="M75.0708853,100 L47.7030906,100 L6,100 L6,95 L75.0708853,95 L75.0708853,100 Z" id="Rectangle-10-Copy-68" fill="#C2C2C2"></path>
                <path d="M64,109 L41.0187962,109 L6,109 L6,104 L64,104 L64,109 Z" id="Rectangle-10-Copy-69" fill="#C2C2C2"></path>
                <path d="M158,28 L89,28 L89,23 L158,23 L158,28 Z" id="Rectangle-10-Copy-81" fill="#C2C2C2"></path>
                <path d="M158.792071,16 L89,16 L89,9 L158.792071,9 L158.792071,16 Z" id="Rectangle-10-Copy-71" fill="#787878"></path>
                <path d="M159.465456,37 L131.545094,37 L89,37 L89,32 L159.465456,32 L159.465456,37 Z" id="Rectangle-10-Copy-72" fill="#C2C2C2"></path>
                <path d="M159.001446,55 L131.264938,55 L89,55 L89,50 L159.001446,50 L159.001446,55 Z" id="Rectangle-10-Copy-73" fill="#C2C2C2"></path>
                <path d="M158.070885,46 L130.703091,46 L89,46 L89,41 L158.070885,41 L158.070885,46 Z" id="Rectangle-10-Copy-74" fill="#C2C2C2"></path>
                <path d="M159.465456,64 L131.545094,64 L89,64 L89,59 L159.465456,59 L159.465456,64 Z" id="Rectangle-10-Copy-75" fill="#C2C2C2"></path>
                <path d="M158.070885,73 L130.703091,73 L89,73 L89,68 L158.070885,68 L158.070885,73 Z" id="Rectangle-10-Copy-76" fill="#C2C2C2"></path>
                <path d="M159.001446,82 L131.264938,82 L89,82 L89,77 L159.001446,77 L159.001446,82 Z" id="Rectangle-10-Copy-77" fill="#C2C2C2"></path>
                <path d="M159.465456,91 L131.545094,91 L89,91 L89,86 L159.465456,86 L159.465456,91 Z" id="Rectangle-10-Copy-78" fill="#C2C2C2"></path>
                <path d="M158.070885,100 L130.703091,100 L89,100 L89,95 L158.070885,95 L158.070885,100 Z" id="Rectangle-10-Copy-79" fill="#C2C2C2"></path>
                <path d="M145,109 L122.811252,109 L89,109 L89,104 L145,104 L145,109 Z" id="Rectangle-10-Copy-80" fill="#C2C2C2"></path>
            </g>
        </g>
    </g>
</svg>