<?xml version="1.0" encoding="UTF-8" standalone="no"?>
<svg width="166px" height="118px" viewBox="0 0 166 118" version="1.1" xmlns="http://www.w3.org/2000/svg" xmlns:xlink="http://www.w3.org/1999/xlink">
    <defs></defs>
    <g id="Blocks" stroke="none" stroke-width="1" fill="none" fill-rule="evenodd">
        <g transform="translate(-203.000000, -167.000000)" id="text-8-4">
            <g transform="translate(203.000000, 167.000000)">
                <g id="Block-Frame" fill="#FFFFFF">
                    <rect id="Block-Border-Add-in-CSS" x="0" y="0" width="165.236842" height="117.108098"></rect>
                </g>
                <path id="Path-35" stroke="#979797" d=""></path>
                <path d="M97.7064306,22 L97.7064306,27 L5.99583305,27 L5.99583305,22 L97.7064306,22 Z" id="Rectangle-10-Copy-70" fill="#C2C2C2"></path>
                <path d="M97.4313006,11 L97.4313006,16 L5.72070312,16 L5.72070312,11 L97.4313006,11 Z" id="Rectangle-10-Copy-60" fill="#787878"></path>
                <path d="M5.72070312,40 L97.7064306,40 L97.7064306,45 L61.2591418,45 L5.72070312,45 L5.72070312,40 Z" id="Rectangle-10-Copy-62" fill="#C2C2C2"></path>
                <path d="M5.72070312,31 L96.4836226,31 L96.4836226,36 L60.5208442,36 L5.72070312,36 L5.72070312,31 Z" id="Rectangle-10-Copy-63" fill="#C2C2C2"></path>
                <path d="M5.72070312,49 L98.3161646,49 L98.3161646,54 L61.6272823,54 L5.72070312,54 L5.72070312,49 Z" id="Rectangle-10-Copy-64" fill="#C2C2C2"></path>
                <path d="M5.72070312,58 L96.4836226,58 L96.4836226,63 L60.5208442,63 L5.72070312,63 L5.72070312,58 Z" id="Rectangle-10-Copy-65" fill="#C2C2C2"></path>
                <path d="M5.72070312,67 L97.7064306,67 L97.7064306,72 L61.2591418,72 L5.72070312,72 L5.72070312,67 Z" id="Rectangle-10-Copy-66" fill="#C2C2C2"></path>
                <path d="M5.72070312,76 L98.3161646,76 L98.3161646,81 L61.6272823,81 L5.72070312,81 L5.72070312,76 Z" id="Rectangle-10-Copy-67" fill="#C2C2C2"></path>
                <path d="M5.72070312,85 L98.3161646,85 L98.3161646,90 L61.6272823,90 L5.72070312,90 L5.72070312,85 Z" id="Rectangle-10-Copy-84" fill="#C2C2C2"></path>
                <path d="M5.72070312,95 L96.4836226,95 L96.4836226,100 L60.5208442,100 L5.72070312,100 L5.72070312,95 Z" id="Rectangle-10-Copy-68" fill="#C2C2C2"></path>
                <path d="M5.72070312,104 L79.3077647,104 L79.3077647,109 L50.1505361,109 L5.72070312,109 L5.72070312,104 Z" id="Rectangle-10-Copy-69" fill="#C2C2C2"></path>
                <path d="M144.206453,15.5 L109.210359,15.5 L109.210359,10.5 L158.161284,10.5 L158.161284,15.5 L144.206453,15.5 Z" id="Rectangle-10-Copy-81" fill="#787878"></path>
                <path d="M109.563917,26.5 L109.563917,21.5 L116.216896,21.5 L158.514843,21.5 L158.514843,26.5 L109.563917,26.5 Z" id="Rectangle-10-Copy-72" fill="#C2C2C2"></path>
                <path d="M138.893293,35.5 L109.532697,35.5 L109.532697,30.5 L158.161284,30.5 L158.161284,35.5 L138.893293,35.5 Z" id="Rectangle-10-Copy-73" fill="#C2C2C2"></path>
                <path d="M139.087912,44.5 L109.532697,44.5 L109.532697,39.5 L158.483623,39.5 L158.483623,44.5 L139.087912,44.5 Z" id="Rectangle-10-Copy-75" fill="#C2C2C2"></path>
                <path d="M138.50299,53.5 L109.532697,53.5 L109.532697,48.5 L157.514843,48.5 L157.514843,53.5 L138.50299,53.5 Z" id="Rectangle-10-Copy-76" fill="#C2C2C2"></path>
                <path d="M138.893293,62.5 L109.532697,62.5 L109.532697,57.5 L158.161284,57.5 L158.161284,62.5 L138.893293,62.5 Z" id="Rectangle-10-Copy-77" fill="#C2C2C2"></path>
                <path d="M139.087912,71.5 L109.532697,71.5 L109.532697,66.5 L158.483623,66.5 L158.483623,71.5 L139.087912,71.5 Z" id="Rectangle-10-Copy-78" fill="#C2C2C2"></path>
                <path d="M138.50299,80.5 L109.532697,80.5 L109.532697,75.5 L157.514843,75.5 L157.514843,80.5 L138.50299,80.5 Z" id="Rectangle-10-Copy-79" fill="#C2C2C2"></path>
                <path d="M138.50299,98.5 L109.532697,98.5 L109.532697,93.5 L157.514843,93.5 L157.514843,98.5 L138.50299,98.5 Z" id="Rectangle-10-Copy-82" fill="#C2C2C2"></path>
                <path d="M137.21558,89.5 L109.532697,89.5 L109.532697,84.5 L155.382565,84.5 L155.382565,89.5 L137.21558,89.5 Z" id="Rectangle-10-Copy-80" fill="#C2C2C2"></path>
                <path d="M137.21558,107.5 L109.532697,107.5 L109.532697,102.5 L155.382565,102.5 L155.382565,107.5 L137.21558,107.5 Z" id="Rectangle-10-Copy-83" fill="#C2C2C2"></path>
            </g>
        </g>
    </g>
</svg>