<?xml version="1.0" encoding="utf-8"?>
<!-- Generator: Adobe Illustrator 19.1.0, SVG Export Plug-In . SVG Version: 6.00 Build 0)  -->
<svg version="1.1" id="Layer_1" xmlns="http://www.w3.org/2000/svg" xmlns:xlink="http://www.w3.org/1999/xlink" x="0px" y="0px"
	 viewBox="32 -232 1024 1024" style="enable-background:new 32 -232 1024 1024;" xml:space="preserve">
<g id="icomoon-ignore">
</g>
<g>
	<path d="M648.2,54.7c-10.1,0-20,0.8-29.7,2.2c-1.4,0.2-2.7,0.4-4.1,0.7c-1.5,0.3-3,0.5-4.5,0.8c-2,0.4-3.9,0.8-5.9,1.2
		c-1.5,0.3-3,0.7-4.5,1c-1.4,0.3-2.8,0.7-4.2,1.1c-2.1,0.6-4.2,1.1-6.2,1.8c-1.4,0.4-2.9,0.9-4.3,1.4c-1.2,0.4-2.4,0.8-3.6,1.2
		c-2.2,0.8-4.5,1.6-6.7,2.5c-1,0.4-2.1,0.8-3.1,1.2c-2.4,1-4.8,2-7.2,3.1c-0.9,0.4-1.7,0.8-2.6,1.2c-1.5,0.7-3.1,1.5-4.6,2.2
		c-0.7,0.3-1.4,0.7-2.1,1.1c-2.6,1.3-5.1,2.7-7.7,4.1c-0.6,0.4-1.3,0.7-1.9,1.1c-2.7,1.6-5.4,3.2-8,4.9c-0.4,0.3-0.8,0.5-1.2,0.8
		c-1.5,1-3.1,2-4.6,3.1c-53.3,37-88.2,98.6-88.2,168.2s35,131.2,88.2,168.2c1.5,1.1,3,2.1,4.6,3.1c0.4,0.3,0.8,0.5,1.2,0.7
		c2.6,1.7,5.3,3.4,8,4.9c0.6,0.4,1.3,0.7,1.9,1.1c2.5,1.4,5.1,2.8,7.7,4.2c0.7,0.3,1.4,0.7,2,1c1.5,0.8,3.1,1.5,4.6,2.2
		c0.9,0.4,1.7,0.8,2.6,1.2c2.4,1.1,4.8,2.1,7.2,3.1c1,0.4,2.1,0.8,3.1,1.2c2.2,0.9,4.5,1.7,6.7,2.5c1.2,0.4,2.4,0.8,3.6,1.2
		c1.4,0.5,2.9,0.9,4.3,1.4c2.1,0.6,4.1,1.2,6.2,1.8c1.4,0.4,2.8,0.7,4.2,1.1c1.5,0.4,3,0.7,4.5,1c2,0.4,3.9,0.8,5.9,1.2
		c1.5,0.3,3,0.5,4.5,0.8c1.4,0.2,2.7,0.5,4.1,0.7c9.7,1.4,19.6,2.2,29.7,2.2c112.9,0,204.7-91.8,204.7-204.7
		C852.9,146.6,761.1,54.7,648.2,54.7z M642,440.3c-31.8-1.8-61.4-11.8-86.8-28c42.1-37.5,68.8-92.1,68.8-152.9
		c0-60.7-26.6-115.3-68.8-152.9c25.4-16.2,55-26.2,86.8-28c40.2,49.4,64.3,112.4,64.3,180.9S682.1,390.9,642,440.3z"/>
	<path d="M541.6-222C269.1-222,48.2-1.1,48.2,271.4s220.9,493.4,493.4,493.4S1035,543.9,1035,271.4S814.1-222,541.6-222z
		 M418.7,552.2c-161.6,0-293-131.5-293-293s131.5-293,293-293c30.7,0,60.4,4.8,88.2,13.6c-33.6,18.1-63.6,42-88.6,70.5
		c-115,0.2-208.5,93.9-208.5,208.9c0,115.1,93.5,208.7,208.5,208.9c25,28.5,55,52.4,88.6,70.5C479,547.5,449.4,552.2,418.7,552.2z
		 M656.5,552.2c-42.3,0-82.6-10.2-118.9-25.2c-4.1-1-8.1-3.8-12.1-5.8c-0.1,0-0.2-0.1-0.3-0.1c-3.9-2-7.8-4-11.6-6.2
		c-0.2-0.1-0.3-0.2-0.5-0.3c-3.8-2.1-7.5-4.3-11.1-6.6c-0.2-0.1-0.4-0.3-0.6-0.4c-3.6-2.3-7.2-4.6-10.7-7c-0.2-0.2-0.5-0.3-0.7-0.5
		c-3.5-2.4-6.9-4.9-10.3-7.4c-0.2-0.2-0.5-0.4-0.7-0.5c-3.4-2.6-6.7-5.2-9.9-7.9c-0.2-0.2-0.4-0.3-0.6-0.5c-3.3-2.7-6.5-5.5-9.6-8.4
		c-0.1-0.1-0.3-0.2-0.4-0.4c-3.2-3-6.4-6-9.5-9.1c-52.8-53-85.5-126.1-85.5-206.7S396.2,105.5,449,52.5c3.1-3.1,6.2-6.1,9.5-9.1
		c0.1-0.1,0.3-0.2,0.4-0.4c3.2-2.9,6.4-5.7,9.6-8.4c0.2-0.2,0.4-0.3,0.6-0.5c3.2-2.7,6.6-5.3,9.9-7.9c0.2-0.2,0.5-0.4,0.7-0.5
		c3.4-2.6,6.8-5,10.3-7.4c0.2-0.2,0.5-0.3,0.7-0.5c3.5-2.4,7-4.7,10.7-7c0.2-0.1,0.4-0.3,0.6-0.4c3.6-2.3,7.3-4.5,11.1-6.6
		c0.2-0.1,0.3-0.2,0.5-0.3c3.8-2.1,7.7-4.2,11.6-6.2c0.1,0,0.2,0.2,0.3,0.2c4-2,8-4.5,12.1-5.5c36.4-17,76.6-25.5,118.9-25.5
		c161.6,0,293,131.3,293,292.9S818.1,552.2,656.5,552.2z"/>
</g>
</svg>
