<?xml version="1.0" encoding="UTF-8" standalone="no"?>
<svg width="1024px" height="1024px" viewBox="0 0 1024 1024" version="1.1" xmlns="http://www.w3.org/2000/svg" xmlns:xlink="http://www.w3.org/1999/xlink">
    <!-- Generator: Sketch 3.8.3 (29802) - http://www.bohemiancoding.com/sketch -->
    <title>move_vertical</title>
    <desc>Created with Sketch.</desc>
    <defs></defs>
    <g id="Page-1" stroke="none" stroke-width="1" fill="none" fill-rule="evenodd">
        <g id="move_vertical" fill="#000000">
            <path d="M513.5,426 C561.989583,426 601,465.010417 601,513.5 C601,561.989583 561.989583,601 513.5,601 C465.010417,601 426,561.989583 426,513.5 C426,465.010417 465.010417,426 513.5,426 L513.5,426 Z" id="Shape" transform="translate(513.500000, 513.500000) rotate(-270.000000) translate(-513.500000, -513.500000) "></path>
            <path d="M632.892191,186.824275 C633.69082,187.549499 633.69082,189.363355 632.892191,190.088579 L392.357075,378.33011 C391.558446,378.87416 390.759482,377.967232 390.759482,376.697958 L390.759482,0.0337230887 C390.759482,-1.23555137 391.67244,-2.14247958 392.357075,-1.59842891 L632.892191,186.824275 L632.892191,186.824275 Z" id="Shape" transform="translate(512.125323, 188.365840) scale(-1, -1) rotate(90.000000) translate(-512.125323, -188.365840) "></path>
            <path d="M632.892191,831.824275 C633.69082,832.549499 633.69082,834.363355 632.892191,835.088579 L392.357075,1023.33011 C391.558446,1023.87416 390.759482,1022.96723 390.759482,1021.69796 L390.759482,645.033723 C390.759482,643.764449 391.67244,642.85752 392.357075,643.401571 L632.892191,831.824275 L632.892191,831.824275 Z" id="Shape" transform="translate(512.125323, 833.365840) scale(-1, 1) rotate(90.000000) translate(-512.125323, -833.365840) "></path>
        </g>
    </g>
</svg>