<?xml version="1.0" encoding="UTF-8" standalone="no"?>
<svg width="309px" height="142px" viewBox="0 0 309 142" version="1.1" xmlns="http://www.w3.org/2000/svg" xmlns:xlink="http://www.w3.org/1999/xlink">
    <defs></defs>
    <g id="View-Samples" stroke="none" stroke-width="1" fill="none" fill-rule="evenodd">
        <g id="Desktop-HD" transform="translate(-1094.000000, -725.000000)">
            <g id="Styles-&amp;-Presentation-Panel" transform="translate(585.000000, 60.000000)">
                <g id="Theme-Custom" transform="translate(492.000000, 601.000000)">
                    <g id="theme-sample-custom" transform="translate(17.000000, 64.000000)">
                        <rect id="Swatch-1" fill="#056CB6" x="223" y="17" width="36" height="36"></rect>
                        <rect id="Swatch-2" fill="#252525" x="273" y="17" width="36" height="36"></rect>
                        <path d="M15.912,3.904 L16.056,3.904 L21.816,31.84 L10.152,31.84 L15.912,3.904 Z M12.096,0.016 L0.648,52 L6.264,52 L9.36,36.592 L22.608,36.592 L25.704,52 L31.32,52 L19.872,0.016 L12.096,0.016 Z M41.904,48.4 C43.9200101,51.2800144 46.5119842,52.72 49.68,52.72 C51.2160077,52.72 52.6319935,52.3720035 53.928,51.676 C55.2240065,50.9799965 56.3639951,49.8640077 57.348,48.328 C58.3320049,46.7919923 59.0999972,44.7760125 59.652,42.28 C60.2040028,39.7839875 60.48,36.7840175 60.48,33.28 C60.48,29.7759825 60.2040028,26.7760125 59.652,24.28 C59.0999972,21.7839875 58.3320049,19.7680077 57.348,18.232 C56.3639951,16.6959923 55.2240065,15.5800035 53.928,14.884 C52.6319935,14.1879965 51.2160077,13.84 49.68,13.84 C48.3839935,13.84 47.1600058,14.1639968 46.008,14.812 C44.8559942,15.4600032 43.776005,16.287995 42.768,17.296 L42.768,0.016 L37.584,0.016 L37.584,41.92 C37.584,44.320012 37.5120007,46.323992 37.368,47.932 C37.2239993,49.540008 37.0080014,50.8959945 36.72,52 L40.752,52 L41.904,48.4 Z M42.768,21.472 C43.8240053,20.4159947 44.7719958,19.6000029 45.612,19.024 C46.4520042,18.4479971 47.375995,18.16 48.384,18.16 C50.6880115,18.16 52.4159942,19.2999886 53.568,21.58 C54.7200058,23.8600114 55.296,27.7599724 55.296,33.28 C55.296,38.7520274 54.696006,42.6399885 53.496,44.944 C52.295994,47.2480115 50.5440115,48.4 48.24,48.4 C47.4239959,48.4 46.5000052,48.0640034 45.468,47.392 C44.4359948,46.7199966 43.5360038,45.8560053 42.768,44.8 L42.768,21.472 Z M88.848,25.648 C88.3199974,21.8079808 87.1800088,18.8800101 85.428,16.864 C83.6759912,14.8479899 81.1680163,13.84 77.904,13.84 C73.9679803,13.84 71.0760092,15.3999844 69.228,18.52 C67.3799908,21.6400156 66.456,26.5599664 66.456,33.28 C66.456,40.0000336 67.3799908,44.9199844 69.228,48.04 C71.0760092,51.1600156 73.9679803,52.72 77.904,52.72 C81.1680163,52.72 83.7239908,51.5920113 85.572,49.336 C87.4200092,47.0799887 88.5599978,44.0320192 88.992,40.192 L83.952,40.192 C83.5199978,43.3120156 82.8360047,45.4599941 81.9,46.636 C80.9639953,47.8120059 79.6320086,48.4 77.904,48.4 C76.7519942,48.4 75.7920038,48.1840022 75.024,47.752 C74.2559962,47.3199978 73.6200025,46.5520055 73.116,45.448 C72.6119975,44.3439945 72.2400012,42.8080098 72,40.84 C71.7599988,38.8719902 71.64,36.3520154 71.64,33.28 C71.64,30.1599844 71.7599988,27.6280097 72,25.684 C72.2400012,23.7399903 72.6119975,22.2160055 73.116,21.112 C73.6200025,20.0079945 74.2559962,19.2400022 75.024,18.808 C75.7920038,18.3759978 76.7519942,18.16 77.904,18.16 C79.5840084,18.16 80.927995,18.7359942 81.936,19.888 C82.944005,21.0400058 83.5679988,22.9599866 83.808,25.648 L88.848,25.648 Z" id="Abc" fill="#056CB6"></path>
                        <path d="M7.072,80.624 L7.136,80.624 L9.696,93.04 L4.512,93.04 L7.072,80.624 Z M5.376,78.896 L0.288,102 L2.784,102 L4.16,95.152 L10.048,95.152 L11.424,102 L13.92,102 L8.832,78.896 L5.376,78.896 Z M32.384,90.288 C32.1493322,88.5813248 31.6426706,87.2800045 30.864,86.384 C30.0853294,85.4879955 28.9706739,85.04 27.52,85.04 C25.7706579,85.04 24.4853374,85.7333264 23.664,87.12 C22.8426626,88.5066736 22.432,90.6933184 22.432,93.68 C22.432,96.6666816 22.8426626,98.8533264 23.664,100.24 C24.4853374,101.626674 25.7706579,102.32 27.52,102.32 C28.9706739,102.32 30.1066626,101.818672 30.928,100.816 C31.7493374,99.8133283 32.255999,98.4586752 32.448,96.752 L30.208,96.752 C30.015999,98.1386736 29.7120021,99.0933307 29.296,99.616 C28.8799979,100.138669 28.2880038,100.4 27.52,100.4 C27.0079974,100.4 26.581335,100.304001 26.24,100.112 C25.898665,99.919999 25.6160011,99.5786691 25.392,99.088 C25.1679989,98.5973309 25.0026672,97.914671 24.896,97.04 C24.7893328,96.165329 24.736,95.0453402 24.736,93.68 C24.736,92.2933264 24.7893328,91.1680043 24.896,90.304 C25.0026672,89.4399957 25.1679989,88.7626691 25.392,88.272 C25.6160011,87.7813309 25.898665,87.440001 26.24,87.248 C26.581335,87.055999 27.0079974,86.96 27.52,86.96 C28.2666704,86.96 28.8639978,87.2159974 29.312,87.728 C29.7600022,88.2400026 30.0373328,89.0933274 30.144,90.288 L32.384,90.288 Z M45.664,85.36 L43.36,85.36 L43.36,98.352 C42.2719946,99.7173402 41.2160051,100.4 40.192,100.4 C38.9759939,100.4 38.368,99.4826758 38.368,97.648 L38.368,85.36 L36.064,85.36 L36.064,97.968 C36.064,99.4613408 36.3733302,100.559996 36.992,101.264 C37.6106698,101.968004 38.5173274,102.32 39.712,102.32 C40.245336,102.32 40.8639965,102.112002 41.568,101.696 C42.2720035,101.279998 42.9119971,100.773336 43.488,100.176 L43.488,102 L45.664,102 L45.664,85.36 Z M58.656,89.008 C58.3786653,87.7279936 57.8506706,86.7466701 57.072,86.064 C56.2933294,85.3813299 55.274673,85.04 54.016,85.04 C52.7786605,85.04 51.7493374,85.4346627 50.928,86.224 C50.1066626,87.0133373 49.696,87.9626611 49.696,89.072 C49.696,89.6906698 49.8026656,90.2453309 50.016,90.736 C50.2293344,91.2266691 50.5119982,91.6639981 50.864,92.048 C51.2160018,92.4320019 51.5946646,92.7679986 52,93.056 C52.4053354,93.3440014 52.9173302,93.6799981 53.536,94.064 C54.6240054,94.7466701 55.4293307,95.3493307 55.952,95.872 C56.4746693,96.3946693 56.736,97.0613293 56.736,97.872 C56.736,98.5546701 56.4960024,99.1466642 56.016,99.648 C55.5359976,100.149336 54.9760032,100.4 54.336,100.4 C53.5679962,100.4 52.9386691,100.128003 52.448,99.584 C51.9573309,99.0399973 51.5733347,98.330671 51.296,97.456 L49.184,97.904 C49.6106688,99.3546739 50.2399958,100.45333 51.072,101.2 C51.9040042,101.94667 53.0453261,102.32 54.496,102.32 C55.8186733,102.32 56.9066624,101.882671 57.76,101.008 C58.6133376,100.133329 59.04,99.0346733 59.04,97.712 C59.04,97.0293299 58.9226678,96.4160027 58.688,95.872 C58.4533322,95.3279973 58.1493352,94.8533354 57.776,94.448 C57.4026648,94.0426646 57.0080021,93.6853349 56.592,93.376 C56.1759979,93.0666651 55.6373366,92.7093354 54.976,92.304 C53.9519949,91.6853302 53.2000024,91.1413357 52.72,90.672 C52.2399976,90.2026643 52,89.6266701 52,88.944 C52,88.3679971 52.1759982,87.8933352 52.528,87.52 C52.8800018,87.1466648 53.322664,86.96 53.856,86.96 C54.7093376,86.96 55.3439979,87.1839978 55.76,87.632 C56.1760021,88.0800022 56.5013322,88.7306624 56.736,89.584 L58.656,89.008 Z M60.672,87.28 L62.912,87.28 L62.912,98.736 C62.912,99.994673 63.1679974,100.906664 63.68,101.472 C64.1920026,102.037336 65.0026611,102.32 66.112,102.32 C66.5600022,102.32 66.9493317,102.293334 67.28,102.24 C67.6106683,102.186666 67.946665,102.106667 68.288,102 L68.288,100.272 C67.9893318,100.378667 67.7280011,100.458666 67.504,100.512 C67.2799989,100.565334 67.072001,100.592 66.88,100.592 C66.3253306,100.592 65.9093347,100.442668 65.632,100.144 C65.3546653,99.8453318 65.216,99.4400026 65.216,98.928 L65.216,87.28 L68.288,87.28 L68.288,85.36 L65.216,85.36 L65.216,79.792 L62.912,79.792 L62.912,85.36 L60.672,85.36 L60.672,87.28 Z M72.736,93.68 C72.736,92.2933264 72.7893328,91.1680043 72.896,90.304 C73.0026672,89.4399957 73.1679989,88.7626691 73.392,88.272 C73.6160011,87.7813309 73.898665,87.440001 74.24,87.248 C74.581335,87.055999 75.0079974,86.96 75.52,86.96 C76.0320026,86.96 76.458665,87.055999 76.8,87.248 C77.141335,87.440001 77.4239989,87.7813309 77.648,88.272 C77.8720011,88.7626691 78.0373328,89.4399957 78.144,90.304 C78.2506672,91.1680043 78.304,92.2933264 78.304,93.68 C78.304,95.0453402 78.2506672,96.165329 78.144,97.04 C78.0373328,97.914671 77.8720011,98.5973309 77.648,99.088 C77.4239989,99.5786691 77.141335,99.919999 76.8,100.112 C76.458665,100.304001 76.0320026,100.4 75.52,100.4 C75.0079974,100.4 74.581335,100.304001 74.24,100.112 C73.898665,99.919999 73.6160011,99.5786691 73.392,99.088 C73.1679989,98.5973309 73.0026672,97.914671 72.896,97.04 C72.7893328,96.165329 72.736,95.0453402 72.736,93.68 L72.736,93.68 Z M70.432,93.68 C70.432,96.6666816 70.8426626,98.8533264 71.664,100.24 C72.4853374,101.626674 73.7706579,102.32 75.52,102.32 C77.2693421,102.32 78.5546626,101.626674 79.376,100.24 C80.1973374,98.8533264 80.608,96.6666816 80.608,93.68 C80.608,90.6933184 80.1973374,88.5066736 79.376,87.12 C78.5546626,85.7333264 77.2693421,85.04 75.52,85.04 C73.7706579,85.04 72.4853374,85.7333264 71.664,87.12 C70.8426626,88.5066736 70.432,90.6933184 70.432,93.68 L70.432,93.68 Z M86.624,102 L86.624,88.688 L86.656,88.656 C87.0826688,88.122664 87.4986646,87.7066682 87.904,87.408 C88.3093354,87.1093318 88.8213302,86.96 89.44,86.96 C90.0800032,86.96 90.5439986,87.1253317 90.832,87.456 C91.1200014,87.7866683 91.264,88.3679958 91.264,89.2 L91.264,102 L93.568,102 L93.568,88.688 C93.6533338,88.6026662 93.7173331,88.5386669 93.76,88.496 C94.2080022,88.0053309 94.6293314,87.626668 95.024,87.36 C95.4186686,87.093332 95.9039971,86.96 96.48,86.96 C97.0986698,86.96 97.541332,87.1199984 97.808,87.44 C98.074668,87.7600016 98.208,88.3466624 98.208,89.2 L98.208,102 L100.512,102 L100.512,88.88 C100.512,87.6853274 100.21867,86.7466701 99.632,86.064 C99.0453304,85.3813299 98.218672,85.04 97.152,85.04 C96.4053296,85.04 95.7120032,85.2373314 95.072,85.632 C94.4319968,86.0266686 93.8346694,86.5333302 93.28,87.152 C93.0666656,86.5333302 92.6826694,86.0266686 92.128,85.632 C91.5733306,85.2373314 90.9653366,85.04 90.304,85.04 C89.578663,85.04 88.8853366,85.2426646 88.224,85.648 C87.5626634,86.0533354 86.965336,86.5653302 86.432,87.184 L86.432,85.36 L84.32,85.36 L84.32,102 L86.624,102 Z M110.464,87.28 L112.704,87.28 L112.704,98.736 C112.704,99.994673 112.959997,100.906664 113.472,101.472 C113.984003,102.037336 114.794661,102.32 115.904,102.32 C116.352002,102.32 116.741332,102.293334 117.072,102.24 C117.402668,102.186666 117.738665,102.106667 118.08,102 L118.08,100.272 C117.781332,100.378667 117.520001,100.458666 117.296,100.512 C117.071999,100.565334 116.864001,100.592 116.672,100.592 C116.117331,100.592 115.701335,100.442668 115.424,100.144 C115.146665,99.8453318 115.008,99.4400026 115.008,98.928 L115.008,87.28 L118.08,87.28 L118.08,85.36 L115.008,85.36 L115.008,79.792 L112.704,79.792 L112.704,85.36 L110.464,85.36 L110.464,87.28 Z M121.408,102 L123.712,102 L123.712,89.008 C124.800005,87.6426598 125.855995,86.96 126.88,86.96 C128.096006,86.96 128.704,87.8773242 128.704,89.712 L128.704,102 L131.008,102 L131.008,89.392 C131.008,87.8986592 130.69867,86.8000035 130.08,86.096 C129.46133,85.3919965 128.554673,85.04 127.36,85.04 C126.826664,85.04 126.208004,85.2533312 125.504,85.68 C124.799996,86.1066688 124.202669,86.6079971 123.712,87.184 L123.712,78.896 L121.408,78.896 L121.408,102 Z M136.736,92.144 C136.757333,90.2666573 137.002664,88.9333373 137.472,88.144 C137.941336,87.3546627 138.623996,86.96 139.52,86.96 C140.522672,86.96 141.231998,87.359996 141.648,88.16 C142.064002,88.960004 142.282667,90.2879907 142.304,92.144 L136.736,92.144 Z M144.608,94.064 L144.608,92.976 C144.608,90.4799875 144.186671,88.5333403 143.344,87.136 C142.501329,85.7386597 141.226675,85.04 139.52,85.04 C137.770658,85.04 136.485337,85.7333264 135.664,87.12 C134.842663,88.5066736 134.432,90.6933184 134.432,93.68 C134.432,96.6666816 134.842663,98.8533264 135.664,100.24 C136.485337,101.626674 137.770658,102.32 139.52,102.32 C140.970674,102.32 142.165329,101.850671 143.104,100.912 C144.042671,99.9733286 144.607999,98.8426733 144.8,97.52 L142.624,97.264 C142.453332,98.1600045 142.149336,98.9066637 141.712,99.504 C141.274664,100.101336 140.650671,100.4 139.84,100.4 C138.730661,100.4 137.936002,100.000004 137.456,99.2 C136.975998,98.399996 136.736,96.9973434 136.736,94.992 L136.736,94.064 L144.608,94.064 Z M150.624,102 L150.624,88.688 L150.656,88.656 C151.082669,88.122664 151.498665,87.7066682 151.904,87.408 C152.309335,87.1093318 152.82133,86.96 153.44,86.96 C154.080003,86.96 154.543999,87.1253317 154.832,87.456 C155.120001,87.7866683 155.264,88.3679958 155.264,89.2 L155.264,102 L157.568,102 L157.568,88.688 C157.653334,88.6026662 157.717333,88.5386669 157.76,88.496 C158.208002,88.0053309 158.629331,87.626668 159.024,87.36 C159.418669,87.093332 159.903997,86.96 160.48,86.96 C161.09867,86.96 161.541332,87.1199984 161.808,87.44 C162.074668,87.7600016 162.208,88.3466624 162.208,89.2 L162.208,102 L164.512,102 L164.512,88.88 C164.512,87.6853274 164.21867,86.7466701 163.632,86.064 C163.04533,85.3813299 162.218672,85.04 161.152,85.04 C160.40533,85.04 159.712003,85.2373314 159.072,85.632 C158.431997,86.0266686 157.834669,86.5333302 157.28,87.152 C157.066666,86.5333302 156.682669,86.0266686 156.128,85.632 C155.573331,85.2373314 154.965337,85.04 154.304,85.04 C153.578663,85.04 152.885337,85.2426646 152.224,85.648 C151.562663,86.0533354 150.965336,86.5653302 150.432,87.184 L150.432,85.36 L148.32,85.36 L148.32,102 L150.624,102 Z M170.528,92.144 C170.549333,90.2666573 170.794664,88.9333373 171.264,88.144 C171.733336,87.3546627 172.415996,86.96 173.312,86.96 C174.314672,86.96 175.023998,87.359996 175.44,88.16 C175.856002,88.960004 176.074667,90.2879907 176.096,92.144 L170.528,92.144 Z M178.4,94.064 L178.4,92.976 C178.4,90.4799875 177.978671,88.5333403 177.136,87.136 C176.293329,85.7386597 175.018675,85.04 173.312,85.04 C171.562658,85.04 170.277337,85.7333264 169.456,87.12 C168.634663,88.5066736 168.224,90.6933184 168.224,93.68 C168.224,96.6666816 168.634663,98.8533264 169.456,100.24 C170.277337,101.626674 171.562658,102.32 173.312,102.32 C174.762674,102.32 175.957329,101.850671 176.896,100.912 C177.834671,99.9733286 178.399999,98.8426733 178.592,97.52 L176.416,97.264 C176.245332,98.1600045 175.941336,98.9066637 175.504,99.504 C175.066664,100.101336 174.442671,100.4 173.632,100.4 C172.522661,100.4 171.728002,100.000004 171.248,99.2 C170.767998,98.399996 170.528,96.9973434 170.528,94.992 L170.528,94.064 L178.4,94.064 Z M191.072,85.36 L189.152,85.36 L189.152,107.44 L191.456,107.44 L191.456,100.784 C191.904002,101.232002 192.383997,101.599999 192.896,101.888 C193.408003,102.176001 193.951997,102.32 194.528,102.32 C195.21067,102.32 195.839997,102.165335 196.416,101.856 C196.992003,101.546665 197.498664,101.05067 197.936,100.368 C198.373336,99.6853299 198.714665,98.7893389 198.96,97.68 C199.205335,96.5706611 199.328,95.2373411 199.328,93.68 C199.328,92.1226589 199.205335,90.7893389 198.96,89.68 C198.714665,88.5706611 198.373336,87.6746701 197.936,86.992 C197.498664,86.3093299 196.992003,85.8133349 196.416,85.504 C195.839997,85.1946651 195.21067,85.04 194.528,85.04 C193.09866,85.04 191.968004,85.6799936 191.136,86.96 L191.072,86.96 L191.072,85.36 Z M191.456,88.56 C191.797335,88.0906643 192.197331,87.7066682 192.656,87.408 C193.114669,87.1093318 193.525332,86.96 193.888,86.96 C194.912005,86.96 195.690664,87.4719949 196.224,88.496 C196.757336,89.5200051 197.024,91.2479878 197.024,93.68 C197.024,96.1333456 196.768003,97.8666616 196.256,98.88 C195.743997,99.8933384 194.976005,100.4 193.952,100.4 C193.503998,100.4 193.093335,100.272001 192.72,100.016 C192.346665,99.7599987 191.925336,99.3973357 191.456,98.928 L191.456,88.56 Z M212.768,85.36 L210.464,85.36 L210.464,98.352 C209.375995,99.7173402 208.320005,100.4 207.296,100.4 C206.079994,100.4 205.472,99.4826758 205.472,97.648 L205.472,85.36 L203.168,85.36 L203.168,97.968 C203.168,99.4613408 203.47733,100.559996 204.096,101.264 C204.71467,101.968004 205.621327,102.32 206.816,102.32 C207.349336,102.32 207.967996,102.112002 208.672,101.696 C209.376004,101.279998 210.015997,100.773336 210.592,100.176 L210.592,102 L212.768,102 L212.768,85.36 Z M215.328,87.28 L217.568,87.28 L217.568,98.736 C217.568,99.994673 217.823997,100.906664 218.336,101.472 C218.848003,102.037336 219.658661,102.32 220.768,102.32 C221.216002,102.32 221.605332,102.293334 221.936,102.24 C222.266668,102.186666 222.602665,102.106667 222.944,102 L222.944,100.272 C222.645332,100.378667 222.384001,100.458666 222.16,100.512 C221.935999,100.565334 221.728001,100.592 221.536,100.592 C220.981331,100.592 220.565335,100.442668 220.288,100.144 C220.010665,99.8453318 219.872,99.4400026 219.872,98.928 L219.872,87.28 L222.944,87.28 L222.944,85.36 L219.872,85.36 L219.872,79.792 L217.568,79.792 L217.568,85.36 L215.328,85.36 L215.328,87.28 Z M234.656,89.008 C234.378665,87.7279936 233.850671,86.7466701 233.072,86.064 C232.293329,85.3813299 231.274673,85.04 230.016,85.04 C228.77866,85.04 227.749337,85.4346627 226.928,86.224 C226.106663,87.0133373 225.696,87.9626611 225.696,89.072 C225.696,89.6906698 225.802666,90.2453309 226.016,90.736 C226.229334,91.2266691 226.511998,91.6639981 226.864,92.048 C227.216002,92.4320019 227.594665,92.7679986 228,93.056 C228.405335,93.3440014 228.91733,93.6799981 229.536,94.064 C230.624005,94.7466701 231.429331,95.3493307 231.952,95.872 C232.474669,96.3946693 232.736,97.0613293 232.736,97.872 C232.736,98.5546701 232.496002,99.1466642 232.016,99.648 C231.535998,100.149336 230.976003,100.4 230.336,100.4 C229.567996,100.4 228.938669,100.128003 228.448,99.584 C227.957331,99.0399973 227.573335,98.330671 227.296,97.456 L225.184,97.904 C225.610669,99.3546739 226.239996,100.45333 227.072,101.2 C227.904004,101.94667 229.045326,102.32 230.496,102.32 C231.818673,102.32 232.906662,101.882671 233.76,101.008 C234.613338,100.133329 235.04,99.0346733 235.04,97.712 C235.04,97.0293299 234.922668,96.4160027 234.688,95.872 C234.453332,95.3279973 234.149335,94.8533354 233.776,94.448 C233.402665,94.0426646 233.008002,93.6853349 232.592,93.376 C232.175998,93.0666651 231.637337,92.7093354 230.976,92.304 C229.951995,91.6853302 229.200002,91.1413357 228.72,90.672 C228.239998,90.2026643 228,89.6266701 228,88.944 C228,88.3679971 228.175998,87.8933352 228.528,87.52 C228.880002,87.1466648 229.322664,86.96 229.856,86.96 C230.709338,86.96 231.343998,87.1839978 231.76,87.632 C232.176002,88.0800022 232.501332,88.7306624 232.736,89.584 L234.656,89.008 Z M243.776,87.28 L246.016,87.28 L246.016,98.736 C246.016,99.994673 246.271997,100.906664 246.784,101.472 C247.296003,102.037336 248.106661,102.32 249.216,102.32 C249.664002,102.32 250.053332,102.293334 250.384,102.24 C250.714668,102.186666 251.050665,102.106667 251.392,102 L251.392,100.272 C251.093332,100.378667 250.832001,100.458666 250.608,100.512 C250.383999,100.565334 250.176001,100.592 249.984,100.592 C249.429331,100.592 249.013335,100.442668 248.736,100.144 C248.458665,99.8453318 248.32,99.4400026 248.32,98.928 L248.32,87.28 L251.392,87.28 L251.392,85.36 L248.32,85.36 L248.32,79.792 L246.016,79.792 L246.016,85.36 L243.776,85.36 L243.776,87.28 Z M254.72,102 L257.024,102 L257.024,89.008 C258.112005,87.6426598 259.167995,86.96 260.192,86.96 C261.408006,86.96 262.016,87.8773242 262.016,89.712 L262.016,102 L264.32,102 L264.32,89.392 C264.32,87.8986592 264.01067,86.8000035 263.392,86.096 C262.77333,85.3919965 261.866673,85.04 260.672,85.04 C260.138664,85.04 259.520004,85.2533312 258.816,85.68 C258.111996,86.1066688 257.514669,86.6079971 257.024,87.184 L257.024,78.896 L254.72,78.896 L254.72,102 Z M270.048,92.144 C270.069333,90.2666573 270.314664,88.9333373 270.784,88.144 C271.253336,87.3546627 271.935996,86.96 272.832,86.96 C273.834672,86.96 274.543998,87.359996 274.96,88.16 C275.376002,88.960004 275.594667,90.2879907 275.616,92.144 L270.048,92.144 Z M277.92,94.064 L277.92,92.976 C277.92,90.4799875 277.498671,88.5333403 276.656,87.136 C275.813329,85.7386597 274.538675,85.04 272.832,85.04 C271.082658,85.04 269.797337,85.7333264 268.976,87.12 C268.154663,88.5066736 267.744,90.6933184 267.744,93.68 C267.744,96.6666816 268.154663,98.8533264 268.976,100.24 C269.797337,101.626674 271.082658,102.32 272.832,102.32 C274.282674,102.32 275.477329,101.850671 276.416,100.912 C277.354671,99.9733286 277.919999,98.8426733 278.112,97.52 L275.936,97.264 C275.765332,98.1600045 275.461336,98.9066637 275.024,99.504 C274.586664,100.101336 273.962671,100.4 273.152,100.4 C272.042661,100.4 271.248002,100.000004 270.768,99.2 C270.287998,98.399996 270.048,96.9973434 270.048,94.992 L270.048,94.064 L277.92,94.064 Z M0.064,119.36 L4.48,135.872 C4.01066432,138.304012 2.85867584,139.52 1.024,139.52 L0.32,139.52 L0.32,141.44 L1.504,141.44 C2.84800672,141.44 3.9466624,140.944005 4.8,139.952 C5.6533376,138.959995 6.30399776,137.525343 6.752,135.648 L10.56,119.36 L8.192,119.36 L5.632,132.096 L5.568,132.096 L2.432,119.36 L0.064,119.36 Z M14.08,127.68 C14.08,126.293326 14.1333328,125.168004 14.24,124.304 C14.3466672,123.439996 14.5119989,122.762669 14.736,122.272 C14.9600011,121.781331 15.242665,121.440001 15.584,121.248 C15.925335,121.055999 16.3519974,120.96 16.864,120.96 C17.3760026,120.96 17.802665,121.055999 18.144,121.248 C18.485335,121.440001 18.7679989,121.781331 18.992,122.272 C19.2160011,122.762669 19.3813328,123.439996 19.488,124.304 C19.5946672,125.168004 19.648,126.293326 19.648,127.68 C19.648,129.04534 19.5946672,130.165329 19.488,131.04 C19.3813328,131.914671 19.2160011,132.597331 18.992,133.088 C18.7679989,133.578669 18.485335,133.919999 18.144,134.112 C17.802665,134.304001 17.3760026,134.4 16.864,134.4 C16.3519974,134.4 15.925335,134.304001 15.584,134.112 C15.242665,133.919999 14.9600011,133.578669 14.736,133.088 C14.5119989,132.597331 14.3466672,131.914671 14.24,131.04 C14.1333328,130.165329 14.08,129.04534 14.08,127.68 L14.08,127.68 Z M11.776,127.68 C11.776,130.666682 12.1866626,132.853326 13.008,134.24 C13.8293374,135.626674 15.1146579,136.32 16.864,136.32 C18.6133421,136.32 19.8986626,135.626674 20.72,134.24 C21.5413374,132.853326 21.952,130.666682 21.952,127.68 C21.952,124.693318 21.5413374,122.506674 20.72,121.12 C19.8986626,119.733326 18.6133421,119.04 16.864,119.04 C15.1146579,119.04 13.8293374,119.733326 13.008,121.12 C12.1866626,122.506674 11.776,124.693318 11.776,127.68 L11.776,127.68 Z M35.008,119.36 L32.704,119.36 L32.704,132.352 C31.6159946,133.71734 30.5600051,134.4 29.536,134.4 C28.3199939,134.4 27.712,133.482676 27.712,131.648 L27.712,119.36 L25.408,119.36 L25.408,131.968 C25.408,133.461341 25.7173302,134.559996 26.336,135.264 C26.9546698,135.968004 27.8613274,136.32 29.056,136.32 C29.589336,136.32 30.2079965,136.112002 30.912,135.696 C31.6160035,135.279998 32.2559971,134.773336 32.832,134.176 L32.832,136 L35.008,136 L35.008,119.36 Z M46.816,136 L49.12,136 L49.12,119.36 L46.816,119.36 L46.816,136 Z M46.816,115.584 L49.12,115.584 L49.12,112.896 L46.816,112.896 L46.816,115.584 Z M53.824,136 L56.128,136 L56.128,123.008 C57.2160054,121.64266 58.2719949,120.96 59.296,120.96 C60.5120061,120.96 61.12,121.877324 61.12,123.712 L61.12,136 L63.424,136 L63.424,123.392 C63.424,121.898659 63.1146698,120.800004 62.496,120.096 C61.8773302,119.391996 60.9706726,119.04 59.776,119.04 C59.2639974,119.04 58.6506702,119.247998 57.936,119.664 C57.2213298,120.080002 56.5760029,120.586664 56,121.184 L56,119.36 L53.824,119.36 L53.824,136 Z M84.736,119.36 L82.432,119.36 L82.432,132.352 C81.3439946,133.71734 80.2880051,134.4 79.264,134.4 C78.0479939,134.4 77.44,133.482676 77.44,131.648 L77.44,119.36 L75.136,119.36 L75.136,131.968 C75.136,133.461341 75.4453302,134.559996 76.064,135.264 C76.6826698,135.968004 77.5893274,136.32 78.784,136.32 C79.317336,136.32 79.9359965,136.112002 80.64,135.696 C81.3440035,135.279998 81.9839971,134.773336 82.56,134.176 L82.56,136 L84.736,136 L84.736,119.36 Z M89.344,136 L91.648,136 L91.648,123.008 C92.7360054,121.64266 93.7919949,120.96 94.816,120.96 C96.0320061,120.96 96.64,121.877324 96.64,123.712 L96.64,136 L98.944,136 L98.944,123.392 C98.944,121.898659 98.6346698,120.800004 98.016,120.096 C97.3973302,119.391996 96.4906726,119.04 95.296,119.04 C94.7839974,119.04 94.1706702,119.247998 93.456,119.664 C92.7413298,120.080002 92.0960029,120.586664 91.52,121.184 L91.52,119.36 L89.344,119.36 L89.344,136 Z M103.648,136 L105.952,136 L105.952,119.36 L103.648,119.36 L103.648,136 Z M103.648,115.584 L105.952,115.584 L105.952,112.896 L103.648,112.896 L103.648,115.584 Z M118.144,120.96 L118.08,120.96 C117.247996,119.679994 116.11734,119.04 114.688,119.04 C114.00533,119.04 113.376003,119.194665 112.8,119.504 C112.223997,119.813335 111.717336,120.30933 111.28,120.992 C110.842664,121.67467 110.501335,122.570661 110.256,123.68 C110.010665,124.789339 109.888,126.122659 109.888,127.68 C109.888,129.237341 110.010665,130.570661 110.256,131.68 C110.501335,132.789339 110.842664,133.68533 111.28,134.368 C111.717336,135.05067 112.223997,135.546665 112.8,135.856 C113.376003,136.165335 114.00533,136.32 114.688,136.32 C115.264003,136.32 115.807997,136.176001 116.32,135.888 C116.832003,135.599999 117.311998,135.232002 117.76,134.784 L117.76,141.44 L120.064,141.44 L120.064,119.36 L118.144,119.36 L118.144,120.96 Z M117.76,132.928 C117.290664,133.397336 116.869335,133.759999 116.496,134.016 C116.122665,134.272001 115.712002,134.4 115.264,134.4 C114.239995,134.4 113.472003,133.893338 112.96,132.88 C112.447997,131.866662 112.192,130.133346 112.192,127.68 C112.192,125.247988 112.458664,123.520005 112.992,122.496 C113.525336,121.471995 114.303995,120.96 115.328,120.96 C115.690668,120.96 116.101331,121.109332 116.56,121.408 C117.018669,121.706668 117.418665,122.090664 117.76,122.56 L117.76,132.928 Z M134.464,119.36 L132.16,119.36 L132.16,132.352 C131.071995,133.71734 130.016005,134.4 128.992,134.4 C127.775994,134.4 127.168,133.482676 127.168,131.648 L127.168,119.36 L124.864,119.36 L124.864,131.968 C124.864,133.461341 125.17333,134.559996 125.792,135.264 C126.41067,135.968004 127.317327,136.32 128.512,136.32 C129.045336,136.32 129.663996,136.112002 130.368,135.696 C131.072004,135.279998 131.711997,134.773336 132.288,134.176 L132.288,136 L134.464,136 L134.464,119.36 Z M140.192,126.144 C140.213333,124.266657 140.458664,122.933337 140.928,122.144 C141.397336,121.354663 142.079996,120.96 142.976,120.96 C143.978672,120.96 144.687998,121.359996 145.104,122.16 C145.520002,122.960004 145.738667,124.287991 145.76,126.144 L140.192,126.144 Z M148.064,128.064 L148.064,126.976 C148.064,124.479988 147.642671,122.53334 146.8,121.136 C145.957329,119.73866 144.682675,119.04 142.976,119.04 C141.226658,119.04 139.941337,119.733326 139.12,121.12 C138.298663,122.506674 137.888,124.693318 137.888,127.68 C137.888,130.666682 138.298663,132.853326 139.12,134.24 C139.941337,135.626674 141.226658,136.32 142.976,136.32 C144.426674,136.32 145.621329,135.850671 146.56,134.912 C147.498671,133.973329 148.063999,132.842673 148.256,131.52 L146.08,131.264 C145.909332,132.160004 145.605336,132.906664 145.168,133.504 C144.730664,134.101336 144.106671,134.4 143.296,134.4 C142.186661,134.4 141.392002,134.000004 140.912,133.2 C140.431998,132.399996 140.192,130.997343 140.192,128.992 L140.192,128.064 L148.064,128.064 Z M151.424,132.992 L151.424,136 L154.112,136 L154.112,132.992 L151.424,132.992 Z" id="A-custom-theme-puts-" fill="#4A4A4A"></path>
                    </g>
                </g>
            </g>
        </g>
    </g>
</svg>