<?xml version="1.0" encoding="UTF-8" standalone="no"?>
<svg width="312px" height="141px" viewBox="0 0 312 141" version="1.1" xmlns="http://www.w3.org/2000/svg" xmlns:xlink="http://www.w3.org/1999/xlink">
    <defs></defs>
    <g id="View-Samples" stroke="none" stroke-width="1" fill="none" fill-rule="evenodd">
        <g id="Desktop-HD" transform="translate(-1090.000000, -749.000000)">
            <g id="Theme-Serif" transform="translate(1088.932402, 695.000000)">
                <g id="theme-sample-serif" transform="translate(2.000000, 54.000000)">
                    <rect id="Swatch-1" fill="#5590BA" x="225" y="16" width="36" height="36"></rect>
                    <rect id="Swatch-2" fill="#252525" x="275" y="16" width="36" height="36"></rect>
                    <path d="M0.021484375,97.4869141 L1.55761719,97.1753906 L7.15429688,81.7173828 L8.95898438,81.7173828 L14.3085938,97.1646484 L16.0166016,97.4869141 L16.0166016,98.4 L10.3447266,98.4 L10.3447266,97.4869141 L12.1279297,97.1646484 L10.9677734,93.7056641 L4.52246094,93.7056641 L3.36230469,97.1646484 L5.15625,97.4869141 L5.15625,98.4 L0.021484375,98.4 L0.021484375,97.4869141 Z M10.5488281,92.4488281 L8.79785156,87.2066406 L7.77734375,83.9732422 L4.94140625,92.4488281 L10.5488281,92.4488281 Z M22.859375,97.4869141 L24.5996094,97.2613281 L24.5996094,88.5171875 L23.0742188,87.6792969 L23.0742188,87.0132812 L25.9101563,86.1646484 L26.4150391,86.3794922 L26.4150391,88.0337891 C26.5511075,87.8332672 26.7569973,87.6220063 27.0327148,87.4 C27.3084324,87.1779937 27.6181623,86.9756845 27.9619141,86.7930664 C28.3056658,86.6104483 28.6637351,86.4600592 29.0361328,86.3418945 C29.4085305,86.2237299 29.7594385,86.1646484 30.0888672,86.1646484 C30.3251965,86.1646484 30.5382477,86.1700195 30.7280273,86.1807617 C30.9178069,86.191504 31.0520829,86.2111978 31.1308594,86.2398437 L31.1308594,88.4419922 C31.0162755,88.3990232 30.8981126,88.3542646 30.7763672,88.3077148 C30.6546218,88.2611651 30.5203458,88.2217775 30.3735352,88.1895508 C30.2267245,88.1573241 30.0602223,88.1304689 29.8740234,88.1089844 C29.6878246,88.0874999 29.472983,88.0767578 29.2294922,88.0767578 C28.6494112,88.0767578 28.1624369,88.150162 27.7685547,88.2969727 C27.3746725,88.4437833 27.0130225,88.6210276 26.6835938,88.8287109 L26.6835938,97.2291016 L29.7451172,97.4869141 L29.7451172,98.4 L22.859375,98.4 L22.859375,97.4869141 Z M32.6455078,92.4273437 C32.6455078,91.5106725 32.7905259,90.6656289 33.0805664,89.8921875 C33.3706069,89.1187461 33.7752253,88.4491565 34.2944336,87.8833984 C34.8136419,87.3176404 35.4384729,86.8718441 36.1689453,86.5459961 C36.8994177,86.2201481 37.7050737,86.0464845 38.5859375,86.025 C39.216149,86.010677 39.7854792,86.1019847 40.2939453,86.2989258 C40.8024114,86.4958669 41.2356753,86.7876934 41.59375,87.1744141 C41.9518247,87.5611347 42.2329091,88.0337863 42.4370117,88.5923828 C42.6411143,89.1509794 42.7574868,89.7847621 42.7861328,90.49375 C42.8004558,90.9449241 42.7915041,91.3352197 42.7592773,91.6646484 C42.7270506,91.9940772 42.693034,92.287694 42.6572266,92.5455078 L34.6972656,92.5455078 L34.6972656,92.669043 C34.6972656,92.7084312 34.7008463,92.7496092 34.7080078,92.7925781 C34.7366538,93.6591189 34.8834622,94.3752576 35.1484375,94.9410156 C35.4134128,95.5067737 35.7446269,95.9561507 36.1420898,96.2891602 C36.5395528,96.6221696 36.9781877,96.8549147 37.4580078,96.9874023 C37.9378279,97.11989 38.4068987,97.1861328 38.8652344,97.1861328 C39.1445326,97.1861328 39.4381495,97.1700197 39.7460938,97.137793 C40.054038,97.1055662 40.3530259,97.0590172 40.6430664,96.9981445 C40.9331069,96.9372718 41.2016589,96.8674483 41.4487305,96.7886719 C41.695802,96.7098954 41.8945305,96.6275395 42.0449219,96.5416016 L42.4423828,97.4546875 C42.2346995,97.6408863 41.9643571,97.8091789 41.6313477,97.9595703 C41.2983382,98.1099617 40.9348978,98.2370763 40.5410156,98.340918 C40.1471334,98.4447596 39.7353537,98.5235349 39.3056641,98.5772461 C38.8759744,98.6309573 38.4570333,98.6578125 38.0488281,98.6578125 C37.1822873,98.6578125 36.4142286,98.5092137 35.7446289,98.2120117 C35.0750292,97.9148097 34.51107,97.4958686 34.0527344,96.9551758 C33.5943987,96.414483 33.2452811,95.7610064 33.0053711,94.9947266 C32.765461,94.2284467 32.6455078,93.372661 32.6455078,92.4273437 L32.6455078,92.4273437 Z M40.5947266,91.2779297 C40.616211,90.9126935 40.6215821,90.5456724 40.6108398,90.1768555 C40.6000976,89.8080385 40.5553389,89.4571306 40.4765625,89.1241211 C40.3977861,88.7911116 40.2778328,88.4867527 40.1166992,88.2110352 C39.9555656,87.9353176 39.7389337,87.7115243 39.4667969,87.5396484 C39.280598,87.417903 39.0693371,87.3265954 38.8330078,87.2657227 C38.5966785,87.20485 38.3281265,87.1744141 38.0273438,87.1744141 C37.6263001,87.1744141 37.2377948,87.2496086 36.8618164,87.4 C36.485838,87.5503914 36.1492528,87.7902978 35.8520508,88.1197266 C35.5548488,88.4491553 35.3059906,88.8734675 35.1054688,89.3926758 C34.9049469,89.9118841 34.776042,90.5402958 34.71875,91.2779297 L40.5947266,91.2779297 Z M45.0527344,97.4869141 L47.2119141,97.2505859 L47.2119141,87.8296875 L44.8486328,87.8296875 L44.8486328,87.0132812 L47.2119141,86.3794922 L47.2119141,85.4878906 C47.2119141,84.9579401 47.2781569,84.4584333 47.4106445,83.9893555 C47.5431322,83.5202776 47.7221668,83.0923847 47.9477539,82.7056641 C48.173341,82.3189434 48.4347316,81.9734065 48.7319336,81.669043 C49.0291356,81.3646795 49.3406559,81.1086599 49.6665039,80.9009766 C49.9923519,80.6932932 50.323566,80.5339524 50.6601562,80.4229492 C50.9967465,80.3119461 51.3154282,80.2564453 51.6162109,80.2564453 C52.1031925,80.2564453 52.4612619,80.2779295 52.6904297,80.3208984 C52.9195975,80.3638674 53.0735673,80.403255 53.1523438,80.4390625 L53.1523438,82.2652344 C53.0520828,82.2079424 52.8282895,82.1381189 52.480957,82.0557617 C52.1336246,81.9734045 51.702151,81.9322266 51.1865234,81.9322266 C50.8929022,81.9322266 50.6297212,81.9572914 50.3969727,82.0074219 C50.1642241,82.0575523 49.9637053,82.1739249 49.7954102,82.356543 C49.627115,82.5391611 49.4982101,82.8077131 49.4086914,83.162207 C49.3191727,83.516701 49.2744141,83.9983042 49.2744141,84.6070312 L49.2744141,86.3794922 L52.5185547,86.3794922 L52.5185547,87.8296875 L49.2744141,87.8296875 L49.2744141,97.2720703 L51.7451172,97.4869141 L51.7451172,98.4 L45.0527344,98.4 L45.0527344,97.4869141 Z M56.4394531,83.6294922 C56.2675773,83.6294922 56.0992847,83.5990563 55.9345703,83.5381836 C55.7698559,83.4773109 55.6248379,83.3913743 55.4995117,83.2803711 C55.3741856,83.1693679 55.2739262,83.0315112 55.1987305,82.8667969 C55.1235348,82.7020825 55.0859375,82.5158865 55.0859375,82.3082031 C55.0859375,82.0861968 55.1342769,81.8785166 55.230957,81.6851562 C55.3276372,81.4917959 55.4511711,81.3252937 55.6015625,81.1856445 C55.7519539,81.0459954 55.9220368,80.9367842 56.1118164,80.8580078 C56.301596,80.7792314 56.4931631,80.7398437 56.6865234,80.7398437 C57.1591821,80.7398437 57.504719,80.8705391 57.7231445,81.1319336 C57.9415701,81.3933281 58.0507812,81.7066388 58.0507812,82.071875 C58.0507812,82.3082043 58.0042322,82.5230459 57.9111328,82.7164062 C57.8180334,82.9097666 57.6962898,83.0726881 57.5458984,83.2051758 C57.3955071,83.3376634 57.2236338,83.4415035 57.0302734,83.5166992 C56.8369131,83.5918949 56.639975,83.6294922 56.4394531,83.6294922 L56.4394531,83.6294922 Z M54.0654297,97.4869141 L55.8916016,97.2613281 L55.8916016,88.4634766 L54.4091797,87.6792969 L54.4091797,87.0132812 L57.3847656,86.1646484 L57.8681641,86.3794922 L57.8681641,97.2613281 L59.6083984,97.4869141 L59.6083984,98.4 L54.0654297,98.4 L54.0654297,97.4869141 Z M61.6816406,97.4869141 L63.1425781,97.2720703 L63.1425781,88.5171875 L61.6171875,87.6792969 L61.6171875,87.0132812 L64.4746094,86.1646484 L64.9580078,86.3794922 L64.9580078,87.915625 C65.2014986,87.7079417 65.4951155,87.5020518 65.8388672,87.2979492 C66.1826189,87.0938466 66.5478496,86.9094409 66.9345703,86.7447266 C67.321291,86.5800122 67.718748,86.4457362 68.1269531,86.3418945 C68.5351583,86.2380529 68.9218732,86.1789714 69.2871094,86.1646484 C69.9531283,86.143164 70.5117165,86.2237296 70.9628906,86.4063477 C71.4140648,86.5889658 71.7792955,86.8861633 72.0585938,87.2979492 C72.337892,87.7097351 72.5384108,88.2378874 72.6601562,88.8824219 C72.7819017,89.5269563 72.8427734,90.3003861 72.8427734,91.2027344 L72.8427734,97.2720703 L74.5722656,97.4869141 L74.5722656,98.4 L69.1582031,98.4 L69.1582031,97.4869141 L70.7802734,97.2613281 L70.7802734,91.5787109 C70.7802734,90.927015 70.7480472,90.354104 70.6835938,89.8599609 C70.6191403,89.3658178 70.4920257,88.9576188 70.3022461,88.6353516 C70.1124665,88.3130843 69.8492855,88.0767586 69.5126953,87.9263672 C69.1761051,87.7759758 68.7356798,87.7115233 68.1914062,87.7330078 C67.7473936,87.7544923 67.2783228,87.8529614 66.7841797,88.028418 C66.2900366,88.2038746 65.7708361,88.4777976 65.2265625,88.8501953 L65.2265625,97.2613281 L66.8271484,97.4869141 L66.8271484,98.4 L61.6816406,98.4 L61.6816406,97.4869141 Z M76.2695312,92.4273437 C76.2695312,91.5106725 76.4145493,90.6656289 76.7045898,89.8921875 C76.9946304,89.1187461 77.3992487,88.4491565 77.918457,87.8833984 C78.4376654,87.3176404 79.0624963,86.8718441 79.7929688,86.5459961 C80.5234412,86.2201481 81.3290972,86.0464845 82.2099609,86.025 C82.8401724,86.010677 83.4095027,86.1019847 83.9179688,86.2989258 C84.4264348,86.4958669 84.8596987,86.7876934 85.2177734,87.1744141 C85.5758481,87.5611347 85.8569326,88.0337863 86.0610352,88.5923828 C86.2651377,89.1509794 86.3815103,89.7847621 86.4101562,90.49375 C86.4244792,90.9449241 86.4155275,91.3352197 86.3833008,91.6646484 C86.3510741,91.9940772 86.3170575,92.287694 86.28125,92.5455078 L78.3212891,92.5455078 L78.3212891,92.669043 C78.3212891,92.7084312 78.3248698,92.7496092 78.3320312,92.7925781 C78.3606772,93.6591189 78.5074857,94.3752576 78.7724609,94.9410156 C79.0374362,95.5067737 79.3686504,95.9561507 79.7661133,96.2891602 C80.1635762,96.6221696 80.6022111,96.8549147 81.0820312,96.9874023 C81.5618514,97.11989 82.0309222,97.1861328 82.4892578,97.1861328 C82.7685561,97.1861328 83.0621729,97.1700197 83.3701172,97.137793 C83.6780614,97.1055662 83.9770493,97.0590172 84.2670898,96.9981445 C84.5571304,96.9372718 84.8256824,96.8674483 85.0727539,96.7886719 C85.3198255,96.7098954 85.5185539,96.6275395 85.6689453,96.5416016 L86.0664062,97.4546875 C85.8587229,97.6408863 85.5883806,97.8091789 85.2553711,97.9595703 C84.9223616,98.1099617 84.5589212,98.2370763 84.1650391,98.340918 C83.7711569,98.4447596 83.3593771,98.5235349 82.9296875,98.5772461 C82.4999979,98.6309573 82.0810567,98.6578125 81.6728516,98.6578125 C80.8063108,98.6578125 80.038252,98.5092137 79.3686523,98.2120117 C78.6990526,97.9148097 78.1350934,97.4958686 77.6767578,96.9551758 C77.2184222,96.414483 76.8693046,95.7610064 76.6293945,94.9947266 C76.3894845,94.2284467 76.2695312,93.372661 76.2695312,92.4273437 L76.2695312,92.4273437 Z M84.21875,91.2779297 C84.2402345,90.9126935 84.2456055,90.5456724 84.2348633,90.1768555 C84.224121,89.8080385 84.1793624,89.4571306 84.1005859,89.1241211 C84.0218095,88.7911116 83.9018563,88.4867527 83.7407227,88.2110352 C83.579589,87.9353176 83.3629571,87.7115243 83.0908203,87.5396484 C82.9046215,87.417903 82.6933606,87.3265954 82.4570312,87.2657227 C82.2207019,87.20485 81.9521499,87.1744141 81.6513672,87.1744141 C81.2503235,87.1744141 80.8618183,87.2496086 80.4858398,87.4 C80.1098614,87.5503914 79.7732762,87.7902978 79.4760742,88.1197266 C79.1788722,88.4491553 78.930014,88.8734675 78.7294922,89.3926758 C78.5289704,89.9118841 78.4000654,90.5402958 78.3427734,91.2779297 L84.21875,91.2779297 Z M93.2636719,98.6578125 C92.6621064,98.6578125 92.0784533,98.5378593 91.5126953,98.2979492 C90.9469373,98.0580392 90.4474306,97.6892277 90.0141602,97.1915039 C89.5808898,96.6937801 89.2317722,96.063578 88.9667969,95.3008789 C88.7018216,94.5381798 88.5693359,93.6340547 88.5693359,92.5884766 C88.5693359,91.6288363 88.7304671,90.7461954 89.0527344,89.9405273 C89.3750016,89.1348593 89.8154269,88.4419951 90.3740234,87.8619141 C90.93262,87.281833 91.5896772,86.8288753 92.3452148,86.5030273 C93.1007525,86.1771794 93.9117795,86.0142578 94.7783203,86.0142578 C95.1578795,86.0142578 95.5266909,86.0393227 95.8847656,86.0894531 C96.2428403,86.1395836 96.55078,86.2076168 96.8085938,86.2935547 L96.8085938,82.7164062 L94.5205078,82.3296875 L94.5205078,81.3951172 L98.3876953,80.9439453 L98.8710938,81.1910156 L98.8710938,97.4869141 L100.321289,97.4869141 L100.321289,98.2925781 C100.199544,98.3570316 100.047364,98.4179034 99.8647461,98.4751953 C99.682128,98.5324873 99.4887706,98.582617 99.284668,98.6255859 C99.0805654,98.6685549 98.8728852,98.7007811 98.6616211,98.7222656 C98.450357,98.7437501 98.2516285,98.7544922 98.0654297,98.7544922 C97.9365228,98.7544922 97.8022468,98.7455405 97.6625977,98.7276367 C97.5229485,98.709733 97.3958339,98.6649743 97.28125,98.5933594 C97.1666661,98.5217444 97.0717777,98.4107429 96.996582,98.2603516 C96.9213863,98.1099602 96.8837891,97.90228 96.8837891,97.6373047 L96.8837891,97.36875 C96.7763667,97.4904954 96.6188161,97.6265617 96.4111328,97.7769531 C96.2034495,97.9273445 95.9456396,98.0669915 95.6376953,98.1958984 C95.3297511,98.3248053 94.9770528,98.4340165 94.5795898,98.5235352 C94.1821269,98.6130538 93.743492,98.6578125 93.2636719,98.6578125 L93.2636719,98.6578125 Z M94.0908203,97.1861328 C94.3199881,97.1861328 94.5330394,97.1736004 94.7299805,97.1485352 C94.9269216,97.1234699 95.1113273,97.0894533 95.2832031,97.0464844 C95.6341163,96.9605464 95.9348946,96.8459643 96.1855469,96.7027344 C96.4361992,96.5595045 96.6438794,96.4055347 96.8085938,96.2408203 L96.8085938,88.0230469 C96.7298173,87.9299475 96.6331386,87.8332687 96.5185547,87.7330078 C96.4039708,87.6327469 96.255372,87.5396489 96.0727539,87.4537109 C95.8901358,87.367773 95.6717135,87.2979495 95.4174805,87.2442383 C95.1632474,87.1905271 94.8642595,87.1636719 94.5205078,87.1636719 C94.248371,87.1636719 93.9654963,87.1976885 93.671875,87.2657227 C93.3782537,87.3337569 93.0882176,87.4465487 92.8017578,87.6041016 C92.515298,87.7616544 92.2431654,87.965754 91.9853516,88.2164062 C91.7275378,88.4670585 91.4983734,88.7732078 91.2978516,89.1348633 C91.0973297,89.4965187 90.9361985,89.9190406 90.8144531,90.4024414 C90.6927077,90.8858423 90.6282552,91.4390594 90.6210938,92.0621094 C90.6067708,92.9429732 90.6962881,93.7056608 90.8896484,94.3501953 C91.0830088,94.9947298 91.342609,95.5264627 91.668457,95.9454102 C91.994305,96.3643576 92.3684875,96.6758779 92.7910156,96.8799805 C93.2135438,97.0840831 93.6468077,97.1861328 94.0908203,97.1861328 L94.0908203,97.1861328 Z M108.012695,94.9410156 C108.062826,94.439711 108.223957,94.0010761 108.496094,93.6250977 C108.768231,93.2491192 109.104816,92.9250665 109.505859,92.6529297 C109.906903,92.3807929 110.352699,92.1552092 110.843262,91.9761719 C111.333824,91.7971345 111.826169,91.6539068 112.320312,91.5464844 C112.814456,91.439062 113.290688,91.3638674 113.749023,91.3208984 C114.207359,91.2779295 114.604816,91.2564453 114.941406,91.2564453 L114.941406,90.321875 C114.941406,89.756117 114.866212,89.2959979 114.71582,88.9415039 C114.565429,88.5870099 114.357749,88.3095062 114.092773,88.1089844 C113.827798,87.9084625 113.516278,87.7723962 113.158203,87.7007812 C112.800128,87.6291663 112.413414,87.5933594 111.998047,87.5933594 C111.790364,87.5933594 111.557618,87.6130532 111.299805,87.6524414 C111.041991,87.6918296 110.775229,87.7473304 110.499512,87.8189453 C110.223794,87.8905603 109.94629,87.9764969 109.666992,88.0767578 C109.387694,88.1770187 109.122723,88.2880202 108.87207,88.4097656 L108.474609,87.4429687 C108.739585,87.2281239 109.063637,87.0401375 109.446777,86.8790039 C109.829917,86.7178703 110.223794,86.5835943 110.628418,86.4761719 C111.033042,86.3687495 111.426919,86.2899742 111.810059,86.2398437 C112.193199,86.1897133 112.520832,86.1646484 112.792969,86.1646484 C113.358727,86.1646484 113.897621,86.2237299 114.409668,86.3418945 C114.921715,86.4600592 115.371092,86.6677394 115.757812,86.9649414 C116.144533,87.2621434 116.450682,87.6631811 116.67627,88.1680664 C116.901857,88.6729517 117.014648,89.3156862 117.014648,90.0962891 L116.993164,97.4869141 L118.368164,97.4869141 L118.368164,98.1958984 C118.117512,98.3319668 117.807782,98.4429683 117.438965,98.5289062 C117.070148,98.6148442 116.699546,98.6578125 116.327148,98.6578125 C116.198242,98.6578125 116.058595,98.6488608 115.908203,98.630957 C115.757812,98.6130533 115.619955,98.5682946 115.494629,98.4966797 C115.369303,98.4250647 115.265463,98.3140633 115.183105,98.1636719 C115.100748,98.0132805 115.05957,97.8056003 115.05957,97.540625 L115.05957,97.2398437 C114.894856,97.4403656 114.699708,97.6265616 114.474121,97.7984375 C114.248534,97.9703134 113.990724,98.1207025 113.700684,98.2496094 C113.410643,98.3785163 113.081219,98.4787757 112.712402,98.5503906 C112.343585,98.6220056 111.933596,98.6578125 111.482422,98.6578125 C110.923825,98.6578125 110.417157,98.5575531 109.962402,98.3570312 C109.507647,98.1565094 109.128094,97.8861671 108.82373,97.5459961 C108.519367,97.2058251 108.293783,96.8119489 108.146973,96.3643555 C108.000162,95.9167621 107.955403,95.4423202 108.012695,94.9410156 L108.012695,94.9410156 Z M110.09668,94.9839844 C110.09668,95.4065125 110.153971,95.7645819 110.268555,96.0582031 C110.383139,96.3518244 110.549641,96.5899405 110.768066,96.7725586 C110.986492,96.9551767 111.253254,97.0876623 111.568359,97.1700195 C111.883465,97.2523767 112.237954,97.2935547 112.631836,97.2935547 C112.846681,97.2935547 113.065103,97.2649091 113.287109,97.2076172 C113.509116,97.1503252 113.722167,97.0787114 113.92627,96.9927734 C114.130372,96.9068355 114.320149,96.8083664 114.495605,96.6973633 C114.671062,96.5863601 114.812499,96.477149 114.919922,96.3697266 C114.919922,95.6965461 114.921712,95.0287468 114.925293,94.3663086 C114.928874,93.7038704 114.934245,93.0360711 114.941406,92.3628906 C114.640623,92.3628906 114.3112,92.3790037 113.953125,92.4112305 C113.59505,92.4434572 113.236981,92.4989579 112.878906,92.5777344 C112.520832,92.6565108 112.173504,92.7603509 111.836914,92.8892578 C111.500324,93.0181647 111.203126,93.1810863 110.945312,93.3780273 C110.687499,93.5749684 110.481609,93.8059232 110.327637,94.0708984 C110.173665,94.3358737 110.09668,94.6402327 110.09668,94.9839844 L110.09668,94.9839844 Z M120.527344,97.4869141 L121.988281,97.2720703 L121.988281,88.5171875 L120.462891,87.6792969 L120.462891,87.0132812 L123.320312,86.1646484 L123.803711,86.3794922 L123.803711,87.915625 C124.047202,87.7079417 124.340819,87.5020518 124.68457,87.2979492 C125.028322,87.0938466 125.393553,86.9094409 125.780273,86.7447266 C126.166994,86.5800122 126.564451,86.4457362 126.972656,86.3418945 C127.380861,86.2380529 127.767576,86.1789714 128.132812,86.1646484 C128.798831,86.143164 129.35742,86.2237296 129.808594,86.4063477 C130.259768,86.5889658 130.624999,86.8861633 130.904297,87.2979492 C131.183595,87.7097351 131.384114,88.2378874 131.505859,88.8824219 C131.627605,89.5269563 131.688477,90.3003861 131.688477,91.2027344 L131.688477,97.2720703 L133.417969,97.4869141 L133.417969,98.4 L128.003906,98.4 L128.003906,97.4869141 L129.625977,97.2613281 L129.625977,91.5787109 C129.625977,90.927015 129.59375,90.354104 129.529297,89.8599609 C129.464843,89.3658178 129.337729,88.9576188 129.147949,88.6353516 C128.95817,88.3130843 128.694989,88.0767586 128.358398,87.9263672 C128.021808,87.7759758 127.581383,87.7115233 127.037109,87.7330078 C126.593097,87.7544923 126.124026,87.8529614 125.629883,88.028418 C125.13574,88.2038746 124.616539,88.4777976 124.072266,88.8501953 L124.072266,97.2613281 L125.672852,97.4869141 L125.672852,98.4 L120.527344,98.4 L120.527344,97.4869141 Z M139.80957,98.6578125 C139.208005,98.6578125 138.624352,98.5378593 138.058594,98.2979492 C137.492836,98.0580392 136.993329,97.6892277 136.560059,97.1915039 C136.126788,96.6937801 135.777671,96.063578 135.512695,95.3008789 C135.24772,94.5381798 135.115234,93.6340547 135.115234,92.5884766 C135.115234,91.6288363 135.276366,90.7461954 135.598633,89.9405273 C135.9209,89.1348593 136.361325,88.4419951 136.919922,87.8619141 C137.478518,87.281833 138.135576,86.8288753 138.891113,86.5030273 C139.646651,86.1771794 140.457678,86.0142578 141.324219,86.0142578 C141.703778,86.0142578 142.072589,86.0393227 142.430664,86.0894531 C142.788739,86.1395836 143.096678,86.2076168 143.354492,86.2935547 L143.354492,82.7164062 L141.066406,82.3296875 L141.066406,81.3951172 L144.933594,80.9439453 L145.416992,81.1910156 L145.416992,97.4869141 L146.867188,97.4869141 L146.867188,98.2925781 C146.745442,98.3570316 146.593263,98.4179034 146.410645,98.4751953 C146.228026,98.5324873 146.034669,98.582617 145.830566,98.6255859 C145.626464,98.6685549 145.418784,98.7007811 145.20752,98.7222656 C144.996255,98.7437501 144.797527,98.7544922 144.611328,98.7544922 C144.482421,98.7544922 144.348145,98.7455405 144.208496,98.7276367 C144.068847,98.709733 143.941732,98.6649743 143.827148,98.5933594 C143.712565,98.5217444 143.617676,98.4107429 143.54248,98.2603516 C143.467285,98.1099602 143.429688,97.90228 143.429688,97.6373047 L143.429688,97.36875 C143.322265,97.4904954 143.164715,97.6265617 142.957031,97.7769531 C142.749348,97.9273445 142.491538,98.0669915 142.183594,98.1958984 C141.87565,98.3248053 141.522951,98.4340165 141.125488,98.5235352 C140.728025,98.6130538 140.28939,98.6578125 139.80957,98.6578125 L139.80957,98.6578125 Z M140.636719,97.1861328 C140.865887,97.1861328 141.078938,97.1736004 141.275879,97.1485352 C141.47282,97.1234699 141.657226,97.0894533 141.829102,97.0464844 C142.180015,96.9605464 142.480793,96.8459643 142.731445,96.7027344 C142.982098,96.5595045 143.189778,96.4055347 143.354492,96.2408203 L143.354492,88.0230469 C143.275716,87.9299475 143.179037,87.8332687 143.064453,87.7330078 C142.949869,87.6327469 142.80127,87.5396489 142.618652,87.4537109 C142.436034,87.367773 142.217612,87.2979495 141.963379,87.2442383 C141.709146,87.1905271 141.410158,87.1636719 141.066406,87.1636719 C140.794269,87.1636719 140.511395,87.1976885 140.217773,87.2657227 C139.924152,87.3337569 139.634116,87.4465487 139.347656,87.6041016 C139.061196,87.7616544 138.789064,87.965754 138.53125,88.2164062 C138.273436,88.4670585 138.044272,88.7732078 137.84375,89.1348633 C137.643228,89.4965187 137.482097,89.9190406 137.360352,90.4024414 C137.238606,90.8858423 137.174154,91.4390594 137.166992,92.0621094 C137.152669,92.9429732 137.242187,93.7056608 137.435547,94.3501953 C137.628907,94.9947298 137.888507,95.5264627 138.214355,95.9454102 C138.540203,96.3643576 138.914386,96.6758779 139.336914,96.8799805 C139.759442,97.0840831 140.192706,97.1861328 140.636719,97.1861328 L140.636719,97.1861328 Z M154.418945,92.6207031 C154.411784,91.6324169 154.558592,90.7408243 154.859375,89.9458984 C155.160158,89.1509726 155.573728,88.4706408 156.100098,87.9048828 C156.626467,87.3391248 157.245927,86.8986995 157.958496,86.5835937 C158.671065,86.268488 159.439123,86.093034 160.262695,86.0572266 C160.563478,86.0500651 160.869627,86.0554361 161.181152,86.0733398 C161.492677,86.0912436 161.786294,86.1234698 162.062012,86.1700195 C162.337729,86.2165692 162.590168,86.2756507 162.819336,86.3472656 C163.048504,86.4188806 163.2347,86.5012365 163.37793,86.5943359 L163.37793,89.1724609 L162.357422,89.1724609 L161.80957,87.8189453 C161.694986,87.7258459 161.562501,87.6470706 161.412109,87.5826172 C161.261718,87.5181637 161.107748,87.4644533 160.950195,87.4214844 C160.792642,87.3785154 160.635092,87.3480795 160.477539,87.3301758 C160.319986,87.312272 160.176758,87.3033203 160.047852,87.3033203 C159.568031,87.3033203 159.109703,87.3928376 158.672852,87.571875 C158.236,87.7509124 157.849286,88.0212547 157.512695,88.3829102 C157.176105,88.7445656 156.907553,89.1993137 156.707031,89.747168 C156.506509,90.2950223 156.402669,90.9377567 156.395508,91.6753906 C156.388346,92.6493538 156.502929,93.4836554 156.739258,94.1783203 C156.975587,94.8729852 157.283527,95.4405251 157.663086,95.880957 C158.042645,96.3213889 158.465167,96.6436513 158.930664,96.8477539 C159.396161,97.0518565 159.85449,97.1539062 160.305664,97.1539062 C160.584962,97.1539062 160.874998,97.1360028 161.175781,97.1001953 C161.476564,97.0643878 161.7666,97.0178388 162.045898,96.9605469 C162.325197,96.9032549 162.583007,96.8334314 162.819336,96.7510742 C163.055665,96.668717 163.249023,96.5845707 163.399414,96.4986328 L163.764648,97.4546875 C163.556965,97.6408863 163.299155,97.8055982 162.991211,97.9488281 C162.683267,98.092058 162.344891,98.2138016 161.976074,98.3140625 C161.607257,98.4143234 161.220542,98.4913083 160.815918,98.5450195 C160.411294,98.5987307 160.004885,98.6255859 159.59668,98.6255859 C158.765946,98.6255859 158.031904,98.4751968 157.394531,98.1744141 C156.757158,97.8736313 156.218264,97.4546902 155.777832,96.9175781 C155.3374,96.3804661 155.002605,95.744893 154.773437,95.0108398 C154.54427,94.2767867 154.426107,93.4800824 154.418945,92.6207031 L154.418945,92.6207031 Z M165.623047,92.1480469 C165.63737,91.1884067 165.803872,90.3308306 166.122559,89.575293 C166.441245,88.8197553 166.861977,88.1806016 167.384766,87.6578125 C167.907555,87.1350234 168.510902,86.7339858 169.194824,86.4546875 C169.878747,86.1753892 170.593095,86.0321615 171.337891,86.025 C172.2474,86.0178385 173.038734,86.175389 173.711914,86.4976562 C174.385095,86.8199235 174.941892,87.2621391 175.382324,87.8243164 C175.822756,88.3864937 176.15039,89.0471316 176.365234,89.80625 C176.580079,90.5653684 176.683919,91.3781858 176.676758,92.2447266 C176.669596,93.1972053 176.517417,94.0673138 176.220215,94.8550781 C175.923013,95.6428425 175.521975,96.3178032 175.01709,96.8799805 C174.512205,97.4421578 173.92139,97.8790023 173.244629,98.1905273 C172.567868,98.5020523 171.842777,98.6578125 171.069336,98.6578125 C170.08105,98.6578125 169.239587,98.4787778 168.544922,98.1207031 C167.850257,97.7626284 167.284507,97.2828155 166.847656,96.68125 C166.410805,96.0796845 166.093914,95.3868203 165.896973,94.6026367 C165.700032,93.8184531 165.608724,93.0002647 165.623047,92.1480469 L165.623047,92.1480469 Z M171.166016,97.4546875 C171.774743,97.4690105 172.288572,97.3651704 172.70752,97.1431641 C173.126467,96.9211577 173.466633,96.5935243 173.728027,96.1602539 C173.989422,95.7269835 174.179199,95.1898795 174.297363,94.5489258 C174.415528,93.9079721 174.474609,93.1721396 174.474609,92.3414062 C174.474609,91.6180953 174.411947,90.9431346 174.286621,90.3165039 C174.161295,89.6898732 173.964357,89.1438174 173.695801,88.6783203 C173.427245,88.2128232 173.087079,87.8458021 172.675293,87.5772461 C172.263507,87.3086901 171.774742,87.1672527 171.208984,87.1529297 C170.600257,87.1457682 170.082847,87.2513986 169.656738,87.4698242 C169.230629,87.6882498 168.881512,88.0087218 168.609375,88.43125 C168.337238,88.8537782 168.13851,89.369398 168.013184,89.978125 C167.887857,90.586852 167.825195,91.2779258 167.825195,92.0513672 C167.825195,92.7460321 167.893228,93.4156218 168.029297,94.0601562 C168.165365,94.7046907 168.369465,95.2758113 168.641602,95.7735352 C168.913738,96.271259 169.259275,96.6722967 169.678223,96.9766602 C170.09717,97.2810237 170.593096,97.4403645 171.166016,97.4546875 L171.166016,97.4546875 Z M179.222656,97.4869141 L180.683594,97.2720703 L180.683594,88.5171875 L179.158203,87.6792969 L179.158203,87.0132812 L182.015625,86.1646484 L182.499023,86.3794922 L182.499023,87.915625 C182.742514,87.7079417 183.036131,87.5020518 183.379883,87.2979492 C183.723635,87.0938466 184.088865,86.9094409 184.475586,86.7447266 C184.862307,86.5800122 185.259764,86.4457362 185.667969,86.3418945 C186.076174,86.2380529 186.462889,86.1789714 186.828125,86.1646484 C187.494144,86.143164 188.052732,86.2237296 188.503906,86.4063477 C188.95508,86.5889658 189.320311,86.8861633 189.599609,87.2979492 C189.878908,87.7097351 190.079426,88.2378874 190.201172,88.8824219 C190.322917,89.5269563 190.383789,90.3003861 190.383789,91.2027344 L190.383789,97.2720703 L192.113281,97.4869141 L192.113281,98.4 L186.699219,98.4 L186.699219,97.4869141 L188.321289,97.2613281 L188.321289,91.5787109 C188.321289,90.927015 188.289063,90.354104 188.224609,89.8599609 C188.160156,89.3658178 188.033041,88.9576188 187.843262,88.6353516 C187.653482,88.3130843 187.390301,88.0767586 187.053711,87.9263672 C186.717121,87.7759758 186.276695,87.7115233 185.732422,87.7330078 C185.288409,87.7544923 184.819338,87.8529614 184.325195,88.028418 C183.831052,88.2038746 183.311852,88.4777976 182.767578,88.8501953 L182.767578,97.2613281 L184.368164,97.4869141 L184.368164,98.4 L179.222656,98.4 L179.222656,97.4869141 Z M195.572266,95.5855469 C195.572266,94.267832 195.574056,92.9590885 195.577637,91.6592773 C195.581217,90.3594662 195.583008,89.0507227 195.583008,87.7330078 L193.939453,87.7330078 L193.939453,86.9273437 C194.254559,86.8485673 194.51774,86.7859052 194.729004,86.7393555 C194.940268,86.6928058 195.115722,86.6390954 195.255371,86.5782227 C195.39502,86.51735 195.511393,86.440365 195.604492,86.3472656 C195.697592,86.2541662 195.783528,86.1180999 195.862305,85.9390625 C195.912435,85.8173171 195.975097,85.6382824 196.050293,85.4019531 C196.125489,85.1656238 196.197103,84.923927 196.265137,84.6768555 C196.333171,84.4297839 196.392252,84.1970389 196.442383,83.9786133 C196.492513,83.7601877 196.52474,83.6044275 196.539062,83.5113281 L197.602539,83.5113281 L197.602539,86.3794922 L201.211914,86.3794922 L201.211914,87.7330078 L197.602539,87.7330078 L197.602539,93.1470703 C197.602539,93.9778036 197.613281,94.6527643 197.634766,95.1719727 C197.65625,95.691181 197.709961,96.0975897 197.795898,96.3912109 C197.881836,96.6848322 198.007161,96.8835607 198.171875,96.9874023 C198.336589,97.091244 198.565754,97.1431641 198.859375,97.1431641 C199.038412,97.1431641 199.237141,97.1252606 199.455566,97.0894531 C199.673992,97.0536457 199.885253,97.0106773 200.089355,96.9605469 C200.293458,96.9104164 200.481444,96.8549157 200.65332,96.794043 C200.825196,96.7331703 200.954101,96.6740888 201.040039,96.6167969 L201.373047,97.5621094 C201.208333,97.7411467 200.98991,97.8986972 200.717773,98.0347656 C200.445637,98.170834 200.150229,98.2854162 199.831543,98.3785156 C199.512856,98.471615 199.194175,98.5414386 198.875488,98.5879883 C198.556802,98.634538 198.275717,98.6578125 198.032227,98.6578125 C197.251624,98.6578125 196.646487,98.417906 196.216797,97.9380859 C195.787107,97.4582658 195.572266,96.674094 195.572266,95.5855469 L195.572266,95.5855469 Z M203.070312,92.4273437 C203.070312,91.5106725 203.215331,90.6656289 203.505371,89.8921875 C203.795412,89.1187461 204.20003,88.4491565 204.719238,87.8833984 C205.238447,87.3176404 205.863278,86.8718441 206.59375,86.5459961 C207.324222,86.2201481 208.129878,86.0464845 209.010742,86.025 C209.640954,86.010677 210.210284,86.1019847 210.71875,86.2989258 C211.227216,86.4958669 211.66048,86.7876934 212.018555,87.1744141 C212.376629,87.5611347 212.657714,88.0337863 212.861816,88.5923828 C213.065919,89.1509794 213.182292,89.7847621 213.210938,90.49375 C213.22526,90.9449241 213.216309,91.3352197 213.184082,91.6646484 C213.151855,91.9940772 213.117839,92.287694 213.082031,92.5455078 L205.12207,92.5455078 L205.12207,92.669043 C205.12207,92.7084312 205.125651,92.7496092 205.132812,92.7925781 C205.161458,93.6591189 205.308267,94.3752576 205.573242,94.9410156 C205.838217,95.5067737 206.169432,95.9561507 206.566895,96.2891602 C206.964357,96.6221696 207.402992,96.8549147 207.882812,96.9874023 C208.362633,97.11989 208.831703,97.1861328 209.290039,97.1861328 C209.569337,97.1861328 209.862954,97.1700197 210.170898,97.137793 C210.478843,97.1055662 210.777831,97.0590172 211.067871,96.9981445 C211.357912,96.9372718 211.626464,96.8674483 211.873535,96.7886719 C212.120607,96.7098954 212.319335,96.6275395 212.469727,96.5416016 L212.867188,97.4546875 C212.659504,97.6408863 212.389162,97.8091789 212.056152,97.9595703 C211.723143,98.1099617 211.359702,98.2370763 210.96582,98.340918 C210.571938,98.4447596 210.160158,98.5235349 209.730469,98.5772461 C209.300779,98.6309573 208.881838,98.6578125 208.473633,98.6578125 C207.607092,98.6578125 206.839033,98.5092137 206.169434,98.2120117 C205.499834,97.9148097 204.935875,97.4958686 204.477539,96.9551758 C204.019203,96.414483 203.670086,95.7610064 203.430176,94.9947266 C203.190266,94.2284467 203.070312,93.372661 203.070312,92.4273437 L203.070312,92.4273437 Z M211.019531,91.2779297 C211.041016,90.9126935 211.046387,90.5456724 211.035645,90.1768555 C211.024902,89.8080385 210.980144,89.4571306 210.901367,89.1241211 C210.822591,88.7911116 210.702638,88.4867527 210.541504,88.2110352 C210.38037,87.9353176 210.163738,87.7115243 209.891602,87.5396484 C209.705403,87.417903 209.494142,87.3265954 209.257812,87.2657227 C209.021483,87.20485 208.752931,87.1744141 208.452148,87.1744141 C208.051105,87.1744141 207.6626,87.2496086 207.286621,87.4 C206.910643,87.5503914 206.574057,87.7902978 206.276855,88.1197266 C205.979653,88.4491553 205.730795,88.8734675 205.530273,89.3926758 C205.329752,89.9118841 205.200847,90.5402958 205.143555,91.2779297 L211.019531,91.2779297 Z M215.77832,97.4869141 L217.239258,97.2505859 L217.239258,88.5171875 L215.713867,87.6792969 L215.713867,87.0132812 L218.571289,86.1646484 L219.054688,86.3794922 L219.054688,87.915625 C219.291017,87.7079417 219.577472,87.5020518 219.914062,87.2979492 C220.250653,87.0938466 220.610512,86.9094409 220.993652,86.7447266 C221.376792,86.5800122 221.768878,86.4457362 222.169922,86.3418945 C222.570966,86.2380529 222.9541,86.1789714 223.319336,86.1646484 C224.092777,86.1360025 224.717608,86.2380522 225.193848,86.4708008 C225.670087,86.7035493 226.040689,87.109958 226.305664,87.6900391 C226.563478,87.4966787 226.867837,87.3104827 227.21875,87.1314453 C227.569663,86.952408 227.938475,86.7930671 228.325195,86.653418 C228.711916,86.5137688 229.102212,86.400977 229.496094,86.3150391 C229.889976,86.2291011 230.258787,86.1789714 230.602539,86.1646484 C231.268558,86.143164 231.830727,86.2255199 232.289062,86.4117187 C232.747398,86.5979176 233.11621,86.8986958 233.395508,87.3140625 C233.674806,87.7294292 233.875325,88.2665332 233.99707,88.9253906 C234.118816,89.5842481 234.179688,90.3755813 234.179688,91.2994141 L234.179688,97.2613281 L235.995117,97.4869141 L235.995117,98.4 L230.65625,98.4 L230.65625,97.4869141 L232.117188,97.2613281 L232.117188,91.6753906 C232.117188,90.9878872 232.084961,90.3917017 232.020508,89.8868164 C231.956054,89.3819311 231.82894,88.9665706 231.63916,88.6407227 C231.449381,88.3148747 231.1862,88.0767586 230.849609,87.9263672 C230.513019,87.7759758 230.072594,87.7115233 229.52832,87.7330078 C229.041339,87.7544923 228.557945,87.8458 228.078125,88.0069336 C227.598305,88.1680672 227.125653,88.3811185 226.660156,88.6460937 C226.738933,88.9898455 226.799804,89.3819314 226.842773,89.8223633 C226.885742,90.2627952 226.907227,90.7193336 226.907227,91.1919922 L226.907227,97.2720703 L228.550781,97.4869141 L228.550781,98.4 L223.233398,98.4 L223.233398,97.4869141 L224.844727,97.2505859 L224.844727,91.5035156 C224.844727,90.8231737 224.81071,90.2395207 224.742676,89.7525391 C224.674642,89.2655575 224.543946,88.8681005 224.350586,88.5601562 C224.157226,88.252212 223.890464,88.0319994 223.550293,87.8995117 C223.210122,87.7670241 222.767906,87.7115233 222.223633,87.7330078 C221.836912,87.7544923 221.394696,87.8529614 220.896973,88.028418 C220.399249,88.2038746 219.878258,88.4777976 219.333984,88.8501953 L219.333984,90.8160156 C219.333984,91.8974012 219.330404,92.9716092 219.323242,94.0386719 C219.316081,95.1057345 219.316081,96.1799425 219.323242,97.2613281 L220.923828,97.4869141 L220.923828,98.4 L215.77832,98.4 L215.77832,97.4869141 Z M239.368164,102.739844 L239.368164,88.5171875 L237.842773,87.6792969 L237.842773,87.0132812 L240.689453,86.1646484 L241.183594,86.3902344 L241.183594,87.6363281 C241.333985,87.4644523 241.532714,87.2836273 241.779785,87.0938477 C242.026857,86.9040681 242.311522,86.7304044 242.633789,86.5728516 C242.956056,86.4152987 243.314126,86.2846034 243.708008,86.1807617 C244.10189,86.0769201 244.520831,86.025 244.964844,86.025 C245.566409,86.025 246.150062,86.1306305 246.71582,86.3418945 C247.281578,86.5531586 247.784666,86.8951148 248.225098,87.3677734 C248.66553,87.8404321 249.018228,88.4581017 249.283203,89.2208008 C249.548178,89.9834999 249.680664,90.9126898 249.680664,92.0083984 C249.680664,92.9250697 249.532065,93.7862264 249.234863,94.5918945 C248.937661,95.3975626 248.51872,96.1011689 247.978027,96.7027344 C247.437335,97.3042999 246.791019,97.7787418 246.039062,98.1260742 C245.287106,98.4734067 244.459965,98.6470703 243.557617,98.6470703 C243.156574,98.6470703 242.77702,98.6130537 242.418945,98.5450195 C242.060871,98.4769853 241.709963,98.3964197 241.366211,98.3033203 L241.430664,101.192969 L241.430664,102.750586 L243.536133,102.976172 L243.536133,103.889258 L237.864258,103.889258 L237.864258,102.976172 L239.368164,102.739844 Z M241.430664,96.5738281 C241.595378,96.8602879 241.876463,97.0894523 242.273926,97.2613281 C242.671389,97.433204 243.181638,97.5191406 243.804688,97.5191406 C244.270185,97.5191406 244.728513,97.4242523 245.179688,97.2344727 C245.630862,97.0446931 246.03548,96.7403341 246.393555,96.3213867 C246.751629,95.9024393 247.043456,95.3617546 247.269043,94.6993164 C247.49463,94.0368782 247.614583,93.2330125 247.628906,92.2876953 C247.643229,91.3853471 247.551922,90.6244497 247.35498,90.0049805 C247.158039,89.3855112 246.893068,88.8824238 246.560059,88.4957031 C246.227049,88.1089824 245.847496,87.8314787 245.421387,87.6631836 C244.995278,87.4948885 244.556643,87.4107422 244.105469,87.4107422 C243.761717,87.4107422 243.451987,87.4501298 243.17627,87.5289062 C242.900552,87.6076827 242.651694,87.7043614 242.429688,87.8189453 C242.207681,87.9335292 242.012533,88.0552728 241.844238,88.1841797 C241.675943,88.3130866 241.534506,88.4276688 241.419922,88.5279297 L241.430664,92.7066406 L241.430664,96.5738281 Z M251.861328,92.1480469 C251.875651,91.1884067 252.042153,90.3308306 252.36084,89.575293 C252.679526,88.8197553 253.100258,88.1806016 253.623047,87.6578125 C254.145836,87.1350234 254.749183,86.7339858 255.433105,86.4546875 C256.117028,86.1753892 256.831376,86.0321615 257.576172,86.025 C258.485682,86.0178385 259.277015,86.175389 259.950195,86.4976562 C260.623376,86.8199235 261.180174,87.2621391 261.620605,87.8243164 C262.061037,88.3864937 262.388671,89.0471316 262.603516,89.80625 C262.81836,90.5653684 262.922201,91.3781858 262.915039,92.2447266 C262.907878,93.1972053 262.755698,94.0673138 262.458496,94.8550781 C262.161294,95.6428425 261.760256,96.3178032 261.255371,96.8799805 C260.750486,97.4421578 260.159671,97.8790023 259.48291,98.1905273 C258.806149,98.5020523 258.081059,98.6578125 257.307617,98.6578125 C256.319331,98.6578125 255.477868,98.4787778 254.783203,98.1207031 C254.088538,97.7626284 253.522789,97.2828155 253.085937,96.68125 C252.649086,96.0796845 252.332195,95.3868203 252.135254,94.6026367 C251.938313,93.8184531 251.847005,93.0002647 251.861328,92.1480469 L251.861328,92.1480469 Z M257.404297,97.4546875 C258.013024,97.4690105 258.526853,97.3651704 258.945801,97.1431641 C259.364748,96.9211577 259.704914,96.5935243 259.966309,96.1602539 C260.227703,95.7269835 260.41748,95.1898795 260.535645,94.5489258 C260.653809,93.9079721 260.712891,93.1721396 260.712891,92.3414062 C260.712891,91.6180953 260.650228,90.9431346 260.524902,90.3165039 C260.399576,89.6898732 260.202638,89.1438174 259.934082,88.6783203 C259.665526,88.2128232 259.32536,87.8458021 258.913574,87.5772461 C258.501788,87.3086901 258.013024,87.1672527 257.447266,87.1529297 C256.838539,87.1457682 256.321128,87.2513986 255.89502,87.4698242 C255.468911,87.6882498 255.119793,88.0087218 254.847656,88.43125 C254.575519,88.8537782 254.376791,89.369398 254.251465,89.978125 C254.126139,90.586852 254.063477,91.2779258 254.063477,92.0513672 C254.063477,92.7460321 254.13151,93.4156218 254.267578,94.0601562 C254.403647,94.7046907 254.607746,95.2758113 254.879883,95.7735352 C255.15202,96.271259 255.497556,96.6722967 255.916504,96.9766602 C256.335451,97.2810237 256.831377,97.4403645 257.404297,97.4546875 L257.404297,97.4546875 Z M265.181641,97.4869141 L266.921875,97.2613281 L266.921875,88.5171875 L265.396484,87.6792969 L265.396484,87.0132812 L268.232422,86.1646484 L268.737305,86.3794922 L268.737305,88.0337891 C268.873373,87.8332672 269.079263,87.6220063 269.35498,87.4 C269.630698,87.1779937 269.940428,86.9756845 270.28418,86.7930664 C270.627931,86.6104483 270.986001,86.4600592 271.358398,86.3418945 C271.730796,86.2237299 272.081704,86.1646484 272.411133,86.1646484 C272.647462,86.1646484 272.860513,86.1700195 273.050293,86.1807617 C273.240073,86.191504 273.374349,86.2111978 273.453125,86.2398437 L273.453125,88.4419922 C273.338541,88.3990232 273.220378,88.3542646 273.098633,88.3077148 C272.976887,88.2611651 272.842611,88.2217775 272.695801,88.1895508 C272.54899,88.1573241 272.382488,88.1304689 272.196289,88.1089844 C272.01009,88.0874999 271.795249,88.0767578 271.551758,88.0767578 C270.971677,88.0767578 270.484702,88.150162 270.09082,88.2969727 C269.696938,88.4437833 269.335288,88.6210276 269.005859,88.8287109 L269.005859,97.2291016 L272.067383,97.4869141 L272.067383,98.4 L265.181641,98.4 L265.181641,97.4869141 Z M275.161133,94.9410156 C275.211263,94.439711 275.372394,94.0010761 275.644531,93.6250977 C275.916668,93.2491192 276.253253,92.9250665 276.654297,92.6529297 C277.055341,92.3807929 277.501137,92.1552092 277.991699,91.9761719 C278.482262,91.7971345 278.974607,91.6539068 279.46875,91.5464844 C279.962893,91.439062 280.439125,91.3638674 280.897461,91.3208984 C281.355797,91.2779295 281.753254,91.2564453 282.089844,91.2564453 L282.089844,90.321875 C282.089844,89.756117 282.014649,89.2959979 281.864258,88.9415039 C281.713866,88.5870099 281.506186,88.3095062 281.241211,88.1089844 C280.976236,87.9084625 280.664715,87.7723962 280.306641,87.7007812 C279.948566,87.6291663 279.561851,87.5933594 279.146484,87.5933594 C278.938801,87.5933594 278.706056,87.6130532 278.448242,87.6524414 C278.190428,87.6918296 277.923667,87.7473304 277.647949,87.8189453 C277.372232,87.8905603 277.094728,87.9764969 276.81543,88.0767578 C276.536131,88.1770187 276.27116,88.2880202 276.020508,88.4097656 L275.623047,87.4429687 C275.888022,87.2281239 276.212075,87.0401375 276.595215,86.8790039 C276.978355,86.7178703 277.372231,86.5835943 277.776855,86.4761719 C278.18148,86.3687495 278.575356,86.2899742 278.958496,86.2398437 C279.341636,86.1897133 279.669269,86.1646484 279.941406,86.1646484 C280.507164,86.1646484 281.046059,86.2237299 281.558105,86.3418945 C282.070152,86.4600592 282.519529,86.6677394 282.90625,86.9649414 C283.292971,87.2621434 283.59912,87.6631811 283.824707,88.1680664 C284.050294,88.6729517 284.163086,89.3156862 284.163086,90.0962891 L284.141602,97.4869141 L285.516602,97.4869141 L285.516602,98.1958984 C285.265949,98.3319668 284.956219,98.4429683 284.587402,98.5289062 C284.218585,98.6148442 283.847984,98.6578125 283.475586,98.6578125 C283.346679,98.6578125 283.207032,98.6488608 283.056641,98.630957 C282.906249,98.6130533 282.768393,98.5682946 282.643066,98.4966797 C282.51774,98.4250647 282.4139,98.3140633 282.331543,98.1636719 C282.249186,98.0132805 282.208008,97.8056003 282.208008,97.540625 L282.208008,97.2398437 C282.043293,97.4403656 281.848146,97.6265616 281.622559,97.7984375 C281.396972,97.9703134 281.139162,98.1207025 280.849121,98.2496094 C280.559081,98.3785163 280.229657,98.4787757 279.86084,98.5503906 C279.492023,98.6220056 279.082034,98.6578125 278.630859,98.6578125 C278.072263,98.6578125 277.565595,98.5575531 277.11084,98.3570312 C276.656085,98.1565094 276.276531,97.8861671 275.972168,97.5459961 C275.667804,97.2058251 275.442221,96.8119489 275.29541,96.3643555 C275.1486,95.9167621 275.103841,95.4423202 275.161133,94.9410156 L275.161133,94.9410156 Z M277.245117,94.9839844 C277.245117,95.4065125 277.302408,95.7645819 277.416992,96.0582031 C277.531576,96.3518244 277.698078,96.5899405 277.916504,96.7725586 C278.134929,96.9551767 278.401691,97.0876623 278.716797,97.1700195 C279.031903,97.2523767 279.386391,97.2935547 279.780273,97.2935547 C279.995118,97.2935547 280.213541,97.2649091 280.435547,97.2076172 C280.657553,97.1503252 280.870604,97.0787114 281.074707,96.9927734 C281.27881,96.9068355 281.468586,96.8083664 281.644043,96.6973633 C281.8195,96.5863601 281.960937,96.477149 282.068359,96.3697266 C282.068359,95.6965461 282.07015,95.0287468 282.07373,94.3663086 C282.077311,93.7038704 282.082682,93.0360711 282.089844,92.3628906 C281.789061,92.3628906 281.459637,92.3790037 281.101562,92.4112305 C280.743488,92.4434572 280.385418,92.4989579 280.027344,92.5777344 C279.669269,92.6565108 279.321942,92.7603509 278.985352,92.8892578 C278.648761,93.0181647 278.351564,93.1810863 278.09375,93.3780273 C277.835936,93.5749684 277.630046,93.8059232 277.476074,94.0708984 C277.322102,94.3358737 277.245117,94.6402327 277.245117,94.9839844 L277.245117,94.9839844 Z M287.396484,97.4869141 L289.136719,97.2613281 L289.136719,88.5171875 L287.611328,87.6792969 L287.611328,87.0132812 L290.447266,86.1646484 L290.952148,86.3794922 L290.952148,88.0337891 C291.088217,87.8332672 291.294107,87.6220063 291.569824,87.4 C291.845542,87.1779937 292.155272,86.9756845 292.499023,86.7930664 C292.842775,86.6104483 293.200844,86.4600592 293.573242,86.3418945 C293.94564,86.2237299 294.296548,86.1646484 294.625977,86.1646484 C294.862306,86.1646484 295.075357,86.1700195 295.265137,86.1807617 C295.454916,86.191504 295.589192,86.2111978 295.667969,86.2398437 L295.667969,88.4419922 C295.553385,88.3990232 295.435222,88.3542646 295.313477,88.3077148 C295.191731,88.2611651 295.057455,88.2217775 294.910645,88.1895508 C294.763834,88.1573241 294.597332,88.1304689 294.411133,88.1089844 C294.224934,88.0874999 294.010092,88.0767578 293.766602,88.0767578 C293.186521,88.0767578 292.699546,88.150162 292.305664,88.2969727 C291.911782,88.4437833 291.550132,88.6210276 291.220703,88.8287109 L291.220703,97.2291016 L294.282227,97.4869141 L294.282227,98.4 L287.396484,98.4 L287.396484,97.4869141 Z M297.719727,102.041602 C297.841472,102.077409 297.982909,102.106055 298.144043,102.127539 C298.305177,102.149024 298.450195,102.159766 298.579102,102.159766 C298.836915,102.159766 299.116209,102.113217 299.416992,102.020117 C299.717775,101.927018 300.022134,101.746193 300.330078,101.477637 C300.638022,101.209081 300.93701,100.827737 301.227051,100.333594 C301.517091,99.8394507 301.780272,99.1949258 302.016602,98.4 L301.554688,98.4 L297.24707,87.7115234 L296.129883,87.5181641 L296.129883,86.3794922 L301.103516,86.3794922 L301.103516,87.5181641 L299.556641,87.7330078 L302.081055,94.9410156 L302.800781,97.1324219 L303.423828,94.9410156 L305.604492,87.7007812 L303.928711,87.5181641 L303.928711,86.3794922 L308.569336,86.3794922 L308.569336,87.5181641 L307.366211,87.6900391 C306.886391,89.0793689 306.465659,90.3003854 306.104004,91.353125 C305.742348,92.4058646 305.427247,93.3189414 305.158691,94.0923828 C304.890135,94.8658242 304.660971,95.5210911 304.471191,96.0582031 C304.281412,96.5953152 304.122071,97.0429019 303.993164,97.4009766 C303.864257,97.7590513 303.760417,98.0472971 303.681641,98.2657227 C303.602864,98.4841482 303.534831,98.6649732 303.477539,98.8082031 C303.198241,99.5243525 302.917156,100.168877 302.634277,100.741797 C302.351398,101.314716 302.05241,101.810642 301.737305,102.22959 C301.422199,102.648537 301.083823,102.992284 300.722168,103.26084 C300.360513,103.529396 299.957685,103.717382 299.513672,103.824805 C299.227212,103.89642 298.912111,103.932227 298.568359,103.932227 C298.496744,103.932227 298.417969,103.928646 298.332031,103.921484 C298.246093,103.914323 298.161947,103.903581 298.07959,103.889258 C297.997233,103.874935 297.923828,103.857031 297.859375,103.835547 C297.794922,103.814062 297.748373,103.792578 297.719727,103.771094 L297.719727,102.041602 Z M1.16015625,133.886914 L2.98632812,133.661328 L2.98632812,119.116406 L1.26757812,118.729687 L1.26757812,117.795117 L4.62988281,117.343945 L5.05957031,117.591016 L5.05957031,133.661328 L6.97167969,133.886914 L6.97167969,134.8 L1.16015625,134.8 L1.16015625,133.886914 Z M8.60449219,128.548047 C8.61881518,127.588407 8.78531742,126.730831 9.10400391,125.975293 C9.4226904,125.219755 9.84342187,124.580602 10.3662109,124.057812 C10.889,123.535023 11.4923468,123.133986 12.1762695,122.854687 C12.8601922,122.575389 13.5745405,122.432161 14.3193359,122.425 C15.2288457,122.417839 16.0201789,122.575389 16.6933594,122.897656 C17.3665398,123.219923 17.9233376,123.662139 18.3637695,124.224316 C18.8042014,124.786494 19.1318349,125.447132 19.3466797,126.20625 C19.5615245,126.965368 19.6653646,127.778186 19.6582031,128.644727 C19.6510416,129.597205 19.4988622,130.467314 19.2016602,131.255078 C18.9044581,132.042842 18.5034205,132.717803 17.9985352,133.27998 C17.4936498,133.842158 16.9028354,134.279002 16.2260742,134.590527 C15.549313,134.902052 14.8242226,135.057812 14.0507812,135.057812 C13.0624951,135.057812 12.2210321,134.878778 11.5263672,134.520703 C10.8317023,134.162628 10.2659527,133.682816 9.82910156,133.08125 C9.39225042,132.479684 9.07535906,131.78682 8.87841797,131.002637 C8.68147688,130.218453 8.5901692,129.400265 8.60449219,128.548047 L8.60449219,128.548047 Z M14.1474609,133.854687 C14.7561879,133.86901 15.2700174,133.76517 15.6889648,133.543164 C16.1079123,133.321158 16.4480781,132.993524 16.7094727,132.560254 C16.9708672,132.126984 17.1606439,131.58988 17.2788086,130.948926 C17.3969732,130.307972 17.4560547,129.57214 17.4560547,128.741406 C17.4560547,128.018095 17.3933926,127.343135 17.2680664,126.716504 C17.1427403,126.089873 16.9458021,125.543817 16.6772461,125.07832 C16.4086901,124.612823 16.0685242,124.245802 15.6567383,123.977246 C15.2449524,123.70869 14.7561877,123.567253 14.1904297,123.55293 C13.5817027,123.545768 13.0642925,123.651399 12.6381836,123.869824 C12.2120747,124.08825 11.8629571,124.408722 11.5908203,124.83125 C11.3186835,125.253778 11.1199551,125.769398 10.9946289,126.378125 C10.8693028,126.986852 10.8066406,127.677926 10.8066406,128.451367 C10.8066406,129.146032 10.8746738,129.815622 11.0107422,130.460156 C11.1468106,131.104691 11.3509101,131.675811 11.6230469,132.173535 C11.8951837,132.671259 12.2407206,133.072297 12.659668,133.37666 C13.0786154,133.681024 13.5745414,133.840365 14.1474609,133.854687 L14.1474609,133.854687 Z M21.828125,128.548047 C21.842448,127.588407 22.0089502,126.730831 22.3276367,125.975293 C22.6463232,125.219755 23.0670547,124.580602 23.5898438,124.057812 C24.1126328,123.535023 24.7159797,123.133986 25.3999023,122.854687 C26.083825,122.575389 26.7981734,122.432161 27.5429688,122.425 C28.4524785,122.417839 29.2438117,122.575389 29.9169922,122.897656 C30.5901726,123.219923 31.1469705,123.662139 31.5874023,124.224316 C32.0278342,124.786494 32.3554677,125.447132 32.5703125,126.20625 C32.7851573,126.965368 32.8889974,127.778186 32.8818359,128.644727 C32.8746744,129.597205 32.722495,130.467314 32.425293,131.255078 C32.128091,132.042842 31.7270533,132.717803 31.222168,133.27998 C30.7172826,133.842158 30.1264682,134.279002 29.449707,134.590527 C28.7729458,134.902052 28.0478554,135.057812 27.2744141,135.057812 C26.2861279,135.057812 25.4446649,134.878778 24.75,134.520703 C24.0553351,134.162628 23.4895855,133.682816 23.0527344,133.08125 C22.6158832,132.479684 22.2989919,131.78682 22.1020508,131.002637 C21.9051097,130.218453 21.813802,129.400265 21.828125,128.548047 L21.828125,128.548047 Z M27.3710938,133.854687 C27.9798208,133.86901 28.4936502,133.76517 28.9125977,133.543164 C29.3315451,133.321158 29.6717109,132.993524 29.9331055,132.560254 C30.1945,132.126984 30.3842768,131.58988 30.5024414,130.948926 C30.6206061,130.307972 30.6796875,129.57214 30.6796875,128.741406 C30.6796875,128.018095 30.6170254,127.343135 30.4916992,126.716504 C30.3663731,126.089873 30.1694349,125.543817 29.9008789,125.07832 C29.6323229,124.612823 29.292157,124.245802 28.8803711,123.977246 C28.4685852,123.70869 27.9798205,123.567253 27.4140625,123.55293 C26.8053355,123.545768 26.2879253,123.651399 25.8618164,123.869824 C25.4357075,124.08825 25.0865899,124.408722 24.8144531,124.83125 C24.5423163,125.253778 24.3435879,125.769398 24.2182617,126.378125 C24.0929356,126.986852 24.0302734,127.677926 24.0302734,128.451367 C24.0302734,129.146032 24.0983066,129.815622 24.234375,130.460156 C24.3704434,131.104691 24.5745429,131.675811 24.8466797,132.173535 C25.1188165,132.671259 25.4643534,133.072297 25.8833008,133.37666 C26.3022482,133.681024 26.7981742,133.840365 27.3710938,133.854687 L27.3710938,133.854687 Z M35.1269531,133.886914 L36.8886719,133.650586 L36.8886719,119.116406 L34.9550781,118.729687 L34.9550781,117.795117 L38.5214844,117.343945 L38.9511719,117.591016 L38.9511719,127.2375 L38.8974609,128.891797 L43.6777344,123.961133 L42.0556641,123.810742 L42.0556641,122.67207 L47.1259766,122.67207 L47.1259766,123.810742 L45.4931641,123.982617 L41.8408203,127.656445 L46.3847656,133.661328 L47.8457031,133.886914 L47.8457031,134.8 L42.6357422,134.8 L42.6357422,133.886914 L44.1289062,133.639844 L40.5947266,128.687695 L38.8867188,130.384961 L38.9511719,132.468945 L38.9511719,133.67207 L40.4980469,133.886914 L40.4980469,134.8 L35.1269531,134.8 L35.1269531,133.886914 Z M54.4306641,133.886914 L56.5898438,133.650586 L56.5898438,124.229687 L54.2265625,124.229687 L54.2265625,123.413281 L56.5898438,122.779492 L56.5898438,121.887891 C56.5898438,121.35794 56.6560866,120.858433 56.7885742,120.389355 C56.9210619,119.920278 57.1000965,119.492385 57.3256836,119.105664 C57.5512707,118.718943 57.8126613,118.373406 58.1098633,118.069043 C58.4070653,117.764679 58.7185856,117.50866 59.0444336,117.300977 C59.3702816,117.093293 59.7014957,116.933952 60.0380859,116.822949 C60.3746762,116.711946 60.6933579,116.656445 60.9941406,116.656445 C61.4811222,116.656445 61.8391916,116.677929 62.0683594,116.720898 C62.2975272,116.763867 62.451497,116.803255 62.5302734,116.839062 L62.5302734,118.665234 C62.4300125,118.607942 62.2062192,118.538119 61.8588867,118.455762 C61.5115543,118.373405 61.0800807,118.332227 60.5644531,118.332227 C60.2708319,118.332227 60.0076509,118.357291 59.7749023,118.407422 C59.5421538,118.457552 59.341635,118.573925 59.1733398,118.756543 C59.0050447,118.939161 58.8761398,119.207713 58.7866211,119.562207 C58.6971024,119.916701 58.6523438,120.398304 58.6523438,121.007031 L58.6523438,122.779492 L61.8964844,122.779492 L61.8964844,124.229687 L58.6523438,124.229687 L58.6523438,133.67207 L61.1230469,133.886914 L61.1230469,134.8 L54.4306641,134.8 L54.4306641,133.886914 Z M63.3466797,128.548047 C63.3610027,127.588407 63.5275049,126.730831 63.8461914,125.975293 C64.1648779,125.219755 64.5856094,124.580602 65.1083984,124.057812 C65.6311875,123.535023 66.2345343,123.133986 66.918457,122.854687 C67.6023797,122.575389 68.316728,122.432161 69.0615234,122.425 C69.9710332,122.417839 70.7623664,122.575389 71.4355469,122.897656 C72.1087273,123.219923 72.6655251,123.662139 73.105957,124.224316 C73.5463889,124.786494 73.8740224,125.447132 74.0888672,126.20625 C74.303712,126.965368 74.4075521,127.778186 74.4003906,128.644727 C74.3932291,129.597205 74.2410497,130.467314 73.9438477,131.255078 C73.6466456,132.042842 73.245608,132.717803 72.7407227,133.27998 C72.2358373,133.842158 71.6450229,134.279002 70.9682617,134.590527 C70.2915005,134.902052 69.5664101,135.057812 68.7929688,135.057812 C67.8046826,135.057812 66.9632196,134.878778 66.2685547,134.520703 C65.5738898,134.162628 65.0081402,133.682816 64.5712891,133.08125 C64.1344379,132.479684 63.8175466,131.78682 63.6206055,131.002637 C63.4236644,130.218453 63.3323567,129.400265 63.3466797,128.548047 L63.3466797,128.548047 Z M68.8896484,133.854687 C69.4983754,133.86901 70.0122049,133.76517 70.4311523,133.543164 C70.8500998,133.321158 71.1902656,132.993524 71.4516602,132.560254 C71.7130547,132.126984 71.9028314,131.58988 72.0209961,130.948926 C72.1391607,130.307972 72.1982422,129.57214 72.1982422,128.741406 C72.1982422,128.018095 72.1355801,127.343135 72.0102539,126.716504 C71.8849278,126.089873 71.6879896,125.543817 71.4194336,125.07832 C71.1508776,124.612823 70.8107117,124.245802 70.3989258,123.977246 C69.9871399,123.70869 69.4983752,123.567253 68.9326172,123.55293 C68.3238902,123.545768 67.80648,123.651399 67.3803711,123.869824 C66.9542622,124.08825 66.6051446,124.408722 66.3330078,124.83125 C66.060871,125.253778 65.8621426,125.769398 65.7368164,126.378125 C65.6114903,126.986852 65.5488281,127.677926 65.5488281,128.451367 C65.5488281,129.146032 65.6168613,129.815622 65.7529297,130.460156 C65.8889981,131.104691 66.0930976,131.675811 66.3652344,132.173535 C66.6373712,132.671259 66.9829081,133.072297 67.4018555,133.37666 C67.8208029,133.681024 68.3167289,133.840365 68.8896484,133.854687 L68.8896484,133.854687 Z M76.6669922,133.886914 L78.4072266,133.661328 L78.4072266,124.917187 L76.8818359,124.079297 L76.8818359,123.413281 L79.7177734,122.564648 L80.2226562,122.779492 L80.2226562,124.433789 C80.3587246,124.233267 80.5646145,124.022006 80.840332,123.8 C81.1160496,123.577994 81.4257795,123.375685 81.7695312,123.193066 C82.113283,123.010448 82.4713523,122.860059 82.84375,122.741895 C83.2161477,122.62373 83.5670556,122.564648 83.8964844,122.564648 C84.1328137,122.564648 84.3458649,122.570019 84.5356445,122.580762 C84.7254241,122.591504 84.8597001,122.611198 84.9384766,122.639844 L84.9384766,124.841992 C84.8238927,124.799023 84.7057298,124.754265 84.5839844,124.707715 C84.462239,124.661165 84.327963,124.621778 84.1811523,124.589551 C84.0343417,124.557324 83.8678395,124.530469 83.6816406,124.508984 C83.4954418,124.4875 83.2806002,124.476758 83.0371094,124.476758 C82.4570283,124.476758 81.9700541,124.550162 81.5761719,124.696973 C81.1822897,124.843783 80.8206397,125.021028 80.4912109,125.228711 L80.4912109,133.629102 L83.5527344,133.886914 L83.5527344,134.8 L76.6669922,134.8 L76.6669922,133.886914 Z M92.6083984,138.441602 C92.7301438,138.477409 92.8715812,138.506055 93.0327148,138.527539 C93.1938485,138.549024 93.3388665,138.559766 93.4677734,138.559766 C93.7255872,138.559766 94.0048813,138.513217 94.3056641,138.420117 C94.6064468,138.327018 94.9108058,138.146193 95.21875,137.877637 C95.5266942,137.609081 95.8256821,137.227737 96.1157227,136.733594 C96.4057632,136.239451 96.6689441,135.594926 96.9052734,134.8 L96.4433594,134.8 L92.1357422,124.111523 L91.0185547,123.918164 L91.0185547,122.779492 L95.9921875,122.779492 L95.9921875,123.918164 L94.4453125,124.133008 L96.9697266,131.341016 L97.6894531,133.532422 L98.3125,131.341016 L100.493164,124.100781 L98.8173828,123.918164 L98.8173828,122.779492 L103.458008,122.779492 L103.458008,123.918164 L102.254883,124.090039 C101.775063,125.479369 101.354331,126.700385 100.992676,127.753125 C100.63102,128.805865 100.315919,129.718941 100.047363,130.492383 C99.7788073,131.265824 99.5496429,131.921091 99.3598633,132.458203 C99.1700837,132.995315 99.0107428,133.442902 98.8818359,133.800977 C98.752929,134.159051 98.6490889,134.447297 98.5703125,134.665723 C98.4915361,134.884148 98.4235029,135.064973 98.3662109,135.208203 C98.0869127,135.924353 97.8058282,136.568877 97.5229492,137.141797 C97.2400702,137.714716 96.9410823,138.210642 96.6259766,138.62959 C96.3108708,139.048537 95.9724953,139.392284 95.6108398,139.66084 C95.2491844,139.929396 94.8463564,140.117382 94.4023438,140.224805 C94.115884,140.29642 93.800783,140.332227 93.4570312,140.332227 C93.3854163,140.332227 93.3066411,140.328646 93.2207031,140.321484 C93.1347652,140.314323 93.0506189,140.303581 92.9682617,140.289258 C92.8859045,140.274935 92.8125003,140.257031 92.7480469,140.235547 C92.6835934,140.214062 92.6370444,140.192578 92.6083984,140.171094 L92.6083984,138.441602 Z M104.457031,128.548047 C104.471354,127.588407 104.637856,126.730831 104.956543,125.975293 C105.275229,125.219755 105.695961,124.580602 106.21875,124.057812 C106.741539,123.535023 107.344886,123.133986 108.028809,122.854687 C108.712731,122.575389 109.42708,122.432161 110.171875,122.425 C111.081385,122.417839 111.872718,122.575389 112.545898,122.897656 C113.219079,123.219923 113.775877,123.662139 114.216309,124.224316 C114.65674,124.786494 114.984374,125.447132 115.199219,126.20625 C115.414064,126.965368 115.517904,127.778186 115.510742,128.644727 C115.503581,129.597205 115.351401,130.467314 115.054199,131.255078 C114.756997,132.042842 114.35596,132.717803 113.851074,133.27998 C113.346189,133.842158 112.755374,134.279002 112.078613,134.590527 C111.401852,134.902052 110.676762,135.057812 109.90332,135.057812 C108.915034,135.057812 108.073571,134.878778 107.378906,134.520703 C106.684241,134.162628 106.118492,133.682816 105.681641,133.08125 C105.244789,132.479684 104.927898,131.78682 104.730957,131.002637 C104.534016,130.218453 104.442708,129.400265 104.457031,128.548047 L104.457031,128.548047 Z M110,133.854687 C110.608727,133.86901 111.122556,133.76517 111.541504,133.543164 C111.960451,133.321158 112.300617,132.993524 112.562012,132.560254 C112.823406,132.126984 113.013183,131.58988 113.131348,130.948926 C113.249512,130.307972 113.308594,129.57214 113.308594,128.741406 C113.308594,128.018095 113.245932,127.343135 113.120605,126.716504 C112.995279,126.089873 112.798341,125.543817 112.529785,125.07832 C112.261229,124.612823 111.921063,124.245802 111.509277,123.977246 C111.097491,123.70869 110.608727,123.567253 110.042969,123.55293 C109.434242,123.545768 108.916832,123.651399 108.490723,123.869824 C108.064614,124.08825 107.715496,124.408722 107.443359,124.83125 C107.171223,125.253778 106.972494,125.769398 106.847168,126.378125 C106.721842,126.986852 106.65918,127.677926 106.65918,128.451367 C106.65918,129.146032 106.727213,129.815622 106.863281,130.460156 C106.99935,131.104691 107.203449,131.675811 107.475586,132.173535 C107.747723,132.671259 108.09326,133.072297 108.512207,133.37666 C108.931154,133.681024 109.42708,133.840365 110,133.854687 L110,133.854687 Z M118.873047,124.304883 L117.766602,123.982617 L117.766602,123.155469 L120.527344,122.564648 L120.90332,122.758008 L120.90332,130.159375 C120.90332,130.753779 120.935547,131.264028 121,131.690137 C121.064453,132.116246 121.182616,132.467154 121.354492,132.742871 C121.526368,133.018589 121.762694,133.222688 122.063477,133.355176 C122.364259,133.487663 122.750974,133.553906 123.223633,133.553906 C123.5459,133.553906 123.862791,133.509148 124.174316,133.419629 C124.485841,133.33011 124.775878,133.222689 125.044434,133.097363 C125.31299,132.972037 125.547525,132.839551 125.748047,132.699902 C125.948569,132.560253 126.095377,132.4403 126.188477,132.340039 L126.188477,124.401562 L124.845703,124.057812 L124.845703,123.176953 L127.917969,122.564648 L128.21875,122.747266 L128.21875,133.886914 L129.507812,133.886914 L129.507812,134.70332 C129.40039,134.760612 129.267904,134.816113 129.110352,134.869824 C128.952799,134.923535 128.782716,134.971875 128.600098,135.014844 C128.41748,135.057813 128.231284,135.09362 128.041504,135.122266 C127.851724,135.150912 127.670899,135.165234 127.499023,135.165234 C127.155272,135.165234 126.884929,135.09183 126.687988,134.94502 C126.491047,134.798209 126.392578,134.563673 126.392578,134.241406 L126.392578,133.360547 C125.769528,133.90482 125.116052,134.318391 124.432129,134.60127 C123.748206,134.884149 123.080407,135.025586 122.428711,135.025586 C121.583655,135.025586 120.924807,134.894891 120.452148,134.633496 C119.97949,134.372102 119.626792,134.010452 119.394043,133.548535 C119.161294,133.086619 119.018067,132.540563 118.964355,131.910352 C118.910644,131.28014 118.880208,130.592647 118.873047,129.847852 L118.873047,124.304883 Z M131.65625,133.886914 L133.396484,133.661328 L133.396484,124.917187 L131.871094,124.079297 L131.871094,123.413281 L134.707031,122.564648 L135.211914,122.779492 L135.211914,124.433789 C135.347982,124.233267 135.553872,124.022006 135.82959,123.8 C136.105307,123.577994 136.415037,123.375685 136.758789,123.193066 C137.102541,123.010448 137.46061,122.860059 137.833008,122.741895 C138.205406,122.62373 138.556313,122.564648 138.885742,122.564648 C139.122071,122.564648 139.335123,122.570019 139.524902,122.580762 C139.714682,122.591504 139.848958,122.611198 139.927734,122.639844 L139.927734,124.841992 C139.81315,124.799023 139.694988,124.754265 139.573242,124.707715 C139.451497,124.661165 139.317221,124.621778 139.17041,124.589551 C139.0236,124.557324 138.857097,124.530469 138.670898,124.508984 C138.4847,124.4875 138.269858,124.476758 138.026367,124.476758 C137.446286,124.476758 136.959312,124.550162 136.56543,124.696973 C136.171548,124.843783 135.809897,125.021028 135.480469,125.228711 L135.480469,133.629102 L138.541992,133.886914 L138.541992,134.8 L131.65625,134.8 L131.65625,133.886914 Z M147.092773,128.548047 C147.107096,127.588407 147.273599,126.730831 147.592285,125.975293 C147.910972,125.219755 148.331703,124.580602 148.854492,124.057812 C149.377281,123.535023 149.980628,123.133986 150.664551,122.854687 C151.348473,122.575389 152.062822,122.432161 152.807617,122.425 C153.717127,122.417839 154.50846,122.575389 155.181641,122.897656 C155.854821,123.219923 156.411619,123.662139 156.852051,124.224316 C157.292483,124.786494 157.620116,125.447132 157.834961,126.20625 C158.049806,126.965368 158.153646,127.778186 158.146484,128.644727 C158.139323,129.597205 157.987143,130.467314 157.689941,131.255078 C157.392739,132.042842 156.991702,132.717803 156.486816,133.27998 C155.981931,133.842158 155.391117,134.279002 154.714355,134.590527 C154.037594,134.902052 153.312504,135.057812 152.539062,135.057812 C151.550776,135.057812 150.709313,134.878778 150.014648,134.520703 C149.319984,134.162628 148.754234,133.682816 148.317383,133.08125 C147.880532,132.479684 147.56364,131.78682 147.366699,131.002637 C147.169758,130.218453 147.07845,129.400265 147.092773,128.548047 L147.092773,128.548047 Z M152.635742,133.854687 C153.244469,133.86901 153.758299,133.76517 154.177246,133.543164 C154.596194,133.321158 154.936359,132.993524 155.197754,132.560254 C155.459148,132.126984 155.648925,131.58988 155.76709,130.948926 C155.885254,130.307972 155.944336,129.57214 155.944336,128.741406 C155.944336,128.018095 155.881674,127.343135 155.756348,126.716504 C155.631022,126.089873 155.434083,125.543817 155.165527,125.07832 C154.896971,124.612823 154.556805,124.245802 154.14502,123.977246 C153.733234,123.70869 153.244469,123.567253 152.678711,123.55293 C152.069984,123.545768 151.552574,123.651399 151.126465,123.869824 C150.700356,124.08825 150.351238,124.408722 150.079102,124.83125 C149.806965,125.253778 149.608236,125.769398 149.48291,126.378125 C149.357584,126.986852 149.294922,127.677926 149.294922,128.451367 C149.294922,129.146032 149.362955,129.815622 149.499023,130.460156 C149.635092,131.104691 149.839191,131.675811 150.111328,132.173535 C150.383465,132.671259 150.729002,133.072297 151.147949,133.37666 C151.566897,133.681024 152.062823,133.840365 152.635742,133.854687 L152.635742,133.854687 Z M160.391602,133.886914 L162.550781,133.650586 L162.550781,124.229687 L160.1875,124.229687 L160.1875,123.413281 L162.550781,122.779492 L162.550781,121.887891 C162.550781,121.35794 162.617024,120.858433 162.749512,120.389355 C162.881999,119.920278 163.061034,119.492385 163.286621,119.105664 C163.512208,118.718943 163.773599,118.373406 164.070801,118.069043 C164.368003,117.764679 164.679523,117.50866 165.005371,117.300977 C165.331219,117.093293 165.662433,116.933952 165.999023,116.822949 C166.335614,116.711946 166.654295,116.656445 166.955078,116.656445 C167.44206,116.656445 167.800129,116.677929 168.029297,116.720898 C168.258465,116.763867 168.412435,116.803255 168.491211,116.839062 L168.491211,118.665234 C168.39095,118.607942 168.167157,118.538119 167.819824,118.455762 C167.472492,118.373405 167.041018,118.332227 166.525391,118.332227 C166.231769,118.332227 165.968588,118.357291 165.73584,118.407422 C165.503091,118.457552 165.302572,118.573925 165.134277,118.756543 C164.965982,118.939161 164.837077,119.207713 164.747559,119.562207 C164.65804,119.916701 164.613281,120.398304 164.613281,121.007031 L164.613281,122.779492 L167.857422,122.779492 L167.857422,124.229687 L164.613281,124.229687 L164.613281,133.67207 L167.083984,133.886914 L167.083984,134.8 L160.391602,134.8 L160.391602,133.886914 Z M169.382812,133.886914 L171.541992,133.650586 L171.541992,124.229687 L169.178711,124.229687 L169.178711,123.413281 L171.541992,122.779492 L171.541992,121.887891 C171.541992,121.35794 171.608235,120.858433 171.740723,120.389355 C171.87321,119.920278 172.052245,119.492385 172.277832,119.105664 C172.503419,118.718943 172.76481,118.373406 173.062012,118.069043 C173.359214,117.764679 173.670734,117.50866 173.996582,117.300977 C174.32243,117.093293 174.653644,116.933952 174.990234,116.822949 C175.326825,116.711946 175.645506,116.656445 175.946289,116.656445 C176.433271,116.656445 176.79134,116.677929 177.020508,116.720898 C177.249676,116.763867 177.403645,116.803255 177.482422,116.839062 L177.482422,118.665234 C177.382161,118.607942 177.158368,118.538119 176.811035,118.455762 C176.463703,118.373405 176.032229,118.332227 175.516602,118.332227 C175.22298,118.332227 174.959799,118.357291 174.727051,118.407422 C174.494302,118.457552 174.293783,118.573925 174.125488,118.756543 C173.957193,118.939161 173.828288,119.207713 173.73877,119.562207 C173.649251,119.916701 173.604492,120.398304 173.604492,121.007031 L173.604492,122.779492 L176.848633,122.779492 L176.848633,124.229687 L173.604492,124.229687 L173.604492,133.67207 L176.075195,133.886914 L176.075195,134.8 L169.382812,134.8 L169.382812,133.886914 Z M180.769531,120.029492 C180.597655,120.029492 180.429363,119.999056 180.264648,119.938184 C180.099934,119.877311 179.954916,119.791374 179.82959,119.680371 C179.704264,119.569368 179.604004,119.431511 179.528809,119.266797 C179.453613,119.102083 179.416016,118.915886 179.416016,118.708203 C179.416016,118.486197 179.464355,118.278517 179.561035,118.085156 C179.657715,117.891796 179.781249,117.725294 179.931641,117.585645 C180.082032,117.445995 180.252115,117.336784 180.441895,117.258008 C180.631674,117.179231 180.823241,117.139844 181.016602,117.139844 C181.48926,117.139844 181.834797,117.270539 182.053223,117.531934 C182.271648,117.793328 182.380859,118.106639 182.380859,118.471875 C182.380859,118.708204 182.33431,118.923046 182.241211,119.116406 C182.148112,119.309767 182.026368,119.472688 181.875977,119.605176 C181.725585,119.737663 181.553712,119.841504 181.360352,119.916699 C181.166991,119.991895 180.970053,120.029492 180.769531,120.029492 L180.769531,120.029492 Z M178.395508,133.886914 L180.22168,133.661328 L180.22168,124.863477 L178.739258,124.079297 L178.739258,123.413281 L181.714844,122.564648 L182.198242,122.779492 L182.198242,133.661328 L183.938477,133.886914 L183.938477,134.8 L178.395508,134.8 L178.395508,133.886914 Z M185.657227,129.020703 C185.650065,128.032417 185.796873,127.140824 186.097656,126.345898 C186.398439,125.550973 186.812009,124.870641 187.338379,124.304883 C187.864749,123.739125 188.484209,123.298699 189.196777,122.983594 C189.909346,122.668488 190.677405,122.493034 191.500977,122.457227 C191.801759,122.450065 192.107909,122.455436 192.419434,122.47334 C192.730959,122.491244 193.024575,122.52347 193.300293,122.57002 C193.57601,122.616569 193.828449,122.675651 194.057617,122.747266 C194.286785,122.818881 194.472981,122.901237 194.616211,122.994336 L194.616211,125.572461 L193.595703,125.572461 L193.047852,124.218945 C192.933268,124.125846 192.800782,124.047071 192.650391,123.982617 C192.499999,123.918164 192.346029,123.864453 192.188477,123.821484 C192.030924,123.778515 191.873373,123.74808 191.71582,123.730176 C191.558267,123.712272 191.41504,123.70332 191.286133,123.70332 C190.806313,123.70332 190.347984,123.792838 189.911133,123.971875 C189.474282,124.150912 189.087567,124.421255 188.750977,124.78291 C188.414386,125.144566 188.145834,125.599314 187.945312,126.147168 C187.744791,126.695022 187.640951,127.337757 187.633789,128.075391 C187.626628,129.049354 187.74121,129.883655 187.977539,130.57832 C188.213868,131.272985 188.521808,131.840525 188.901367,132.280957 C189.280926,132.721389 189.703448,133.043651 190.168945,133.247754 C190.634442,133.451856 191.092771,133.553906 191.543945,133.553906 C191.823244,133.553906 192.11328,133.536003 192.414062,133.500195 C192.714845,133.464388 193.004881,133.417839 193.28418,133.360547 C193.563478,133.303255 193.821288,133.233431 194.057617,133.151074 C194.293946,133.068717 194.487304,132.984571 194.637695,132.898633 L195.00293,133.854687 C194.795246,134.040886 194.537436,134.205598 194.229492,134.348828 C193.921548,134.492058 193.583172,134.613802 193.214355,134.714062 C192.845539,134.814323 192.458824,134.891308 192.054199,134.94502 C191.649575,134.998731 191.243166,135.025586 190.834961,135.025586 C190.004228,135.025586 189.270185,134.875197 188.632812,134.574414 C187.99544,134.273631 187.456545,133.85469 187.016113,133.317578 C186.575681,132.780466 186.240887,132.144893 186.011719,131.41084 C185.782551,130.676787 185.664388,129.880082 185.657227,129.020703 L185.657227,129.020703 Z M199.332031,120.029492 C199.160155,120.029492 198.991863,119.999056 198.827148,119.938184 C198.662434,119.877311 198.517416,119.791374 198.39209,119.680371 C198.266764,119.569368 198.166504,119.431511 198.091309,119.266797 C198.016113,119.102083 197.978516,118.915886 197.978516,118.708203 C197.978516,118.486197 198.026855,118.278517 198.123535,118.085156 C198.220215,117.891796 198.343749,117.725294 198.494141,117.585645 C198.644532,117.445995 198.814615,117.336784 199.004395,117.258008 C199.194174,117.179231 199.385741,117.139844 199.579102,117.139844 C200.05176,117.139844 200.397297,117.270539 200.615723,117.531934 C200.834148,117.793328 200.943359,118.106639 200.943359,118.471875 C200.943359,118.708204 200.89681,118.923046 200.803711,119.116406 C200.710612,119.309767 200.588868,119.472688 200.438477,119.605176 C200.288085,119.737663 200.116212,119.841504 199.922852,119.916699 C199.729491,119.991895 199.532553,120.029492 199.332031,120.029492 L199.332031,120.029492 Z M196.958008,133.886914 L198.78418,133.661328 L198.78418,124.863477 L197.301758,124.079297 L197.301758,123.413281 L200.277344,122.564648 L200.760742,122.779492 L200.760742,133.661328 L202.500977,133.886914 L202.500977,134.8 L196.958008,134.8 L196.958008,133.886914 Z M204.359375,131.341016 C204.409505,130.839711 204.570637,130.401076 204.842773,130.025098 C205.11491,129.649119 205.451495,129.325066 205.852539,129.05293 C206.253583,128.780793 206.699379,128.555209 207.189941,128.376172 C207.680504,128.197135 208.172849,128.053907 208.666992,127.946484 C209.161135,127.839062 209.637367,127.763867 210.095703,127.720898 C210.554039,127.677929 210.951496,127.656445 211.288086,127.656445 L211.288086,126.721875 C211.288086,126.156117 211.212891,125.695998 211.0625,125.341504 C210.912109,124.98701 210.704428,124.709506 210.439453,124.508984 C210.174478,124.308463 209.862958,124.172396 209.504883,124.100781 C209.146808,124.029166 208.760093,123.993359 208.344727,123.993359 C208.137043,123.993359 207.904298,124.013053 207.646484,124.052441 C207.388671,124.09183 207.121909,124.14733 206.846191,124.218945 C206.570474,124.29056 206.29297,124.376497 206.013672,124.476758 C205.734374,124.577019 205.469402,124.68802 205.21875,124.809766 L204.821289,123.842969 C205.086264,123.628124 205.410317,123.440138 205.793457,123.279004 C206.176597,123.11787 206.570473,122.983594 206.975098,122.876172 C207.379722,122.768749 207.773598,122.689974 208.156738,122.639844 C208.539878,122.589713 208.867512,122.564648 209.139648,122.564648 C209.705406,122.564648 210.244301,122.62373 210.756348,122.741895 C211.268394,122.860059 211.717772,123.067739 212.104492,123.364941 C212.491213,123.662143 212.797362,124.063181 213.022949,124.568066 C213.248536,125.072952 213.361328,125.715686 213.361328,126.496289 L213.339844,133.886914 L214.714844,133.886914 L214.714844,134.595898 C214.464191,134.731967 214.154461,134.842968 213.785645,134.928906 C213.416828,135.014844 213.046226,135.057812 212.673828,135.057812 C212.544921,135.057812 212.405274,135.048861 212.254883,135.030957 C212.104491,135.013053 211.966635,134.968295 211.841309,134.89668 C211.715982,134.825065 211.612142,134.714063 211.529785,134.563672 C211.447428,134.41328 211.40625,134.2056 211.40625,133.940625 L211.40625,133.639844 C211.241536,133.840366 211.046388,134.026562 210.820801,134.198437 C210.595214,134.370313 210.337404,134.520702 210.047363,134.649609 C209.757323,134.778516 209.427899,134.878776 209.059082,134.950391 C208.690265,135.022006 208.280276,135.057812 207.829102,135.057812 C207.270505,135.057812 206.763837,134.957553 206.309082,134.757031 C205.854327,134.556509 205.474774,134.286167 205.17041,133.945996 C204.866047,133.605825 204.640463,133.211949 204.493652,132.764355 C204.346842,132.316762 204.302083,131.84232 204.359375,131.341016 L204.359375,131.341016 Z M206.443359,131.383984 C206.443359,131.806513 206.50065,132.164582 206.615234,132.458203 C206.729818,132.751824 206.896321,132.98994 207.114746,133.172559 C207.333172,133.355177 207.599933,133.487662 207.915039,133.57002 C208.230145,133.652377 208.584633,133.693555 208.978516,133.693555 C209.19336,133.693555 209.411783,133.664909 209.633789,133.607617 C209.855795,133.550325 210.068847,133.478711 210.272949,133.392773 C210.477052,133.306836 210.666829,133.208366 210.842285,133.097363 C211.017742,132.98636 211.159179,132.877149 211.266602,132.769727 C211.266602,132.096546 211.268392,131.428747 211.271973,130.766309 C211.275553,130.10387 211.280924,129.436071 211.288086,128.762891 C210.987303,128.762891 210.657879,128.779004 210.299805,128.81123 C209.94173,128.843457 209.583661,128.898958 209.225586,128.977734 C208.867511,129.056511 208.520184,129.160351 208.183594,129.289258 C207.847004,129.418165 207.549806,129.581086 207.291992,129.778027 C207.034178,129.974968 206.828289,130.205923 206.674316,130.470898 C206.520344,130.735874 206.443359,131.040233 206.443359,131.383984 L206.443359,131.383984 Z M216.551758,133.886914 L218.37793,133.661328 L218.37793,119.116406 L216.65918,118.729687 L216.65918,117.795117 L220.021484,117.343945 L220.451172,117.591016 L220.451172,133.661328 L222.363281,133.886914 L222.363281,134.8 L216.551758,134.8 L216.551758,133.886914 Z M230.688477,119.051953 L228.851562,118.665234 L228.851562,117.730664 L232.321289,117.343945 L232.750977,117.526562 L232.750977,123.8 C232.944337,123.635286 233.157388,123.470574 233.390137,123.305859 C233.622885,123.141145 233.880695,122.992546 234.163574,122.860059 C234.446453,122.727571 234.759764,122.62015 235.103516,122.537793 C235.447267,122.455436 235.826821,122.414258 236.242188,122.414258 C236.843753,122.414258 237.430987,122.519888 238.003906,122.731152 C238.576826,122.942416 239.085284,123.282582 239.529297,123.75166 C239.97331,124.220738 240.331379,124.827666 240.603516,125.572461 C240.875652,126.317256 241.011719,127.226752 241.011719,128.300977 C241.011719,129.217648 240.86491,130.087756 240.571289,130.911328 C240.277668,131.7349 239.864098,132.45641 239.330566,133.075879 C238.797035,133.695348 238.156091,134.187693 237.407715,134.55293 C236.659339,134.918166 235.833989,135.100781 234.931641,135.100781 C234.423175,135.100781 233.930829,135.072136 233.45459,135.014844 C232.97835,134.957552 232.548667,134.885938 232.165527,134.8 C231.782387,134.714062 231.458335,134.622754 231.193359,134.526074 C230.928384,134.429394 230.760092,134.341667 230.688477,134.262891 L230.688477,119.051953 Z M232.750977,133.102734 C232.86556,133.403517 233.143064,133.62373 233.583496,133.763379 C234.023928,133.903028 234.555661,133.972852 235.178711,133.972852 C235.644208,133.972852 236.100746,133.869011 236.54834,133.661328 C236.995933,133.453645 237.396971,133.134963 237.751465,132.705273 C238.105959,132.275584 238.392414,131.727738 238.61084,131.061719 C238.829265,130.3957 238.945638,129.604367 238.959961,128.687695 C238.974284,127.828316 238.879396,127.094274 238.675293,126.485547 C238.47119,125.87682 238.200848,125.382684 237.864258,125.003125 C237.527668,124.623566 237.142743,124.346062 236.709473,124.170605 C236.276202,123.995149 235.833987,123.907422 235.382812,123.907422 C235.067707,123.907422 234.77588,123.939648 234.507324,124.004102 C234.238768,124.068555 233.995281,124.150911 233.776855,124.251172 C233.55843,124.351433 233.361492,124.460644 233.186035,124.578809 C233.010579,124.696973 232.86556,124.809765 232.750977,124.917187 L232.750977,133.102734 Z M243.289062,133.886914 L245.029297,133.661328 L245.029297,124.917187 L243.503906,124.079297 L243.503906,123.413281 L246.339844,122.564648 L246.844727,122.779492 L246.844727,124.433789 C246.980795,124.233267 247.186685,124.022006 247.462402,123.8 C247.73812,123.577994 248.04785,123.375685 248.391602,123.193066 C248.735353,123.010448 249.093423,122.860059 249.46582,122.741895 C249.838218,122.62373 250.189126,122.564648 250.518555,122.564648 C250.754884,122.564648 250.967935,122.570019 251.157715,122.580762 C251.347494,122.591504 251.48177,122.611198 251.560547,122.639844 L251.560547,124.841992 C251.445963,124.799023 251.3278,124.754265 251.206055,124.707715 C251.084309,124.661165 250.950033,124.621778 250.803223,124.589551 C250.656412,124.557324 250.48991,124.530469 250.303711,124.508984 C250.117512,124.4875 249.90267,124.476758 249.65918,124.476758 C249.079099,124.476758 248.592124,124.550162 248.198242,124.696973 C247.80436,124.843783 247.44271,125.021028 247.113281,125.228711 L247.113281,133.629102 L250.174805,133.886914 L250.174805,134.8 L243.289062,134.8 L243.289062,133.886914 Z M255.578125,120.029492 C255.406249,120.029492 255.237957,119.999056 255.073242,119.938184 C254.908528,119.877311 254.76351,119.791374 254.638184,119.680371 C254.512857,119.569368 254.412598,119.431511 254.337402,119.266797 C254.262207,119.102083 254.224609,118.915886 254.224609,118.708203 C254.224609,118.486197 254.272949,118.278517 254.369629,118.085156 C254.466309,117.891796 254.589843,117.725294 254.740234,117.585645 C254.890626,117.445995 255.060709,117.336784 255.250488,117.258008 C255.440268,117.179231 255.631835,117.139844 255.825195,117.139844 C256.297854,117.139844 256.643391,117.270539 256.861816,117.531934 C257.080242,117.793328 257.189453,118.106639 257.189453,118.471875 C257.189453,118.708204 257.142904,118.923046 257.049805,119.116406 C256.956705,119.309767 256.834962,119.472688 256.68457,119.605176 C256.534179,119.737663 256.362306,119.841504 256.168945,119.916699 C255.975585,119.991895 255.778647,120.029492 255.578125,120.029492 L255.578125,120.029492 Z M253.204102,133.886914 L255.030273,133.661328 L255.030273,124.863477 L253.547852,124.079297 L253.547852,123.413281 L256.523438,122.564648 L257.006836,122.779492 L257.006836,133.661328 L258.74707,133.886914 L258.74707,134.8 L253.204102,134.8 L253.204102,133.886914 Z M260.412109,128.827344 C260.412109,127.910672 260.557127,127.065629 260.847168,126.292187 C261.137208,125.518746 261.541827,124.849156 262.061035,124.283398 C262.580243,123.71764 263.205074,123.271844 263.935547,122.945996 C264.666019,122.620148 265.471675,122.446484 266.352539,122.425 C266.982751,122.410677 267.552081,122.501985 268.060547,122.698926 C268.569013,122.895867 269.002277,123.187693 269.360352,123.574414 C269.718426,123.961135 269.999511,124.433786 270.203613,124.992383 C270.407716,125.550979 270.524088,126.184762 270.552734,126.89375 C270.567057,127.344924 270.558106,127.73522 270.525879,128.064648 C270.493652,128.394077 270.459636,128.687694 270.423828,128.945508 L262.463867,128.945508 L262.463867,129.069043 C262.463867,129.108431 262.467448,129.149609 262.474609,129.192578 C262.503255,130.059119 262.650064,130.775258 262.915039,131.341016 C263.180014,131.906774 263.511228,132.356151 263.908691,132.68916 C264.306154,133.02217 264.744789,133.254915 265.224609,133.387402 C265.704429,133.51989 266.1735,133.586133 266.631836,133.586133 C266.911134,133.586133 267.204751,133.57002 267.512695,133.537793 C267.82064,133.505566 268.119627,133.459017 268.409668,133.398145 C268.699708,133.337272 268.96826,133.267448 269.215332,133.188672 C269.462404,133.109895 269.661132,133.027539 269.811523,132.941602 L270.208984,133.854687 C270.001301,134.040886 269.730959,134.209179 269.397949,134.35957 C269.06494,134.509962 268.701499,134.637076 268.307617,134.740918 C267.913735,134.84476 267.501955,134.923535 267.072266,134.977246 C266.642576,135.030957 266.223635,135.057812 265.81543,135.057812 C264.948889,135.057812 264.18083,134.909214 263.51123,134.612012 C262.841631,134.31481 262.277672,133.895869 261.819336,133.355176 C261.361,132.814483 261.011883,132.161006 260.771973,131.394727 C260.532063,130.628447 260.412109,129.772661 260.412109,128.827344 L260.412109,128.827344 Z M268.361328,127.67793 C268.382813,127.312693 268.388184,126.945672 268.377441,126.576855 C268.366699,126.208039 268.32194,125.857131 268.243164,125.524121 C268.164388,125.191112 268.044434,124.886753 267.883301,124.611035 C267.722167,124.335318 267.505535,124.111524 267.233398,123.939648 C267.0472,123.817903 266.835939,123.726595 266.599609,123.665723 C266.36328,123.60485 266.094728,123.574414 265.793945,123.574414 C265.392902,123.574414 265.004396,123.649609 264.628418,123.8 C264.25244,123.950391 263.915854,124.190298 263.618652,124.519727 C263.32145,124.849155 263.072592,125.273467 262.87207,125.792676 C262.671548,126.311884 262.542644,126.940296 262.485352,127.67793 L268.361328,127.67793 Z M272.819336,133.886914 L274.978516,133.650586 L274.978516,124.229687 L272.615234,124.229687 L272.615234,123.413281 L274.978516,122.779492 L274.978516,121.887891 C274.978516,121.35794 275.044758,120.858433 275.177246,120.389355 C275.309734,119.920278 275.488768,119.492385 275.714355,119.105664 C275.939943,118.718943 276.201333,118.373406 276.498535,118.069043 C276.795737,117.764679 277.107257,117.50866 277.433105,117.300977 C277.758953,117.093293 278.090168,116.933952 278.426758,116.822949 C278.763348,116.711946 279.08203,116.656445 279.382812,116.656445 C279.869794,116.656445 280.227863,116.677929 280.457031,116.720898 C280.686199,116.763867 280.840169,116.803255 280.918945,116.839062 L280.918945,118.665234 C280.818684,118.607942 280.594891,118.538119 280.247559,118.455762 C279.900226,118.373405 279.468753,118.332227 278.953125,118.332227 C278.659504,118.332227 278.396323,118.357291 278.163574,118.407422 C277.930826,118.457552 277.730307,118.573925 277.562012,118.756543 C277.393717,118.939161 277.264812,119.207713 277.175293,119.562207 C277.085774,119.916701 277.041016,120.398304 277.041016,121.007031 L277.041016,122.779492 L280.285156,122.779492 L280.285156,124.229687 L277.041016,124.229687 L277.041016,133.67207 L279.511719,133.886914 L279.511719,134.8 L272.819336,134.8 L272.819336,133.886914 Z M282.938477,133.715039 C282.938477,133.493033 282.986816,133.285353 283.083496,133.091992 C283.180176,132.898632 283.30371,132.73213 283.454102,132.59248 C283.604493,132.452831 283.774576,132.34362 283.964355,132.264844 C284.154135,132.186067 284.345702,132.14668 284.539062,132.14668 C285.011721,132.14668 285.357258,132.277375 285.575684,132.53877 C285.794109,132.800164 285.90332,133.113475 285.90332,133.478711 C285.90332,133.71504 285.856771,133.929882 285.763672,134.123242 C285.670572,134.316603 285.548829,134.479524 285.398438,134.612012 C285.248046,134.744499 285.076173,134.848339 284.882812,134.923535 C284.689452,134.998731 284.492514,135.036328 284.291992,135.036328 C284.120116,135.036328 283.951824,135.005892 283.787109,134.94502 C283.622395,134.884147 283.477377,134.79821 283.352051,134.687207 C283.226725,134.576204 283.126465,134.438347 283.05127,134.273633 C282.976074,134.108918 282.938477,133.922722 282.938477,133.715039 L282.938477,133.715039 Z" id="Theme-Description" fill="#4A4A4A"></path>
                    <path d="M8.33,52.72 L1.05,53 L0.35,49.78 L0.77,49.78 C2.9166774,49.5466655 4.56166095,48.9516714 5.705,47.995 C6.84833905,47.0383285 7.8166627,45.4633443 8.61,43.27 L23.45,3.3 L26.81,3.3 L43.33,44.39 C44.3100049,46.6766781 45.1849961,48.1699965 45.955,48.87 C46.7250038,49.5700035 47.9733247,49.92 49.7,49.92 L50.47,53 C46.8299818,52.7666655 43.5516812,52.65 40.635,52.65 C37.7183187,52.65 34.8833471,52.7666655 32.13,53 L31.5,49.99 L31.78,49.99 C35.4666851,49.9433331 37.31,49.2900063 37.31,48.03 C37.31,47.4233303 35.6300168,43.2700385 32.27,35.57 L14.84,35.57 L11.41,45.09 C11.2699993,45.6500028 11.2,46.1399979 11.2,46.56 C11.2,47.5400049 11.6433289,48.2866641 12.53,48.8 C13.4166711,49.3133359 14.9333226,49.6399993 17.08,49.78 L17.92,53 L8.33,52.72 Z M22.89,13.45 L16.17,31.93 L30.66,31.93 L22.89,13.45 Z M62.44,44.25 C62.44,46.3033436 63.1516595,47.901661 64.575,49.045 C65.9983404,50.188339 68.0749863,50.76 70.805,50.76 C73.5350136,50.76 75.5649933,49.6400112 76.895,47.4 C78.2250066,45.1599888 78.89,42.1850185 78.89,38.475 C78.89,34.7649814 78.0266753,31.743345 76.3,29.41 C74.5733247,27.076655 72.3916798,25.91 69.755,25.91 C67.1183201,25.91 64.6800112,26.843324 62.44,28.71 L62.44,44.25 Z M56.49,41.17 L56.49,10.16 C56.49,8.3399909 56.1166704,7.13833625 55.37,6.555 C54.6233296,5.97166375 53.8766704,5.68 53.13,5.68 C52.3833296,5.68 51.8466683,5.7033331 51.52,5.75 L50.96,3.65 C52.3133401,3.3233317 54.1099888,2.75167075 56.35,1.935 C58.5900112,1.11832925 60.0599965,0.476669 60.76,0.01 C61.6000042,0.01 62.02,0.1966648 62.02,0.57 L62.09,26.54 C62.9300042,25.3733275 64.2366578,24.3350045 66.01,23.425 C67.7833422,22.5149955 69.7666557,22.06 71.96,22.06 C75.9733534,22.06 79.1933212,23.4249864 81.62,26.155 C84.0466788,28.8850136 85.26,32.6183097 85.26,37.355 C85.26,42.0916903 83.9300133,46.0233177 81.27,49.15 C78.6099867,52.2766823 74.8766907,53.84 70.07,53.84 C66.4766487,53.84 63.4200126,53.140007 60.9,51.74 L58.38,53.63 C58.1466655,53.7700007 57.9600007,53.84 57.82,53.84 C57.6333324,53.84 57.2366697,53.7700007 56.63,53.63 C56.3966655,53.5366662 56.3149996,53.3150017 56.385,52.965 C56.4550003,52.6149982 56.49,48.6833709 56.49,41.17 L56.49,41.17 Z M109.13,26.19 C107.729993,25.3966627 106.120009,25 104.3,25 C102.479991,25 100.800008,25.9916568 99.26,27.975 C97.7199923,29.9583432 96.95,32.7466487 96.95,36.34 C96.95,39.9333513 97.883324,43.024987 99.75,45.615 C101.616676,48.2050129 104.393315,49.5 108.08,49.5 C111.020015,49.5 113.446657,48.5433429 115.36,46.63 C115.453334,46.5366662 115.569999,46.49 115.71,46.49 C115.850001,46.49 115.966666,46.5366662 116.06,46.63 L117.46,48.24 C114.006649,51.973352 110.005023,53.84 105.455,53.84 C100.904977,53.84 97.2883467,52.3933478 94.605,49.5 C91.9216532,46.6066522 90.58,42.9666886 90.58,38.58 C90.58,33.1666396 92.0849849,29.060014 95.095,26.26 C98.105015,23.459986 101.873311,22.06 106.4,22.06 C108.36001,22.06 110.35499,22.3399972 112.385,22.9 C114.41501,23.4600028 115.943328,24.1599958 116.97,25 C117.016667,25.0933338 117.04,25.1866662 117.04,25.28 C117.04,25.9333366 116.316674,27.3099895 114.87,29.41 C114.683332,29.5966676 114.438335,29.69 114.135,29.69 C113.831665,29.69 113.271671,29.3050038 112.455,28.535 C111.638329,27.7649962 110.530007,26.9833373 109.13,26.19 L109.13,26.19 Z" id="Abc" fill="#5590BA"></path>
                </g>
            </g>
        </g>
    </g>
</svg>