<?xml version="1.0" encoding="UTF-8" standalone="no"?>
<svg width="311px" height="131px" viewBox="0 0 311 131" version="1.1" xmlns="http://www.w3.org/2000/svg" xmlns:xlink="http://www.w3.org/1999/xlink">
    <defs></defs>
    <g id="View-Samples" stroke="none" stroke-width="1" fill="none" fill-rule="evenodd">
        <g id="Desktop-HD" transform="translate(-1091.000000, -484.000000)">
            <g id="Theme-Sans" transform="translate(1075.932402, 415.000000)">
                <g id="Theme-Sample" transform="translate(15.000000, 69.000000)">
                    <text id="Theme-Description" font-family="PT Sans" font-size="26" font-weight="normal" line-spacing="36.4" fill="#4A4A4A">
                        <tspan x="0" y="84">Simple and modern style. </tspan>
                        <tspan x="0" y="123.4">It’s the cat’s meow. </tspan>
                    </text>
                    <rect id="Swatch-1" fill="#5D950F" x="225" y="12" width="36" height="36"></rect>
                    <rect id="Swatch-2" fill="#4A4A4A" x="275" y="12" width="36" height="36"></rect>
                    <path d="M1.19,49 L11.9,1.4 L30.24,1.4 L40.95,49 L31.29,49 L29.4,40.39 L12.74,40.39 L10.85,49 L1.19,49 Z M19.39,9.38 L14.56,31.99 L27.58,31.99 L22.75,9.38 L19.39,9.38 Z M63.42,13.16 C68.3200245,13.16 71.9016554,14.5016533 74.165,17.185 C76.4283447,19.8683468 77.56,24.6632988 77.56,31.57 C77.56,38.4767012 76.2533464,43.2483202 73.64,45.885 C71.0266536,48.5216799 66.5233653,49.84 60.13,49.84 C58.1233233,49.84 54.4600266,49.606669 49.14,49.14 L46.48,48.86 L46.48,0 L55.86,0 L55.86,15.05 C58.8466816,13.7899937 61.3666564,13.16 63.42,13.16 L63.42,13.16 Z M60.13,41.44 C63.2566823,41.44 65.3566613,40.6816743 66.43,39.165 C67.5033387,37.6483258 68.04,34.9300196 68.04,31.01 C68.04,24.7099685 66.0800196,21.56 62.16,21.56 C60.293324,21.56 58.5200084,21.793331 56.84,22.26 L55.86,22.47 L55.86,41.16 C58.0066774,41.3466676 59.4299965,41.44 60.13,41.44 L60.13,41.44 Z M97.65,13.16 C100.076679,13.16 103.179981,13.5333296 106.96,14.28 L108.85,14.7 L108.57,22.12 C104.883315,21.7466648 102.153342,21.56 100.38,21.56 C97.1599839,21.56 95.0250053,22.2483265 93.975,23.625 C92.9249948,25.0016736 92.4,27.6033142 92.4,31.43 C92.4,35.2566858 92.9249948,37.8816596 93.975,39.305 C95.0250053,40.7283405 97.183317,41.44 100.45,41.44 L108.57,40.88 L108.85,48.37 C103.856642,49.3500049 100.053346,49.84 97.44,49.84 C92.2599741,49.84 88.5383447,48.3816813 86.275,45.465 C84.0116554,42.5483187 82.88,37.8700322 82.88,31.43 C82.88,24.9899678 84.046655,20.3350144 86.38,17.465 C88.713345,14.5949857 92.4699741,13.16 97.65,13.16 L97.65,13.16 Z" id="Abc" fill="#5D950F"></path>
                </g>
            </g>
        </g>
    </g>
</svg>