<?xml version="1.0" encoding="UTF-8" standalone="no"?>
<svg width="82px" height="18px" viewBox="0 0 82 18" version="1.1" xmlns="http://www.w3.org/2000/svg" xmlns:xlink="http://www.w3.org/1999/xlink">
    <!-- Generator: Sketch 3.7.2 (28276) - http://www.bohemiancoding.com/sketch -->
    <title>socrata-logo-pb</title>
    <desc>Created with Sketch.</desc>
    <defs></defs>
    <g id="Page-1" stroke="none" stroke-width="1" fill="none" fill-rule="evenodd">
        <g id="socrata-logo-pb">
            <g id="Layer_1" transform="translate(20.250000, 1.125000)" fill="#646569">
                <g id="Group">
                    <path d="M7.425,2.8125 C6.4125,2.41875 5.85,2.25 4.8375,2.25 C3.7125,2.25 2.41875,2.64375 2.41875,4.10625 C2.41875,6.75 8.38125,6.13125 8.38125,10.74375 C8.38125,13.725 6.075,14.85 3.31875,14.85 C2.3625,14.85 1.40625,14.56875 0.50625,14.2875 L0.73125,12.43125 C1.40625,12.7125 2.5875,13.10625 3.6,13.10625 C4.725,13.10625 6.3,12.4875 6.3,10.85625 C6.3,7.7625 0.3375,8.60625 0.3375,4.275 C0.3375,1.8 2.30625,0.50625 4.78125,0.50625 C5.68125,0.50625 6.80625,0.675 7.7625,1.0125 L7.425,2.8125 L7.425,2.8125 Z" id="Shape"></path>
                    <path d="M14.45625,4.21875 C17.55,4.21875 19.575,6.46875 19.575,9.50625 C19.575,12.43125 17.49375,14.79375 14.45625,14.79375 C11.41875,14.79375 9.28125,12.375 9.28125,9.50625 C9.28125,6.4125 11.3625,4.21875 14.45625,4.21875 L14.45625,4.21875 Z M14.45625,13.33125 C16.65,13.33125 17.60625,11.3625 17.60625,9.5625 C17.60625,7.65 16.425,5.79375 14.45625,5.79375 C12.43125,5.79375 11.30625,7.65 11.30625,9.5625 C11.25,11.30625 12.2625,13.33125 14.45625,13.33125 L14.45625,13.33125 Z" id="Shape"></path>
                    <path d="M27.61875,6.13125 C26.8875,5.85 26.2125,5.68125 25.59375,5.68125 C23.5125,5.68125 22.33125,7.5375 22.33125,9.45 C22.33125,11.25 23.2875,13.21875 25.70625,13.21875 C26.325,13.21875 27.1125,12.99375 27.73125,12.65625 L27.84375,14.34375 C27.05625,14.68125 26.15625,14.7375 25.48125,14.7375 C22.44375,14.7375 20.30625,12.31875 20.30625,9.45 C20.30625,6.35625 22.3875,4.1625 25.48125,4.1625 C26.2125,4.1625 27.225,4.33125 27.73125,4.55625 L27.61875,6.13125 L27.61875,6.13125 Z" id="Shape"></path>
                    <path d="M29.1375,4.44375 L30.88125,4.44375 L30.88125,6.01875 L30.9375,6.01875 C31.44375,4.95 32.5125,4.21875 33.58125,4.21875 C34.14375,4.21875 34.425,4.275 34.81875,4.33125 L34.81875,6.01875 C34.48125,5.90625 34.0875,5.85 33.80625,5.85 C32.11875,5.85 31.05,7.425 31.05,9.95625 L31.05,14.56875 L29.19375,14.56875 L29.19375,4.44375 L29.1375,4.44375 Z" id="Shape"></path>
                    <path d="M36.45,5.175 C37.40625,4.6125 38.475,4.21875 39.76875,4.21875 C42.69375,4.21875 43.81875,5.625 43.81875,8.38125 L43.81875,12.6 C43.81875,13.725 43.875,14.2875 43.875,14.56875 L42.1875,14.56875 L42.1875,13.275 L42.13125,13.275 C41.68125,13.89375 40.725,14.85 38.98125,14.85 C36.7875,14.85 35.26875,13.89375 35.26875,11.7 C35.26875,9.16875 38.025,8.38125 39.99375,8.38125 C40.725,8.38125 41.23125,8.38125 41.9625,8.4375 C41.9625,6.69375 41.34375,5.79375 39.4875,5.79375 C38.41875,5.79375 37.29375,6.1875 36.5625,6.80625 L36.45,5.175 L36.45,5.175 Z M41.9625,9.73125 C41.56875,9.73125 41.175,9.675 40.78125,9.675 C39.76875,9.675 37.29375,9.84375 37.29375,11.64375 C37.29375,12.7125 38.30625,13.275 39.20625,13.275 C41.0625,13.275 42.01875,12.15 42.01875,10.63125 L42.01875,9.73125 L41.9625,9.73125 Z" id="Shape"></path>
                    <path d="M51.525,5.9625 L48.825,5.9625 L48.825,11.53125 C48.825,12.7125 49.55625,13.33125 50.4,13.33125 C50.9625,13.33125 51.4125,13.1625 51.69375,12.99375 L51.69375,14.56875 C51.3,14.68125 50.68125,14.85 50.11875,14.85 C48.20625,14.85 47.025,13.95 47.025,11.925 L47.025,5.9625 L44.71875,5.9625 L44.71875,4.44375 L47.025,4.44375 L47.025,2.08125 L48.88125,1.4625 L48.88125,4.3875 L51.58125,4.3875 L51.58125,5.9625 L51.525,5.9625 Z" id="Shape"></path>
                    <path d="M53.4375,5.175 C54.39375,4.6125 55.4625,4.21875 56.75625,4.21875 C59.68125,4.21875 60.80625,5.625 60.80625,8.38125 L60.80625,12.6 C60.80625,13.725 60.8625,14.2875 60.8625,14.56875 L59.11875,14.56875 L59.11875,13.275 L59.0625,13.275 C58.6125,13.89375 57.65625,14.85 55.9125,14.85 C53.71875,14.85 52.2,13.89375 52.2,11.7 C52.2,9.16875 54.95625,8.38125 56.925,8.38125 C57.65625,8.38125 58.1625,8.38125 58.89375,8.4375 C58.89375,6.69375 58.275,5.79375 56.41875,5.79375 C55.35,5.79375 54.225,6.1875 53.49375,6.80625 L53.4375,5.175 L53.4375,5.175 Z M58.95,9.73125 C58.55625,9.73125 58.1625,9.675 57.76875,9.675 C56.75625,9.675 54.28125,9.84375 54.28125,11.64375 C54.28125,12.7125 55.29375,13.275 56.19375,13.275 C58.05,13.275 59.00625,12.15 59.00625,10.63125 L59.00625,9.73125 L58.95,9.73125 Z" id="Shape"></path>
                </g>
            </g>
            <g id="Layer_2">
                <path d="M16.93125,5.625 L16.7625,5.7375 L15.75,6.13125 C16.2,7.0875 16.425,8.1 16.425,9.225 C16.425,13.275 13.10625,16.59375 9.05625,16.59375 C5.00625,16.59375 1.6875,13.275 1.6875,9.225 C1.6875,5.175 5.00625,1.85625 9.05625,1.85625 C9.9,1.85625 10.74375,2.025 11.475,2.25 L11.8125,1.2375 L11.86875,1.0125 C11.025,0.7875 10.06875,0.5625 9.05625,0.5625 C4.33125,0.5625 0.45,4.44375 0.45,9.225 C0.45,14.00625 4.33125,17.8875 9.1125,17.8875 C13.89375,17.8875 17.775,14.00625 17.775,9.225 C17.71875,7.93125 17.4375,6.69375 16.93125,5.625 L16.93125,5.625 Z" id="Shape" fill="#298DC1"></path>
                <path d="M11.08125,3.54375 C10.4625,3.31875 9.7875,3.20625 9.1125,3.20625 C5.7375,3.20625 2.98125,5.90625 2.98125,9.225 C2.98125,12.54375 5.7375,15.24375 9.1125,15.24375 C12.4875,15.24375 15.24375,12.54375 15.24375,9.225 C15.24375,8.325 15.01875,7.48125 14.68125,6.69375 L14.5125,6.80625 L13.5,7.25625 C13.78125,7.875 13.95,8.49375 13.95,9.225 C13.95,11.8125 11.8125,13.95 9.16875,13.95 C6.525,13.95 4.3875,11.8125 4.3875,9.225 C4.3875,6.6375 6.525,4.5 9.16875,4.5 C9.73125,4.5 10.2375,4.6125 10.74375,4.78125 L11.08125,3.76875 L11.08125,3.54375 L11.08125,3.54375 Z" id="Shape" fill="#298DC1"></path>
                <path d="M9.05625,11.475 C7.7625,11.475 6.75,10.4625 6.75,9.16875 C6.75,7.875 7.7625,6.8625 9.05625,6.8625 C9.3375,6.8625 9.61875,6.91875 9.84375,7.03125 L10.2375,5.85 C9.84375,5.7375 9.45,5.625 9,5.625 C7.03125,5.625 5.4,7.2 5.4,9.225 C5.4,11.19375 7.03125,12.825 9,12.825 C10.96875,12.825 12.6,11.25 12.6,9.225 L12.6,9.225 C12.6,8.71875 12.4875,8.26875 12.31875,7.875 L11.19375,8.4375 C11.30625,8.71875 11.3625,8.94375 11.3625,9.28125 C11.3625,10.40625 10.35,11.41875 9.05625,11.475 L9.05625,11.475 Z" id="Shape" fill="#298DC1"></path>
                <path d="M10.85625,7.3125 L17.325,4.21875 C16.36875,2.5875 14.90625,1.29375 13.21875,0.50625 L10.85625,7.3125 L10.85625,7.3125 Z" id="Shape" fill="#E28432"></path>
            </g>
        </g>
    </g>
</svg>