<?xml version="1.0" encoding="utf-8"?>
<!-- Generated by IcoMoon.io -->
<!DOCTYPE svg PUBLIC "-//W3C//DTD SVG 1.1//EN" "http://www.w3.org/Graphics/SVG/1.1/DTD/svg11.dtd">
<svg version="1.1" xmlns="http://www.w3.org/2000/svg" xmlns:xlink="http://www.w3.org/1999/xlink" width="1024" height="1024" viewBox="0 0 1024 1024">
<g id="icomoon-ignore">
</g>
<path d="M896 768h-128v128h-64v-128h-128v-64h128v-128h64v128h128v64zM736 448c-158.976 0-288 128.96-288 288s129.024 288 288 288c159.104 0 288-128.96 288-288s-128.896-288-288-288v0 0 0z"></path>
<path d="M384 832.096h-320v-85.376c22.016-12.992 61.12-32 91.776-46.784 141.44-68.736 228.224-114.624 228.224-188.736 0-46.272-28.224-73.856-50.88-96-32.512-31.808-77.12-75.328-77.12-223.488 0-75.328 101.248-127.808 192-127.808 90.88 0 192 52.48 192 127.808 0 148.16-44.48 191.68-76.992 223.488-9.792 9.472-20.16 20.352-29.248 32.768h86.72c36.992-37.888 83.52-99.904 83.52-256.256 0-119.616-136.128-191.744-256-191.744-119.744 0-256 72.128-256 191.744 0 259.072 128 259.712 128 319.488 0 63.936-292.032 161.856-320 205.376v179.392h384v-63.872z"></path>
</svg>
