<?xml version="1.0" encoding="UTF-8" standalone="no"?>
<svg
   xmlns:dc="http://purl.org/dc/elements/1.1/"
   xmlns:cc="http://creativecommons.org/ns#"
   xmlns:rdf="http://www.w3.org/1999/02/22-rdf-syntax-ns#"
   xmlns:svg="http://www.w3.org/2000/svg"
   xmlns="http://www.w3.org/2000/svg"
   width="1024"
   height="1024"
   viewBox="0 0 1024 1024"
   version="1.1"
   id="svg2">
  <metadata
     id="metadata15">
    <rdf:RDF>
      <cc:Work
         rdf:about="">
        <dc:format>image/svg+xml</dc:format>
        <dc:type
           rdf:resource="http://purl.org/dc/dcmitype/StillImage" />
        <dc:title></dc:title>
      </cc:Work>
    </rdf:RDF>
  </metadata>
  <!-- Generator: Sketch 42 (36781) - http://www.bohemiancoding.com/sketch -->
  <path
     d="m 406.3406,916.33577 c 0,59.26035 47.41143,106.66423 106.67593,106.66423 59.26448,0 106.67592,-47.40388 106.67592,-106.66423 l -213.35185,0 z m 617.5315,-98.36983 c 2.3406,-8.30171 1.1703,-17.78102 -4.755,-23.7056 L 833.02638,609.36983 833.02638,319 C 833.02638,142.40388 689.61074,-1 513.00153,-1 336.39382,-1 192.97448,142.40388 192.97448,319 l 0,290.36983 L 6.8844586,794.26034 c -5.92506032,5.92458 -7.11006946,15.40389 -4.7400219,23.7056 C 5.6994714,826.26035 13.997476,831 22.294755,831 l 981.417245,0 c 8.2951,0 16.5901,-4.75429 20.1451,-13.03406 z"
     id="notification" />
</svg>
