<?xml version="1.0" encoding="utf-8"?>
<!-- Generated by IcoMoon.io -->
<!DOCTYPE svg PUBLIC "-//W3C//DTD SVG 1.1//EN" "http://www.w3.org/Graphics/SVG/1.1/DTD/svg11.dtd">
<svg version="1.1" xmlns="http://www.w3.org/2000/svg" xmlns:xlink="http://www.w3.org/1999/xlink" width="1024" height="1024" viewBox="0 0 1024 1024">
<g id="icomoon-ignore">
</g>
<path d="M544 1024h480v-480h-480v480zM784 625.6c65.6 0 120 54.4 120 120 0 80-120 200-120 200s-120-120-120-200c0-65.6 54.4-120 120-120zM843.2 745.6c0 32.695-26.505 59.2-59.2 59.2s-59.2-26.505-59.2-59.2c0-32.695 26.505-59.2 59.2-59.2s59.2 26.505 59.2 59.2zM0 0v480h1024v-480h-1024zM356.8 368h-196.8v-123.2h196.8v123.2zM609.6 368h-195.2v-256h196.8v256zM864 368h-196.8v-184h196.8v184zM0 1024h480v-480h-480v480zM240 624v160l113.6-113.6c28.8 28.8 46.4 68.8 46.4 113.6 0 88-72 160-160 160s-160-72-160-160c0-88 72-160 160-160z"></path>
</svg>
