<?xml version="1.0" encoding="UTF-8" standalone="no"?>
<svg width="1024px" height="1024px" viewBox="0 0 1024 1024" version="1.1" xmlns="http://www.w3.org/2000/svg" xmlns:xlink="http://www.w3.org/1999/xlink">
    <!-- Generator: Sketch 3.8.3 (29802) - http://www.bohemiancoding.com/sketch -->
    <title>community</title>
    <desc>Created with Sketch.</desc>
    <defs></defs>
    <g id="Page-1" stroke="none" stroke-width="1" fill="none" fill-rule="evenodd">
        <path d="M266.409003,685.421718 C251.623991,707.728275 243.415516,732.393525 243.415516,758.33394 L788.457357,758.33394 C788.457357,732.393525 780.2489,707.728275 765.46391,685.421718 L871.0205,685.421722 L871.0205,627.558526 C861.97869,613.520986 767.564205,581.936523 767.564205,561.31398 C767.564205,542.03327 808.946914,541.82676 808.946914,458.262546 C808.946914,419.68006 764.895052,396.415025 726.181495,396.415025 C692.192191,396.415025 654.160261,414.310332 645.32111,444.739423 L645.32111,444.739423 L645.32111,486.788473 C649.740174,516.93343 661.029389,531.324229 670.418671,540.918374 L698.4553,540.918374 C695.51719,536.913621 692.164957,533.404236 688.999367,530.349045 C678.488024,520.089321 664.10759,506.051781 664.10759,458.262546 C664.10759,433.965283 696.800081,417.037568 726.181495,417.037568 C755.521752,417.037568 788.2554,433.965283 788.2554,458.262546 C788.2554,506.051781 773.83349,520.089321 763.322467,530.349045 C755.997771,537.491656 746.87301,546.388801 746.87301,561.31398 C746.87301,585.218971 774.930376,600.020308 820.658195,622.191194 C830.56909,626.959744 843.211671,633.090874 850.329305,637.281485 L850.329305,664.81967 L749.350929,664.81967 C707.997467,619.347938 637.395685,586.938708 554.867919,579.093267 L554.867919,541.758136 C597.752386,513.655289 632.731171,443.593988 632.731171,373.521515 C632.731171,261.007669 632.731171,169.797178 515.936452,169.797178 C399.141797,169.797178 399.141797,261.007669 399.141797,373.521515 C399.141797,443.593988 434.120519,513.655289 477.004986,541.758136 L477.004986,579.093267 C394.477339,586.938708 323.875515,619.347938 282.522005,664.81967 L182.44877,664.81967 L182.44877,637.281485 C189.566595,633.090874 202.208984,626.959744 212.120103,622.191194 C257.847858,600.020308 285.905257,585.218971 285.905257,561.31398 C285.905257,546.388801 276.780399,537.491656 269.455672,530.349045 C258.944489,520.089321 244.522643,506.051781 244.522643,458.262546 C244.522643,433.965283 277.25629,417.037568 306.596548,417.037568 C335.978153,417.037568 368.67042,433.965283 368.67042,458.262546 C368.67042,506.051781 354.289987,520.089321 343.778804,530.349045 C340.613022,533.404236 337.261044,536.913621 334.32287,540.918374 L362.359595,540.918374 C371.748728,531.324151 383.038081,516.933195 387.457093,486.787737 L387.457093,444.739749 L387.457093,444.739749 C378.618123,414.31046 340.586057,396.415025 306.596548,396.415025 C267.88315,396.415025 223.831352,419.68006 223.831352,458.262546 C223.831352,541.82676 265.213934,542.03327 265.213934,561.31398 C265.213934,581.936523 170.799576,613.520986 161.757479,627.558526 L161.757479,685.421722 L266.409,685.421722 Z M826.007667,211.151743 C995.981562,381.195562 995.981562,656.890791 826.007667,826.934577 C656.03441,996.979226 380.453583,996.979226 210.480358,826.934577 C40.506271,656.890791 40.506271,381.195562 210.480358,211.151743 C380.453583,41.1072863 656.03441,41.1072863 826.007667,211.151743 Z" id="Combined-Shape" fill="#000000"></path>
        <g id="community"></g>
    </g>
</svg>