<?xml version="1.0" encoding="utf-8"?>
<!-- Generated by IcoMoon.io -->
<!DOCTYPE svg PUBLIC "-//W3C//DTD SVG 1.1//EN" "http://www.w3.org/Graphics/SVG/1.1/DTD/svg11.dtd">
<svg version="1.1" xmlns="http://www.w3.org/2000/svg" xmlns:xlink="http://www.w3.org/1999/xlink" width="1024" height="1024" viewBox="0 0 1024 1024">
<g id="icomoon-ignore">
</g>
<path d="M149.7 402.1c28.4 22.5 64.8 42 107.1 57.9 72.5 27.2 162.3 43.4 259.9 43.4s187.4-16.3 259.9-43.4c42.4-15.9 78.7-35.5 107.1-57.9 22.5-17.8 39.9-37.2 51.3-57.9 10.2-18.4 16.1-37.8 16.1-57.9 0.1-120-194.3-217.3-434.3-217.3s-434.5 97.3-434.5 217.2c0 20.1 5.9 39.5 16.1 57.9 11.5 20.7 28.9 40.2 51.3 58zM883.8 517.9c-28.4 22.5-64.8 42-107.1 57.9-72.5 27.2-162.3 43.4-259.9 43.4s-187.4-16.3-259.9-43.4c-42.4-15.9-78.7-35.5-107.1-57.9-22.5-17.8-39.9-37.2-51.3-57.9-10.2 18.4-16.1 37.8-16.1 57.9s5.9 39.5 16.1 57.9c11.4 20.7 28.8 40.2 51.3 57.9 77 60.8 212.4 101.4 367 101.4 154.7 0 290-40.6 367-101.4 22.5-17.8 39.8-37.2 51.3-57.9 10.2-18.4 16.1-37.8 16.1-57.9s-5.9-39.5-16.1-57.9c-11.5 20.7-28.9 40.2-51.3 57.9zM516.8 851c-199.8 0-367.6-67.5-418.3-159.3-10.2 18.4-16.1 37.8-16.1 57.9 0 119.9 194.5 217.2 434.5 217.2s434.5-97.3 434.5-217.2c0-20.1-5.9-39.5-16.1-57.9-51 91.8-218.8 159.3-418.5 159.3z"></path>
</svg>
