<?xml version="1.0" encoding="UTF-8" standalone="no"?>
<svg width="1024px" height="1024px" viewBox="0 0 1024 1024" version="1.1" xmlns="http://www.w3.org/2000/svg" xmlns:xlink="http://www.w3.org/1999/xlink">
    <!-- Generator: Sketch 3.7.1 (28215) - http://www.bohemiancoding.com/sketch -->
    <title>dataset</title>
    <desc>Created with Sketch.</desc>
    <defs></defs>
    <g id="Page-1" stroke="none" stroke-width="1" fill="none" fill-rule="evenodd">
        <g id="dataset" fill="#000000">
            <path d="M511.101562,65 L695.695312,171.28125 L512.5,278.960938 L326.507812,171.28125 L511.101562,65 L511.101562,65 Z M245.398438,821.554688 L65,718.070313 L65,367.0625 L245.398438,470.546875 L245.398438,821.554688 L245.398438,821.554688 Z M88.7734375,309.726562 L266.375,206.242187 L450.96875,312.523437 L274.765625,417.40625 L88.7734375,309.726562 L88.7734375,309.726562 Z M480.335937,957.203125 L309.726562,857.914062 L309.726562,506.90625 L480.335937,606.195312 L480.335937,957.203125 L480.335937,957.203125 Z M513.898438,555.851563 L334.898438,452.367188 L512.5,348.882813 L691.5,452.367188 L513.898438,555.851563 L513.898438,555.851563 Z M720.867187,857.914063 L543.265625,960 L543.265625,608.992188 L719.46875,506.90625 L719.46875,857.914063 L720.867187,857.914063 Z M572.632813,313.921875 L755.828125,207.640625 L934.828125,311.125 L751.632813,417.40625 L572.632813,313.921875 L572.632813,313.921875 Z M960,718.070313 L785.195312,820.15625 L785.195312,469.148438 L960,367.0625 L960,718.070313 L960,718.070313 Z" id="Shape"></path>
        </g>
    </g>
</svg>