<?xml version="1.0" encoding="utf-8"?>
<!-- Generated by IcoMoon.io -->
<!DOCTYPE svg PUBLIC "-//W3C//DTD SVG 1.1//EN" "http://www.w3.org/Graphics/SVG/1.1/DTD/svg11.dtd">
<svg version="1.1" xmlns="http://www.w3.org/2000/svg" xmlns:xlink="http://www.w3.org/1999/xlink" width="1024" height="1024" viewBox="0 0 1024 1024">
<g id="icomoon-ignore">
</g>
<path d="M510.4 0l211.2 121.6-209.6 123.2-212.8-123.2 211.2-121.6zM206.4 865.6l-206.4-118.4v-401.6l206.4 118.4v401.6zM27.2 280l203.2-118.4 211.2 121.6-201.6 120-212.8-123.2zM475.2 1020.8l-195.2-113.6v-401.6l195.2 113.6v401.6zM513.6 561.6l-204.8-118.4 203.2-118.4 204.8 118.4-203.2 118.4zM750.4 907.2l-203.2 116.8v-401.6l201.6-116.8v401.6zM580.8 284.8l209.6-121.6 204.8 118.4-209.6 121.6-204.8-118.4zM1024 747.2l-200 116.8v-401.6l200-116.8v401.6z"></path>
</svg>
