<?xml version="1.0" encoding="UTF-8" standalone="no"?>
<svg width="1024px" height="1024px" viewBox="0 0 1024 1024" version="1.1" xmlns="http://www.w3.org/2000/svg" xmlns:xlink="http://www.w3.org/1999/xlink">
    <!-- Generator: Sketch 3.7.1 (28215) - http://www.bohemiancoding.com/sketch -->
    <title>date</title>
    <desc>Created with Sketch.</desc>
    <defs></defs>
    <g id="Page-1" stroke="none" stroke-width="1" fill="none" fill-rule="evenodd">
        <g id="date" fill="#000000">
            <path d="M969.047306,144.464779 L969.047306,960 L54,960 L54,144.464779 L220.004157,141.324655 L220.004157,78.3931912 C220.004157,78.3931912 243.16705,65 265.99898,65 C288.830912,65 311.649473,78.3931912 311.649473,78.3931912 L311.649473,141.324655 L711.397836,141.324655 L711.397836,78.3931912 C711.397836,78.3931912 737.745762,65 759.572572,65 C781.399385,65 803.043149,78.3931912 803.043149,78.3931912 L803.043149,141.324655 L969.047306,144.464779 L969.047306,144.464779 Z M106.289621,193.926227 L103.871539,309.994205 L913.803127,309.994205 L914.984051,193.926227 L803.043149,191.51506 L803.043149,213.098932 L711.397836,213.098932 L711.397836,191.51506 L311.649473,191.51506 L311.649473,213.098932 L220.004157,213.098932 L220.004157,191.51506 L106.289621,193.926227 L106.289621,193.926227 Z M336.152361,599.754403 L336.152361,376.820226 L107.135647,376.820226 L107.135647,599.754403 L336.152361,599.754403 L336.152361,599.754403 Z M397.015296,376.820226 L397.015296,599.754403 L626.032011,599.754403 L626.032011,376.820226 L397.015296,376.820226 L397.015296,376.820226 Z M681.522304,376.820226 L681.522304,599.754403 L910.539019,599.754403 L910.539019,376.820226 L681.522304,376.820226 L681.522304,376.820226 Z M336.152361,905.208504 L336.152361,654.407556 L107.135647,654.407556 L107.135647,877.341733 L135.762736,905.208504 L336.152361,905.208504 L336.152361,905.208504 Z M397.015296,905.208504 L626.032011,905.208504 L626.032011,654.407556 L397.015296,654.407556 L397.015296,905.208504 L397.015296,905.208504 Z M881.91193,899.851227 L910.539019,871.984457 L910.539019,649.05028 L681.522304,649.05028 L681.522304,899.851227 L881.91193,899.851227 L881.91193,899.851227 Z" id="calendar"></path>
        </g>
    </g>
</svg>