<?xml version="1.0" encoding="UTF-8" standalone="no"?>
<svg width="400px" height="400px" viewBox="0 0 400 400" version="1.1" xmlns="http://www.w3.org/2000/svg" xmlns:xlink="http://www.w3.org/1999/xlink">
    <!-- Generator: Sketch 3.6.1 (26313) - http://www.bohemiancoding.com/sketch -->
    <title>date</title>
    <desc>Created with Sketch.</desc>
    <defs></defs>
    <g id="Page-1" stroke="none" stroke-width="1" fill="none" fill-rule="evenodd">
        <g id="date" fill="#000000">
            <path d="M388.352812,45.9512472 L388.352812,384.125 L10,384.125 L10,45.9512472 L78.639227,44.6491481 L78.639227,18.553685 C78.639227,18.553685 88.2165958,13 97.6571187,13 C107.097642,13 116.532637,18.553685 116.532637,18.553685 L116.532637,44.6491481 L281.820176,44.6491481 L281.820176,18.553685 C281.820176,18.553685 292.714489,13 301.739416,13 C310.764344,13 319.713585,18.553685 319.713585,18.553685 L319.713585,44.6491481 L388.352812,45.9512472 Z M31.6206585,66.4611688 L30.6208324,114.590474 L365.510506,114.590474 L365.998793,66.4611688 L319.713585,65.4613426 L319.713585,74.4114146 L281.820176,74.4114146 L281.820176,65.4613426 L116.532637,65.4613426 L116.532637,74.4114146 L78.639227,74.4114146 L78.639227,65.4613426 L31.6206585,66.4611688 Z M126.664066,234.74383 L126.664066,142.300873 L31.9704722,142.300873 L31.9704722,234.74383 L126.664066,234.74383 Z M151.829609,142.300873 L151.829609,234.74383 L246.523203,234.74383 L246.523203,142.300873 L151.829609,142.300873 Z M269.467272,142.300873 L269.467272,234.74383 L364.160866,234.74383 L364.160866,142.300873 L269.467272,142.300873 Z M126.664066,361.404895 L126.664066,257.406569 L31.9704722,257.406569 L31.9704722,349.849526 L43.8071715,361.404895 L126.664066,361.404895 Z M151.829609,361.404895 L246.523203,361.404895 L246.523203,257.406569 L151.829609,257.406569 L151.829609,361.404895 Z M352.324167,359.183421 L364.160866,347.628052 L364.160866,255.185095 L269.467272,255.185095 L269.467272,359.183421 L352.324167,359.183421 Z" id="calendar"></path>
        </g>
    </g>
</svg>