<?xml version="1.0" encoding="UTF-8" standalone="no"?>
<svg width="1024px" height="1024px" viewBox="0 0 1024 1024" version="1.1" xmlns="http://www.w3.org/2000/svg" xmlns:xlink="http://www.w3.org/1999/xlink">
    <!-- Generator: Sketch 3.7.1 (28215) - http://www.bohemiancoding.com/sketch -->
    <title>distribution</title>
    <desc>Created with Sketch.</desc>
    <defs></defs>
    <g id="Page-1" stroke="none" stroke-width="1" fill="none" fill-rule="evenodd">
        <g id="distribution" fill="#000000">
            <path d="M31,906.12773 L992.374926,906.12773 L992.374926,960 L31,960 L31,906.12773 L31,906.12773 Z M31,678.693081 L31,529.621635 C114.163448,529.621635 160.203289,451.978754 226.155892,324.09653 C288.784956,202.653543 359.776014,65 511.68509,65 C663.550511,65 734.547263,202.356493 797.190563,323.537545 C863.127982,451.10279 909.167822,528.561557 992.370181,528.561557 L992.370181,677.633003 C812.409372,677.633003 730.543262,519.251472 664.760538,391.991818 C607.540054,281.291967 568.686346,214.071446 511.68509,214.071446 C454.731287,214.071446 415.873783,281.452355 358.638115,392.42458 C292.865829,519.9661 211.009209,678.693081 31,678.693081 L31,678.693081 Z" id="Shape"></path>
        </g>
    </g>
</svg>