<?xml version="1.0" encoding="utf-8"?>
<!-- Generated by IcoMoon.io -->
<!DOCTYPE svg PUBLIC "-//W3C//DTD SVG 1.1//EN" "http://www.w3.org/Graphics/SVG/1.1/DTD/svg11.dtd">
<svg version="1.1" xmlns="http://www.w3.org/2000/svg" xmlns:xlink="http://www.w3.org/1999/xlink" width="1024" height="1024" viewBox="0 0 1024 1024">
<g id="icomoon-ignore">
</g>
<path d="M5.12 918.866h1012.997v56.765h-1012.997v-56.765zM5.12 679.219v-157.076c87.629 0 136.141-81.812 205.635-216.561 65.992-127.964 140.795-273.009 300.861-273.009 160.020 0 234.829 144.732 300.836 272.42 69.478 134.415 117.99 216.033 205.66 216.033v157.076c-189.624 0-275.886-166.886-345.201-300.979-60.293-116.644-101.233-187.474-161.295-187.474-60.012 0-100.956 70.999-161.265 187.93-69.304 134.39-155.556 301.64-345.231 301.64z"></path>
</svg>
