<?xml version="1.0" encoding="UTF-8" standalone="no"?>
<svg width="400px" height="400px" viewBox="0 0 400 400" version="1.1" xmlns="http://www.w3.org/2000/svg" xmlns:xlink="http://www.w3.org/1999/xlink">
    <!-- Generator: Sketch 3.6.1 (26313) - http://www.bohemiancoding.com/sketch -->
    <title>email</title>
    <desc>Created with Sketch.</desc>
    <defs></defs>
    <g id="Page-1" stroke="none" stroke-width="1" fill="none" fill-rule="evenodd">
        <g id="email" fill="#000000">
            <path d="M360,101.6875 L202.5,219.8125 L45,101.6875 C45,96.2529025 46.9225882,91.6130563 50.7678223,87.7678223 C54.6130563,83.9225882 59.2529025,82 64.6875,82 L340.3125,82 C345.747097,82 350.386944,83.9225882 354.232178,87.7678223 C358.077412,91.6130563 360,96.2529025 360,101.6875 L360,101.6875 Z M45,137.063477 L202.5,255.188477 L360,137.063477 L360,298.5625 C360,303.997097 358.077412,308.636944 354.232178,312.482178 C350.386944,316.327412 345.747097,318.25 340.3125,318.25 L64.6875,318.25 C59.2529025,318.25 54.6130563,316.327412 50.7678223,312.482178 C46.9225882,308.636944 45,303.997097 45,298.5625 L45,137.063477 Z"></path>
        </g>
    </g>
</svg>