<?xml version="1.0" encoding="UTF-8" standalone="no"?>
<svg width="1024px" height="1024px" viewBox="0 0 1024 1024" version="1.1" xmlns="http://www.w3.org/2000/svg" xmlns:xlink="http://www.w3.org/1999/xlink">
    <!-- Generator: Sketch 3.7.1 (28215) - http://www.bohemiancoding.com/sketch -->
    <title>eye-blocked</title>
    <desc>Created with Sketch.</desc>
    <defs></defs>
    <g id="Page-1" stroke="none" stroke-width="1" fill="none" fill-rule="evenodd">
        <g id="eye-blocked" fill="#000000">
            <path d="M219.035703,694.864375 C212.762812,690.975938 206.931953,687.23125 201.606016,683.705781 C162.216719,657.6475 125.968359,627.822969 99.538125,599.719844 C67.5501562,565.712188 52,537.019687 52,512.001797 C52,486.982109 67.5501562,458.289609 99.5345312,424.281953 C125.964766,396.180625 162.213125,366.354297 201.602422,340.296016 C260.378203,301.413437 378.860547,236.181484 511.998203,236.181484 C523.340078,236.181484 534.565156,236.688203 545.668047,237.579453 L484.209531,323.621016 C389.796328,331.475156 304.694531,376.991797 260.153594,405.141641 C190.48875,449.172266 149.618828,493.777891 139.71625,512.003594 C149.618828,530.229297 190.486953,574.834922 260.151797,618.86375 C263.025,620.678594 266.081484,622.5725 269.283516,624.518516 L219.035703,694.864375 L219.035703,694.864375 Z M924.461875,424.280156 C898.029844,396.178828 861.781484,366.3525 822.393984,340.294219 C793.06,320.887969 748.833516,294.9375 695.351328,273.797266 L798.531484,129.342891 L742.968516,89.6553125 L167.968516,894.655312 L223.531484,934.344687 L349.470859,758.028125 C398.329687,775.328437 453.756094,787.820312 512,787.820312 C645.139453,787.820312 763.618203,722.590156 822.393984,683.707578 C861.783281,657.649297 898.031641,627.822969 924.461875,599.723437 C956.448047,565.713984 971.998203,537.021484 972,511.996406 C971.998203,486.980312 956.448047,458.287812 924.461875,424.280156 L924.461875,424.280156 Z M763.846406,618.860156 C714.973203,649.750234 617.264531,701.570312 512,701.570312 C473.669062,701.570312 436.347969,694.693672 402.018672,684.462266 L454.194531,611.4175 C471.180391,621.318281 490.922656,627.001797 512,627.001797 C575.514141,627.001797 627,575.515937 627,512.001797 C627,477.284375 611.597187,446.189453 587.271094,425.110312 L643.437812,346.479062 C694.012656,364.111797 736.548281,387.889844 763.846406,405.141641 C833.513047,449.172266 874.379375,493.776094 884.281953,512.001797 C874.379375,530.2275 833.51125,574.831328 763.846406,618.860156 L763.846406,618.860156 Z" id="Shape"></path>
        </g>
    </g>
</svg>