<?xml version="1.0" encoding="utf-8"?>
<!-- Generated by IcoMoon.io -->
<!DOCTYPE svg PUBLIC "-//W3C//DTD SVG 1.1//EN" "http://www.w3.org/Graphics/SVG/1.1/DTD/svg11.dtd">
<svg version="1.1" xmlns="http://www.w3.org/2000/svg" xmlns:xlink="http://www.w3.org/1999/xlink" width="1024" height="1024" viewBox="0 0 1024 1024">
<g id="icomoon-ignore">
</g>
<path d="M185.918 715.536c-6.982-4.328-13.472-8.496-19.4-12.42-43.842-29.004-84.188-62.2-113.606-93.48-35.604-37.852-52.912-69.788-52.912-97.634 0-27.848 17.308-59.784 52.908-97.636 29.418-31.278 69.764-64.476 113.606-93.48 65.42-43.278 197.296-115.884 345.484-115.884 12.624 0 25.118 0.564 37.476 1.556l-68.406 95.768c-105.086 8.742-199.808 59.404-249.384 90.736-77.54 49.008-123.030 98.656-134.052 118.942 11.022 20.286 56.51 69.934 134.050 118.94 3.198 2.020 6.6 4.128 10.164 6.294l-55.928 78.298zM971.088 414.364c-29.42-31.278-69.766-64.476-113.606-93.48-32.65-21.6-81.876-50.484-141.404-74.014l114.844-160.784-61.844-44.174-640 896 61.844 44.176 140.176-196.248c54.382 19.256 116.074 33.16 180.902 33.16 148.19 0 280.062-72.604 345.482-115.882 43.842-29.004 84.188-62.202 113.606-93.478 35.602-37.854 52.91-69.79 52.912-97.644-0.002-27.844-17.31-59.78-52.912-97.632zM792.316 630.94c-54.398 34.382-163.152 92.060-280.316 92.060-42.664 0-84.204-7.654-122.414-19.042l58.074-81.302c18.906 11.020 40.88 17.346 64.34 17.346 70.694 0 128-57.306 128-128 0-38.642-17.144-73.252-44.22-96.714l62.516-87.52c56.292 19.626 103.636 46.092 134.020 65.294 77.542 49.008 123.028 98.654 134.050 118.94-11.022 20.286-56.51 69.932-134.050 118.938z"></path>
</svg>
