<?xml version="1.0" encoding="utf-8"?>
<!-- Generated by IcoMoon.io -->
<!DOCTYPE svg PUBLIC "-//W3C//DTD SVG 1.1//EN" "http://www.w3.org/Graphics/SVG/1.1/DTD/svg11.dtd">
<svg version="1.1" xmlns="http://www.w3.org/2000/svg" xmlns:xlink="http://www.w3.org/1999/xlink" width="1024" height="1024" viewBox="0 0 1024 1024">
<g id="icomoon-ignore">
</g>
<path d="M512 819c-148.19 0-280.064-72.604-345.484-115.882-43.842-29.004-84.188-62.202-113.606-93.48-35.602-37.854-52.91-69.79-52.91-97.636 0-27.848 17.308-59.784 52.912-97.638 29.418-31.278 69.764-64.476 113.606-93.48 65.418-43.278 197.294-115.884 345.482-115.884s280.062 72.606 345.482 115.884c43.84 29.004 84.186 62.202 113.606 93.48 35.602 37.852 52.91 69.788 52.912 97.63-0.002 27.854-17.31 59.79-52.912 97.644-29.418 31.278-69.764 64.474-113.606 93.478-65.42 43.28-197.292 115.884-345.482 115.884zM97.634 512c11.022 20.286 56.51 69.934 134.050 118.94 54.4 34.38 163.154 92.058 280.316 92.058 117.164 0 225.918-57.678 280.316-92.060 77.54-49.006 123.028-98.652 134.048-118.938-11.024-20.286-56.51-69.932-134.050-118.94-54.398-34.382-163.152-92.060-280.314-92.060s-225.916 57.678-280.314 92.060c-77.54 49.006-123.030 98.654-134.052 118.94zM384 512c0-70.692 57.308-128 128-128s128 57.308 128 128c0 70.692-57.308 128-128 128s-128-57.308-128-128z"></path>
</svg>
