<?xml version="1.0" encoding="UTF-8" standalone="no"?>
<svg width="400px" height="400px" viewBox="0 0 400 400" version="1.1" xmlns="http://www.w3.org/2000/svg" xmlns:xlink="http://www.w3.org/1999/xlink">
    <!-- Generator: Sketch 3.6.1 (26313) - http://www.bohemiancoding.com/sketch -->
    <title>facebook</title>
    <desc>Created with Sketch.</desc>
    <defs></defs>
    <g id="Page-1" stroke="none" stroke-width="1" fill="none" fill-rule="evenodd">
        <g id="facebook" fill="#000000">
            <path d="M155.075298,354 L155.075298,210.490723 L115.986226,210.490723 L115.986226,158.375 L155.075298,158.375 L155.075298,112.678223 C155.075298,103.202589 156.6022,94.2620049 159.656049,85.8562012 C162.709898,77.4503974 167.290603,69.8598158 173.398301,63.0842285 C179.505999,56.3086413 187.700371,50.9341019 197.981663,46.9604492 C208.262955,42.9867965 220.020098,41 233.253444,41 C239.768322,41 246.283102,41.2547175 252.79798,41.7641602 C259.312858,42.2736028 264.198943,42.7320943 267.456382,43.1396484 L272.342516,43.9038086 L270.204832,93.1157227 L236.459969,93.1157227 C227.298422,93.1157227 221.216264,95.2808214 218.213312,99.611084 C215.210361,103.941347 213.708907,110.487586 213.708907,119.25 L213.708907,158.375 L272.342516,158.375 L268.372532,210.490723 L213.708907,210.490723 L213.708907,354 L155.075298,354 Z"></path>
        </g>
    </g>
</svg>