<?xml version="1.0" encoding="UTF-8" standalone="no"?>
<svg width="1024px" height="1024px" viewBox="0 0 1024 1024" version="1.1" xmlns="http://www.w3.org/2000/svg" xmlns:xlink="http://www.w3.org/1999/xlink">
    <!-- Generator: Sketch 3.7.1 (28215) - http://www.bohemiancoding.com/sketch -->
    <title>facebook</title>
    <desc>Created with Sketch.</desc>
    <defs></defs>
    <g id="Page-1" stroke="none" stroke-width="1" fill="none" fill-rule="evenodd">
        <g id="facebook" fill="#000000">
            <path d="M910.097676,65.4551365 L114.794394,65.4551365 C87.5388926,65.4551365 65.4551365,87.5388926 65.4551365,114.794394 L65.4551365,910.097676 C65.4551365,937.346479 87.5388926,959.436934 114.794394,959.436934 L542.957326,959.436934 L542.957326,613.241483 L426.455714,613.241483 L426.455714,478.320553 L542.957326,478.320553 L542.957326,378.821391 C542.957326,263.35145 613.482652,200.476554 716.488821,200.476554 C765.828078,200.476554 808.237064,204.151039 820.593649,205.792332 L820.593649,326.464165 L749.153888,326.497661 C693.132225,326.497661 682.286298,353.116743 682.286298,392.179501 L682.286298,478.320553 L815.890845,478.320553 L798.493146,613.241483 L682.286298,613.241483 L682.286298,959.436934 L910.097676,959.436934 C937.346479,959.436934 959.436934,937.346479 959.436934,910.097676 L959.436934,114.794394 C959.436934,87.5388926 937.346479,65.4551365 910.097676,65.4551365" id="Fill-14"></path>
        </g>
    </g>
</svg>