<?xml version="1.0" encoding="UTF-8" standalone="no"?>
<svg width="1024px" height="1024px" viewBox="0 0 1024 1024" version="1.1" xmlns="http://www.w3.org/2000/svg" xmlns:xlink="http://www.w3.org/1999/xlink">
    <!-- Generator: Sketch 3.6.1 (26313) - http://www.bohemiancoding.com/sketch -->
    <title>facebook</title>
    <desc>Created with Sketch.</desc>
    <defs></defs>
    <g id="Page-1" stroke="none" stroke-width="1" fill="none" fill-rule="evenodd">
        <g id="facebook" fill="#000000">
            <path d="M902.989785,73.447 L121.904215,73.447 C95.1359627,73.447 73.447,95.1359627 73.447,121.904215 L73.447,902.989785 C73.447,929.751458 95.1359627,951.447 121.904215,951.447 L542.412837,951.447 L542.412837,611.440518 L427.993936,611.440518 L427.993936,478.931582 L542.412837,478.931582 L542.412837,381.211176 C542.412837,267.805502 611.677376,206.054627 712.842093,206.054627 C761.299308,206.054627 802.950144,209.663423 815.08583,211.275374 L815.08583,329.789945 L744.923204,329.822842 C689.903046,329.822842 679.251012,355.966053 679.251012,394.330482 L679.251012,478.931582 L810.467098,478.931582 L793.380419,611.440518 L679.251012,611.440518 L679.251012,951.447 L902.989785,951.447 C929.751458,951.447 951.447,929.751458 951.447,902.989785 L951.447,121.904215 C951.447,95.1359627 929.751458,73.447 902.989785,73.447" id="Fill-14"></path>
        </g>
    </g>
</svg>