<?xml version="1.0" encoding="utf-8"?>
<!-- Generated by IcoMoon.io -->
<!DOCTYPE svg PUBLIC "-//W3C//DTD SVG 1.1//EN" "http://www.w3.org/Graphics/SVG/1.1/DTD/svg11.dtd">
<svg version="1.1" xmlns="http://www.w3.org/2000/svg" xmlns:xlink="http://www.w3.org/1999/xlink" width="1024" height="1024" viewBox="0 0 1024 1024">
<g id="icomoon-ignore">
</g>
<path d="M901.6 752.8c0 5.6-1.6 8.8-4.8 12.8l-131.2 131.2c-4 3.2-8 4.8-12.8 4.8-5.6 0-9.6-1.6-13.6-4.8l-227.2-227.2-227.2 227.2c-4 3.2-8 4.8-13.6 4.8s-8.8-1.6-12.8-4.8l-131.2-131.2c-3.2-4-4.8-8-4.8-12.8 0-5.6 1.6-9.6 4.8-13.6l227.2-227.2-227.2-227.2c-3.2-4-4.8-8-4.8-13.6s1.6-8.8 4.8-12.8l131.2-131.2c4-3.2 8-4.8 12.8-4.8 5.6 0 9.6 1.6 13.6 4.8l227.2 227.2 227.2-227.2c4-3.2 8-4.8 13.6-4.8s8.8 1.6 12.8 4.8l131.2 131.2c3.2 4 4.8 8 4.8 12.8 0 5.6-1.6 9.6-4.8 13.6l-227.2 227.2 227.2 227.2c2.4 4 4.8 8 4.8 13.6z"></path>
</svg>
