<?xml version="1.0" encoding="UTF-8" standalone="no"?>
<svg width="1024px" height="1024px" viewBox="0 0 1024 1024" version="1.1" xmlns="http://www.w3.org/2000/svg" xmlns:xlink="http://www.w3.org/1999/xlink">
    <!-- Generator: Sketch 40.3 (33839) - http://www.bohemiancoding.com/sketch -->
    <title>flyout-options</title>
    <desc>Created with Sketch.</desc>
    <defs></defs>
    <g id="Page-1" stroke="none" stroke-width="1" fill="none" fill-rule="evenodd">
        <g id="flyout-options">
            <rect id="Rectangle-path" x="67.7333271" y="33.3242566" width="930.528927" height="956.319256"></rect>
            <path d="M642.543012,662.710921 L642.543012,737.765156 L374.777976,737.765156 L277.392274,812.81939 L277.392274,737.765156 L167.847053,737.765156 L167.847053,400.0211 L386.937496,400.0211 L386.937496,324.966866 L167.847053,324.966866 C127.570927,324.966866 94.8169057,358.591163 94.8169057,400.0211 L94.8169057,737.765156 C94.8169057,779.157566 127.570927,812.81939 167.847053,812.81939 L204.362127,812.81939 L204.362127,962.927859 L399.097015,812.81939 L642.543012,812.81939 C682.819138,812.81939 715.573159,779.157566 715.573159,737.765156 L715.573159,662.710921 L642.543012,662.710921 L642.543012,662.710921 Z" id="Shape" fill="#2C2C2C"></path>
            <path d="M714.591186,586.538119 C573.643001,586.538119 458.985669,468.702971 458.985669,323.848298 C458.985669,179.031153 573.643001,61.1584776 714.591186,61.1584776 C855.53937,61.1584776 970.196702,179.031153 970.196702,323.848298 C970.196702,468.702971 855.53937,586.538119 714.591186,586.538119 L714.591186,586.538119 Z M714.591186,136.212712 C613.919127,136.212712 532.015817,220.386036 532.015817,323.848298 C532.015817,427.310561 613.919127,511.483885 714.591186,511.483885 C815.263244,511.483885 897.166554,427.310561 897.166554,323.848298 C897.166554,220.386036 815.263244,136.212712 714.591186,136.212712 L714.591186,136.212712 Z" id="Shape" fill="#2C2C2C"></path>
            <rect id="Rectangle-path" fill="#2C2C2C" x="678.076112" y="323.848298" width="73.0301475" height="150.108469"></rect>
            <ellipse id="Oval" fill="#2C2C2C" cx="714.591186" cy="248.794064" rx="36.5150738" ry="37.5271173"></ellipse>
        </g>
    </g>
</svg>