<?xml version="1.0" encoding="UTF-8" standalone="no"?>
<svg width="1024px" height="1024px" viewBox="0 0 1024 1024" version="1.1" xmlns="http://www.w3.org/2000/svg" xmlns:xlink="http://www.w3.org/1999/xlink">
    <!-- Generator: Sketch 40.3 (33839) - http://www.bohemiancoding.com/sketch -->
    <title>flyout-options</title>
    <desc>Created with Sketch.</desc>
    <defs></defs>
    <g id="Page-1" stroke="none" stroke-width="1" fill="none" fill-rule="evenodd">
        <g id="flyout-options" fill="#2C2C2C">
            <path d="M642.543012,662.710921 L642.543012,737.765156 L374.777976,737.765156 L277.392274,812.81939 L277.392274,737.765156 L167.847053,737.765156 L167.847053,400.0211 L386.937496,400.0211 L386.937496,324.966866 L167.847053,324.966866 C127.570927,324.966866 94.8169057,358.591163 94.8169057,400.0211 L94.8169057,737.765156 C94.8169057,779.157566 127.570927,812.81939 167.847053,812.81939 L204.362127,812.81939 L204.362127,962.927859 L399.097015,812.81939 L642.543012,812.81939 C682.819138,812.81939 715.573159,779.157566 715.573159,737.765156 L715.573159,662.710921 L642.543012,662.710921 Z M714.591186,586.538119 C573.643001,586.538119 458.985669,468.702971 458.985669,323.848298 C458.985669,179.031153 573.643001,61.1584776 714.591186,61.1584776 C855.53937,61.1584776 970.196702,179.031153 970.196702,323.848298 C970.196702,468.702971 855.53937,586.538119 714.591186,586.538119 Z M714.591186,136.212712 C613.919127,136.212712 532.015817,220.386036 532.015817,323.848298 C532.015817,427.310561 613.919127,511.483885 714.591186,511.483885 C815.263244,511.483885 897.166554,427.310561 897.166554,323.848298 C897.166554,220.386036 815.263244,136.212712 714.591186,136.212712 Z M678.076112,323.848298 L751.106259,323.848298 L751.106259,473.956768 L678.076112,473.956768 L678.076112,323.848298 Z M714.591186,286.321181 C734.757904,286.321181 751.106259,269.519719 751.106259,248.794064 C751.106259,228.068409 734.757904,211.266947 714.591186,211.266947 C694.424467,211.266947 678.076112,228.068409 678.076112,248.794064 C678.076112,269.519719 694.424467,286.321181 714.591186,286.321181 Z" id="Combined-Shape"></path>
        </g>
    </g>
</svg>