<?xml version="1.0" encoding="utf-8"?>
<!-- Generated by IcoMoon.io -->
<!DOCTYPE svg PUBLIC "-//W3C//DTD SVG 1.1//EN" "http://www.w3.org/Graphics/SVG/1.1/DTD/svg11.dtd">
<svg version="1.1" xmlns="http://www.w3.org/2000/svg" xmlns:xlink="http://www.w3.org/1999/xlink" width="1024" height="1024" viewBox="0 0 1024 1024">
<g id="icomoon-ignore">
</g>
<path d="M745.958 908.554c-71.665 41.83-149.658 62.746-233.958 62.746-84.316 0-162.304-20.915-233.958-62.746-71.665-41.825-128.41-98.57-170.24-170.24-41.83-71.654-62.746-149.642-62.746-233.964 0-84.296 20.915-162.289 62.746-233.958 41.83-71.654 98.575-128.41 170.24-170.24 71.654-41.83 149.642-62.74 233.958-62.74 84.301 0 162.294 20.915 233.958 62.746 71.66 41.83 128.415 98.586 170.24 170.24 41.83 71.665 62.746 149.658 62.746 233.958 0 84.321-20.915 162.309-62.746 233.958-41.825 71.665-98.586 128.41-170.24 170.24zM356.352 837.053c-33.075-71.992-53.504-162.125-61.286-270.438h-141.056c9.728 60.964 32.42 114.79 68.096 161.485 35.656 46.694 80.41 83.021 134.246 108.954zM154.982 442.097h141.056c6.477-102.461 26.583-190.669 60.314-264.602-53.837 25.293-98.422 60.483-133.76 105.549-35.359 45.082-57.882 98.099-67.61 159.053zM476.979 836.567c15.565 23.68 27.238 35.507 35.021 35.507s19.456-11.827 35.021-35.507c15.565-23.67 31.447-60.319 47.667-109.932 16.205-49.613 26.266-102.943 30.157-160.020h-225.69c3.891 57.078 13.937 110.413 30.157 160.020 16.2 49.613 32.102 86.262 47.667 109.932zM623.872 442.097c-2.596-40.858-7.634-79.283-15.078-115.277-7.465-35.994-15.565-65.495-24.32-88.525-8.755-23.014-18.166-42.957-28.211-59.827-10.061-16.86-18.816-29.015-26.266-36.485-7.465-7.45-13.471-11.187-17.997-11.187-4.547 0-10.552 3.738-17.997 11.187-7.46 7.465-16.215 19.625-26.266 36.485-10.061 16.87-19.456 36.813-28.211 59.827-8.755 23.025-16.87 52.531-24.32 88.525-7.465 35.994-12.498 74.419-15.078 115.277h223.744zM869.018 442.097c-9.723-60.954-32.266-113.971-67.61-159.053-35.354-45.066-79.939-80.256-133.76-105.549 33.715 73.933 53.821 162.14 60.308 264.602h141.061zM667.648 837.053c53.821-25.933 98.57-62.259 134.246-108.954 35.661-46.694 58.368-100.521 68.096-161.485h-141.056c-7.782 108.314-28.211 198.451-61.286 270.438z"></path>
</svg>
