<?xml version="1.0" encoding="UTF-8" standalone="no"?>
<svg width="1024px" height="1024px" viewBox="0 0 1024 1024" version="1.1" xmlns="http://www.w3.org/2000/svg" xmlns:xlink="http://www.w3.org/1999/xlink">
    <!-- Generator: Sketch 3.6.1 (26313) - http://www.bohemiancoding.com/sketch -->
    <title>hamburger</title>
    <desc>Created with Sketch.</desc>
    <defs></defs>
    <g id="Page-1" stroke="none" stroke-width="1" fill="none" fill-rule="evenodd">
        <g id="hamburger" fill="#000000">
            <path d="M135.829444,287.434783 L889.186898,287.434783 L942.431114,287.434783 L942.431114,181 L889.186898,181 L135.829444,181 L82.5852278,181 L82.5852278,287.434783 L135.829444,287.434783 L135.829444,287.434783 Z" id="Line"></path>
            <path d="M135.829444,564.608696 L889.186898,564.608696 L942.431114,564.608696 L942.431114,458.173913 L889.186898,458.173913 L135.829444,458.173913 L82.5852278,458.173913 L82.5852278,564.608696 L135.829444,564.608696 L135.829444,564.608696 Z" id="Line-Copy"></path>
            <path d="M135.829444,844 L889.186898,844 L942.431114,844 L942.431114,737.565217 L889.186898,737.565217 L135.829444,737.565217 L82.5852278,737.565217 L82.5852278,844 L135.829444,844 L135.829444,844 Z" id="Line-Copy-2"></path>
        </g>
    </g>
</svg>