<?xml version="1.0" encoding="UTF-8" standalone="no"?>
<svg width="1024px" height="1024px" viewBox="0 0 1024 1024" version="1.1" xmlns="http://www.w3.org/2000/svg" xmlns:xlink="http://www.w3.org/1999/xlink">
    <!-- Generator: Sketch 39.1 (31720) - http://www.bohemiancoding.com/sketch -->
    <title>image</title>
    <desc>Created with Sketch.</desc>
    <defs></defs>
    <g id="Page-1" stroke="none" stroke-width="1" fill="none" fill-rule="evenodd">
        <g id="image" fill="#2F2F2F">
            <path d="M867.856594,229.787701 L867.856594,794.212299 L156.856594,794.212299 L156.856594,229.787701 L867.856594,229.787701 Z M211.548902,279.694433 L211.548902,746.288183 L813.164287,746.288183 L813.164287,279.694433 L211.548902,279.694433 Z M569.118557,568.191015 L610.431546,501.881933 L721.525296,679.631933 L277.150296,679.631933 L454.900296,368.569433 L569.118557,568.191015 Z M654.869046,457.444433 C639.593579,457.444433 626.517049,452.063383 615.639065,441.301122 C604.761081,430.538861 599.322171,417.404471 599.322171,401.897558 C599.322171,386.622091 604.761081,373.545561 615.639065,362.667577 C626.517049,351.789593 639.593579,346.350683 654.869046,346.350683 C670.144513,346.350683 683.221042,351.789593 694.099026,362.667577 C704.97701,373.545561 710.415921,386.622091 710.415921,401.897558 C710.415921,417.404471 704.97701,430.538861 694.099026,441.301122 C683.221042,452.063383 670.144513,457.444433 654.869046,457.444433 L654.869046,457.444433 Z"></path>
        </g>
    </g>
</svg>