<?xml version="1.0" encoding="utf-8"?>
<!-- Generated by IcoMoon.io -->
<!DOCTYPE svg PUBLIC "-//W3C//DTD SVG 1.1//EN" "http://www.w3.org/Graphics/SVG/1.1/DTD/svg11.dtd">
<svg version="1.1" xmlns="http://www.w3.org/2000/svg" xmlns:xlink="http://www.w3.org/1999/xlink" width="1024" height="1024" viewBox="0 0 1024 1024">
<g id="icomoon-ignore">
</g>
<path d="M512 0c-282.8 0-512 229.2-512 512s229.2 512 512 512 512-229.2 512-512-229.2-512-512-512zM571.5 769.8c0 31.5-25.5 57-57 57s-57-25.5-57-57v-300.4c0-31.5 25.5-57 57-57s57 25.5 57 57v300.4zM514.5 374.3c-39.5 0-71.5-32-71.5-71.5s32-71.5 71.5-71.5 71.5 32 71.5 71.5c0 39.5-32 71.5-71.5 71.5z"></path>
</svg>
