<?xml version="1.0" encoding="utf-8"?>
<!-- Generated by IcoMoon.io -->
<!DOCTYPE svg PUBLIC "-//W3C//DTD SVG 1.1//EN" "http://www.w3.org/Graphics/SVG/1.1/DTD/svg11.dtd">
<svg version="1.1" xmlns="http://www.w3.org/2000/svg" xmlns:xlink="http://www.w3.org/1999/xlink" width="1024" height="1024" viewBox="0 0 1024 1024">
<g id="icomoon-ignore">
</g>
<path fill="rgb(4, 0, 43)" d="M512 0c-282.8 0-512 229.2-512 512s229.2 512 512 512 512-229.2 512-512-229.2-512-512-512zM512 928c-229.8 0-416-186.2-416-416s186.2-416 416-416 416 186.2 416 416-186.2 416-416 416z"></path>
<path fill="rgb(4, 0, 43)" d="M586 302.8c0 39.488-32.012 71.5-71.5 71.5s-71.5-32.012-71.5-71.5c0-39.488 32.012-71.5 71.5-71.5s71.5 32.012 71.5 71.5z"></path>
<path fill="rgb(4, 0, 43)" d="M514.5 412.4c-31.5 0-57 25.5-57 57v300.4c0 31.5 25.5 57 57 57s57-25.5 57-57v-300.4c0-31.4-25.5-57-57-57z"></path>
</svg>
