<?xml version="1.0" encoding="UTF-8" standalone="no"?>
<svg width="1024px" height="1024px" viewBox="0 0 1024 1024" version="1.1" xmlns="http://www.w3.org/2000/svg" xmlns:xlink="http://www.w3.org/1999/xlink">
    <!-- Generator: Sketch 3.7.1 (28215) - http://www.bohemiancoding.com/sketch -->
    <title>kebab</title>
    <desc>Created with Sketch.</desc>
    <defs></defs>
    <g id="Page-1" stroke="none" stroke-width="1" fill="none" fill-rule="evenodd">
        <g id="kebab" fill="#000000">
            <path d="M253.5,425.75 C301.296875,425.75 339.75,464.203125 339.75,512 C339.75,559.796875 301.296875,598.25 253.5,598.25 C205.703125,598.25 167.25,559.796875 167.25,512 C167.25,464.203125 205.703125,425.75 253.5,425.75 L253.5,425.75 Z M512.25,425.75 C560.046875,425.75 598.5,464.203125 598.5,512 C598.5,559.796875 560.046875,598.25 512.25,598.25 C464.453125,598.25 426,559.796875 426,512 C426,464.203125 464.453125,425.75 512.25,425.75 L512.25,425.75 Z M771,425.75 C818.796875,425.75 857.25,464.203125 857.25,512 C857.25,559.796875 818.796875,598.25 771,598.25 C723.203125,598.25 684.75,559.796875 684.75,512 C684.75,464.203125 723.203125,425.75 771,425.75 L771,425.75 Z" id="Shape" transform="translate(512.250000, 512.000000) rotate(-270.000000) translate(-512.250000, -512.000000) "></path>
        </g>
    </g>
</svg>