<?xml version="1.0" encoding="utf-8"?>
<!-- Generated by IcoMoon.io -->
<!DOCTYPE svg PUBLIC "-//W3C//DTD SVG 1.1//EN" "http://www.w3.org/Graphics/SVG/1.1/DTD/svg11.dtd">
<svg version="1.1" xmlns="http://www.w3.org/2000/svg" xmlns:xlink="http://www.w3.org/1999/xlink" width="1024" height="1024" viewBox="0 0 1024 1024">
<g id="icomoon-ignore">
</g>
<path d="M616.284 737.992l-137.334 137.334c-46.126 46.126-102.077 69.176-167.849 69.176-65.792 0-122.076-23.050-168.868-69.176-46.126-46.797-69.176-103.081-69.176-168.873 0-65.772 23.050-121.723 69.176-167.849l125.128-125.128 18.314 137.334-65.111 65.106c-25.098 25.103-37.642 55.286-37.642 90.537 0 35.272 12.544 65.459 37.642 90.537 25.078 25.103 55.27 37.642 90.537 37.642 35.256 0 65.439-12.544 90.532-37.642l136.325-136.315c25.073-25.078 37.637-55.265 37.637-90.537 0-35.256-37.637-90.537-37.637-90.537l57.313-83.369c0 0 90.189 108.134 90.189 173.911 0.005 65.792-23.060 121.738-69.176 167.849zM881.797 472.484l-124.104 124.109-18.314-136.315 65.106-66.125c25.083-25.083 37.637-55.27 37.637-90.537 0-35.256-12.554-65.439-37.637-90.537-25.093-25.083-55.276-37.642-90.532-37.642-35.277 0-65.459 12.559-90.542 37.642l-137.339 136.31c-25.093 25.098-37.637 55.286-37.637 90.537 0 35.272 37.637 91.556 37.637 91.556l-54.682 78.986c0 0-91.807-104.755-91.807-170.547 0-65.772 23.045-121.723 69.171-167.849l136.315-136.315c46.802-46.797 103.086-70.195 168.878-70.195 65.772 0 121.723 23.398 167.849 70.195 46.802 46.126 70.19 102.077 70.19 167.854 0.005 65.792-23.388 122.076-70.19 168.873z"></path>
</svg>
