<?xml version="1.0" encoding="utf-8"?>
<!-- Generated by IcoMoon.io -->
<!DOCTYPE svg PUBLIC "-//W3C//DTD SVG 1.1//EN" "http://www.w3.org/Graphics/SVG/1.1/DTD/svg11.dtd">
<svg version="1.1" xmlns="http://www.w3.org/2000/svg" xmlns:xlink="http://www.w3.org/1999/xlink" width="1024" height="1024" viewBox="0 0 1024 1024">
<g id="icomoon-ignore">
</g>
<path d="M512.6 13c-272.5 0-493.4 220.9-493.4 493.4s220.9 493.4 493.4 493.4 493.4-220.9 493.4-493.4-220.9-493.4-493.4-493.4zM389.7 787.2c-161.6 0-293-131.5-293-293s131.5-293 293-293c30.7 0 60.4 4.8 88.2 13.6-33.6 18.1-63.6 42-88.6 70.5-115 0.2-208.5 93.9-208.5 208.9 0 115.1 93.5 208.7 208.5 208.9 25 28.5 55 52.4 88.6 70.5-27.9 8.9-57.5 13.6-88.2 13.6zM627.5 787.2c-42.3 0-82.6-10.2-118.9-25.2 0 0 0 0 0 0-4.1-1-8.1-3.8-12.1-5.8-0.1 0-0.2-0.1-0.3-0.1-3.9-2-7.8-4-11.6-6.2-0.2-0.1-0.3-0.2-0.5-0.3-3.8-2.1-7.5-4.3-11.1-6.6-0.2-0.1-0.4-0.3-0.6-0.4-3.6-2.3-7.2-4.6-10.7-7-0.2-0.2-0.5-0.3-0.7-0.5-3.5-2.4-6.9-4.9-10.3-7.4-0.2-0.2-0.5-0.4-0.7-0.5-3.4-2.6-6.7-5.2-9.9-7.9-0.2-0.2-0.4-0.3-0.6-0.5-3.3-2.7-6.5-5.5-9.6-8.4-0.1-0.1-0.3-0.2-0.4-0.4-3.2-3-6.4-6-9.5-9.1 0 0 0 0 0 0-52.8-53-85.5-126.1-85.5-206.7s32.7-153.7 85.5-206.7c0 0 0 0 0 0 3.1-3.1 6.2-6.1 9.5-9.1 0.1-0.1 0.3-0.2 0.4-0.4 3.2-2.9 6.4-5.7 9.6-8.4 0.2-0.2 0.4-0.3 0.6-0.5 3.2-2.7 6.6-5.3 9.9-7.9 0.2-0.2 0.5-0.4 0.7-0.5 3.4-2.6 6.8-5 10.3-7.4 0.2-0.2 0.5-0.3 0.7-0.5 3.5-2.4 7-4.7 10.7-7 0.2-0.1 0.4-0.3 0.6-0.4 3.6-2.3 7.3-4.5 11.1-6.6 0.2-0.1 0.3-0.2 0.5-0.3 3.8-2.1 7.7-4.2 11.6-6.2 0.1 0 0.2 0.2 0.3 0.2 4-2 8-4.5 12.1-5.5 0 0 0 0 0 0 36.4-17 76.6-25.5 118.9-25.5 161.6 0 293 131.3 293 292.9s-131.4 292.8-293 292.8zM619.2 289.7c-10.1 0-20 0.8-29.7 2.2-1.4 0.2-2.7 0.4-4.1 0.7-1.5 0.3-3 0.5-4.5 0.8-2 0.4-3.9 0.8-5.9 1.2-1.5 0.3-3 0.7-4.5 1-1.4 0.3-2.8 0.7-4.2 1.1-2.1 0.6-4.2 1.1-6.2 1.8-1.4 0.4-2.9 0.9-4.3 1.4-1.2 0.4-2.4 0.8-3.6 1.2-2.2 0.8-4.5 1.6-6.7 2.5-1 0.4-2.1 0.8-3.1 1.2-2.4 1-4.8 2-7.2 3.1-0.9 0.4-1.7 0.8-2.6 1.2-1.5 0.7-3.1 1.5-4.6 2.2-0.7 0.3-1.4 0.7-2.1 1.1-2.6 1.3-5.1 2.7-7.7 4.1-0.6 0.4-1.3 0.7-1.9 1.1-2.7 1.6-5.4 3.2-8 4.9-0.4 0.3-0.8 0.5-1.2 0.8-1.5 1-3.1 2-4.6 3.1-53.3 37-88.2 98.6-88.2 168.2s35 131.2 88.2 168.2c1.5 1.1 3 2.1 4.6 3.1 0.4 0.3 0.8 0.5 1.2 0.7 2.6 1.7 5.3 3.4 8 4.9 0.6 0.4 1.3 0.7 1.9 1.1 2.5 1.4 5.1 2.8 7.7 4.2 0.7 0.3 1.4 0.7 2 1 1.5 0.8 3.1 1.5 4.6 2.2 0.9 0.4 1.7 0.8 2.6 1.2 2.4 1.1 4.8 2.1 7.2 3.1 1 0.4 2.1 0.8 3.1 1.2 2.2 0.9 4.5 1.7 6.7 2.5 1.2 0.4 2.4 0.8 3.6 1.2 1.4 0.5 2.9 0.9 4.3 1.4 2.1 0.6 4.1 1.2 6.2 1.8 1.4 0.4 2.8 0.7 4.2 1.1 1.5 0.4 3 0.7 4.5 1 2 0.4 3.9 0.8 5.9 1.2 1.5 0.3 3 0.5 4.5 0.8 1.4 0.2 2.7 0.5 4.1 0.7 9.7 1.4 19.6 2.2 29.7 2.2 112.9 0 204.7-91.8 204.7-204.7 0.1-113.1-91.7-205-204.6-205zM609 675.3c-31.8-1.8-61.4-11.8-86.8-28 42.1-37.5 68.8-92.1 68.8-152.9 0-60.7-26.6-115.3-68.8-152.9 25.4-16.2 55-26.2 86.8-28 40.2 49.4 64.3 112.4 64.3 180.9s-24.2 131.5-64.3 180.9z"></path>
</svg>
