<?xml version="1.0" encoding="utf-8"?>
<!-- Generated by IcoMoon.io -->
<!DOCTYPE svg PUBLIC "-//W3C//DTD SVG 1.1//EN" "http://www.w3.org/Graphics/SVG/1.1/DTD/svg11.dtd">
<svg version="1.1" xmlns="http://www.w3.org/2000/svg" xmlns:xlink="http://www.w3.org/1999/xlink" width="1024" height="1024" viewBox="0 0 1024 1024">
<g id="icomoon-ignore">
</g>
<path d="M745.6 563.2c49.6-81.6 88-168 88-241.6 0-176-142.4-320-320-320-176 0-320 142.4-320 320 0 73.6 38.4 158.4 86.4 238.4l-280 164.8 513.6 296 510.4-296-278.4-161.6zM507.2 220.8c56 0 100.8 44.8 100.8 100.8s-44.8 100.8-100.8 100.8-100.8-44.8-100.8-100.8c0-56 44.8-100.8 100.8-100.8zM126.4 724.8l160-92.8 72 41.6c19.2 25.6 38.4 49.6 56 70.4l-126.4 73.6-161.6-92.8zM513.6 947.2l-161.6-92.8 105.6-60.8c33.6 36.8 56 60.8 56 60.8s22.4-22.4 56-59.2l104 59.2-160 92.8zM611.2 745.6c19.2-24 41.6-49.6 62.4-78.4l60.8-35.2 161.6 92.8-160 92.8-124.8-72z"></path>
</svg>
