<?xml version="1.0" standalone="no"?>
<!DOCTYPE svg PUBLIC "-//W3C//DTD SVG 1.1//EN" "http://www.w3.org/Graphics/SVG/1.1/DTD/svg11.dtd" >
<svg xmlns="http://www.w3.org/2000/svg" xmlns:xlink="http://www.w3.org/1999/xlink" version="1.1" viewBox="0 0 1024 1024">
  <g transform="matrix(1 0 0 -1 0 819)">
   <path fill="currentColor"
d="M514.252 707.8h46.5892v29.8172h-46.5892v8.22161h-13.9769v-77.2444c-9.55937 -2.87784 -16.9927 -12.4536 -18.8516 -24.4709c-55.6461 -14.8367 -97.4713 -70.6419 -99.6793 -138h-52.7438v-55.1659v-49.4654h-45v-69.7058v-115.829h-35.5446v-73.0669h525.519
v73.0669h-35.0157v112.468h0.041354v73.0669h-51v47.4816v57.1497l-47.7722 3.9e-05c-2.33559 71.2501 -48.9984 129.573 -109.458 140.156c-2.19597 10.1946 -8.46139 18.3419 -16.5186 21.6304v39.8905zM680.747 328.425v-112.468h-40.3279v112.468h40.3279z
M482.573 328.425v-112.468h-42.6721v112.468h42.6721zM540.786 328.425v-112.468h41.4217v112.468h-41.4217zM381.689 328.425v-112.468h-42.6894v112.468h42.6894zM531.767 447.974v-46.4816h-42.7341v46.4816h42.7341zM589.917 447.974v-46.4816h39.0833v46.4816h-39.0833
zM430.883 447.974v-46.4816h-45.733v46.4816h45.733zM816.036 694.544c168.608 -168.607 168.608 -441.973 0 -610.58c-168.607 -168.608 -441.973 -168.608 -610.58 0c-168.608 168.607 -168.608 441.973 0 610.58c168.607 168.608 441.973 168.608 610.58 0z" />
  </g>

</svg>
