<?xml version="1.0" encoding="UTF-8" standalone="no"?>
<svg width="1024px" height="1024px" viewBox="0 0 1024 1024" version="1.1" xmlns="http://www.w3.org/2000/svg" xmlns:xlink="http://www.w3.org/1999/xlink">
    <!-- Generator: Sketch 3.8.3 (29802) - http://www.bohemiancoding.com/sketch -->
    <title>official2</title>
    <desc>Created with Sketch.</desc>
    <defs></defs>
    <g id="Page-1" stroke="none" stroke-width="1" fill="none" fill-rule="evenodd">
        <g id="official2" fill="#000000">
            <path d="M514.251552,188.199789 L514.251552,228.090247 C522.308772,231.378786 528.57419,239.526108 530.77016,249.720662 C591.229448,260.303352 637.892259,318.626587 640.22785,389.876656 L688,389.876695 L688,447.026426 L688,494.508044 L739,494.508044 L739,567.57491 L738.958646,567.57491 L738.958646,680.042961 L773.974382,680.042961 L773.974382,753.109858 L248.455434,753.109858 L248.455434,680.042961 L284,680.042961 L284,564.213855 L284,494.508044 L329,494.508044 L329,445.04262 L329,389.876695 L381.74376,389.876695 C383.951781,322.518215 425.776953,266.713064 481.423081,251.876315 C483.282037,239.859072 490.715317,230.283264 500.27469,227.405424 L500.27469,150.161002 L514.251552,150.161002 L514.251552,158.382611 L560.840774,158.382611 L560.840774,188.199789 L514.251552,188.199789 Z M680.746884,567.57491 L640.418971,567.57491 L640.418971,680.042961 L680.746884,680.042961 L680.746884,567.57491 Z M482.573451,567.57491 L439.901345,567.57491 L439.901345,680.042961 L482.573451,680.042961 L482.573451,567.57491 Z M540.78553,567.57491 L582.207209,567.57491 L582.207209,680.042961 L540.78553,680.042961 L540.78553,567.57491 Z M381.689361,567.57491 L339,567.57491 L339,680.042961 L381.689361,680.042961 L381.689361,567.57491 Z M531.766699,448.026426 L489.032563,448.026426 L489.032563,494.508044 L531.766699,494.508044 L531.766699,448.026426 Z M589.916747,448.026426 L629,448.026426 L629,494.508044 L589.916747,494.508044 L589.916747,448.026426 Z M430.882831,448.026426 L385.149858,448.026426 L385.149858,494.508044 L430.882831,494.508044 L430.882831,448.026426 Z M816.036308,201.455736 C984.644167,370.062963 984.644167,643.429018 816.036308,812.036213 C647.429081,980.644262 374.063026,980.644262 205.455831,812.036213 C36.847782,643.429018 36.847782,370.062963 205.455831,201.455736 C374.063026,32.8478769 647.429081,32.8478769 816.036308,201.455736 Z" id="Combined-Shape"></path>
        </g>
    </g>
</svg>