<?xml version="1.0" encoding="utf-8"?>
<!-- Generated by IcoMoon.io -->
<!DOCTYPE svg PUBLIC "-//W3C//DTD SVG 1.1//EN" "http://www.w3.org/Graphics/SVG/1.1/DTD/svg11.dtd">
<svg version="1.1" xmlns="http://www.w3.org/2000/svg" xmlns:xlink="http://www.w3.org/1999/xlink" width="1024" height="1024" viewBox="0 0 1024 1024">
<g id="icomoon-ignore">
</g>
<path d="M912 0h-864c-26.4 0-48 21.6-48 48v736c0 26.4 21.6 48 48 48h285.088l-130.544 130.544c-14.058 14.058-14.058 36.852 0 50.91 7.030 7.030 16.244 10.546 25.456 10.546s18.426-3.516 25.456-10.544l181.456-181.456h13.088v160c0 17.674 14.328 32 32 32s32-14.326 32-32v-160h13.090l181.456 181.456c7.028 7.028 16.242 10.544 25.454 10.544s18.426-3.516 25.456-10.544c14.060-14.058 14.060-36.852 0-50.91l-130.546-130.546h285.090c26.4 0 48-21.6 48-48v-736c0-26.4-21.6-48-48-48zM384 192l256 160-256 160v-320zM800 704h-640c-17.672 0-32-14.326-32-32s14.328-32 32-32h640c17.674 0 32 14.326 32 32s-14.326 32-32 32z"></path>
</svg>
