<?xml version="1.0" encoding="UTF-8" standalone="no"?>
<svg width="400px" height="400px" viewBox="0 0 400 400" version="1.1" xmlns="http://www.w3.org/2000/svg" xmlns:xlink="http://www.w3.org/1999/xlink">
    <!-- Generator: Sketch 3.6.1 (26313) - http://www.bohemiancoding.com/sketch -->
    <title>private</title>
    <desc>Created with Sketch.</desc>
    <defs></defs>
    <g id="Page-1" stroke="none" stroke-width="1" fill="none" fill-rule="evenodd">
        <g id="private" fill="#000000">
            <path d="M284.428571,183.125 C289.007078,183.125 292.961183,184.79165 296.291005,188.125 C299.620828,191.45835 301.285714,195.416644 301.285714,200 L301.285714,318.125 C301.285714,322.708356 299.620828,326.66665 296.291005,330 C292.961183,333.33335 289.007078,335 284.428571,335 L115.857143,335 C111.278637,335 107.324532,333.33335 103.994709,330 C100.664886,326.66665 99,322.708356 99,318.125 L99,200 C99,195.416644 100.664886,191.45835 103.994709,188.125 C107.324532,184.79165 111.278637,183.125 115.857143,183.125 L132.714286,183.125 L132.714286,132.5 C132.714286,113.958241 139.321803,98.0729828 152.537037,84.84375 C165.752271,71.6145172 181.620719,65 200.142857,65 C218.664996,65 234.533444,71.6145172 247.748677,84.84375 C260.963911,98.0729828 267.571429,113.958241 267.571429,132.5 L267.571429,183.125 L284.428571,183.125 Z M166.428571,132.5 L166.428571,183.125 L233.857143,183.125 L233.857143,132.5 C233.857143,123.124953 230.579398,115.156283 224.02381,108.59375 C217.468221,102.031217 209.507983,98.75 200.142857,98.75 C190.777731,98.75 182.817493,102.031217 176.261905,108.59375 C169.706316,115.156283 166.428571,123.124953 166.428571,132.5 L166.428571,132.5 Z"></path>
        </g>
    </g>
</svg>