<?xml version="1.0" encoding="UTF-8" standalone="no"?>
<svg width="1024px" height="1024px" viewBox="0 0 1024 1024" version="1.1" xmlns="http://www.w3.org/2000/svg" xmlns:xlink="http://www.w3.org/1999/xlink">
    <!-- Generator: Sketch 3.7.1 (28215) - http://www.bohemiancoding.com/sketch -->
    <title>private</title>
    <desc>Created with Sketch.</desc>
    <defs></defs>
    <g id="Page-1" stroke="none" stroke-width="1" fill="none" fill-rule="evenodd">
        <g id="private" fill="#000000">
            <path d="M797.274453,454.5 C812.836866,454.5 826.276927,460.178956 837.595042,471.537037 C848.913159,482.895119 854.572131,496.382639 854.572131,512 L854.572131,914.5 C854.572131,930.117361 848.913159,943.604881 837.595042,954.962963 C826.276927,966.321044 812.836866,972 797.274453,972 L224.297678,972 C208.735269,972 195.295207,966.321044 183.97709,954.962963 C172.658972,943.604881 167,930.117361 167,914.5 L167,512 C167,496.382639 172.658972,482.895119 183.97709,471.537037 C195.295207,460.178956 208.735269,454.5 224.297678,454.5 L281.595356,454.5 L281.595356,282 C281.595356,218.820673 304.054404,164.693127 348.97318,119.615741 C393.891956,74.5383549 447.829045,52 510.786066,52 C573.74309,52 627.680179,74.5383549 672.598951,119.615741 C717.517727,164.693127 739.976778,218.820673 739.976778,282 L739.976778,454.5 L797.274453,454.5 L797.274453,454.5 Z M396.190709,282 L396.190709,454.5 L625.381422,454.5 L625.381422,282 C625.381422,250.055395 614.240318,222.90289 591.957778,200.541667 C569.675234,178.180443 542.618267,167 510.786066,167 C478.953864,167 451.896897,178.180443 429.614357,200.541667 C407.331813,222.90289 396.190709,250.055395 396.190709,282 L396.190709,282 L396.190709,282 Z" id="Shape"></path>
        </g>
    </g>
</svg>