<?xml version="1.0" encoding="utf-8"?>
<!-- Generated by IcoMoon.io -->
<!DOCTYPE svg PUBLIC "-//W3C//DTD SVG 1.1//EN" "http://www.w3.org/Graphics/SVG/1.1/DTD/svg11.dtd">
<svg version="1.1" xmlns="http://www.w3.org/2000/svg" xmlns:xlink="http://www.w3.org/1999/xlink" width="1024" height="1024" viewBox="0 0 1024 1024">
<g id="icomoon-ignore">
</g>
<path d="M284.8 581.6h-121.6c-39.2 0-69.6-31.2-69.6-69.6s31.2-69.6 69.6-69.6h121.6c39.2 0 69.6 31.2 69.6 69.6s-30.4 69.6-69.6 69.6zM302.4 400l-87.2-85.6c-27.2-27.2-27.2-70.4 0-97.6 28-28 71.2-28 98.4 0l86.4 85.6c28 27.2 28 70.4 0 97.6-26.4 28.8-70.4 28.8-97.6 0zM314.4 808.8c-27.2 27.2-70.4 27.2-98.4 0-27.2-28-27.2-71.2 0-98.4l86.4-86.4c27.2-28 70.4-28 97.6 0 28 27.2 28 70.4 0 97.6l-85.6 87.2zM581.6 284.8c0 39.2-31.2 69.6-69.6 69.6s-69.6-31.2-69.6-69.6v-121.6c0-39.2 31.2-69.6 69.6-69.6s69.6 31.2 69.6 69.6v121.6zM581.6 860.8c0 39.2-31.2 69.6-69.6 69.6s-69.6-31.2-69.6-69.6v-121.6c0-39.2 31.2-69.6 69.6-69.6s69.6 31.2 69.6 69.6v121.6zM721.6 400c-27.2 28-70.4 28-97.6 0-28-27.2-28-70.4 0-97.6l85.6-86.4c27.2-28 70.4-28 97.6 0 28 27.2 28 70.4 0 97.6l-85.6 86.4zM709.6 808.8l-85.6-87.2c-28-27.2-28-70.4 0-97.6 27.2-28 70.4-28 97.6 0l86.4 85.6c28 27.2 28 70.4 0 98.4-27.2 28-71.2 28-98.4 0.8zM860.8 581.6h-121.6c-39.2 0-69.6-31.2-69.6-69.6s31.2-69.6 69.6-69.6h121.6c39.2 0 69.6 31.2 69.6 69.6s-30.4 69.6-69.6 69.6z"></path>
</svg>
