<?xml version="1.0" encoding="utf-8"?>
<!-- Generated by IcoMoon.io -->
<!DOCTYPE svg PUBLIC "-//W3C//DTD SVG 1.1//EN" "http://www.w3.org/Graphics/SVG/1.1/DTD/svg11.dtd">
<svg version="1.1" xmlns="http://www.w3.org/2000/svg" xmlns:xlink="http://www.w3.org/1999/xlink" width="1024" height="1024" viewBox="0 0 1024 1024">
<g id="icomoon-ignore">
</g>
<path d="M196.8 957v-642.7c0 0 156.1 0 204.6 0s66.7-27.3 66.7-59.1-37.9-74.3-37.9-130.4 45.5-86.4 97-86.4 110.7 33.4 110.7 100.1-19.7 62.2-19.7 101.6 30.3 66.7 65.2 66.7c34.9 0 222.8-15.2 222.8-15.2s6.1 159.2 6.1 215.3c0 56.1-44 54.6-53.1 54.6 0 0-65.2-47-130.4-47s-81.8 81.7-81.8 101.4c0 19.7 1.5 103.1 83.4 103.1 45.5 0 36.4-7.6 66.7-7.6s42.4 7.6 53.1 60.6c10.6 53.1 24.3 184.9 24.3 184.9h-677.7z"></path>
</svg>
