<?xml version="1.0" encoding="utf-8"?>
<!-- Generated by IcoMoon.io -->
<!DOCTYPE svg PUBLIC "-//W3C//DTD SVG 1.1//EN" "http://www.w3.org/Graphics/SVG/1.1/DTD/svg11.dtd">
<svg version="1.1" xmlns="http://www.w3.org/2000/svg" xmlns:xlink="http://www.w3.org/1999/xlink" width="512" height="512" viewBox="0 0 512 512">
<g id="icomoon-ignore">
</g>
<path d="M288 384c0 17.673-14.327 32-32 32s-32-14.327-32-32 14.327-32 32-32 32 14.327 32 32z"></path>
<path d="M256 0c-141.385 0-256 114.615-256 256s114.615 256 256 256 256-114.615 256-256-114.615-256-256-256zM256 464c-114.875 0-208-93.125-208-208s93.125-208 208-208 208 93.125 208 208-93.125 208-208 208z"></path>
<path d="M256 320.125c-13.255 0-24-10.745-24-24v-16c0-16.809 6.482-31.927 19.266-44.935 9.432-9.597 20.889-16.795 31.968-23.756 22.782-14.312 32.766-21.989 32.766-35.434 0-14.626-8.44-24.394-15.521-30.013-11.367-9.020-27.164-13.987-44.479-13.987-26.267 0-49.896 17.541-57.462 42.657-3.824 12.691-17.211 19.879-29.903 16.057-12.691-3.824-19.88-17.211-16.057-29.903 6.556-21.76 20.199-41.315 38.416-55.062 18.855-14.228 41.334-21.749 65.006-21.749 28.104 0 54.497 8.661 74.315 24.388 21.722 17.237 33.685 41.248 33.685 67.612 0 41.38-31.923 61.436-55.231 76.079-19.556 12.285-28.769 19.057-28.769 28.046v16c0 13.255-10.745 24-24 24z"></path>
</svg>
