<?xml version="1.0" encoding="UTF-8" standalone="no"?>
<svg width="1024px" height="1024px" viewBox="0 0 1024 1024" version="1.1" xmlns="http://www.w3.org/2000/svg" xmlns:xlink="http://www.w3.org/1999/xlink">
    <!-- Generator: Sketch 3.7.1 (28215) - http://www.bohemiancoding.com/sketch -->
    <title>quotes-left</title>
    <desc>Created with Sketch.</desc>
    <defs></defs>
    <g id="Page-1" stroke="none" stroke-width="1" fill="none" fill-rule="evenodd">
        <g id="quotes-left" fill="#000000">
            <path d="M261.463415,456.5625 C369.485112,456.5625 457.053659,544.218311 457.053659,652.34375 C457.053659,760.470937 369.485112,848.125 261.463415,848.125 C153.441717,848.125 65.8731707,760.470937 65.8731707,652.34375 L65,624.375 C65,408.120625 240.137093,232.8125 456.180488,232.8125 L456.180488,344.6875 C381.547093,344.6875 311.379093,373.780244 258.604654,426.606221 C248.446185,436.776357 239.174859,447.596768 230.811629,458.962568 C240.798956,457.389326 251.034263,456.5625 261.463415,456.5625 L261.463415,456.5625 Z M764.409756,456.5625 C872.429707,456.5625 960,544.218311 960,652.34375 C960,760.470937 872.429707,848.125 764.409756,848.125 C656.389805,848.125 568.819512,760.470937 568.819512,652.34375 L567.946341,624.375 C567.946341,408.120625 743.083434,232.8125 959.126829,232.8125 L959.126829,344.6875 C884.493434,344.6875 814.325434,373.780244 761.550995,426.606221 C751.39078,436.776357 742.119454,447.596768 733.756224,458.962568 C743.745298,457.389326 753.978859,456.5625 764.409756,456.5625 L764.409756,456.5625 Z" id="Shape"></path>
        </g>
    </g>
</svg>