<?xml version="1.0" encoding="utf-8"?>
<!-- Generated by IcoMoon.io -->
<!DOCTYPE svg PUBLIC "-//W3C//DTD SVG 1.1//EN" "http://www.w3.org/Graphics/SVG/1.1/DTD/svg11.dtd">
<svg version="1.1" xmlns="http://www.w3.org/2000/svg" xmlns:xlink="http://www.w3.org/1999/xlink" width="1024" height="1024" viewBox="0 0 1024 1024">
<g id="icomoon-ignore">
</g>
<path d="M896 512c0-24-3.2-48-6.4-72l134.4-120-169.6-192-97.6 86.4c-33.6-28.8-73.6-49.6-116.8-65.6v-148.8h-256v150.4c-43.2 14.4-81.6 36.8-116.8 65.6l-97.6-86.4-169.6 190.4 134.4 120c-3.2 24-6.4 48-6.4 72s3.2 48 6.4 72l-134.4 120 169.6 192 97.6-86.4c33.6 28.8 73.6 49.6 116.8 65.6v148.8h256v-150.4c43.2-14.4 81.6-36.8 116.8-65.6l97.6 86.4 169.6-190.4-134.4-120c3.2-24 6.4-48 6.4-72zM512 704c-105.6 0-192-86.4-192-192s86.4-192 192-192c105.6 0 192 86.4 192 192s-86.4 192-192 192z"></path>
</svg>
