<?xml version="1.0" encoding="UTF-8" standalone="no"?>
<svg width="1024px" height="1024px" viewBox="0 0 1024 1024" version="1.1" xmlns="http://www.w3.org/2000/svg" xmlns:xlink="http://www.w3.org/1999/xlink">
    <!-- Generator: Sketch 3.7.1 (28215) - http://www.bohemiancoding.com/sketch -->
    <title>settings</title>
    <desc>Created with Sketch.</desc>
    <defs></defs>
    <g id="Page-1" stroke="none" stroke-width="1" fill="none" fill-rule="evenodd">
        <g id="settings" fill="#000000">
            <path d="M857,512 C857,490.4375 854.125,468.875 851.25,447.3125 L972,339.5 L819.625,167 L731.9375,244.625 C701.75,218.75 665.8125,200.0625 627,185.6875 L627,52 L397,52 L397,187.125 C358.1875,200.0625 323.6875,220.1875 292.0625,246.0625 L204.375,168.4375 L52,339.5 L172.75,447.3125 C169.875,468.875 167,490.4375 167,512 C167,533.5625 169.875,555.125 172.75,576.6875 L52,684.5 L204.375,857 L292.0625,779.375 C322.25,805.25 358.1875,823.9375 397,838.3125 L397,972 L627,972 L627,836.875 C665.8125,823.9375 700.3125,803.8125 731.9375,777.9375 L819.625,855.5625 L972,684.5 L851.25,576.6875 C854.125,555.125 857,533.5625 857,512 L857,512 Z M512,684.5 C417.125,684.5 339.5,606.875 339.5,512 C339.5,417.125 417.125,339.5 512,339.5 C606.875,339.5 684.5,417.125 684.5,512 C684.5,606.875 606.875,684.5 512,684.5 L512,684.5 Z" id="Shape"></path>
        </g>
    </g>
</svg>