<?xml version="1.0" encoding="utf-8"?>
<!-- Generated by IcoMoon.io -->
<!DOCTYPE svg PUBLIC "-//W3C//DTD SVG 1.1//EN" "http://www.w3.org/Graphics/SVG/1.1/DTD/svg11.dtd">
<svg version="1.1" xmlns="http://www.w3.org/2000/svg" xmlns:xlink="http://www.w3.org/1999/xlink" width="1024" height="1024" viewBox="0 0 1024 1024">
<g id="icomoon-ignore">
</g>
<path d="M280.235 417.109h463.531v46.421h-463.531v-46.421zM280.235 509.952h463.531v46.421h-463.531v-46.421zM280.235 324.608h231.765v46.421h-231.765v-46.421zM280.235 231.765h231.765v46.421h-231.765v-46.421zM280.235 138.923h231.765v46.421h-231.765v-46.421zM140.971 0v741.717h741.717v-741.717h-741.717zM836.608 695.637h-649.216v-649.216h648.875l0.341 649.216zM558.421 138.923h185.344v231.765h-185.344v-231.765zM235.179 1001.813l-64.171-167.936h-1.024c1.365 13.312 1.707 29.013 1.707 47.445v120.491h-20.48v-189.44h33.109l60.075 156.331h1.024l60.416-156.331h32.768v189.44h-22.187v-122.197c0-13.995 0.683-29.355 1.707-45.739h-1.024l-64.853 167.595h-17.067zM496.64 1001.813h-105.813v-189.44h105.813v19.456h-83.627v61.099h78.507v19.456h-78.507v69.632h83.627v19.797zM686.763 1001.813h-25.259l-103.765-159.061h-1.024c1.365 18.773 2.048 35.84 2.048 51.2v107.861h-20.48v-189.44h24.917l103.424 158.379h1.024c-0.341-2.389-0.683-9.899-1.024-22.528-0.683-12.629-0.683-21.845-0.683-27.307v-108.544h20.48v189.44zM882.005 812.373v122.539c0 21.504-6.485 38.571-19.456 50.859s-31.061 18.432-53.931 18.432-40.619-6.144-52.907-18.773c-12.629-12.288-18.773-29.696-18.773-51.2v-121.856h22.187v123.563c0 15.701 4.437 27.989 12.971 36.523s21.504 12.629 38.229 12.629c16.043 0 28.331-4.096 36.864-12.629s12.971-20.821 12.971-36.523v-123.563h21.845z"></path>
</svg>
