<?xml version="1.0" encoding="utf-8"?>
<!-- Generated by IcoMoon.io -->
<!DOCTYPE svg PUBLIC "-//W3C//DTD SVG 1.1//EN" "http://www.w3.org/Graphics/SVG/1.1/DTD/svg11.dtd">
<svg version="1.1" xmlns="http://www.w3.org/2000/svg" xmlns:xlink="http://www.w3.org/1999/xlink" width="1024" height="1024" viewBox="0 0 1024 1024">
<g id="icomoon-ignore">
</g>
<path d="M0 0v1024h1024v-1024h-1024zM320 960h-256v-192h256v192zM320 704h-256v-192h256v192zM320 448h-256v-192h256v192zM640 960h-256v-192h256v192zM640 704h-256v-192h256v192zM640 448h-256v-192h256v192zM960 960h-256v-192h256v192zM960 704h-256v-192h256v192zM960 448h-256v-192h256v192z"></path>
</svg>
