<?xml version="1.0" encoding="UTF-8" standalone="no"?>
<svg width="1024px" height="1024px" viewBox="0 0 1024 1024" version="1.1" xmlns="http://www.w3.org/2000/svg" xmlns:xlink="http://www.w3.org/1999/xlink">
    <!-- Generator: Sketch 3.7.2 (28276) - http://www.bohemiancoding.com/sketch -->
    <title>twitter</title>
    <desc>Created with Sketch.</desc>
    <defs></defs>
    <g id="Page-1" stroke="none" stroke-width="1" fill="none" fill-rule="evenodd">
        <g id="twitter" fill="#000000">
            <path d="M972,226.549207 C938.149894,241.568333 901.772557,251.71912 863.591497,256.284449 C902.563369,232.912388 932.489701,195.90494 946.582975,151.810458 C910.11478,173.448637 869.719446,189.164682 826.726213,197.635455 C792.293938,160.934383 743.240059,138 688.953362,138 C584.710924,138 500.198397,222.549494 500.198397,326.834947 C500.198397,341.635233 501.870879,356.048341 505.087969,369.868899 C348.217857,361.994042 209.139324,286.814247 116.045649,172.566546 C99.7986758,200.456802 90.4906542,232.895554 90.4906542,267.5025 C90.4906542,333.016322 123.815794,390.816893 174.461392,424.679784 C143.518783,423.700057 114.416913,415.205716 88.9662386,401.061949 C88.952778,401.849771 88.952778,402.64096 88.952778,403.435516 C88.952778,494.93064 154.014704,571.255135 240.361242,588.600692 C224.521452,592.916882 207.847104,595.223113 190.630967,595.223113 C178.469293,595.223113 166.644134,594.04138 155.12184,591.836151 C179.138959,666.861075 248.8448,721.456488 331.439189,722.981631 C266.841654,773.627832 185.455356,803.817587 97.0257872,803.817587 C81.791726,803.817587 66.7663045,802.925395 52,801.181412 C135.529902,854.760062 234.744796,886.020448 341.336113,886.020448 C688.512526,886.020448 878.361167,598.2734 878.361167,348.732367 C878.361167,340.544402 878.179449,332.400205 877.816012,324.303142 C914.691391,297.678788 946.694025,264.418547 972,226.549207" id="Fill-1"></path>
        </g>
    </g>
</svg>