<?xml version="1.0" encoding="UTF-8" standalone="no"?>
<svg width="1024px" height="1024px" viewBox="0 0 1024 1024" version="1.1" xmlns="http://www.w3.org/2000/svg" xmlns:xlink="http://www.w3.org/1999/xlink">
    <!-- Generator: Sketch 3.6.1 (26313) - http://www.bohemiancoding.com/sketch -->
    <title>twitter</title>
    <desc>Created with Sketch.</desc>
    <defs>
        <path id="path-1" d="M15.2181022,917.781794 L1008.78263,917.781794 L1008.78263,109.989426 L15.2181022,109.989426 L15.2181022,917.781794 L15.2181022,917.781794 Z"></path>
    </defs>
    <g id="Page-1" stroke="none" stroke-width="1" fill="none" fill-rule="evenodd">
        <g id="twitter">
            <mask id="mask-2" fill="white">
                <use xlink:href="#path-1"></use>
            </mask>
            <g id="Clip-2"></g>
            <path d="M1008.78263,205.640148 C972.217796,221.863785 932.923051,232.82865 891.679927,237.760112 C933.777285,212.513646 966.103664,172.538256 981.327197,124.907462 C941.934307,148.280991 898.299328,165.257439 851.858102,174.407556 C814.664409,134.763112 761.676482,109.989426 703.036073,109.989426 C590.433547,109.989426 499.143241,201.319664 499.143241,313.968655 C499.143241,329.955901 500.949854,345.524919 504.424949,360.453865 C334.974088,351.947457 184.741664,270.738354 84.1820146,147.328157 C66.6320584,177.45517 56.5775474,212.495462 56.5775474,249.877834 C56.5775474,320.645767 92.5753139,383.081857 147.282613,419.660502 C113.858453,418.602202 82.4226569,409.426628 54.9308759,394.148552 C54.9163358,394.999556 54.9163358,395.854197 54.9163358,396.712475 C54.9163358,495.545372 125.196131,577.990978 218.467533,596.727623 C201.357416,601.389964 183.34581,603.881152 164.748964,603.881152 C151.611942,603.881152 138.838423,602.604646 126.392058,600.222561 C152.335314,681.264372 227.63146,740.238256 316.849796,741.885713 C247.071635,796.593664 159.158277,829.204592 63.6367883,829.204592 C47.1809781,829.204592 30.9505401,828.240848 15,826.357 C105.228876,884.232578 212.400657,918 327.540438,918 C702.559883,918 907.634102,607.176067 907.634102,337.622215 C907.634102,328.777587 907.43781,319.980238 907.045226,311.233803 C946.877956,282.474215 981.447153,246.546552 1008.78263,205.640148" id="Fill-1" fill="#000000" mask="url(#mask-2)"></path>
        </g>
    </g>
</svg>