<?xml version="1.0" encoding="UTF-8" standalone="no"?>
<svg width="400px" height="400px" viewBox="0 0 400 400" version="1.1" xmlns="http://www.w3.org/2000/svg" xmlns:xlink="http://www.w3.org/1999/xlink">
    <!-- Generator: Sketch 3.6.1 (26313) - http://www.bohemiancoding.com/sketch -->
    <title>twitter</title>
    <desc>Created with Sketch.</desc>
    <defs></defs>
    <g id="Page-1" stroke="none" stroke-width="1" fill="none" fill-rule="evenodd">
        <g id="twitter" fill="#000000">
            <path d="M342.180176,132.954102 L342.180176,142.380371 C342.180176,158.376545 340.15212,174.458171 336.095947,190.625732 C332.039775,206.793294 326.212684,222.503586 318.614502,237.75708 C311.016319,253.010574 301.275938,267.264094 289.393066,280.518066 C277.510194,293.772039 264.199292,305.340527 249.459961,315.223877 C234.720629,325.107227 217.72495,332.905245 198.472412,338.618164 C179.219874,344.331083 158.910751,347.1875 137.544434,347.1875 C94.2405061,347.1875 57.3927301,337.418555 27,317.880371 C32.2558857,318.68018 37.9687192,319.080078 44.1386719,319.080078 C60.1348456,319.080078 75.7880094,315.995148 91.0986328,309.825195 C106.409256,303.655243 120.519955,295.371634 133.431152,284.974121 C118.006271,284.859863 104.095521,280.089647 91.6984863,270.66333 C79.3014517,261.237013 70.8750223,249.325756 66.4189453,234.929199 C71.2177974,235.843266 75.6738076,236.300293 79.7871094,236.300293 C86.4140956,236.300293 92.8124692,235.443368 98.9824219,233.729492 C82.4149562,230.415999 68.6470275,222.160955 57.6782227,208.964111 C46.7094178,195.767268 41.2250977,180.485438 41.2250977,163.118164 L41.2250977,162.26123 C51.5083522,167.859891 62.3627358,170.830565 73.7885742,171.17334 C63.8480948,164.546354 55.9929488,155.977103 50.2229004,145.465332 C44.452852,134.953561 41.5678711,123.64215 41.5678711,111.530762 C41.5678711,99.7621482 44.8241862,88.1079679 51.3369141,76.5678711 C69.3897387,98.5054808 91.2127627,115.901059 116.806641,128.755127 C142.400519,141.609195 169.993504,148.83593 199.586426,150.435547 C198.5581,145.97947 198.043945,140.438021 198.043945,133.811035 C198.043945,113.930076 205.042166,96.9915251 219.038818,82.994873 C233.03547,68.998221 249.974022,62 269.85498,62 C290.307231,62 307.959887,69.5409402 322.813477,84.6230469 C339.152425,81.3095537 354.291434,75.4824636 368.230957,67.1416016 C362.746555,84.5088759 352.177813,97.8197779 336.524414,107.074707 C350.806712,105.47509 364.631769,101.647491 378,95.5917969 C368.402296,110.102612 356.462474,122.556589 342.180176,132.954102 Z"></path>
        </g>
    </g>
</svg>