<?xml version="1.0" encoding="utf-8"?>
<!-- Generated by IcoMoon.io -->
<!DOCTYPE svg PUBLIC "-//W3C//DTD SVG 1.1//EN" "http://www.w3.org/Graphics/SVG/1.1/DTD/svg11.dtd">
<svg version="1.1" xmlns="http://www.w3.org/2000/svg" xmlns:xlink="http://www.w3.org/1999/xlink" width="1024" height="1024" viewBox="0 0 1024 1024">
<g id="icomoon-ignore">
</g>
<path d="M978.77 846.495c16.932 33.178 15.816 64.164-3.348 95.176-19.907 31.693-48.312 46.49-85.212 46.49h-756.762c-36.869 0-65.275-14.802-85.181-46.49-18.417-30.264-19.907-61.788-4.434-95.713l378.399-756.495c19.164-36.869 49.055-55.183 89.615-55.183 41.303 0 70.825 18.519 88.561 55.388l378.363 756.828zM455.409 867.517c15.503 15.442 34.324 23.194 56.438 23.194 22.139 0 40.929-7.752 56.438-23.194 15.442-15.503 23.194-34.294 23.194-56.438s-7.752-40.929-23.194-56.438c-15.503-15.503-34.294-23.255-56.438-23.255-22.108 0-40.929 7.752-56.438 23.255-15.473 15.503-23.224 34.294-23.224 56.438s7.752 40.934 23.224 56.438zM450.56 291.84v337.92h122.88v-337.92h-122.88z"></path>
</svg>
