<?xml version="1.0" standalone="no"?>
<!DOCTYPE svg PUBLIC "-//W3C//DTD SVG 1.1//EN" "http://www.w3.org/Graphics/SVG/1.1/DTD/svg11.dtd" >
<!--
2016-3-23: Created with FontForge (http://fontforge.org)
-->
<svg xmlns="http://www.w3.org/2000/svg" xmlns:xlink="http://www.w3.org/1999/xlink" version="1.1">
<metadata>
Created by FontForge 20150913 at Wed Mar 23 16:26:53 2016
 By Ryan Collier
Copyright (c) 2016, Ryan Collier
</metadata>
<defs>
<font id="socrata-icons" horiz-adv-x="512" >
  <font-face 
    font-family="socrata-icons"
    font-weight="400"
    font-stretch="normal"
    units-per-em="512"
    panose-1="2 0 5 3 0 0 0 0 0 0"
    ascent="448"
    descent="-64"
    bbox="-0.000976562 -64.001 512.5 448.016"
    underline-thickness="25.6"
    underline-position="-51.2"
    unicode-range="U+0020-F153"
  />
    <missing-glyph />
    <glyph glyph-name="space" unicode=" " horiz-adv-x="200" 
 />
    <glyph glyph-name="uniF102" unicode="&#xf102;" 
d="M512 272l-256.001 -256l-255.999 256l32 32l224 -224l224 224z" />
    <glyph glyph-name="uniF107" unicode="&#xf107;" 
d="M0 112l256.001 256l255.999 -256l-32 -32l-224 224l-224 -224z" />
    <glyph glyph-name="uniF127" unicode="&#xf127;" 
d="M67.915 304.282v0h-26.6221v53.2178h26.6221h376.679h26.6221v-53.2178h-26.6221h-376.679zM67.915 165.695v0h-26.6221v53.2178h26.6221h376.679h26.6221v-53.2178h-26.6221h-376.679zM67.915 26v0h-26.6221v53.2178h26.6221h376.679h26.6221v-53.2178h-26.6221
h-376.679z" />
    <glyph glyph-name="uniF131" unicode="&#xf131;" 
d="M372.8 166.4l139.2 -80.8008l-255.2 -148l-256.8 148l140 82.4004c-24 40 -43.2002 82.4004 -43.2002 119.2c0 88.7998 72 160 160 160c88.7998 0 160 -72 160 -160c0 -36.7998 -19.2002 -80 -44 -120.8zM253.6 337.6c-28 0 -50.3994 -22.3994 -50.3994 -50.3994
s22.3994 -50.4004 50.3994 -50.4004s50.4004 22.4004 50.4004 50.4004s-22.4004 50.3994 -50.4004 50.3994zM63.2002 85.5996l80.7998 -46.3994l63.2002 36.7998c-8.7998 10.4004 -18.4004 22.4004 -28 35.2002l-36 20.7998zM256.8 -25.5996l80 46.3994l-52 29.6006
c-16.7998 -18.4004 -28 -29.6006 -28 -29.6006s-11.2002 12 -28 30.4004l-52.7998 -30.4004zM305.6 75.2002l62.4004 -36l80 46.3994l-80.7998 46.4004l-30.4004 -17.5996c-10.3994 -14.4004 -21.5996 -27.2002 -31.2002 -39.2002z" />
    <glyph glyph-name="uniF111" unicode="&#xf111;" 
d="M0 0h288v-64h-288v64zM448 384h-151.28l-91.8818 -352h-66.1436l91.8809 352h-134.575v64h352v-64zM464.887 -64l-64.8867 64.8867l-64.8867 -64.8867l-31.1133 31.1133l64.8867 64.8867l-64.8867 64.8867l31.1133 31.1133l64.8867 -64.8867l64.8867 64.8867
l31.1133 -31.1133l-64.8867 -64.8867l64.8867 -64.8867z" />
    <glyph glyph-name="uniF140" unicode="&#xf140;" 
d="M98.4004 -30.5v321.35h102.3s33.3496 13.6504 33.3496 29.5508c0 15.8994 -18.9502 37.1494 -18.9502 65.1992c0 28.0508 22.75 43.2002 48.5 43.2002s55.3506 -16.7002 55.3506 -50.0498s-9.85059 -31.0996 -9.85059 -50.7998s15.1504 -33.3506 32.6006 -33.3506
s111.399 7.60059 111.399 7.60059s3.05078 -79.6006 3.05078 -107.65s-22 -27.2998 -26.5508 -27.2998c0 0 -32.5996 23.5 -65.1992 23.5c-32.6006 0 -40.9004 -40.8496 -40.9004 -50.7002c0 -9.84961 0.75 -51.5498 41.7002 -51.5498
c22.75 0 18.2002 3.7998 33.3496 3.7998c15.1504 0 21.2002 -3.7998 26.5498 -30.2998c5.30078 -26.5498 12.1504 -92.4502 12.1504 -92.4502h-338.85v-0.0498047z" />
    <glyph glyph-name="uniF129" unicode="&#xf129;" 
d="M256 448c141.4 0 256 -114.6 256 -256s-114.6 -256 -256 -256s-256 114.6 -256 256s114.6 256 256 256zM256 -16c114.9 0 208 93.0996 208 208s-93.0996 208 -208 208s-208 -93.0996 -208 -208s93.0996 -208 208 -208zM293 296.6
c0 -19.7432 -16.0059 -35.75 -35.75 -35.75s-35.75 16.0068 -35.75 35.75c0 19.7441 16.0059 35.75 35.75 35.75s35.75 -16.0059 35.75 -35.75zM257.25 241.8c15.75 0 28.5 -12.7998 28.5 -28.5v-150.2c0 -15.75 -12.75 -28.5 -28.5 -28.5s-28.5 12.75 -28.5 28.5v150.2
c0 15.75 12.75 28.5 28.5 28.5z" />
    <glyph glyph-name="uniF148" unicode="&#xf148;" 
d="M432 96c44.1826 0 80 -35.8184 80 -80c0 -44.1836 -35.8174 -80 -80 -80s-80 35.8164 -80 80c0 4.31055 0.351562 8.53809 1.00781 12.6631l-215.502 107.751c-14.5459 -15.0449 -34.9258 -24.4141 -57.5059 -24.4141c-44.1826 0 -80 35.8164 -80 80
c0 44.1816 35.8174 80 80 80c22.5801 0 42.96 -9.37012 57.5059 -24.415l215.502 107.752c-0.65625 4.125 -1.00781 8.35254 -1.00781 12.6631c0 44.1826 35.8174 80 80 80s80 -35.8174 80 -80s-35.8174 -80 -80 -80c-22.5801 0 -42.96 9.36914 -57.5059 24.4141
l-215.502 -107.751c0.657227 -4.125 1.00781 -8.35254 1.00781 -12.6631s-0.350586 -8.53809 -1.00781 -12.6641l215.502 -107.751c14.5459 15.0459 34.9258 24.415 57.5059 24.415z" />
    <glyph glyph-name="uniF133" unicode="&#xf133;" 
d="M500.8 244.8h-121.6l-18.4004 -104.8h122.4l-11.2002 -61.5996h-122.4l-21.5996 -122.4h-61.5996l21.5996 122.4h-104l-22.4004 -122.4h-61.5996l21.5996 122.4h-121.6l11.2002 60.7998h120.8l18.4004 104.8h-121.601l11.2002 61.5996h122.4l21.5996 122.4h61.5996
l-21.5996 -122.4h104l22.4004 123.2h61.5996l-21.5996 -122.399h121.6zM317.6 244.8h-104.8l-18.3994 -104.8h104.8z" />
    <glyph glyph-name="uniF13F" unicode="&#xf13f;" 
d="M81.1064 104.247v0h-79.8906v42.8545h53.6074l48.8525 119.044l45.4785 -179.449l100.153 359.495l87.7979 -307.619h164.277v-42.8545h-195.111l-56.9639 193.668l-100.153 -351.663l-55.1768 200.85z" />
    <glyph glyph-name="uniF119" unicode="&#xf119;" 
d="M255.2 448l105.6 -60.7998l-104.8 -61.6006l-106.4 61.6006zM103.2 15.2002l-103.2 59.2002v200.8l103.2 -59.2002v-200.8zM13.5996 308l101.601 59.2002l105.6 -60.7998l-100.8 -60zM237.6 -62.4004l-97.5996 56.8008v200.8l97.5996 -56.7998v-200.801zM256.8 167.2
l-102.399 59.2002l101.6 59.1992l102.4 -59.1992zM375.2 -5.59961l-101.601 -58.4004v200.8l100.801 58.4004v-200.8h0.799805zM290.4 305.6l104.8 60.8008l102.399 -59.2002l-104.8 -60.7998zM512 74.4004l-100 -58.4004v200.8l100 58.4004v-200.8z" />
    <glyph glyph-name="uniF10E" unicode="&#xf10e;" 
d="M432 368l48 -48l-320 -320l-160 160l48 48l112 -112z" />
    <glyph glyph-name="uniF14D" unicode="&#xf14d;" 
d="M236 388.55l221.95 -221.95l-177.55 -177.5l-221.95 221.9v177.55h177.55zM152.6 255.15c21.6504 0 39.25 17.5996 39.25 39.25c0 21.6494 -17.5996 39.25 -39.25 39.25c-21.6494 0 -39.25 -17.6006 -39.25 -39.25c0 -21.6504 17.6006 -39.25 39.25 -39.25z" />
    <glyph glyph-name="uniF103" unicode="&#xf103;" 
d="M320 -64l-256 256.001l256 255.999l32 -32l-224 -224l224 -224z" />
    <glyph glyph-name="uniF14C" unicode="&#xf14c;" 
d="M0 448h512v-512h-512v512zM160 -32v96h-128v-96h128zM160 96v96h-128v-96h128zM160 224v96h-128v-96h128zM320 -32v96h-128v-96h128zM320 96v96h-128v-96h128zM320 224v96h-128v-96h128zM480 -32v96h-128v-96h128zM480 96v96h-128v-96h128zM480 224v96h-128v-96h128z" />
    <glyph glyph-name="uniF12C" unicode="&#xf12c;" 
d="M220.118 130.117c-6.65527 0 -13.3086 2.53809 -18.3848 7.61523c-47.5674 47.5674 -47.5674 124.967 0 172.534l96 96c23.0439 23.043 53.6797 35.7334 86.2666 35.7334s63.2236 -12.6904 86.2676 -35.7324c47.5664 -47.5674 47.5664 -124.967 0 -172.534
l-43.8828 -43.8838c-10.1533 -10.1533 -26.6152 -10.1533 -36.7695 0c-10.1533 10.1533 -10.1533 26.6162 0 36.7705l43.8828 43.8828c27.292 27.293 27.292 71.7021 0 98.9951c-13.2207 13.2207 -30.7998 20.502 -49.498 20.502s-36.2764 -7.28125 -49.498 -20.5029
l-96 -95.999c-27.293 -27.293 -27.293 -71.7031 0 -98.9961c10.1543 -10.1533 10.1533 -26.6162 0 -36.7695c-5.0752 -5.07617 -11.7305 -7.61523 -18.3838 -7.61523zM128 -58c-32.5879 0 -63.2246 12.6904 -86.2666 35.7324c-47.5674 47.5674 -47.5674 124.967 0 172.534
l43.8818 43.8828c10.1533 10.1523 26.6172 10.1523 36.7695 0c10.1543 -10.1533 10.1543 -26.6162 0 -36.7705l-43.8818 -43.8818c-27.293 -27.293 -27.293 -71.7031 0 -98.9961c13.2197 -13.2197 30.7988 -20.501 49.4971 -20.501s36.2764 7.28125 49.499 20.5029
l96 95.999c27.292 27.293 27.292 71.7031 0 98.9961c-10.1543 10.1543 -10.1533 26.6162 0 36.7695s26.6162 10.1533 36.7695 -0.000976562c47.5664 -47.5664 47.5664 -124.966 0.000976562 -172.533l-96.001 -96c-23.0449 -23.0439 -53.6816 -35.7334 -86.2686 -35.7334z
" />
    <glyph glyph-name="uniF112" unicode="&#xf112;" 
d="M323.765 192.084l188.235 -187.566l-67.6807 -67.9316l-188.235 187.649l-187.566 -188.236l-67.9316 67.6816l187.649 188.235l-188.236 187.566l67.6816 67.9316l188.235 -187.649l187.566 188.235l67.9316 -67.6807z" />
    <glyph glyph-name="uniF144" unicode="&#xf144;" 
d="M0 160c0 141.385 114.615 256 256 256c70.6934 0 134.688 -28.6602 181.015 -74.9893l74.9854 74.9893v-192h-192l71.7646 71.7607c-34.7461 34.7461 -82.7432 56.2393 -135.765 56.2393c-106.035 0 -192 -85.9619 -192 -192c0 -57.3477 25.1445 -108.818 65.0078 -144
l-42.333 -48c-53.1504 46.9082 -86.6748 115.538 -86.6748 192z" />
    <glyph glyph-name="uniF10C" unicode="&#xf10c;" 
d="M204.15 10.75c-2.25 -1.5498 -4.25 -2.7002 -6.9502 -2.7002s-4.7002 1.10059 -6.9502 2.7002l-163.15 163.3c-3.7998 3.60059 -3.7998 10.1006 0 13.7002l67.25 67.25c3.60059 3.59961 10.1006 3.59961 13.7002 0l89.1006 -89.5l204.25 204.7
c3.59961 3.59961 10.0996 3.59961 13.6992 0l67.25 -67.25c3.80078 -3.60059 3.80078 -10.1006 0 -13.7002z" />
    <glyph glyph-name="uniF113" unicode="&#xf113;" 
d="M505 408.8l-216.8 -216.8l216.8 -216.8l-32.2002 -32.2002l-216.8 216.8l-216.8 -216.8l-32.2002 32.2002l216.8 216.8l-216.8 216.8l32.2002 32.2002l216.8 -216.8l216.8 216.8z" />
    <glyph glyph-name="uniF123" unicode="&#xf123;" 
d="M451.495 411.276h-390.543c-13.3838 0 -24.2285 -10.8447 -24.2285 -24.2285v-390.543c0 -13.3809 10.8447 -24.2285 24.2285 -24.2285h210.254v170.003h-57.209v66.2549h57.209v48.8604c0 56.7031 34.6328 87.5781 85.2148 87.5781
c24.2285 0 45.0537 -1.80469 51.1221 -2.61035v-59.2568l-35.0811 -0.0166016c-27.5107 0 -32.8359 -13.0723 -32.8359 -32.2539v-42.3008h65.6074l-8.54297 -66.2549h-57.0645v-170.003h111.869c13.3809 0 24.2285 10.8477 24.2285 24.2285v390.543
c0 13.3838 -10.8477 24.2285 -24.2285 24.2285z" />
    <glyph glyph-name="uniF14B" unicode="&#xf14b;" 
d="M98.6455 160.598h314.71v-31.4023h-314.71v31.4023zM98.6455 97.6211h314.71v-31.4023h-314.71v31.4023zM98.6455 223.402h157.354v-31.4023h-157.354v31.4023zM98.6455 286.379h157.354v-31.4033h-157.354v31.4033zM98.6455 349.354h157.354v-31.4023h-157.354v31.4023z
M4.2666 443.733h503.467v-503.467h-503.467v503.467zM476.33 -28.3301h-0.170898v440.661h-440.49v-440.661h440.661zM287.402 349.354h125.781v-157.354h-125.781v157.354z" />
    <glyph glyph-name="uniF138" unicode="&#xf138;" 
d="M58.1973 409.941h110.422v-435.37h-110.422v435.37zM344.064 409.941h110.421v-435.37h-110.421v435.37z" />
    <glyph glyph-name="uniF121" unicode="&#xf121;" 
d="M256 38.5c-74.0947 0 -140.032 36.3018 -172.742 57.9414c-21.9209 14.502 -42.0938 31.1006 -56.8027 46.7393c-17.8008 18.9277 -26.4551 34.8955 -26.4551 48.8184c0 13.9238 8.6543 29.8916 26.4561 48.8193c14.709 15.6387 34.8818 32.2373 56.8027 46.7393
c32.709 21.6396 98.6475 57.9424 172.741 57.9424s140.031 -36.3027 172.741 -57.9424c21.9199 -14.502 42.0928 -31.1006 56.8027 -46.7393c17.8008 -18.9268 26.4551 -34.8945 26.4561 -48.8154c-0.000976562 -13.9268 -8.65527 -29.8945 -26.4561 -48.8223
c-14.709 -15.6387 -34.8818 -32.2363 -56.8027 -46.7383c-32.71 -21.6406 -98.6465 -57.9424 -172.741 -57.9424zM48.8174 192c5.51074 -10.1426 28.2549 -34.9668 67.0244 -59.4697c27.2002 -17.1904 81.5771 -46.0293 140.158 -46.0293
c58.582 0 112.959 28.8389 140.158 46.0303c38.7695 24.5029 61.5137 49.3262 67.0234 59.4688c-5.51172 10.1426 -28.2549 34.9658 -67.0244 59.4697c-27.1992 17.1914 -81.5762 46.0303 -140.157 46.0303s-112.958 -28.8389 -140.157 -46.0303
c-38.7695 -24.5029 -61.5146 -49.3271 -67.0254 -59.4697zM192 192c0 35.3457 28.6543 64 64 64s64 -28.6543 64 -64s-28.6543 -64 -64 -64s-64 28.6543 -64 64z" />
    <glyph glyph-name="uniF12A" unicode="&#xf12a;" 
d="M448 416v-32h-64l-160 -384h64v-32h-224v32h64l160 384h-64v32h224z" />
    <glyph glyph-name="uniF136" unicode="&#xf136;" 
d="M0 416h512v-64h-512v64zM0 288h320v-64h-320v64zM0 32h320v-64h-320v64zM0 160h512v-64h-512v64z" />
    <glyph glyph-name="uniF126" unicode="&#xf126;" 
d="M372.979 -6.27734c-35.832 -20.915 -74.8281 -31.373 -116.979 -31.373c-42.1582 0 -81.1523 10.458 -116.979 31.373c-35.833 20.9131 -64.2051 49.2852 -85.1201 85.1201c-20.915 35.8271 -31.373 74.8213 -31.373 116.982c0 42.1475 10.457 81.1445 31.373 116.979
c20.915 35.8271 49.2871 64.2051 85.1201 85.1201c35.8262 20.915 74.8203 31.3701 116.979 31.3701c42.1504 0 81.1475 -10.457 116.979 -31.373c35.8301 -20.915 64.208 -49.293 85.1201 -85.1201c20.915 -35.832 31.373 -74.8291 31.373 -116.979
c0 -42.1611 -10.457 -81.1543 -31.373 -116.979c-20.9121 -35.832 -49.293 -64.2051 -85.1201 -85.1201zM178.176 29.4736c-16.5371 35.9961 -26.752 81.0625 -30.6426 135.219h-70.5283c4.86426 -30.4814 16.21 -57.3945 34.0479 -80.7422
c17.8281 -23.3477 40.2051 -41.5107 67.123 -54.4775v0.000976562zM77.4912 226.951h70.5273c3.23926 51.2305 13.292 95.335 30.1572 132.302c-26.918 -12.6465 -49.2109 -30.2422 -66.8799 -52.7754c-17.6797 -22.541 -28.9404 -49.0488 -33.8047 -79.5264z
M238.489 29.7168c7.7832 -11.8398 13.6191 -17.7539 17.5107 -17.7539s9.72754 5.91406 17.5107 17.7539c7.78223 11.835 15.7236 30.1592 23.833 54.9658c8.10254 24.8066 13.1328 51.4717 15.0791 80.0098h-112.846c1.94629 -28.5391 6.96875 -55.2061 15.0791 -80.0098
c8.09961 -24.8066 16.0508 -43.1309 23.833 -54.9658zM311.936 226.951c-1.29785 20.4297 -3.81641 39.6416 -7.53809 57.6387c-3.7334 17.9971 -7.7832 32.748 -12.1602 44.2627c-4.37793 11.5068 -9.08301 21.4785 -14.1055 29.9131
c-5.03125 8.43066 -9.4082 14.5078 -13.1338 18.2432c-3.73242 3.72461 -6.73535 5.59277 -8.99805 5.59277c-2.27344 0 -5.27637 -1.86816 -8.99805 -5.59277c-3.73047 -3.73242 -8.1084 -9.8125 -13.1338 -18.2432c-5.03027 -8.43457 -9.72754 -18.4062 -14.1055 -29.9131
c-4.37695 -11.5127 -8.43457 -26.2656 -12.1602 -44.2627c-3.73242 -17.9971 -6.24902 -37.209 -7.53809 -57.6387h111.871zM434.509 226.951c-4.86133 30.4775 -16.1328 56.9854 -33.8047 79.5264c-17.6768 22.5332 -39.9697 40.1289 -66.8799 52.7754
c16.8574 -36.9668 26.9102 -81.0703 30.1533 -132.302h70.5312v0zM333.824 29.4736c26.9102 12.9668 49.2852 31.1289 67.123 54.4766c17.8301 23.3477 29.1836 50.2607 34.0479 80.7432h-70.5283c-3.89062 -54.1572 -14.1055 -99.2256 -30.6426 -135.22v0z" />
    <glyph glyph-name="uniF152" unicode="&#xf152;" 
d="M112 240c26.5996 0 48 -21.4004 48 -48s-21.4004 -48 -48 -48s-48 21.4004 -48 48s21.4004 48 48 48zM256 240c26.5996 0 48 -21.4004 48 -48s-21.4004 -48 -48 -48s-48 21.4004 -48 48s21.4004 48 48 48zM400 240c26.5996 0 48 -21.4004 48 -48s-21.4004 -48 -48 -48
s-48 21.4004 -48 48s21.4004 48 48 48z" />
    <glyph glyph-name="uniF141" unicode="&#xf141;" 
d="M256 448c141.385 0 256 -114.615 256 -256s-114.615 -256 -256 -256s-256 114.615 -256 256s114.615 256 256 256zM256 32c17.6729 0 32 14.3271 32 32s-14.3271 32 -32 32s-32 -14.3271 -32 -32s14.3271 -32 32 -32zM308.769 195.921
c23.3086 14.6436 55.2314 34.6992 55.2314 76.0791c0 26.3643 -11.9629 50.375 -33.6846 67.6123c-19.8184 15.7266 -46.2119 24.3877 -74.3154 24.3877c-23.6719 0 -46.1514 -7.52148 -65.0059 -21.749c-18.2168 -13.7471 -31.8604 -33.3018 -38.416 -55.0615
c-3.82324 -12.6924 3.36621 -26.0791 16.0566 -29.9033c12.6924 -3.82227 26.0791 3.36621 29.9033 16.0566c7.56543 25.1162 31.1953 42.6572 57.4619 42.6572c17.3154 0 33.1123 -4.9668 44.4785 -13.9873c7.08105 -5.61914 15.5215 -15.3867 15.5215 -30.0127
c0 -13.4453 -9.98438 -21.1221 -32.7656 -35.4336c-11.0791 -6.96094 -22.5361 -14.1592 -31.9688 -23.7568c-12.7832 -13.0078 -19.2656 -28.126 -19.2656 -44.9346v-16c0 -13.2549 10.7451 -24 24 -24s24 10.7451 24 24v16c0 8.98926 9.21289 15.7607 28.7686 28.0459z
" />
    <glyph glyph-name="uniF137" unicode="&#xf137;" 
d="M0 416h512v-64h-512v64zM192 288h320v-64h-320v64zM192 32h320v-64h-320v64zM0 160h512v-64h-512v64z" />
    <glyph glyph-name="uniF12E" unicode="&#xf12e;" 
d="M256.3 441.5c136.25 0 246.7 -110.45 246.7 -246.7s-110.45 -246.7 -246.7 -246.7s-246.7 110.45 -246.7 246.7s110.45 246.7 246.7 246.7zM194.85 54.4004c15.3506 0 30.1504 2.34961 44.1006 6.7998c-16.7998 9.0498 -31.7998 21 -44.2998 35.25
c-57.5 0.0996094 -104.25 46.8994 -104.25 104.45c0 57.5 46.75 104.35 104.25 104.449c12.5 14.25 27.5 26.2002 44.2998 35.25c-13.9004 4.40039 -28.75 6.80078 -44.1006 6.80078c-80.75 0 -146.5 -65.75 -146.5 -146.5s65.7002 -146.5 146.5 -146.5zM313.75 54.4004
c80.7998 0 146.5 65.5996 146.5 146.399s-65.7002 146.45 -146.5 146.45c-21.1504 0 -41.25 -4.25 -59.4502 -12.75v0c-2.0498 -0.5 -4.0498 -1.75 -6.0498 -2.75c-0.0498047 0 -0.0996094 0.0996094 -0.150391 0.0996094c-1.94922 -1 -3.89941 -2.0498 -5.7998 -3.09961
c-0.0996094 -0.0498047 -0.149414 -0.0996094 -0.25 -0.150391c-1.89941 -1.0498 -3.75 -2.14941 -5.5498 -3.2998c-0.0996094 -0.0498047 -0.200195 -0.149414 -0.299805 -0.200195c-1.85059 -1.14941 -3.60059 -2.2998 -5.35059 -3.5
c-0.0996094 -0.0996094 -0.25 -0.149414 -0.349609 -0.25c-1.75 -1.19922 -3.4502 -2.39941 -5.15039 -3.69922c-0.0996094 -0.0507812 -0.25 -0.150391 -0.349609 -0.25c-1.65039 -1.30078 -3.34961 -2.60059 -4.9502 -3.9502
c-0.0996094 -0.100586 -0.200195 -0.150391 -0.299805 -0.25c-1.59961 -1.35059 -3.2002 -2.75 -4.7998 -4.2002c-0.0498047 -0.0996094 -0.150391 -0.150391 -0.200195 -0.200195c-1.65039 -1.5 -3.2002 -3 -4.75 -4.5498v0c-26.4004 -26.5 -42.75 -63.0498 -42.75 -103.35
c0 -40.3008 16.3496 -76.8506 42.75 -103.351v0c1.5498 -1.5498 3.15039 -3.0498 4.75 -4.5498c0.0498047 -0.0996094 0.150391 -0.150391 0.200195 -0.200195c1.5498 -1.4502 3.14941 -2.84961 4.7998 -4.2002c0.0996094 -0.0996094 0.200195 -0.149414 0.299805 -0.25
c1.60059 -1.34961 3.25 -2.64941 4.9502 -3.94922c0.0996094 -0.0507812 0.25 -0.150391 0.349609 -0.25c1.7002 -1.25 3.40039 -2.5 5.15039 -3.7002c0.0996094 -0.100586 0.25 -0.150391 0.349609 -0.25c1.75 -1.2002 3.55078 -2.35059 5.35059 -3.5
c0.0996094 -0.0498047 0.200195 -0.150391 0.299805 -0.200195c1.7998 -1.15039 3.65039 -2.25 5.5498 -3.2998c0.100586 -0.0498047 0.150391 -0.100586 0.25 -0.150391c1.90039 -1.09961 3.85059 -2.09961 5.7998 -3.09961
c0.0507812 0 0.100586 -0.0498047 0.150391 -0.0498047c2 -1 4 -2.40039 6.0498 -2.90039v0c18.1504 -7.5 38.2998 -12.5996 59.4502 -12.5996zM309.6 303.15c56.4502 0 102.351 -45.9502 102.301 -102.5c0 -56.4502 -45.9004 -102.351 -102.351 -102.351
c-5.0498 0 -10 0.400391 -14.8496 1.10059c-0.700195 0.0996094 -1.35059 0.25 -2.0498 0.349609c-0.75 0.150391 -1.5 0.25 -2.25 0.400391c-1 0.199219 -1.9502 0.399414 -2.9502 0.599609c-0.75 0.150391 -1.5 0.299805 -2.25 0.5
c-0.700195 0.200195 -1.40039 0.349609 -2.10059 0.549805c-1.0498 0.299805 -2.0498 0.600586 -3.09961 0.900391c-0.700195 0.25 -1.4502 0.450195 -2.15039 0.700195c-0.599609 0.199219 -1.19922 0.399414 -1.7998 0.599609
c-1.09961 0.400391 -2.25 0.799805 -3.34961 1.25c-0.5 0.200195 -1.0498 0.400391 -1.5498 0.599609c-1.2002 0.5 -2.40039 1 -3.60059 1.55078c-0.450195 0.199219 -0.849609 0.399414 -1.2998 0.599609c-0.75 0.349609 -1.5498 0.700195 -2.2998 1.09961
c-0.299805 0.150391 -0.650391 0.350586 -1 0.5c-1.2998 0.700195 -2.60059 1.40039 -3.85059 2.10059c-0.299805 0.200195 -0.649414 0.349609 -0.949219 0.549805c-1.35059 0.75 -2.7002 1.59961 -4 2.4502c-0.200195 0.0996094 -0.400391 0.200195 -0.600586 0.349609
c-0.799805 0.5 -1.5498 1 -2.2998 1.5498c-26.5996 18.5 -44.0996 49.3008 -44.0996 84.1006s17.4492 65.5996 44.0996 84.0996c0.75 0.549805 1.5498 1.0498 2.2998 1.5498c0.200195 0.150391 0.400391 0.25 0.600586 0.400391c1.2998 0.849609 2.64941 1.65039 4 2.4502
c0.299805 0.200195 0.649414 0.349609 0.949219 0.549805c1.30078 0.700195 2.55078 1.40039 3.85059 2.0498c0.349609 0.200195 0.700195 0.400391 1.0498 0.549805c0.75 0.350586 1.5498 0.75 2.2998 1.10059c0.450195 0.200195 0.850586 0.399414 1.2998 0.599609
c1.2002 0.549805 2.40039 1.0498 3.60059 1.5498c0.5 0.200195 1.0498 0.400391 1.5498 0.600586c1.09961 0.450195 2.25 0.849609 3.34961 1.25c0.600586 0.200195 1.2002 0.399414 1.80078 0.599609c0.699219 0.25 1.44922 0.5 2.14941 0.700195
c1 0.349609 2.0498 0.599609 3.10059 0.900391c0.699219 0.199219 1.39941 0.399414 2.09961 0.549805c0.75 0.149414 1.5 0.349609 2.25 0.5c1 0.200195 1.9502 0.399414 2.9502 0.599609c0.75 0.150391 1.5 0.25 2.25 0.400391
c0.700195 0.149414 1.34961 0.25 2.0498 0.349609c4.84961 0.700195 9.7998 1.10059 14.8496 1.10059zM304.5 110.35c20.0498 24.7002 32.1504 56.2002 32.1504 90.4502s-12.0508 65.75 -32.1504 90.4502c-15.9004 -0.900391 -30.7002 -5.90039 -43.4004 -14
c21.1006 -18.7998 34.4004 -46.0996 34.4004 -76.4502c0 -30.3994 -13.3496 -57.7002 -34.4004 -76.4502c12.7002 -8.09961 27.5 -13.0996 43.4004 -14z" />
    <glyph glyph-name="uniF124" unicode="&#xf124;" 
d="M450.8 71.5996c0 -2.7998 -0.799805 -4.39941 -2.39941 -6.39941l-65.6006 -65.6006c-2 -1.59961 -4 -2.39941 -6.39941 -2.39941c-2.80078 0 -4.80078 0.799805 -6.80078 2.39941l-113.6 113.601l-113.6 -113.601c-2 -1.59961 -4 -2.39941 -6.80078 -2.39941
c-2.7998 0 -4.39941 0.799805 -6.39941 2.39941l-65.6006 65.6006c-1.59961 2 -2.39941 4 -2.39941 6.39941c0 2.80078 0.799805 4.80078 2.39941 6.80078l113.601 113.6l-113.601 113.6c-1.59961 2 -2.39941 4 -2.39941 6.80078c0 2.7998 0.799805 4.39941 2.39941 6.39941
l65.6006 65.6006c2 1.59961 4 2.39941 6.39941 2.39941c2.80078 0 4.80078 -0.799805 6.80078 -2.39941l113.6 -113.601l113.6 113.601c2 1.59961 4 2.39941 6.80078 2.39941c2.7998 0 4.39941 -0.799805 6.39941 -2.39941l65.6006 -65.6006
c1.59961 -2 2.39941 -4 2.39941 -6.39941c0 -2.80078 -0.799805 -4.80078 -2.39941 -6.80078l-113.601 -113.6l113.601 -113.6c1.19922 -2 2.39941 -4 2.39941 -6.80078z" />
    <glyph glyph-name="uniF100" unicode="&#xf100;" 
d="M290.304 370.944v-145.92h140.032v-62.9766h-140.032v-147.456h-65.5361v147.456h-140.031v62.9766h140.031v145.92h65.5361z" />
    <glyph glyph-name="uniF109" unicode="&#xf109;" 
d="M353.94 205.674c37.1602 -22.4258 62.0596 -63.1963 62.0596 -109.674c0 -70.5791 -57.4209 -128 -128 -128h-192v448h160c70.5791 0 128 -57.4199 128 -128c0 -31.3223 -11.3105 -60.0547 -30.0596 -82.3262zM192 352v-128h50.75c27.9844 0 50.75 28.71 50.75 64
s-22.7656 64 -50.75 64h-50.75zM271.5 32c29.2246 0 53 28.71 53 64s-23.7754 64 -53 64h-79.5v-128h79.5z" />
    <glyph glyph-name="uniF101" unicode="&#xf101;" 
d="M448 64v32h-64v64h-32v-64h-64v-32h64v-64h32v64h64zM368 224v0v0v0c79.5518 0 144 -64.4805 144 -144s-64.4482 -144 -144 -144c-79.4883 0 -144 64.4805 -144 144s64.5117 144 144 144zM192 31.9521v-31.9365h-192v89.6963c13.9844 21.7598 160 70.7197 160 102.688
c0 29.8877 -64 30.208 -64 159.743c0 59.8086 68.1279 95.8721 128 95.8721c59.9355 0 128 -36.0635 128 -95.8721c0 -78.1758 -23.2637 -109.184 -41.7598 -128.128h-43.3604c4.54395 6.20801 9.72852 11.6484 14.624 16.3848
c16.2559 15.9033 38.4961 37.6641 38.4961 111.743c0 37.6641 -50.5596 63.9043 -96 63.9043c-45.376 0 -96 -26.2402 -96 -63.9043c0 -74.0791 22.3037 -95.8398 38.5596 -111.743c11.3281 -11.0723 25.4404 -24.8643 25.4404 -48
c0 -37.0566 -43.3916 -60 -114.112 -94.3682c-15.3281 -7.39258 -34.8799 -16.8965 -45.8877 -23.3926v-42.6875h160z" />
    <glyph glyph-name="uniF13D" unicode="&#xf13d;" 
d="M128 128c0 80.1641 64 160 192 160v96l192 -128l-192 -128v96c-162.588 0 -192 -96 -192 -96zM352 64v27.6445l64 42.667v-134.312h-416v320h221.239c-29.7764 -10.584 -56.0752 -26.3154 -78.0576 -46.9102c-5.78809 -5.42285 -11.1963 -11.1309 -16.2432 -17.0898
h-62.9385v-192h288z" />
    <glyph glyph-name="uniF14E" unicode="&#xf14e;" 
d="M252.116 -0.975586l105.101 -15.9102l-11.6934 -46.5869l-123.112 9.13965l-127.683 -9.13965l-9.13965 51.0322l102.547 11.4648v372.022l-134.057 18.8975l4.57031 -74.5166h-57.8877l-0.761719 132.035s149.801 -9.76562 224.701 -9.76562
c73.6279 0 220.883 9.76562 220.883 9.76562l-0.761719 -132.035h-58.6494l4.56934 75.2783l-135.579 -16.6133z" />
    <glyph glyph-name="uniF143" unicode="&#xf143;" 
d="M112.5 224c61.8564 0 112 -50.1445 112 -112c0 -61.8564 -50.1436 -112 -112 -112s-112 50.1436 -112 112l-0.5 16c0 123.712 100.288 224 224 224v-64c-42.7373 0 -82.917 -16.6426 -113.137 -46.8633c-5.81738 -5.81738 -11.126 -12.0078 -15.915 -18.5098
c5.71875 0.900391 11.5801 1.37305 17.5518 1.37305zM400.5 224c61.8555 0 112 -50.1445 112 -112c0 -61.8564 -50.1445 -112 -112 -112s-112 50.1436 -112 112l-0.5 16c0 123.712 100.288 224 224 224v-64c-42.7373 0 -82.917 -16.6426 -113.137 -46.8633
c-5.81836 -5.81738 -11.127 -12.0078 -15.916 -18.5098c5.71973 0.900391 11.5801 1.37305 17.5527 1.37305z" />
    <glyph glyph-name="uniF122" unicode="&#xf122;" 
d="M92.959 90.2324c-3.49121 2.16406 -6.73633 4.24805 -9.7002 6.20996c-21.9209 14.502 -42.0938 31.0996 -56.8027 46.7393c-17.8018 18.9268 -26.4561 34.8945 -26.4561 48.8174c0 13.9238 8.6543 29.8916 26.4541 48.8184
c14.709 15.6387 34.8818 32.2373 56.8027 46.7393c32.71 21.6396 98.6484 57.9424 172.742 57.9424c6.31152 0 12.5586 -0.282227 18.7383 -0.77832l-34.2031 -47.8838c-52.543 -4.37109 -99.9043 -29.7021 -124.692 -45.3682
c-38.7695 -24.5039 -61.5146 -49.3281 -67.0254 -59.4707c5.51074 -10.1426 28.2549 -34.9668 67.0244 -59.4697c1.59961 -1.01074 3.2998 -2.06445 5.08203 -3.14746zM485.544 240.818c17.8008 -18.9268 26.4551 -34.8945 26.4561 -48.8164
c-0.000976562 -13.9268 -8.65527 -29.8945 -26.4561 -48.8223c-14.709 -15.6377 -34.8818 -32.2363 -56.8027 -46.7383c-32.71 -21.6396 -98.6465 -57.9414 -172.741 -57.9414c-32.4141 0 -63.2598 6.95215 -90.4512 16.5801l-70.0879 -98.124l-30.9219 22.0879l320 448
l30.9219 -22.0869l-57.4219 -80.3916c29.7637 -11.7656 54.377 -26.207 70.7021 -37.0078c21.9199 -14.502 42.0928 -31.1006 56.8027 -46.7393zM396.158 132.53c38.7695 24.5029 61.5137 49.3262 67.0244 59.4688c-5.51074 10.1426 -28.2539 34.9658 -67.0244 59.4697
c-15.1924 9.60156 -38.8643 22.834 -67.0098 32.6475l-31.2588 -43.7598c13.5381 -11.7314 22.1104 -29.0361 22.1104 -48.3574c0 -35.3467 -28.6533 -64 -64 -64c-11.7305 0 -22.7168 3.16309 -32.1699 8.67285l-29.0371 -40.6504
c19.1055 -5.69434 39.875 -9.52148 61.207 -9.52148c58.582 0 112.959 28.8389 140.158 46.0303z" />
    <glyph glyph-name="uniF13C" unicode="&#xf13c;" 
d="M456 448c13.2002 0 24 -10.7998 24 -24v-368c0 -13.2002 -10.7998 -24 -24 -24h-142.545l65.2725 -65.2734c7.03027 -7.02832 7.03027 -18.4258 0 -25.4541c-3.51465 -3.51465 -8.12109 -5.27246 -12.7275 -5.27246s-9.21289 1.75781 -12.7266 5.27246l-90.7285 90.7275
h-6.54492v-80c0 -8.83691 -7.16406 -16 -16 -16s-16 7.16309 -16 16v80h-6.54395l-90.7285 -90.7275c-3.51465 -3.51465 -8.12109 -5.27246 -12.7275 -5.27246s-9.21289 1.75781 -12.7275 5.27344c-7.0293 7.02832 -7.0293 18.4258 0 25.4541l65.2715 65.2725h-142.544
c-13.2002 0 -24 10.7998 -24 24v368c0 13.2002 10.7998 24 24 24h432zM192 352v-160l128 80zM400 96c8.83691 0 16 7.16309 16 16s-7.16309 16 -16 16h-320c-8.83594 0 -16 -7.16309 -16 -16s7.16406 -16 16 -16h320z" />
    <glyph glyph-name="uniF14F" unicode="&#xf14f;" 
d="M504.392 345.18c-18.2822 -8.11133 -37.9297 -13.5938 -58.5518 -16.0596c21.0488 12.623 37.2119 32.6104 44.8242 56.4258c-19.6973 -11.6865 -41.5146 -20.1748 -64.7354 -24.75c-18.5967 19.8223 -45.0908 32.209 -74.4111 32.209
c-56.3008 0 -101.946 -45.665 -101.946 -101.989c0 -7.99316 0.90332 -15.7783 2.6416 -23.2422c-84.7256 4.25293 -159.842 44.8574 -210.122 106.562c-8.77441 -15.0635 -13.8018 -32.584 -13.8018 -51.2744c0 -35.3848 17.999 -66.6025 45.3525 -84.8916
c-16.7119 0.529297 -32.4307 5.11719 -46.1758 12.7559c-0.0078125 -0.425781 -0.0078125 -0.852539 -0.0078125 -1.28223c0 -49.416 35.1396 -90.6387 81.7754 -100.008c-8.55469 -2.33105 -17.5605 -3.57617 -26.8594 -3.57617
c-6.56836 0 -12.9551 0.637695 -19.1777 1.8291c12.9717 -40.5205 50.6191 -70.0078 95.2285 -70.8311c-34.8887 -27.3545 -78.8457 -43.6602 -126.606 -43.6602c-8.22754 0 -16.3428 0.482422 -24.3184 1.42383c45.1143 -28.9375 98.7002 -45.8213 156.271 -45.8213
c187.51 0 290.047 155.412 290.047 290.188c0 4.42285 -0.0986328 8.82129 -0.294922 13.1943c19.917 14.3799 37.2012 32.3438 50.8691 52.7969z" />
    <glyph glyph-name="uniF128" unicode="&#xf128;" 
d="M256 448c141.4 0 256 -114.6 256 -256s-114.6 -256 -256 -256s-256 114.6 -256 256s114.6 256 256 256zM285.75 63.0996v150.2c0 15.75 -12.75 28.5 -28.5 28.5s-28.5 -12.75 -28.5 -28.5v-150.2c0 -15.75 12.75 -28.5 28.5 -28.5s28.5 12.75 28.5 28.5zM257.25 260.85
c19.75 0 35.75 16 35.75 35.75s-16 35.75 -35.75 35.75s-35.75 -16 -35.75 -35.75s16 -35.75 35.75 -35.75z" />
    <glyph glyph-name="uniF139" unicode="&#xf139;" 
d="M447.317 201.558c1.19434 -0.682617 1.19434 -2.38965 0 -3.07227l-359.766 -177.151c-1.19434 -0.512695 -2.38965 0.34082 -2.38965 1.53516v354.475c0 1.19434 1.36621 2.04785 2.38965 1.53613z" />
    <glyph glyph-name="uniF132" unicode="&#xf132;" 
d="M512 192l-128 -96v64h-96v-96h64l-96 -128l-96 128h64v96h-96v-64l-128 96l128 96v-64h96v96h-64l96 128l96 -128h-64v-96h96v64z" />
    <glyph glyph-name="uniF115" unicode="&#xf115;" 
d="M224 -29.5996l-60.7998 60.7998l-95.2002 -95.2002l-68 68l95.2002 95.2002l-60.7998 60.7998h189.6v-189.6zM288 413.6l60.7998 -60.7998l95.2002 95.2002l68 -68l-95.2002 -95.2002l60.7998 -60.7998h-189.6v189.6z" />
    <glyph glyph-name="uniF12D" unicode="&#xf12d;" 
d="M308.142 79.0039l-68.667 -68.667c-23.0625 -23.0625 -51.0381 -34.5879 -83.9238 -34.5879c-32.8965 0 -61.0381 11.5254 -84.4346 34.5879c-23.0625 23.3984 -34.5879 51.541 -34.5879 84.4365c0 32.8857 11.5254 60.8613 34.5879 83.9248l62.5645 62.5635
l9.15723 -68.667l-32.5557 -32.5527c-12.5488 -12.5518 -18.8213 -27.6426 -18.8213 -45.2686c0 -17.6357 6.27246 -32.7295 18.8213 -45.2686c12.5391 -12.5518 27.6348 -18.8213 45.2686 -18.8213c17.6279 0 32.7188 6.27246 45.2656 18.8213l68.1621 68.1572
c12.5371 12.5391 18.8193 27.6328 18.8193 45.2686c0 17.6279 -18.8193 45.2686 -18.8193 45.2686l28.6572 41.6846s45.0947 -54.0664 45.0947 -86.9551c0.00195312 -32.8965 -11.5303 -60.8691 -34.5889 -83.9248zM440.898 211.758l-62.0518 -62.0547l-9.15723 68.1582
l32.5527 33.0625c12.542 12.541 18.8184 27.6348 18.8184 45.2686c0 17.6279 -6.27637 32.7188 -18.8184 45.2686c-12.5459 12.541 -27.6377 18.8203 -45.2656 18.8203c-17.6387 0 -32.7295 -6.2793 -45.2715 -18.8203l-68.6689 -68.1553
c-12.5469 -12.5488 -18.8184 -27.6436 -18.8184 -45.2686c0 -17.6357 18.8184 -45.7783 18.8184 -45.7783l-27.3408 -39.4932s-45.9043 52.3779 -45.9043 85.2734c0 32.8867 11.5234 60.8623 34.5859 83.9248l68.1572 68.1572
c23.4014 23.3984 51.543 35.0977 84.4395 35.0977c32.8857 0 60.8613 -11.6992 83.9248 -35.0977c23.4004 -23.0625 35.0947 -51.0381 35.0947 -83.9268c0.00195312 -32.8955 -11.6943 -61.0381 -35.0947 -84.4365v0z" />
    <glyph glyph-name="uniF108" unicode="&#xf108;" 
d="M0 -64v256h128v-256h-128zM192 -64v512h128v-512h-128zM384 352h128v-416h-128v416z" />
    <glyph glyph-name="uniF14A" unicode="&#xf14a;" 
d="M140.117 239.445h231.766v-23.21h-231.766v23.21zM140.117 193.024h231.766v-23.2109h-231.766v23.2109zM140.117 285.696h115.883v-23.2109h-115.883v23.2109zM140.117 332.117h115.883v-23.21h-115.883v23.21zM140.117 378.538h115.883v-23.21h-115.883v23.21z
M70.4854 448h370.858v-370.858h-370.858v370.858zM418.304 100.182l-0.169922 324.607h-324.438v-324.607h324.607zM279.211 378.538h92.6719v-115.882h-92.6719v115.882zM117.59 -52.9062l-32.0859 83.9678h-0.511719
c0.682617 -6.65625 0.853516 -14.5068 0.853516 -23.7227v-60.2451h-10.2402v94.7197h16.5547l30.0371 -78.165h0.512695l30.208 78.165h16.3838v-94.7197h-11.0938v61.0986c0 6.99707 0.341797 14.6768 0.853516 22.8691h-0.511719l-32.4268 -83.7979h-8.5332v-0.169922z
M248.32 -52.9062h-52.9072v94.7197h52.9072v-9.72754h-41.8135v-30.5498h39.2529v-9.72852h-39.2529v-34.8154h41.8135v-9.89844zM343.382 -52.9062h-12.6299l-51.8828 79.5303h-0.511719c0.682617 -9.38672 1.02441 -17.9199 1.02441 -25.5996v-53.9307h-10.2402v94.7197
h12.458l51.7119 -79.1895h0.512695c-0.170898 1.19434 -0.341797 4.94922 -0.512695 11.2637c-0.34082 6.31445 -0.34082 10.9229 -0.34082 13.6533v54.2725h10.2402v-94.7197h0.170898zM441.003 41.8135v-61.2695c0 -10.752 -3.24316 -19.2852 -9.72852 -25.4297
c-6.48535 -6.14355 -15.5303 -9.21582 -26.9658 -9.21582c-11.4346 0 -20.3096 3.07227 -26.4531 9.38672c-6.31445 6.14355 -9.38672 14.8477 -9.38672 25.5996v60.9287h11.0938v-61.7822c0 -7.85059 2.21875 -13.9941 6.48535 -18.2617
c4.26758 -4.2666 10.752 -6.31445 19.1143 -6.31445c8.02148 0 14.166 2.04883 18.4326 6.31445c4.2666 4.2666 6.48535 10.4111 6.48535 18.2617v61.7822h10.9229v0z" />
    <glyph glyph-name="uniF13E" unicode="&#xf13e;" 
d="M142.4 157.2h-60.8008c-19.5996 0 -34.7998 15.5996 -34.7998 34.7998s15.6006 34.7998 34.7998 34.7998h60.8008c19.5996 0 34.7998 -15.5996 34.7998 -34.7998s-15.2002 -34.7998 -34.7998 -34.7998zM151.2 248l-43.6006 42.7998
c-13.5996 13.6006 -13.5996 35.2002 0 48.7998c14 14 35.6006 14 49.2002 0l43.2002 -42.7998c14 -13.5996 14 -35.2002 0 -48.7998c-13.2002 -14.4004 -35.2002 -14.4004 -48.7998 0zM157.2 43.5996c-13.6006 -13.5996 -35.2002 -13.5996 -49.2002 0
c-13.5996 14 -13.5996 35.6006 0 49.2002l43.2002 43.2002c13.5996 14 35.2002 14 48.7998 0c14 -13.5996 14 -35.2002 0 -48.7998zM290.8 305.6c0 -19.5996 -15.5996 -34.7998 -34.7998 -34.7998s-34.7998 15.6006 -34.7998 34.7998v60.8008
c0 19.5996 15.5996 34.7998 34.7998 34.7998s34.7998 -15.6006 34.7998 -34.7998v-60.8008zM290.8 17.5996c0 -19.5996 -15.5996 -34.7998 -34.7998 -34.7998s-34.7998 15.6006 -34.7998 34.7998v60.8008c0 19.5996 15.5996 34.7998 34.7998 34.7998
s34.7998 -15.6006 34.7998 -34.7998v-60.8008zM360.8 248c-13.5996 -14 -35.2002 -14 -48.7998 0c-14 13.5996 -14 35.2002 0 48.7998l42.7998 43.2002c13.6006 14 35.2002 14 48.7998 0c14 -13.5996 14 -35.2002 0 -48.7998zM354.8 43.5996l-42.7998 43.6006
c-14 13.5996 -14 35.2002 0 48.7998c13.5996 14 35.2002 14 48.7998 0l43.2002 -42.7998c14 -13.6006 14 -35.2002 0 -49.2002c-13.5996 -14 -35.5996 -14 -49.2002 -0.400391zM430.4 157.2h-60.8008c-19.5996 0 -34.7998 15.5996 -34.7998 34.7998
s15.6006 34.7998 34.7998 34.7998h60.8008c19.5996 0 34.7998 -15.5996 34.7998 -34.7998s-15.2002 -34.7998 -34.7998 -34.7998z" />
    <glyph glyph-name="uniF117" unicode="&#xf117;" 
d="M446.627 337.373l-145.372 -145.373l145.372 -145.372l-45.2539 -45.2549l-145.373 145.373l-145.373 -145.373l-45.2539 45.2539l145.373 145.373l-145.373 145.374l45.2539 45.2529l145.373 -145.372l145.373 145.372z" />
    <glyph glyph-name="uniF10B" unicode="&#xf10b;" 
d="M64 448h448v-448h-64v-64h-448v448h64v64zM128 0v320h-64v-320h64zM256 0v128h-64v-128h64zM384 0v224h-64v-224h64zM480 32v384h-384v-32h352v-352h32z" />
    <glyph glyph-name="uniF150" unicode="&#xf150;" 
d="M256 416c141.385 0 256 -114.615 256 -256c0 -76.4619 -33.5254 -145.092 -86.6758 -192l-42.333 48c39.8623 35.1816 65.0088 86.6523 65.0088 144c0 106.038 -85.9658 192 -192 192c-53.0195 0 -101.018 -21.4932 -135.766 -56.2393l71.7656 -71.7607h-192v192
l74.9844 -74.9893c46.3271 46.3291 110.323 74.9893 181.016 74.9893z" />
    <glyph glyph-name="uniF11B" unicode="&#xf11b;" 
d="M2.55957 -11.4326h506.499v-28.3828h-506.499v28.3828zM2.55957 108.391v78.5381c43.8145 0 68.0713 40.9062 102.818 108.28c32.9951 63.9824 70.3975 136.505 150.43 136.505c80.0107 0 117.415 -72.3662 150.418 -136.21
c34.7393 -67.208 58.9951 -108.017 102.83 -108.017v-78.5381c-94.8115 0 -137.942 83.4424 -172.601 150.489c-30.1465 58.3223 -50.6162 93.7373 -80.6475 93.7373c-30.0059 0 -50.4775 -35.5 -80.6318 -93.9648c-34.6523 -67.1953 -77.7783 -150.82 -172.616 -150.82z
" />
    <glyph glyph-name="uniF11F" unicode="&#xf11f;" 
d="M498.45 188.2l-147.8 -147v73.8994s-295.65 73.9004 -332.551 -73.8994c0 73.8994 36.9502 221.7 332.551 221.7v73.8994z" />
    <glyph glyph-name="uniF142" unicode="&#xf142;" 
d="M288 64c0 -17.6729 -14.3271 -32 -32 -32s-32 14.3271 -32 32s14.3271 32 32 32s32 -14.3271 32 -32zM256 448c141.385 0 256 -114.615 256 -256s-114.615 -256 -256 -256s-256 114.615 -256 256s114.615 256 256 256zM256 -16c114.875 0 208 93.125 208 208
s-93.125 208 -208 208s-208 -93.125 -208 -208s93.125 -208 208 -208zM256 127.875c-13.2549 0 -24 10.7451 -24 24v16c0 16.8086 6.48242 31.9268 19.2656 44.9346c9.43262 9.59766 20.8896 16.7959 31.9688 23.7568c22.7812 14.3115 32.7656 21.9883 32.7656 35.4336
c0 14.626 -8.44043 24.3936 -15.5215 30.0127c-11.3662 9.02051 -27.1631 13.9873 -44.4785 13.9873c-26.2666 0 -49.8965 -17.541 -57.4619 -42.6572c-3.82422 -12.6904 -17.2109 -19.8789 -29.9033 -16.0566c-12.6904 3.82422 -19.8799 17.2109 -16.0566 29.9033
c6.55566 21.7598 20.1992 41.3145 38.416 55.0615c18.8545 14.2275 41.334 21.749 65.0059 21.749c28.1035 0 54.4971 -8.66113 74.3154 -24.3877c21.7217 -17.2373 33.6846 -41.248 33.6846 -67.6123c0 -41.3799 -31.9229 -61.4355 -55.2314 -76.0791
c-19.5557 -12.2852 -28.7686 -19.0566 -28.7686 -28.0459v-16c0 -13.2549 -10.7451 -24 -24 -24z" />
    <glyph glyph-name="uniF11A" unicode="&#xf11a;" 
d="M497.092 389.183v-432.862h-484.292v432.862l87.8584 1.66602v33.4023s12.2588 7.10938 24.3428 7.10938s24.1611 -7.10938 24.1611 -7.10938v-33.4023h211.567v33.4023s13.9453 7.10938 25.4971 7.10938s23.0068 -7.10938 23.0068 -7.10938v-33.4023zM40.4746 362.93
l-1.28027 -61.6055h428.659l0.625 61.6055l-59.2451 1.28027v-11.457h-48.5039v11.457h-211.567v-11.457h-48.5039v11.457zM162.13 147.528v118.326h-121.208v-118.326h121.208zM194.342 265.854v-118.326h121.208v118.326h-121.208zM344.918 265.854v-118.326h121.208
v118.326h-121.208zM162.13 -14.5986v133.118h-121.208v-118.327l15.1514 -14.791h106.057zM194.342 -14.5986h121.208v133.118h-121.208v-133.118zM450.975 -11.7549l15.1514 14.791v118.327h-121.208v-133.118h106.057z" />
    <glyph glyph-name="uniF10D" unicode="&#xf10d;" 
d="M181.3 -16.75l-174.95 205.6l73.0508 62.6504l101.899 -120.35l240.65 280.449l73.0498 -62.5996z" />
    <glyph glyph-name="uniF130" unicode="&#xf130;" 
d="M192 416h320v-64h-320v64zM192 224h320v-64h-320v64zM192 32h320v-64h-320v64zM0 384c0 35.3457 28.6543 64 64 64s64 -28.6543 64 -64s-28.6543 -64 -64 -64s-64 28.6543 -64 64zM0 192c0 35.3457 28.6543 64 64 64s64 -28.6543 64 -64s-28.6543 -64 -64 -64
s-64 28.6543 -64 64zM0 0c0 35.3457 28.6543 64 64 64s64 -28.6543 64 -64s-28.6543 -64 -64 -64s-64 28.6543 -64 64z" />
    <glyph glyph-name="uniF118" unicode="&#xf118;" 
d="M74.8496 246.95c-11.1992 8.89941 -19.8994 18.6494 -25.6494 29c-5.10059 9.2002 -8.0498 18.8994 -8.0498 28.9502c0 59.9492 97.25 108.6 217.25 108.6s217.199 -48.6504 217.149 -108.65c0 -10.0498 -2.9502 -19.75 -8.0498 -28.9492
c-5.7002 -10.3506 -14.4004 -20.0508 -25.6504 -28.9502c-14.1992 -11.2002 -32.3496 -21 -53.5498 -28.9502c-36.25 -13.5498 -81.1494 -21.7002 -129.95 -21.7002c-48.7998 0 -93.6992 8.10059 -129.949 21.7002c-21.1504 7.9502 -39.3506 17.7002 -53.5508 28.9502z
M441.9 189.05c11.1992 8.85059 19.8994 18.6006 25.6494 28.9502c5.10059 -9.2002 8.0498 -18.9004 8.0498 -28.9502s-2.94922 -19.75 -8.0498 -28.9502c-5.75 -10.3496 -14.3994 -20.0498 -25.6494 -28.9492c-38.5 -30.4004 -106.15 -50.7002 -183.5 -50.7002
c-77.3008 0 -145 20.2998 -183.5 50.7002c-11.25 8.84961 -19.9502 18.5996 -25.6504 28.9492c-5.09961 9.2002 -8.0498 18.9004 -8.0498 28.9502s2.9502 19.75 8.0498 28.9502c5.7002 -10.3496 14.4004 -20.0498 25.6504 -28.9502
c14.1992 -11.2002 32.3496 -21 53.5498 -28.9502c36.25 -13.5498 81.1494 -21.6992 129.95 -21.6992c48.7998 0 93.6992 8.09961 129.949 21.6992c21.1504 7.9502 39.3506 17.7002 53.5508 28.9502zM258.4 22.5c99.8496 0 183.75 33.75 209.25 79.6504
c5.09961 -9.2002 8.0498 -18.9004 8.0498 -28.9502c0 -59.9502 -97.25 -108.601 -217.25 -108.601s-217.25 48.6504 -217.25 108.601c0 10.0498 2.9502 19.75 8.0498 28.9502c25.3496 -45.9004 109.25 -79.6504 209.15 -79.6504z" />
    <glyph glyph-name="uniF104" unicode="&#xf104;" 
d="M310.627 9.37305c-12.4971 -12.4971 -32.7578 -12.4971 -45.2549 0c-6.24805 6.24805 -9.37207 14.4375 -9.37207 22.627s3.12402 16.3789 9.37207 22.627l105.373 105.373h-306.745c-17.6729 0 -32 14.3271 -32 32s14.3271 32 32 32h306.745l-105.373 105.373
c-12.4971 12.4971 -12.4971 32.7578 0 45.2549c12.4971 12.4961 32.7578 12.4961 45.2549 0l160 -160c12.4971 -12.4971 12.4971 -32.7588 0 -45.2549z" />
    <glyph glyph-name="uniF11E" unicode="&#xf11e;" 
d="M188 192l68 -68l-127.2 -127.2l60.7998 -60.7998h-189.6v189.6l60.7998 -60.7998zM512 448v-189.6l-60.7998 60.7998l-127.2 -127.2l-68 68l127.2 127.2l-60.7998 60.7998h189.6z" />
    <glyph glyph-name="uniF120" unicode="&#xf120;" 
d="M416.705 380.5h-67.2051v38h134v-139.5h-38v73.7266l-157.216 -157.216l-28.2842 28.2842zM334.107 362.5l-38 -38h-172.607v-266h266v174.441l37.5 37.5v-249.441h-341.5v341.5h248.607z" />
    <glyph glyph-name="uniF11C" unicode="&#xf11c;" 
d="M190.129 -64v0c-105.006 0 -190.129 85.123 -190.129 190.129c0 105.005 179.392 321.871 190.129 321.871c10.7363 0 190.128 -216.866 190.128 -321.871c0 -105.006 -85.123 -190.129 -190.128 -190.129zM280.009 220.444v0v0
c10.8652 -19.4736 17.0566 -41.9111 17.0566 -65.7939c0 -74.6895 -60.5479 -135.236 -135.236 -135.236c-14.3164 0 -28.1143 2.22461 -41.0654 6.34766c21.665 -17.6924 49.3379 -28.3047 79.4902 -28.3047c69.4521 0 125.755 56.3018 125.755 125.754
c0 39.1777 -17.915 74.1699 -46 97.2334z" />
    <glyph glyph-name="uniF146" unicode="&#xf146;" 
d="M365.817 150.343v0l138.184 -138.427l-67.916 -67.915l-138.346 138.345c-28.5283 -16.7764 -62.082 -26.502 -97.5801 -26.502c-106.089 0 -192.159 86.0703 -192.159 192.078s86.0703 192.079 192.159 192.079s192.16 -85.9902 192.16 -192.079
c0 -35.5791 -9.72559 -69.0518 -26.502 -97.5791zM200.159 119.788c70.834 0 128.134 57.3799 128.134 128.134c0 70.7529 -57.2998 128.052 -128.134 128.052s-128.133 -57.2178 -128.133 -128.052s57.2988 -128.134 128.133 -128.134z" />
    <glyph glyph-name="uniF12B" unicode="&#xf12b;" 
d="M0 -32h512v-32h-512v32zM273.6 141.6h-136h-137.6v96h233.6l210.4 210.4l68 -68z" />
    <glyph glyph-name="uniF13B" unicode="&#xf13b;" 
d="M480 224v-64h-192v-192h-64v192h-192v64h192v192h64v-192h192z" />
    <glyph glyph-name="uniF13A" unicode="&#xf13a;" 
d="M496 256c8.83594 0 16 -7.16406 16 -16v-96c0 -8.83594 -7.16406 -16 -16 -16h-176v-176c0 -8.83594 -7.16406 -16 -16 -16h-96c-8.83594 0 -16 7.16406 -16 16v176h-176c-8.83594 0 -16 7.16406 -16 16v96c0 8.83594 7.16406 16 16 16h176v176
c0 8.83594 7.16406 16 16 16h96c8.83594 0 16 -7.16406 16 -16v-176h176z" />
    <glyph glyph-name="uniF11D" unicode="&#xf11d;" 
d="M139.33 -19.7939l-133.878 -36.5264l36.3369 133.93l267.556 267.932l97.5391 -97.4033l-267.554 -267.932v0zM443.453 433.479l51.1826 -51.1025c6.41309 -6.82031 9.63574 -14.6406 9.64062 -23.46c0.00585938 -8.82715 -3.20508 -16.4551 -9.61035 -22.8711
l-55.3164 -55.3936l-97.5381 97.4033l55.3164 55.3906c6.40527 6.41797 14.0234 9.63867 22.8506 9.64355c8.82129 0.00488281 16.6475 -3.20312 23.4746 -9.61035z" />
    <glyph glyph-name="uniF105" unicode="&#xf105;" 
d="M201.373 9.37305l-160 160c-12.4971 12.4961 -12.4971 32.7578 0 45.2549l160 160c12.4971 12.4961 32.7578 12.4961 45.2549 0c12.4971 -12.4971 12.4971 -32.7578 0 -45.2549l-105.373 -105.373h306.745c17.6729 0 32 -14.3271 32 -32s-14.3271 -32 -32 -32h-306.745
l105.373 -105.373c6.24805 -6.24805 9.37207 -14.4375 9.37207 -22.627s-3.12402 -16.3789 -9.37207 -22.627c-12.4971 -12.4971 -32.7578 -12.4971 -45.2549 0z" />
    <glyph glyph-name="uniF145" unicode="&#xf145;" 
d="M171.2 349.6l169.6 98.4004l171.2 -98.4004v-413.6l-170.4 98.4004l-170.399 -98.4004l-171.2 98.4004v413.6zM170.4 -26.4004l128 73.6006l-0.800781 212l-125.6 -72.7998v80l-137.6 79.1992l-0.800781 -158.399l136.801 -78.4004v-135.2zM435.2 356.8l-93.6006 54.4004
v-128l93.6006 -54.4004v128z" />
    <glyph glyph-name="uniF134" unicode="&#xf134;" 
d="M256 437c135.3 0 245 -109.7 245 -245s-109.7 -245 -245 -245s-245 109.7 -245 245s109.7 245 245 245zM197.75 34.0996l239.25 278.9l-55.7002 47.75l-183.55 -213.85l-77.7002 91.75l-55.7002 -47.75z" />
    <glyph glyph-name="uniF114" unicode="&#xf114;" 
d="M256 443c138.6 0 251 -112.4 251 -251s-112.4 -251 -251 -251s-251 112.4 -251 251s112.4 251 251 251zM361.65 48.75l37.9492 38.0996l-105.6 105.2l105.25 105.601l-38.0996 37.9492l-105.2 -105.6l-105.601 105.25l-37.9492 -38.0996l105.6 -105.2l-105.25 -105.601
l38.0996 -37.9492l105.2 105.6z" />
    <glyph glyph-name="uniF116" unicode="&#xf116;" 
d="M96 448h246.656l105.376 -105.376v-310.656h-96.0322v-95.9678h-352v415.968h96v96.0322zM128 416v-352.032h288v256h-96v96.0322h-192zM352 393.376v-41.4082h41.376zM32 319.968v-351.968h288v63.9678h-224v288h-64z" />
    <glyph glyph-name="uniF125" unicode="&#xf125;" 
d="M308.83 129.034l-12.7305 -154.614h-82.2656l-12.7334 154.614l-158.607 259.355h424.947l-158.61 -259.355v0z" />
    <glyph glyph-name="uniF12F" unicode="&#xf12f;" 
d="M192 32h320v-64h-320v64zM192 224h320v-64h-320v64zM192 416h320v-64h-320v64zM96 448v-128h-32v96h-32v32h64zM64 185v-25h64v-32h-96v73l64 30v25h-64v32h96v-73zM128 96v-160h-96v32h64v32h-64v32h64v32h-64v32h96z" />
    <glyph glyph-name="uniF149" unicode="&#xf149;" 
d="M98.6455 160.598h314.71v-31.4023h-314.71v31.4023zM98.6455 97.6211h314.71v-31.4023h-314.71v31.4023zM98.6455 223.402h157.354v-31.4023h-157.354v31.4023zM98.6455 286.379h157.354v-31.4033h-157.354v31.4033zM98.6455 349.354h157.354v-31.4023h-157.354v31.4023z
M4.2666 443.733h503.467v-503.467h-503.467v503.467zM476.33 -28.3301h-0.170898v440.661h-440.49v-440.661h440.661zM287.402 349.354h125.781v-157.354h-125.781v157.354z" />
    <glyph glyph-name="uniF135" unicode="&#xf135;" 
d="M0 416h512v-64h-512v64zM96 288h320v-64h-320v64zM96 32h320v-64h-320v64zM0 160h512v-64h-512v64z" />
    <glyph glyph-name="uniF110" unicode="&#xf110;" 
d="M67.8486 30.0342l-67.8486 67.9316l256 256l256 -256l-67.8486 -67.9316l-188.151 188.151z" />
    <glyph glyph-name="uniF10A" unicode="&#xf10a;" 
d="M272 -64v240h240v-240h-240zM392 135.2c-32.7998 0 -60 -27.2002 -60 -60c0 -40 60 -100 60 -100s60 60 60 100c0 32.7998 -27.2002 60 -60 60zM421.6 75.2002c0 -16.3477 -13.252 -29.6006 -29.5996 -29.6006s-29.5996 13.2529 -29.5996 29.6006
s13.252 29.5996 29.5996 29.5996s29.5996 -13.252 29.5996 -29.5996zM0 448h512v-240h-512v240zM178.4 264v61.5996h-98.4004v-61.5996h98.4004zM304.8 264h0.799805v128h-98.3994v-128h97.5996zM432 264v92h-98.4004v-92h98.4004zM0 -64v240h240v-240h-240zM120 136
c-44 0 -80 -36 -80 -80s36 -80 80 -80s80 36 80 80c0 22.4004 -8.7998 42.4004 -23.2002 56.7998l-56.7998 -56.7998v80z" />
    <glyph glyph-name="uniF106" unicode="&#xf106;" 
d="M160 448l256 -256.001l-256 -255.999l-32 32l224 224l-224 224z" />
    <glyph glyph-name="uniF10F" unicode="&#xf10f;" 
d="M444.151 353.966l67.8486 -67.9316l-256 -256l-256 256l67.8486 67.9316l188.151 -188.151z" />
    <glyph glyph-name="uniF147" unicode="&#xf147;" 
d="M448 192c0 -12 -1.59961 -24 -3.2002 -36l67.2002 -60l-84.7998 -95.2002l-48.7998 43.2002c-17.6006 -14.4004 -36.8008 -25.5996 -58.4004 -32.7998v-75.2002h-128v74.4004c-21.5996 8 -41.5996 18.3994 -58.4004 32.7998l-48.7998 -43.2002l-84.7998 96l67.2002 60
c-1.60059 12 -3.2002 24 -3.2002 36s1.59961 24 3.2002 36l-67.2002 60l84.7998 95.2002l48.7998 -43.2002c17.6006 14.4004 36.8008 25.5996 58.4004 32.7998v75.2002h128v-74.4004c21.5996 -8 41.5996 -18.3994 58.4004 -32.7998l48.7998 43.2002l84.7998 -96
l-67.2002 -60c1.60059 -12 3.2002 -24 3.2002 -36zM256 96c52.7998 0 96 43.2002 96 96s-43.2002 96 -96 96s-96 -43.2002 -96 -96s43.2002 -96 96 -96z" />
    <glyph glyph-name="uniF153" unicode="&#xf153;" 
d="M489.385 24.7529c8.46582 -16.5898 7.9082 -32.082 -1.67383 -47.5889c-9.95312 -15.8457 -24.1562 -23.2441 -42.6055 -23.2441h-378.382c-18.4346 0 -32.6367 7.40039 -42.5898 23.2441c-9.20898 15.1328 -9.9541 30.8945 -2.21777 47.8574l189.2 378.247
c9.58203 18.4346 24.5273 27.5918 44.8076 27.5918c20.6514 0 35.4121 -9.25977 44.2803 -27.6943l189.182 -378.414zM227.704 14.2412c7.75195 -7.7207 17.1621 -11.5967 28.2197 -11.5967c11.0693 0 20.4639 3.87598 28.2188 11.5967
c7.7207 7.75195 11.5967 17.1475 11.5967 28.2197c0 11.0713 -3.87598 20.4639 -11.5967 28.2188c-7.75195 7.75098 -17.1475 11.627 -28.2188 11.627c-11.0547 0 -20.4648 -3.87598 -28.2197 -11.627c-7.73633 -7.75195 -11.6113 -17.1475 -11.6113 -28.2188
c0 -11.0723 3.87598 -20.4678 11.6113 -28.2197zM225.28 302.08v-168.96h61.4395v168.96h-61.4395z" />
    <glyph glyph-name="uniF151" unicode="&#xf151;" 
d="M288 94.6943c108.551 -8.87402 192 -62.21 192 -126.694h-448c0 64.4844 83.4492 117.82 192 126.694v26.3896c-35.249 19.8643 -64 69.3857 -64 118.916c0 79.5293 0 144 96 144s96 -64.4707 96 -144c0 -49.5303 -28.751 -99.0518 -64 -118.916v-26.3896z" />
  </font>
</defs>
</svg>
