<?xml version="1.0" standalone="no"?> 
<!DOCTYPE svg PUBLIC "-//W3C//DTD SVG 1.1//EN" "http://www.w3.org/Graphics/SVG/1.1/DTD/svg11.dtd" >
<svg xmlns="http://www.w3.org/2000/svg">
<defs>
  <font id="socrata-icons.1500411180" horiz-adv-x="1024">
    <font-face font-family="socrata-icons.1500411180"
      units-per-em="1024" ascent="896"
      descent="128" />
    <missing-glyph horiz-adv-x="0" />
    <glyph glyph-name="add-collaborator"
      unicode="&#xEA01;"
      horiz-adv-x="1024" d=" M846.558265 166.016339L735.444506 166.016339L735.444506 55.206129L679.887626 55.206129L679.887626 166.016339L568.773868 166.016339L568.773868 221.421444L679.887626 221.421444L679.887626 332.2316530000001L735.444506 332.2316530000001L735.444506 221.421444L846.558265 221.421444L846.558265 166.016339L846.558265 166.016339zM707.666066 443.041863C569.662778 443.041863 457.660109 331.400577 457.660109 193.718891C457.660109 56.037206 569.662778 -55.60408 707.666066 -55.60408C845.780469 -55.60408 957.672024 56.037206 957.672024 193.718891C957.672024 331.400577 845.780469 443.041863 707.666066 443.041863L707.666066 443.041863L707.666066 443.041863L707.666066 443.041863L707.666066 443.041863z M398.227168 104.430424L120.44277 104.430424L120.44277 178.340834C139.554337 189.58807 173.49959 206.0433860000001 200.111336 218.841966C322.892039 278.347048 398.227168 318.072508 398.227168 382.23162C398.227168 422.28951 373.726584 446.169111 354.059449 465.339277C325.836554 492.875614 287.113409 530.5510850000001 287.113409 658.813903C287.113409 724.025711 375.004392 769.457897 453.784047 769.457897C532.674816 769.457897 620.454686 724.025711 620.454686 658.813903C620.454686 530.5510850000001 581.842654 492.875614 553.61976 465.339277C545.119557 457.139321 536.119343 447.720453 528.230266 436.971863L603.509837 436.971863C635.621714 469.771685 676.011565 523.4592319999999 676.011565 658.813903C676.011565 762.366043 557.842083 824.8075965 453.784047 824.8075965C349.837126 824.8075965 231.556529 762.366043 231.556529 658.813903C231.556529 434.534039 342.6702880000001 433.979988 342.6702880000001 382.23162C342.6702880000001 326.8819200000001 89.1642473 242.1121100000001 64.885891 204.436638L64.885891 49.13613L398.227168 49.13613L398.227168 104.430424L398.227168 104.430424z" />
    <glyph glyph-name="add"
      unicode="&#xEA02;"
      horiz-adv-x="1024" d=" M587.971839 798.712L587.971839 458.84131L914.128448 458.84131L914.128448 312.160276L587.971839 312.160276L587.971839 -31.288L435.328161 -31.288L435.328161 312.160276L109.171552 312.160276L109.171552 458.84131L435.328161 458.84131L435.328161 798.712L587.971839 798.712z" />
    <glyph glyph-name="arrow-down"
      unicode="&#xEA03;"
      horiz-adv-x="1024" d=" M972 585.5L914.5 643L512 240.5L109.5 643L52 585.5L511.998203 125.5z" />
    <glyph glyph-name="arrow-down2"
      unicode="&#xEA04;"
      horiz-adv-x="1024" d=" M451.428 745.715L451.428 167.828L252.913 366.343C229.37 389.887 191.2 389.887 167.656 366.343C144.114 342.8 144.114 304.63 167.656 281.086L469.085 -20.342C492.629 -43.886 530.8 -43.886 554.342 -20.342L855.771 281.086C879.314 304.63 879.314 342.8 855.771 366.343C844 378.115 828.571 384 813.143 384C797.716 384 782.286 378.115 770.516 366.343L572 167.828L572 745.715C572 779.008 545.009 806 511.715 806C478.42 806 451.428 779.008 451.428 745.715z" />
    <glyph glyph-name="arrow-left"
      unicode="&#xEA05;"
      horiz-adv-x="1024" d=" M711.619048 -76L768.571429 -18.5L369.904762 384L768.571429 786.5L711.619048 844L256 384.001797z" />
    <glyph glyph-name="arrow-next"
      unicode="&#xEA06;"
      horiz-adv-x="1024" d=" M614.913659 40.229097L916.342399 341.657837C939.885867 365.1994210000001 939.885867 403.371603 916.342399 426.915072L614.913659 728.3438120000001C591.37019 751.885396 553.199892 751.885396 529.656424 728.3438120000001C506.112955 704.800343 506.112955 666.630045 529.656424 643.086576L728.17174 444.57126L150.285748 444.57126C116.99106 444.57126 90 417.580201 90 384.285512C90 350.990824 116.99106 323.999765 150.285748 323.999765L728.17174 323.999765L529.656424 125.4844480000001C517.885632 113.713656 512.000235 98.284272 512.000235 82.856773C512.000235 67.429273 517.885632 51.9998900000001 529.656424 40.229097C553.199892 16.685629 591.37019 16.685629 614.913659 40.229097L614.913659 40.229097z" />
    <glyph glyph-name="arrow-prev"
      unicode="&#xEA07;"
      horiz-adv-x="1024" d=" M409.086341 40.229097L107.657601 341.657837C84.1141329 365.1994210000001 84.1141329 403.371603 107.657601 426.915072L409.086341 728.3438120000001C432.62981 751.885396 470.800108 751.885396 494.343576 728.3438120000001C517.887045 704.800343 517.887045 666.630045 494.343576 643.086576L295.82826 444.57126L873.714252 444.57126C907.00894 444.57126 934 417.580201 934 384.285512C934 350.990824 907.00894 323.999765 873.714252 323.999765L295.82826 323.999765L494.343576 125.4844480000001C506.114368 113.713656 511.999765 98.284272 511.999765 82.856773C511.999765 67.429273 506.114368 51.9998900000001 494.343576 40.229097C470.800108 16.685629 432.62981 16.685629 409.086341 40.229097L409.086341 40.229097z" />
    <glyph glyph-name="arrow-right"
      unicode="&#xEA08;"
      horiz-adv-x="1024" d=" M310.5 844L253 786.5L655.5 384L253 -18.5L310.5 -76L770.5 383.998203z" />
    <glyph glyph-name="arrow-up"
      unicode="&#xEA09;"
      horiz-adv-x="1024" d=" M52 183L109.5 125.5L512 528L914.5 125.5L972 183L512.001797 643z" />
    <glyph glyph-name="arrow-up2"
      unicode="&#xEA0A;"
      horiz-adv-x="1024" d=" M469.658 788.342L168.229 486.913C144.686 463.37 144.686 425.2 168.229 401.656C180 389.885 195.43 384 210.857 384C226.284 384 241.713 389.885 253.484 401.656L452 600.172L452 22.2859999999999C452 -11.009 478.991 -38 512.285 -38C545.581 -38 572.571 -11.009 572.571 22.2859999999999L572.571 600.172L771.087 401.656C794.631 378.112 832.801 378.112 856.345 401.656C879.885 425.2 879.885 463.37 856.345 486.913L554.916 788.342C543.144 800.113 527.714 805.999 512.285 805.999C496.857 805.999 481.428 800.113 469.658 788.342z" />
    <glyph glyph-name="attachment"
      unicode="&#xEA0B;"
      horiz-adv-x="1024" d=" M335.163 835.263L64.341 564.442C52.842 552.943 52.883 534.235 64.341 522.777C75.882 511.236 94.506 511.278 106.006 522.777L376.827 793.599C434.241 851.012 527.694 851.055 585.15 793.599C642.606 736.142 642.565 642.689 585.15 585.275L210.168 210.292C175.711 175.834 119.672 175.794 85.174 210.292C50.759 244.707 50.717 300.8300000000001 85.174 335.285L418.491 668.604C429.95 680.062 448.698 680.062 460.156 668.604C471.614 657.146 471.614 638.3969999999999 460.156 626.9390000000001L210.168 376.951C198.668 365.452 210.168 335.285 210.168 335.285C221.709 323.745 240.333 323.7870000000001 251.832 335.285L501.821 585.274C536.277 619.731 536.32 675.77 501.821 710.269C467.407 744.685 411.284 744.725 376.827 710.269L43.509 376.951C-13.947 319.495 -13.947 226.083 43.509 168.627C100.965 111.172 194.377 111.172 251.832 168.627L626.816 543.61C707.229 624.023 707.229 754.85 626.816 835.263C586.609 875.47 533.799 895.573 480.989 895.573C428.178 895.573 375.368 875.47 335.163 835.263z M16.9464 229.1188L315.6714 -69.6061999999999L947.7134 562.4358L648.9884 861.1608z" />
    <glyph glyph-name="axis-scale"
      unicode="&#xEA0C;"
      horiz-adv-x="1024" d=" M490.7887 320.25565L723.94435 553.4113L723.94435 457.6L798.04435 457.6L798.04435 679.9L575.74435 679.9L575.74435 605.8L671.55565 605.8L438.4 372.6443500000001L490.7887 320.25565zM142 13L142 754L290.2 754L290.2 679.9L216.1 679.9L216.1 605.8L290.2 605.8L290.2 531.7L216.1 531.7L216.1 457.6L290.2 457.6L290.2 383.5L216.1 383.5L216.1 309.4L290.2 309.4L290.2 235.3L216.1 235.3L216.1 87.1L364.3 87.1L364.3 161.2000000000001L438.4 161.2000000000001L438.4 87.1L512.5 87.1L512.5 161.2000000000001L586.6 161.2000000000001L586.6 87.1L660.7 87.1L660.7 161.2000000000001L734.8 161.2000000000001L734.8 87.1L808.9 87.1L808.9 161.2000000000001L883 161.2000000000001L883 87.1L883 13L142 13z" />
    <glyph glyph-name="bar-chart-horz"
      unicode="&#xEA0D;"
      horiz-adv-x="1024" d=" M72 -59L72 161L512 161L512 -59L72 -59L72 -59L72 -59L72 -59zM72 601L72 821L952 821L952 601L72 601L72 601L72 601L72 601zM787 271L72 271L72 491L787 491L787 271L787 271L787 271L787 271z" />
    <glyph glyph-name="bar-chart"
      unicode="&#xEA0E;"
      horiz-adv-x="1024" d=" M72 -56L292 -56L292 384L72 384L72 -56L72 -56L72 -56zM402 -56L622 -56L622 824L402 824L402 -56L402 -56L402 -56zM732 659L732 -56L952 -56L952 659L732 659L732 659L732 659z" />
    <glyph glyph-name="bell"
      unicode="&#xEA0F;"
      horiz-adv-x="1024" d=" M406.3406 -20.33577C406.3406 -79.59612 453.75203 -127 513.01653 -127C572.28101 -127 619.69245 -79.59612 619.69245 -20.33577L406.3406 -20.33577zM1023.8721 78.03406C1026.2127 86.3357699999999 1025.0424 95.81508 1019.1171 101.73966L833.02638 286.63017L833.02638 577C833.02638 753.59612 689.61074 897 513.00153 897C336.39382 897 192.97448 753.59612 192.97448 577L192.97448 286.63017L6.8844586 101.73966C0.95939828 95.81508 -0.22561086 86.3357699999999 2.1444367 78.03406C5.6994714 69.73965 13.997476 65 22.294755 65L1003.712 65C1012.0071 65 1020.3021 69.75429 1023.8571 78.03406z" />
    <glyph glyph-name="bold2"
      unicode="&#xEA10;"
      horiz-adv-x="1024" d=" M707.304241 410.817478C744.760391 455.309766 767.357143 512.711629 767.357143 575.285714C767.357143 716.28817 652.643315 831 511.642857 831L192 831L192 -64L575.571429 -64C716.571886 -64 831.285714 50.713828 831.285714 191.714286C831.285714 284.5665400000001 781.543292 366.015536 707.304241 410.817478L707.304241 410.817478zM383.785714 703.142857L485.172433 703.142857C541.077969 703.142857 586.559152 645.786942 586.559152 575.285714C586.559152 504.784487 541.077969 447.428571 485.172433 447.428571L383.785714 447.428571L383.785714 703.142857L383.785714 703.142857zM542.608259 63.857143L383.785714 63.857143L383.785714 319.571429L542.608259 319.571429C600.993025 319.571429 648.489955 262.215513 648.489955 191.714286C648.489955 121.2130580000001 600.993025 63.857143 542.608259 63.857143L542.608259 63.857143z" />
    <glyph glyph-name="boolean"
      unicode="&#xEA11;"
      horiz-adv-x="1024" d=" M542.5 555L937 555L937 199L542.5 199L92 199L92 555L542.5 555zM542 504.27L542 249.73L880.7125 249.73L880.7125 504.27L542 504.27z" />
    <glyph glyph-name="cards"
      unicode="&#xEA12;"
      horiz-adv-x="1024" d=" M541.375 -86L982 -86L982 354.625L541.375 354.625L541.375 -86L541.375 -86zM761.6875 279.71875C821.90625 279.71875 871.84375 229.78125 871.84375 169.5625C871.84375 96.125 761.6875 -14.03125 761.6875 -14.03125C761.6875 -14.03125 651.53125 96.125 651.53125 169.5625C651.53125 229.78125 701.46875 279.71875 761.6875 279.71875L761.6875 279.71875zM816.03125 169.5625C816.03125 139.5495120000001 791.700488 115.21875 761.6875 115.21875C731.674512 115.21875 707.34375 139.5495120000001 707.34375 169.5625C707.34375 199.575488 731.674512 223.90625 761.6875 223.90625C791.700488 223.90625 816.03125 199.575488 816.03125 169.5625L816.03125 169.5625zM42 854L42 413.375L982 413.375L982 854L42 854L42 854zM369.53125 516.1875L188.875 516.1875L188.875 629.28125L369.53125 629.28125L369.53125 516.1875L369.53125 516.1875zM601.59375 516.1875L422.40625 516.1875L422.40625 751.1875L603.0625 751.1875L603.0625 516.1875L601.59375 516.1875zM835.125 516.1875L654.46875 516.1875L654.46875 685.09375L835.125 685.09375L835.125 516.1875L835.125 516.1875zM42 -86L482.625 -86L482.625 354.625L42 354.625L42 -86L42 -86zM262.3125 281.1875L262.3125 134.3125L366.59375 238.59375C393.03125 212.15625 409.1875 175.4375 409.1875 134.3125C409.1875 53.53125 343.09375 -12.5625 262.3125 -12.5625C181.53125 -12.5625 115.4375 53.53125 115.4375 134.3125C115.4375 215.09375 181.53125 281.1875 262.3125 281.1875L262.3125 281.1875z" />
    <glyph glyph-name="chart"
      unicode="&#xEA13;"
      horiz-adv-x="1024" d=" M159.5 854L159.5 736.5L42 736.5L42 -86L864.5 -86L864.5 31.5L982 31.5L982 854L159.5 854L159.5 854zM277 31.5L159.5 31.5L159.5 619L277 619L277 31.5L277 31.5zM512 31.5L394.5 31.5L394.5 266.5L512 266.5L512 31.5L512 31.5zM747 31.5L629.5 31.5L629.5 442.75L747 442.75L747 31.5L747 31.5zM923.25 90.25L864.5 90.25L864.5 736.5L218.25 736.5L218.25 795.25L923.25 795.25L923.25 90.25L923.25 90.25z" />
    <glyph glyph-name="check-2"
      unicode="&#xEA14;"
      horiz-adv-x="1024" d=" M390.45965 -27.479912L61.0746094 359.611053L198.608632 477.564599L390.45965 250.9770610000001L843.540587 778.990977L981.074609 661.131569L390.45965 -27.479912z" />
    <glyph glyph-name="check"
      unicode="&#xEA15;"
      horiz-adv-x="1024" d=" M411.058466 25.192754C406.567741 22.099143 402.575984 19.803883 397.187114 19.803883C391.798243 19.803883 387.806487 21.9993490000001 383.315761 25.192754L57.6882525 351.119644C50.1039158 358.304805 50.1039158 371.278013 57.6882525 378.463174L191.911053 512.685975C199.096214 519.871136 212.069422 519.871136 219.254583 512.685975L397.08732 334.054887L804.745417 742.611129C811.930578 749.79629 824.903786 749.79629 832.088947 742.611129L966.311747 608.388328C973.896084 601.203167 973.896084 588.22996 966.311747 581.044799L411.058466 25.192754L411.058466 25.192754z" />
    <glyph glyph-name="checkmark-alt"
      unicode="&#xEA16;"
      horiz-adv-x="1024" d=" M510.5 23.5C736.937 23.5 920.5 207.063 920.5 433.5C920.5 659.937 736.937 843.5 510.5 843.5C284.063 843.5 100.5 659.937 100.5 433.5C100.5 207.063 284.063 23.5 510.5 23.5zM718.346 654.269L772.9785 599.4141L408.7615000000001 233.7151L226.6535000000001 416.5651000000001L281.2860000000001 471.42L408.7620000000001 343.425z" />
    <glyph glyph-name="checkmark3"
      unicode="&#xEA17;"
      horiz-adv-x="1024" d=" M880 737L358.666667 215.666667L144 430.333333L52 338.3333330000001L358.666667 31.666667L972 645z" />
    <glyph glyph-name="chevron-down"
      unicode="&#xEA18;"
      horiz-adv-x="1024" d=" M850.084727 675L512 336.915273L173.915273 675L52 552.934688L512 92.9346880000001L972 552.934688z" />
    <glyph glyph-name="chevron-up"
      unicode="&#xEA19;"
      horiz-adv-x="1024" d=" M173.915273 92.9346880000001L512 431.019414L850.084727 92.9346880000001L972 215L512 675L52 215z" />
    <glyph glyph-name="clear-formatting"
      unicode="&#xEA1A;"
      horiz-adv-x="1024" d=" M78 47.875L581.4375 47.875L581.4375 -64L78 -64L78 47.875zM861.125 719.125L596.680469 719.125L436.066426 103.8125L320.4436130000001 103.8125L481.055908 719.125L245.8125 719.125L245.8125 831L861.125 831L861.125 719.125zM890.644268 -64L777.21875 49.425518L663.793232 -64L609.40625 -9.613018L722.831768 103.8125L609.40625 217.238018L663.793232 271.625L777.21875 158.199482L890.644268 271.625L945.03125 217.238018L831.605732 103.8125L945.03125 -9.613018L890.644268 -64z" />
    <glyph glyph-name="close-2"
      unicode="&#xEA1B;"
      horiz-adv-x="1024" d=" M972 784.514056L912.514056 844L512 443.485944L111.485944 844L52 784.514056L452.514056 384L52 -16.514056L111.485944 -76L512 324.514056L912.514056 -76L972 -16.514056L571.485944 384z" />
    <glyph glyph-name="close-circle"
      unicode="&#xEA1C;"
      horiz-adv-x="1024" d=" M512 794C285.601594 794 102 610.398406 102 384C102 157.601594 285.601594 -26 512 -26C738.398406 -26 922 157.601594 922 384C922 610.398406 738.398406 794 512 794L512 794zM684.575697 150.005976L512.081673 321.928287L340.241036 149.434263L278.005976 211.424303L449.928287 383.918327L277.434263 555.758964L339.424303 617.9940240000001L511.918327 446.071713L683.758964 618.565737L745.994024 556.575697L574.071713 384.081673L746.565737 212.241036L684.575697 150.005976L684.575697 150.005976z" />
    <glyph glyph-name="close"
      unicode="&#xEA1D;"
      horiz-adv-x="1024" d=" M576.599519 383.814303L753.447731 561.214784L689.425963 625L512.656445 447.599519L335.255964 624.447731L271.470748 560.425963L448.8712290000001 383.656445L272.023018 206.255964L336.044785 142.470748L512.814303 319.871229L690.214784 143.023018L754 207.0447850000001z" />
    <glyph glyph-name="collapse"
      unicode="&#xEA1E;"
      horiz-adv-x="1024" d=" M454.5 -14.1875L454.5 326.5L113.8125 326.5L223.0625 217.25L52 46.1875L174.1875 -76L345.25 95.0625L454.5 -14.1875zM569.5 782.1875L569.5 441.5L910.1875 441.5L800.9375 550.75L972 721.8125L849.8125 844L678.75 672.9375L569.5 782.1875z" />
    <glyph glyph-name="color"
      unicode="&#xEA1F;"
      horiz-adv-x="1024" d=" M511.689788 -41.08C353.429788 -41.08 224.689788 87.66 224.689788 245.92C224.689788 387.206 433.543788 696.92 511.689788 810.08C590.245788 696.346 798.689788 387.0830000000001 798.689788 245.92C798.689788 87.66 669.949788 -41.08 511.689788 -41.08L511.689788 -41.08zM511.689788 664.407C421.325788 526.483 306.689788 325.2140000000001 306.689788 245.92C306.689788 132.8830000000001 398.652788 40.92 511.689788 40.92C624.726788 40.92 716.689788 132.8830000000001 716.689788 245.92C716.689788 325.2140000000001 602.053788 526.524 511.689788 664.407L511.689788 664.407z" />
    <glyph glyph-name="column-info"
      unicode="&#xEA20;"
      horiz-adv-x="1024" d=" M307 685.168991L307 741L107 741L107 685.168991L107 55.210755L107 -0.620254L307 -0.620254L307 55.210755 M581 296.8471550000001L581 55.210755L581 -0.620254L381 -0.620254L381 55.210755L381 685.168991L381 741L510.005387 741C469.865471 688.80143 446 623.4377549999999 446 552.5C446 446.298322 499.490652 352.590054 581 296.8471550000001z M855 259.341158L855 55.210755L855 -0.620254L655 -0.620254L655 55.210755L655 259.682365C686.511898 248.8694060000001 720.320513 243 755.5 243C790.307644 243 823.773242 248.745984 855 259.341158z M754.591186 297.461881C613.643001 297.461881 498.985669 415.297029 498.985669 560.151702C498.985669 704.968847 613.643001 822.8415224 754.591186 822.8415224C895.53937 822.8415224 1010.1967 704.968847 1010.1967 560.151702C1010.1967 415.297029 895.53937 297.461881 754.591186 297.461881zM754.591186 747.787288C653.919127 747.787288 572.015817 663.613964 572.015817 560.151702C572.015817 456.689439 653.919127 372.516115 754.591186 372.516115C855.263244 372.516115 937.166554 456.689439 937.166554 560.151702C937.166554 663.613964 855.263244 747.787288 754.591186 747.787288zM718.076112 560.151702L791.106259 560.151702L791.106259 410.043232L718.076112 410.043232L718.076112 560.151702zM754.591186 597.678819C734.424467 597.678819 718.076112 614.480281 718.076112 635.2059360000001C718.076112 655.931591 734.424467 672.733053 754.591186 672.733053C774.757904 672.733053 791.106259 655.931591 791.106259 635.2059360000001C791.106259 614.480281 774.757904 597.678819 754.591186 597.678819z" />
    <glyph glyph-name="community"
      unicode="&#xEA21;"
      horiz-adv-x="1024" d=" M266.409003 210.578282C251.623991 188.271725 243.415516 163.6064750000001 243.415516 137.66606L788.457357 137.66606C788.457357 163.6064750000001 780.2489 188.271725 765.46391 210.578282L871.0205 210.578278L871.0205 268.441474C861.97869 282.479014 767.564205 314.0634770000001 767.564205 334.68602C767.564205 353.96673 808.946914 354.17324 808.946914 437.737454C808.946914 476.31994 764.895052 499.584975 726.181495 499.584975C692.192191 499.584975 654.160261 481.689668 645.32111 451.260577L645.32111 451.260577L645.32111 409.211527C649.740174 379.06657 661.029389 364.6757710000001 670.418671 355.0816260000001L698.4553 355.0816260000001C695.51719 359.086379 692.164957 362.5957640000001 688.999367 365.650955C678.488024 375.910679 664.10759 389.948219 664.10759 437.737454C664.10759 462.034717 696.800081 478.962432 726.181495 478.962432C755.521752 478.962432 788.2554 462.034717 788.2554 437.737454C788.2554 389.948219 773.83349 375.910679 763.322467 365.650955C755.997771 358.508344 746.87301 349.6111990000001 746.87301 334.68602C746.87301 310.781029 774.930376 295.979692 820.658195 273.808806C830.56909 269.040256 843.211671 262.909126 850.329305 258.718515L850.329305 231.1803300000001L749.350929 231.1803300000001C707.997467 276.652062 637.395685 309.061292 554.867919 316.9067330000001L554.867919 354.241864C597.752386 382.344711 632.731171 452.406012 632.731171 522.478485C632.731171 634.9923309999999 632.731171 726.202822 515.936452 726.202822C399.141797 726.202822 399.141797 634.9923309999999 399.141797 522.478485C399.141797 452.406012 434.120519 382.344711 477.004986 354.241864L477.004986 316.9067330000001C394.477339 309.061292 323.875515 276.652062 282.522005 231.1803300000001L182.44877 231.1803300000001L182.44877 258.718515C189.566595 262.909126 202.208984 269.040256 212.120103 273.808806C257.847858 295.979692 285.905257 310.781029 285.905257 334.68602C285.905257 349.6111990000001 276.780399 358.508344 269.455672 365.650955C258.944489 375.910679 244.522643 389.948219 244.522643 437.737454C244.522643 462.034717 277.25629 478.962432 306.596548 478.962432C335.978153 478.962432 368.67042 462.034717 368.67042 437.737454C368.67042 389.948219 354.289987 375.910679 343.778804 365.650955C340.613022 362.5957640000001 337.2610440000001 359.086379 334.32287 355.0816260000001L362.359595 355.0816260000001C371.7487280000001 364.675849 383.038081 379.0668050000001 387.457093 409.212263L387.457093 451.260251L387.457093 451.260251C378.6181230000001 481.68954 340.586057 499.584975 306.596548 499.584975C267.88315 499.584975 223.831352 476.31994 223.831352 437.737454C223.831352 354.17324 265.213934 353.96673 265.213934 334.68602C265.213934 314.0634770000001 170.799576 282.479014 161.757479 268.441474L161.757479 210.578278L266.409 210.578278zM826.007667 684.848257C995.981562 514.804438 995.981562 239.109209 826.007667 69.065423C656.03441 -100.979226 380.453583 -100.979226 210.480358 69.065423C40.506271 239.109209 40.506271 514.804438 210.480358 684.848257C380.453583 854.8927137000001 656.03441 854.8927137000001 826.007667 684.848257z" />
    <glyph glyph-name="copy-document"
      unicode="&#xEA22;"
      horiz-adv-x="1024" d=" M292 824L292 658.9449999999999L127 658.9449999999999L127 -56L732 -56L732 108.9450000000001L897.055 108.9450000000001L897.055 642.885L715.94 824L292 824L292 824zM347 769L677 769L677 603.9449999999999L842 603.9449999999999L842 163.9450000000001L347 163.9450000000001L347 769L347 769zM732 730.115L803.115 658.9449999999999L732 658.9449999999999L732 730.115L732 730.115zM182 603.9449999999999L292 603.9449999999999L292 108.9450000000001L677 108.9450000000001L677 -1L182 -1L182 603.9449999999999L182 603.9449999999999z" />
    <glyph glyph-name="crop"
      unicode="&#xEA23;"
      horiz-adv-x="1024" d=" M241.152297 837.4958521L241.152297 665.106655L48.236901 665.106655L48.236901 576.9057359999999L241.152297 576.9057359999999L241.152297 102.88505L694.657808 102.88505L694.657808 -69.504148L782.847703 -69.504148L782.847703 102.88505L975.763099 102.88505L975.763099 191.074945L782.847703 191.074945L782.847703 606.8351809999999L906.225367 730.212845L859.462675 776.98656L747.582769 665.106655L329.342192 665.106655L329.342192 837.4958521L241.152297 837.4958521zM329.342192 576.9057359999999L659.392874 576.9057359999999L329.342192 246.866077L329.342192 576.9057359999999zM694.657808 518.6452859999999L694.657808 191.074945L367.0984900000001 191.074945L694.657808 518.6452859999999z" />
    <glyph glyph-name="cross2"
      unicode="&#xEA24;"
      horiz-adv-x="1024" d=" M811.343961 612.281039L740.281039 683.343961L512 455.064492L283.718961 683.343961L212.656039 612.282609L440.937078 384L212.656039 155.718961L283.718961 84.656039L512 312.9370780000001L740.281039 84.656039L811.343961 155.7205310000001L583.064492 384z" />
    <glyph glyph-name="data"
      unicode="&#xEA25;"
      horiz-adv-x="1024" d=" M146.189797 498.938851C174.501225 476.509022 210.787703 457.069837 252.955781 441.219425C325.229673 414.104255 414.74961 397.954778 512.045222 397.954778C609.340833 397.954778 698.860771 414.203943 771.134663 441.219425C813.402428 457.069837 849.589218 476.60871 877.900646 498.938851C900.330474 516.6833369999999 917.676209 536.022834 929.040655 556.658276C939.208844 575.000891 945.090443 594.3403880000001 945.090443 614.377701C945.190131 734.003453 751.396413 831 512.14491 831C272.8934060000001 831 79 734.003453 79 614.477389C79 594.440076 84.8815995 575.1005789999999 95.0497884 556.757964C106.513923 536.122522 123.859657 516.6833369999999 146.189797 498.938851L146.189797 498.938851zM878.000334 383.5C849.688906 361.070172 813.402428 341.630987 771.234351 325.780575C698.960459 298.665404 609.440521 282.5159280000001 512.14491 282.5159280000001C414.849298 282.5159280000001 325.329361 298.765092 253.055469 325.780575C210.787703 341.630987 174.600913 361.16986 146.289485 383.5C123.859657 401.244487 106.513923 420.583983 95.1494765 441.219425C84.9812876 422.87681 79.0996881 403.537313 79.0996881 383.5C79.0996881 363.462687 84.9812876 344.12319 95.1494765 325.780575C106.513923 305.145133 123.859657 285.7059480000001 146.289485 268.061149C223.049343 207.450769 358.027066 166.977389 512.14491 166.977389C666.362442 166.977389 801.240477 207.450769 878.000334 268.061149C900.430163 285.8056360000001 917.676209 305.145133 929.140343 325.780575C939.308532 344.12319 945.190131 363.462687 945.190131 383.5C945.190131 403.537313 939.308532 422.87681 929.140343 441.219425C917.676209 420.583983 900.330474 401.144798 878.000334 383.5L878.000334 383.5zM512.14491 51.438851C312.968033 51.438851 145.691357 118.728336 95.1494765 210.242036C84.9812876 191.899421 79.0996881 172.559924 79.0996881 152.522611C79.0996881 32.996547 272.993094 -64 512.244598 -64C751.496102 -64 945.389508 32.996547 945.389508 152.522611C945.389508 172.559924 939.507908 191.899421 929.339719 210.242036C878.498775 118.728336 711.222098 51.438851 512.14491 51.438851L512.14491 51.438851z" />
    <glyph glyph-name="dataset"
      unicode="&#xEA26;"
      horiz-adv-x="1024" d=" M511.101562 831L695.695312 724.71875L512.5 617.0390620000001L326.507812 724.71875L511.101562 831L511.101562 831zM245.398438 74.445312L65 177.929687L65 528.9375L245.398438 425.453125L245.398438 74.445312L245.398438 74.445312zM88.7734375 586.2734379999999L266.375 689.7578129999999L450.96875 583.4765629999999L274.765625 478.59375L88.7734375 586.2734379999999L88.7734375 586.2734379999999zM480.335937 -61.203125L309.726562 38.0859380000001L309.726562 389.09375L480.335937 289.8046880000001L480.335937 -61.203125L480.335937 -61.203125zM513.898438 340.148437L334.898438 443.632812L512.5 547.1171870000001L691.5 443.632812L513.898438 340.148437L513.898438 340.148437zM720.867187 38.0859369999999L543.265625 -64L543.265625 287.007812L719.46875 389.09375L719.46875 38.0859369999999L720.867187 38.0859369999999zM572.632813 582.078125L755.828125 688.359375L934.828125 584.875L751.632813 478.59375L572.632813 582.078125L572.632813 582.078125zM960 177.929687L785.195312 75.84375L785.195312 426.851562L960 528.9375L960 177.929687L960 177.929687z" />
    <glyph glyph-name="date"
      unicode="&#xEA27;"
      horiz-adv-x="1024" d=" M969.047306 751.535221L969.047306 -64L54 -64L54 751.535221L220.004157 754.675345L220.004157 817.6068088C220.004157 817.6068088 243.16705 831 265.99898 831C288.830912 831 311.649473 817.6068088 311.649473 817.6068088L311.649473 754.675345L711.397836 754.675345L711.397836 817.6068088C711.397836 817.6068088 737.745762 831 759.572572 831C781.399385 831 803.043149 817.6068088 803.043149 817.6068088L803.043149 754.675345L969.047306 751.535221L969.047306 751.535221zM106.289621 702.073773L103.871539 586.005795L913.803127 586.005795L914.984051 702.073773L803.043149 704.48494L803.043149 682.901068L711.397836 682.901068L711.397836 704.48494L311.649473 704.48494L311.649473 682.901068L220.004157 682.901068L220.004157 704.48494L106.289621 702.073773L106.289621 702.073773zM336.152361 296.245597L336.152361 519.179774L107.135647 519.179774L107.135647 296.245597L336.152361 296.245597L336.152361 296.245597zM397.015296 519.179774L397.015296 296.245597L626.032011 296.245597L626.032011 519.179774L397.015296 519.179774L397.015296 519.179774zM681.522304 519.179774L681.522304 296.245597L910.539019 296.245597L910.539019 519.179774L681.522304 519.179774L681.522304 519.179774zM336.152361 -9.2085039999999L336.152361 241.592444L107.135647 241.592444L107.135647 18.658267L135.762736 -9.2085039999999L336.152361 -9.2085039999999L336.152361 -9.2085039999999zM397.015296 -9.2085039999999L626.032011 -9.2085039999999L626.032011 241.592444L397.015296 241.592444L397.015296 -9.2085039999999L397.015296 -9.2085039999999zM881.91193 -3.851227L910.539019 24.015543L910.539019 246.94972L681.522304 246.94972L681.522304 -3.851227L881.91193 -3.851227L881.91193 -3.851227z" />
    <glyph glyph-name="distribution"
      unicode="&#xEA28;"
      horiz-adv-x="1024" d=" M31 -10.12773L992.374926 -10.12773L992.374926 -64L31 -64L31 -10.12773L31 -10.12773zM31 217.306919L31 366.3783650000001C114.163448 366.3783650000001 160.203289 444.021246 226.155892 571.90347C288.784956 693.346457 359.776014 831 511.68509 831C663.550511 831 734.547263 693.643507 797.190563 572.462455C863.127982 444.89721 909.167822 367.438443 992.370181 367.438443L992.370181 218.366997C812.409372 218.366997 730.543262 376.748528 664.760538 504.008182C607.540054 614.708033 568.686346 681.928554 511.68509 681.928554C454.731287 681.928554 415.873783 614.547645 358.6381150000001 503.57542C292.865829 376.0339 211.009209 217.306919 31 217.306919L31 217.306919z" />
    <glyph glyph-name="dollar"
      unicode="&#xEA29;"
      horiz-adv-x="1024" d=" M491.299476 121.443271C547.700924 121.443271 587.301941 130.443502 610.102526 148.4439640000001C632.903112 166.444426 644.303404 189.245012 644.303404 217.245731C644.303404 237.8462590000001 639.303276 255.4467110000001 629.503024 270.0470860000001C619.502768 284.647461 606.302429 297.647795 589.902008 308.648077C573.501587 319.6483600000001 554.301094 329.4486110000001 532.700539 338.248837C511.099985 347.0490630000001 488.899415 355.4492790000001 466.098829 363.649489C444.0982650000001 371.649694 422.297705 380.6499260000001 400.69715 390.650182C379.096596 400.650439 359.896103 412.650747 342.895666 427.051117C326.095235 441.451486 312.294881 458.651928 301.694609 478.652441C291.094337 498.85296 285.694198 523.653597 285.694198 552.8543460000001C285.694198 604.855681 301.294598 647.65678 332.495399 681.057638C363.6962 714.458495 408.897361 735.459034 468.298886 744.25926L468.298886 870.4625L559.701232 870.4625L559.701232 747.259337C591.902059 745.859301 622.102834 741.659193 649.903548 735.059024C677.704262 728.458854 699.704826 722.258695 715.905242 716.258541L694.904703 630.4563390000001C677.304251 637.056508 655.303687 643.856683 628.903009 650.856862C602.502331 657.857042 569.501484 661.257129 529.900467 661.257129C485.899338 661.257129 451.898465 652.856914 428.097854 636.056482C404.297243 619.2560510000001 392.296935 595.255435 392.296935 564.4546439999999C392.296935 547.654213 395.697022 533.253843 402.697202 521.653545C409.697381 509.853242 419.697638 499.452975 432.8979770000001 490.252739C446.098316 481.052503 461.698716 472.852293 479.699178 465.452103C497.699641 458.051913 517.700154 450.451717 539.700719 442.251507C568.301453 431.251225 595.502151 419.850932 621.102809 408.250634C646.703466 396.450331 669.304046 382.449972 688.704544 365.8495460000001C708.105042 349.449125 723.705443 329.648616 735.505746 307.048036C747.306048 284.247451 753.106197 256.8467470000001 753.106197 224.445915C753.106197 172.444581 737.305792 130.443502 705.904986 98.442681C674.304174 66.441859 625.702927 46.641351 559.701232 38.44114L559.701232 -103.3624999999999L468.298886 -103.3624999999999L468.298886 35.241058C416.897566 36.641094 375.096493 42.441243 342.895666 52.241495C310.69484 62.041746 286.494219 71.441988 270.2938030000001 80.242213L297.694506 162.644329C319.695071 152.444067 346.095749 142.8438210000001 376.896539 134.043595C407.69733 125.843384 445.898311 121.443271 491.299476 121.443271L491.299476 121.443271z" />
    <glyph glyph-name="download"
      unicode="&#xEA2A;"
      horiz-adv-x="1024" d=" M126.975334 -47.508953L126.975334 20.062424L897.022187 20.062424L897.022187 -47.508953L126.975334 -47.508953zM511.99876 102.721125L122.846396 510.876551L392.055612 511.485942L392.918709 830.9189571L631.078812 830.9189571L631.941909 511.485942L901.151124 510.876551L511.99876 102.721125z" />
    <glyph glyph-name="droplet"
      unicode="&#xEA2B;"
      horiz-adv-x="381" d=" M190.5 -128C295.710245 -128 381 -42.710245 381 62.5C381 167.710245 201.257812 385 190.5 385C179.742188 385 0 167.710245 0 62.5C0 -42.710245 85.2897552 -128 190.5 -128L190.5 -128zM280.555891 157C308.695378 133.891738 326.645336 98.830612 326.645336 59.577047C326.645336 -10.010831 270.233215 -66.422953 200.645336 -66.422953C170.434205 -66.422953 142.70645 -55.790359 121 -38.063103C133.976144 -42.193838 147.800421 -44.422953 162.145336 -44.422953C236.97992 -44.422953 297.645336 16.242464 297.645336 91.077047C297.645336 115.006987 291.44208 137.488079 280.555891 157L280.555891 157L280.555891 157z" />
    <glyph glyph-name="edit"
      unicode="&#xEA2C;"
      horiz-adv-x="1024" d=" M322.077539 33.081379L102 -26.962484L161.73235 193.198893L601.558655 633.643292L761.898913 473.525778L322.076717 33.081379L322.077539 33.081379zM822.015105 778.202433C810.791608 788.735506 797.92671 794.0090299999999 783.425343 793.999988C768.914935 793.991769 756.391139 788.6976970000001 745.862175 778.147363L654.929242 687.0927839999999L815.2695 526.97527L906.202433 618.0347810000001C916.731397 628.581005 922.00903 641.12124 921.999988 655.631648C921.991769 670.128905 916.693588 682.985584 906.151473 694.196753L822.015105 778.202433L822.015105 778.202433z" />
    <glyph glyph-name="email"
      unicode="&#xEA2D;"
      horiz-adv-x="1024" d=" M982 679.080984L512 325.566887L42 679.080984C42 695.3451689999999 47.7372473 709.230892 59.2119142 720.738569C70.6865807 732.246247 84.532471 738 100.75 738L923.25 738C939.467528 738 953.31342 732.246247 964.788087 720.738569C976.262753 709.230892 982 695.3451689999999 982 679.080984L982 679.080984L982 679.080984zM42 573.210876L512 219.696779L982 573.210876L982 89.890823C982 73.62664 976.262753 59.740914 964.788087 48.233236C953.31342 36.725559 939.467528 30.971807 923.25 30.971807L100.75 30.971807C84.532471 30.971807 70.6865807 36.725559 59.2119142 48.233236C47.7372473 59.740914 42 73.62664 42 89.890823L42 573.210876L42 573.210876z" />
    <glyph glyph-name="embed"
      unicode="&#xEA2E;"
      horiz-adv-x="1024" d=" M294.725501 157.268299L69 392.380157L294.725501 627.489279L339.270045 581.095503L158.086437 392.378789L339.270045 203.662076L294.725501 157.268299zM727.193102 157.3607560000001L682.311823 203.661529L865.23744 392.378242L682.311823 581.096324L727.193102 627.3957290000001L955 392.376875L727.193102 157.3607560000001zM546.208884 746L414.607596 31.733341L463.719282 22.10336L595.319244 736.370019L546.208884 746z" />
    <glyph glyph-name="expand"
      unicode="&#xEA2F;"
      horiz-adv-x="1024" d=" M389.8125 384L161.25 155.4375L52 264.6875L52 -76L392.6875 -76L283.4375 33.25L512 261.8125L389.8125 384zM972 844L631.3125 844L740.5625 734.75L512 506.1875L634.1875 384L862.75 612.5625L972 503.3125L972 844z" />
    <glyph glyph-name="external-square"
      unicode="&#xEA30;"
      horiz-adv-x="1024" d=" M824.243867 764.138365L454.135678 393.564631L520.937725 326.678556L892.251256 698.459147L892.251256 524.113208L982 524.113208L982 854L665.517588 854L665.517588 764.138365L824.243867 764.138365L824.243867 764.138365zM629.162555 721.572327L42 721.572327L42 -86L848.557789 -86L848.557789 503.873708L759.98995 415.194463L759.98995 2.679245L131.748744 2.679245L131.748744 631.710692L539.413812 631.710692L629.162555 721.572327L629.162555 721.572327z" />
    <glyph glyph-name="external"
      unicode="&#xEA31;"
      horiz-adv-x="1024" d=" M972 382.390861L688.923077 667L688.923077 525.461538C122.769231 525.461538 52 242.3846150000001 52 100.846154C122.673467 383.9230770000001 688.923077 242.3846150000001 688.923077 242.3846150000001L688.923077 100.846154L972 382.390861L972 382.390861z" />
    <glyph glyph-name="eye-blocked"
      unicode="&#xEA32;"
      horiz-adv-x="1024" d=" M213.035703 200.790937C206.762812 204.6793750000001 200.931953 208.4240620000001 195.606016 211.949531C156.216719 238.007812 119.968359 267.8323440000001 93.538125 295.935469C61.5501562 329.943125 46 358.635625 46 383.653516C46 408.673203 61.5501562 437.365703 93.5345312 471.373359C119.964766 499.474688 156.213125 529.301016 195.602422 555.359297C254.378203 594.2418749999999 372.860547 659.473828 505.998203 659.473828C517.340078 659.473828 528.565156 658.9671089999999 539.668047 658.075859L478.209531 572.0342969999999C383.796328 564.180156 298.694531 518.6635160000001 254.153594 490.513672C184.48875 446.483047 143.618828 401.877422 133.71625 383.651719C143.618828 365.426016 184.486953 320.820391 254.151797 276.791562C257.025 274.976719 260.081484 273.082812 263.283516 271.136797L213.035703 200.790937L213.035703 200.790937zM918.461875 471.375156C892.029844 499.476484 855.781484 529.302813 816.393984 555.361094C787.06 574.767344 742.833516 600.717813 689.351328 621.8580469999999L792.531484 766.312422L736.968516 806L161.968516 1L217.531484 -38.689375L343.470859 137.6271880000001C392.329687 120.326875 447.756094 107.835 506 107.835C639.139453 107.835 757.618203 173.065156 816.393984 211.947734C855.783281 238.0060160000001 892.031641 267.8323440000001 918.461875 295.931875C950.448047 329.941328 965.998203 358.633828 966 383.658906C965.998203 408.675 950.448047 437.3675 918.461875 471.375156L918.461875 471.375156zM757.846406 276.795156C708.973203 245.905078 611.264531 194.085 506 194.085C467.669062 194.085 430.347969 200.961641 396.018672 211.193047L448.194531 284.237813C465.180391 274.337031 484.922656 268.653516 506 268.653516C569.514141 268.653516 621 320.139375 621 383.653516C621 418.370938 605.597187 449.465859 581.271094 470.545L637.437812 549.17625C688.012656 531.543516 730.548281 507.765469 757.846406 490.513672C827.513047 446.483047 868.379375 401.879219 878.281953 383.653516C868.379375 365.427813 827.51125 320.823984 757.846406 276.795156L757.846406 276.795156z" />
    <glyph glyph-name="eye"
      unicode="&#xEA33;"
      horiz-adv-x="1024" d=" M502 112C369.439414 112 251.474 177.036156 192.953766 215.803094C153.735727 241.783876 117.6449687 271.5214980000001 91.3296484 299.5392509999999C59.4825469 333.447557 44 362.054723 44 386.998208C44 411.943485 59.4825469 440.550651 91.3314375 474.458958C117.6467578 502.47671 153.737516 532.214332 192.955555 558.195114C251.474 596.9620520999999 369.441203 662 502 662C634.558797 662 752.524211 596.9620520999999 811.044445 558.195114C850.260695 532.214332 886.351453 502.47671 912.668562 474.458958C944.515664 440.5524430000001 959.998211 411.9452770000001 960 387.005375C959.998211 362.054723 944.515664 333.447557 912.668562 299.5392509999999C886.353242 271.5214980000001 850.262484 241.785668 811.044445 215.804886C752.524211 177.036156 634.560586 112 502 112L502 112zM131.3366641 387C141.1961875 368.8285020000001 181.886625 324.3555370000001 251.248578 280.457655C299.911078 249.6612380000001 397.19493 197.995277 502 197.995277C606.806859 197.995277 704.090711 249.6612380000001 752.751422 280.4594460000001C822.113375 324.357329 862.803812 368.8285020000001 872.661547 387C862.800234 405.171498 822.111586 449.642671 752.749633 493.542345C704.088922 524.340554 606.80507 576.0065147 502 576.0065147C397.19493 576.0065147 299.911078 524.340554 251.250367 493.542345C181.888414 449.644463 141.1961875 405.171498 131.3366641 387L131.3366641 387zM387.5 387C387.5 450.323453 438.763797 501.65798 502 501.65798C565.236203 501.65798 616.5 450.323453 616.5 387C616.5 323.6765470000001 565.236203 272.3420200000001 502 272.3420200000001C438.763797 272.3420200000001 387.5 323.6765470000001 387.5 387L387.5 387z" />
    <glyph glyph-name="facebook"
      unicode="&#xEA34;"
      horiz-adv-x="1024" d=" M910.098 907.545H114.795C88.0006 908.000136 65.4557 885.4612 65.4557 858.2057V62.9027C65.4557 35.6539 87.5395 13.5634 114.795 13.5634H542.958V359.7584H426.456V494.6793999999999H542.958V594.1786C542.958 709.6486 613.4833 772.5236 716.489 772.5236C765.8283 772.5236 808.2372 768.84911 820.594 767.20782V646.53582L749.1542000000001 646.5023239999999C693.1325 646.5023239999999 682.2866 619.8832239999999 682.2866 580.820524V494.679424H815.8916L798.4939 359.758424H682.2869000000001V13.5634239999999H910.0979C937.3467 13.5634239999999 959.4372 35.653924 959.4372 62.9027239999999V858.2057239999999C959.4372 885.4612239999999 937.3467 907.5450239999998 910.0979 907.5450239999998z" />
    <glyph glyph-name="failed"
      unicode="&#xEA35;"
      horiz-adv-x="1024" d=" M904.64375 145.31875C904.64375 139.675 903.03125 136.4500000000001 899.80625 132.4187500000001L767.58125 0.19375C763.55 -3.03125 759.51875 -4.64375 754.68125 -4.64375C749.0375 -4.64375 745.00625 -3.03125 740.975 0.19375L512 229.1687500000001L283.025 0.19375C278.99375 -3.03125 274.9625 -4.64375 269.31875 -4.64375C263.675 -4.64375 260.45 -3.03125 256.41875 0.19375L124.19375 132.4187500000001C120.96875 136.4500000000001 119.35625 140.4812500000001 119.35625 145.31875C119.35625 150.9625 120.96875 154.99375 124.19375 159.025L353.16875 388L124.19375 616.975C120.96875 621.00625 119.35625 625.0375 119.35625 630.68125C119.35625 636.325 120.96875 639.55 124.19375 643.58125L256.41875 775.80625C260.45 779.03125 264.48125 780.64375 269.31875 780.64375C274.9625 780.64375 278.99375 779.03125 283.025 775.80625L512 546.83125L740.975 775.80625C745.00625 779.03125 749.0375 780.64375 754.68125 780.64375C760.325 780.64375 763.55 779.03125 767.58125 775.80625L899.80625 643.58125C903.03125 639.55 904.64375 635.51875 904.64375 630.68125C904.64375 625.0375 903.03125 621.00625 899.80625 616.975L670.83125 388L899.80625 159.025C902.225 154.99375 904.64375 150.9625 904.64375 145.31875L904.64375 145.31875z" />
    <glyph glyph-name="featured"
      unicode="&#xEA36;"
      horiz-adv-x="1024" d=" M899.375 836L123.125 836C99.40625 836 80 816.59375 80 792.875L80 131.625C80 107.90625 99.40625 88.5 123.125 88.5L379.25875 88.5L261.973125 -28.785625C249.342891 -41.415859 249.342891 -61.894844 261.973125 -74.525078C268.289141 -80.841094 276.567344 -84 284.84375 -84C293.120156 -84 301.3983590000001 -80.841094 307.714375 -74.526875L470.74125 88.5L482.5 88.5L482.5 -55.25C482.5 -71.1289839999999 495.372813 -84 511.25 -84C527.127188 -84 540 -71.1289839999999 540 -55.25L540 88.5L551.760547 88.5L714.787422 -74.526875C721.101641 -80.841094 729.379844 -84 737.65625 -84C745.932656 -84 754.210859 -80.841094 760.526875 -74.526875C773.158906 -61.896641 773.158906 -41.417656 760.526875 -28.787422L643.239453 88.5L899.375 88.5C923.09375 88.5 942.5 107.90625 942.5 131.625L942.5 792.875C942.5 816.59375 923.09375 836 899.375 836L899.375 836zM798.75 203.5L223.75 203.5C207.872813 203.5 195 216.3710160000001 195 232.25C195 248.128984 207.872813 261 223.75 261L798.75 261C814.628984 261 827.5 248.128984 827.5 232.25C827.5 216.3710160000001 814.628984 203.5 798.75 203.5zM298 323L298 532L403 532L403 323L298 323zM455 323L455 741L560 741L560 323L455 323zM612 663L717 663L717 323L612 323L612 663z" />
    <glyph glyph-name="filter"
      unicode="&#xEA37;"
      horiz-adv-x="1024" d=" M623.544075 275.91354L597.180128 -44.268318L426.820907 -44.268318L400.451783 275.91354L72 813L952 813L623.543039 275.91354z" />
    <glyph glyph-name="flyout-options"
      unicode="&#xEA38;"
      horiz-adv-x="1024" d=" M642.543012 233.289079L642.543012 158.234844L374.777976 158.234844L277.392274 83.18061L277.392274 158.234844L167.847053 158.234844L167.847053 495.9789L386.937496 495.9789L386.937496 571.033134L167.847053 571.033134C127.570927 571.033134 94.8169057 537.408837 94.8169057 495.9789L94.8169057 158.234844C94.8169057 116.842434 127.570927 83.18061 167.847053 83.18061L204.362127 83.18061L204.362127 -66.927859L399.097015 83.18061L642.543012 83.18061C682.819138 83.18061 715.573159 116.842434 715.573159 158.234844L715.573159 233.289079L642.543012 233.289079zM714.591186 309.461881C573.643001 309.461881 458.985669 427.297029 458.985669 572.151702C458.985669 716.968847 573.643001 834.8415224 714.591186 834.8415224C855.53937 834.8415224 970.196702 716.968847 970.196702 572.151702C970.196702 427.297029 855.53937 309.461881 714.591186 309.461881zM714.591186 759.787288C613.919127 759.787288 532.015817 675.613964 532.015817 572.151702C532.015817 468.689439 613.919127 384.516115 714.591186 384.516115C815.263244 384.516115 897.166554 468.689439 897.166554 572.151702C897.166554 675.613964 815.263244 759.787288 714.591186 759.787288zM678.076112 572.151702L751.106259 572.151702L751.106259 422.043232L678.076112 422.043232L678.076112 572.151702zM714.591186 609.678819C734.757904 609.678819 751.106259 626.480281 751.106259 647.2059360000001C751.106259 667.931591 734.757904 684.733053 714.591186 684.733053C694.424467 684.733053 678.076112 667.931591 678.076112 647.2059360000001C678.076112 626.480281 694.424467 609.678819 714.591186 609.678819z" />
    <glyph glyph-name="geo"
      unicode="&#xEA39;"
      horiz-adv-x="1024" d=" M726.766133 19.97582C660.979902 -18.422813 589.384766 -37.623047 512 -37.623047C434.600547 -37.623047 363.01 -18.42373 297.233867 19.97582C231.447637 58.369863 179.3575 110.46 140.958867 176.25082C102.560234 242.0269530000001 83.36 313.6175 83.36 391.022461C83.36 468.403555 102.559316 539.998691 140.958867 605.788594C179.3575 671.564727 231.447637 723.664961 297.233867 762.063594C363.01 800.4622266 434.600547 819.6569531 512 819.6569531C589.385684 819.6569531 660.98082 800.4576367 726.766133 762.058086C792.547773 723.659453 844.64709 671.559219 883.041133 605.783086C921.439766 539.996855 940.64 468.401719 940.64 391.016953C940.64 313.6129100000001 921.440684 242.0223630000001 883.041133 176.25082C844.64709 110.4645900000001 792.542266 58.374453 726.766133 19.97582L726.766133 19.97582zM369.12 85.611504C338.7581840000001 151.69791 320.005 234.437188 312.861367 333.865137L183.376367 333.865137C192.306367 277.9020900000001 213.136914 228.491504 245.886367 185.626953C278.617461 142.76332 319.700234 109.4162700000001 369.12 85.610586L369.12 85.611504zM184.268633 448.16877L313.753633 448.16877C319.699316 542.224766 338.155996 623.196953 369.12 691.065137C319.699316 667.846953 278.77168 635.543633 246.3325 594.1744530000001C213.874043 552.7905860000001 193.198633 504.122637 184.268633 448.16877L184.268633 448.16877zM479.851816 86.057637C494.14 64.3201370000001 504.855449 53.46332 512 53.46332C519.144551 53.46332 529.86 64.3201370000001 544.148184 86.057637C558.436367 107.7859570000001 573.015547 141.428594 587.905 186.971777C602.780684 232.514961 612.016367 281.470234 615.588184 333.865137L408.411816 333.865137C411.983633 281.4693160000001 421.205547 232.509453 436.0950000000001 186.971777C450.966094 141.428594 465.563633 107.7859570000001 479.851816 86.057637L479.851816 86.057637zM614.695 448.16877C612.311953 485.675137 607.687227 520.948086 600.853867 553.989453C594.00123 587.03082 586.565684 614.111816 578.528867 635.252637C570.492051 656.37877 561.853047 674.68582 552.632051 690.171953C543.396367 705.648906 535.359551 716.806816 528.520684 723.664043C521.668047 730.50291 516.154727 733.933359 512 733.933359C507.825996 733.933359 502.313594 730.501992 495.479316 723.664043C488.63127 716.811406 480.594453 705.648906 471.367949 690.171953C462.132266 674.68582 453.507949 656.37877 445.471133 635.252637C437.434316 614.116406 429.985 587.03082 423.146133 553.989453C416.293496 520.948086 411.673359 485.675137 409.305 448.16877L614.695 448.16877L614.695 448.16877zM839.731367 448.16877C830.805957 504.122637 810.112188 552.7905860000001 777.6675 594.1744530000001C745.213633 635.543633 704.285996 667.846953 654.88 691.065137C685.829316 623.196953 704.285996 542.225684 710.240859 448.16877L839.730449 448.16877L839.731367 448.16877zM654.88 85.611504C704.285996 109.417187 745.36418 142.76332 778.113633 185.627871C810.849316 228.491504 831.693633 277.903008 840.623633 333.866055L711.138633 333.866055C703.995 234.437187 685.241816 151.6942380000001 654.88 85.612422L654.88 85.611504z" />
    <glyph glyph-name="goal"
      unicode="&#xEA3A;"
      horiz-adv-x="1024" d=" M869 437.678611L680.010307 626.850124L869 816L348.08209 816L225 816L225 -48L354.8955220000001 -48L354.8955220000001 437.678611z" />
    <glyph glyph-name="google"
      unicode="&#xEA3B;"
      horiz-adv-x="1024" d=" M849.732558 449.136364L808.395349 449.136364L672.809302 449.136364L510.767442 449.136364L510.767442 311.784091L705.87907 311.784091C687.690698 224.525 611.630233 174.431818 510.767442 174.431818C391.716279 174.431818 295.8139530000001 268.154545 295.8139530000001 384.5C295.8139530000001 500.845455 391.716279 594.568182 510.767442 594.568182C562.025581 594.568182 608.323256 576.793182 644.7 547.706818L750.523256 651.125C686.037209 706.065909 603.362791 740 510.767442 740C309.04186 740 147 581.640909 147 384.5C147 187.359091 309.04186 29 510.767442 29C692.651163 29 858 158.272727 858 384.5C858 405.506818 854.693023 428.129545 849.732558 449.136364L849.732558 449.136364z" />
    <glyph glyph-name="gte"
      unicode="&#xEA3C;"
      horiz-adv-x="1024" d=" M807.659973 31.004831L216 31.004831L216 92.413335L807.659973 92.413335L807.659973 31.004831zM258.094619 748L787.782303 492.657956L787.782303 434.964666L258.094619 179.622623L258.094619 253.340242L703.593532 462.743242L703.593532 464.879381L258.094619 674.28238L258.094619 748z" />
    <glyph glyph-name="hamburger"
      unicode="&#xEA3D;"
      horiz-adv-x="1024" d=" M100.768499 629.818036L923.249343 629.818036L981.378917 629.818036L981.378917 746L923.249343 746L100.768499 746L42.6389247 746L42.6389247 629.818036L100.768499 629.818036z M100.768499 327.2608400000001L923.249343 327.2608400000001L981.378917 327.2608400000001L981.378917 443.4428030000001L923.249343 443.4428030000001L100.768499 443.4428030000001L42.6389247 443.4428030000001L42.6389247 327.2608400000001L100.768499 327.2608400000001z M100.768499 22.283186L923.249343 22.283186L981.378917 22.283186L981.378917 138.46515L923.249343 138.46515L100.768499 138.46515L42.6389247 138.46515L42.6389247 22.283186L100.768499 22.283186z" />
    <glyph glyph-name="id"
      unicode="&#xEA3E;"
      horiz-adv-x="1024" d=" M512.5 -48C274.741415 -48 82 144.741415 82 382.5C82 620.258585 274.741415 813 512.5 813C750.258585 813 943 620.258585 943 382.5C943 144.741415 750.258585 -48 512.5 -48zM467 274.736094L416.294978 274.736094L416.294978 480.700528L467 480.700528L467 586L257 586L257 480.700528L307.705022 480.700528L307.705022 274.736094L257 274.736094L257 171L467 171L467 274.736094zM511 586L511 171L660.790333 171C692.808246 171 720.736763 178.247491 744.012181 193.0535200000001C765.725716 205.7738440000001 783.646172 222.860814 796.592242 243.66172C801.12707 251.018248 804.992371 258.077323 808.244317 264.952501C812.153314 273.940198 814.728688 282.939222 816.399949 292.741778C819.528486 309.8174840000001 821 338.162486 821 378.5C821 416.018844 820.059854 442.55575 818.071758 458.795306C815.04192 478.334609 808.113197 496.092602 797.327054 512.7532249999999C768.344697 560.4777819999999 722.915659 585.60664 664.693891 585.9993850000001L537.991037 586L511 586zM616 279L616 481.975983L654.341568 481.975983C673.985841 482.435645 686.952587 476.307259 696.806254 462.717956C702.185037 456.440741 704.802922 450.3382 706.059856 441.75738C707.285322 430.443336 708 408.864882 708 378.513517C708 347.520942 707.286697 326.459085 705.989962 316.239099C705.01092 309.210616 702.905581 303.885187 699.924485 300.1020200000001C690.093761 285.418904 676.434175 279 654.341568 279L616 279z" />
    <glyph glyph-name="image"
      unicode="&#xEA3F;"
      horiz-adv-x="1024" d=" M955.214149 735.560756L955.214149 32.439244L69.4990401 32.439244L69.4990401 735.560756L955.214149 735.560756zM137.630972 673.390367L137.630972 92.139827L887.082217 92.139827L887.082217 673.390367L137.630972 673.390367zM583.06676 314.001082L634.531652 396.604395L772.924638 175.175618L219.352695 175.175618L440.781472 562.675978L583.06676 314.001082zM689.888846 451.96159C670.859716 451.96159 654.569871 458.664933 641.018823 472.07182C627.467776 485.478708 620.692353 501.840632 620.692353 521.1580819999999C620.692353 540.1872129999999 627.467776 556.4770579999999 641.018823 570.028105C654.569871 583.579153 670.859716 590.3545750000001 689.888846 590.3545750000001C708.917977 590.3545750000001 725.207822 583.579153 738.758869 570.028105C752.309917 556.4770579999999 759.085339 540.1872129999999 759.085339 521.1580819999999C759.085339 501.840632 752.309917 485.478708 738.758869 472.07182C725.207822 458.664933 708.917977 451.96159 689.888846 451.96159L689.888846 451.96159z" />
    <glyph glyph-name="info-inverse"
      unicode="&#xEA40;"
      horiz-adv-x="1024" d=" M512 794C285.539062 794 102 610.4609379999999 102 384C102 157.5390630000001 285.539062 -26 512 -26C738.460937 -26 922 157.5390630000001 922 384C922 610.4609379999999 738.460937 794 512 794L512 794zM512 50.875C327.9804690000001 50.875 178.875 199.980469 178.875 384C178.875 568.0195309999999 327.9804690000001 717.125 512 717.125C696.019531 717.125 845.125 568.0195309999999 845.125 384C845.125 199.980469 696.019531 50.875 512 50.875L512 50.875z M571.257812 551.5234379999999C571.257812 519.902187 545.623203 494.267578 514.001953 494.267578C482.380703 494.267578 456.746094 519.902187 456.746094 551.5234379999999C456.746094 583.144687 482.380703 608.779297 514.001953 608.779297C545.623203 608.779297 571.257812 583.144687 571.257812 551.5234379999999L571.257812 551.5234379999999z M514.001953 463.757812C488.777344 463.757812 468.357422 443.337891 468.357422 418.113281L468.357422 177.558594C468.357422 152.333984 488.777344 131.914062 514.001953 131.914062C539.226562 131.914062 559.646484 152.333984 559.646484 177.558594L559.646484 418.113281C559.646484 443.257812 539.226562 463.757812 514.001953 463.757812L514.001953 463.757812z" />
    <glyph glyph-name="info"
      unicode="&#xEA41;"
      horiz-adv-x="1024" d=" M512 794C285.539062 794 102 610.4609379999999 102 384C102 157.539062 285.539062 -26 512 -26C738.460938 -26 922 157.539062 922 384C922 610.4609379999999 738.460938 794 512 794L512 794zM559.646484 177.558594C559.646484 152.333984 539.226562 131.9140630000001 514.001953 131.9140630000001C488.777344 131.9140630000001 468.357422 152.333984 468.357422 177.558594L468.357422 418.113281C468.357422 443.337891 488.777344 463.757813 514.001953 463.757813C539.226562 463.757813 559.646484 443.337891 559.646484 418.113281L559.646484 177.558594L559.646484 177.558594zM514.001953 494.267578C482.371094 494.267578 456.746094 519.892578 456.746094 551.5234379999999C456.746094 583.154297 482.371094 608.779297 514.001953 608.779297C545.632812 608.779297 571.257812 583.154297 571.257812 551.5234379999999C571.257812 519.892578 545.632812 494.267578 514.001953 494.267578L514.001953 494.267578z" />
    <glyph glyph-name="italic2"
      unicode="&#xEA42;"
      horiz-adv-x="1024" d=" M895.142857 831L895.142857 767.071429L767.285714 767.071429L447.642857 -0.071429L575.5 -0.071429L575.5 -64L128 -64L128 -0.071429L255.857143 -0.071429L575.5 767.071429L447.642857 767.071429L447.642857 831z" />
    <glyph glyph-name="kebab"
      unicode="&#xEA43;"
      horiz-adv-x="1024" d=" M512 844C575.729167 844 627 792.729167 627 729C627 665.270833 575.729167 614 512 614C448.270833 614 397 665.270833 397 729C397 792.729167 448.270833 844 512 844L512 844zM627 384C627 320.2708330000001 575.729167 269 512 269C448.270833 269 397 320.2708330000001 397 384C397 447.729167 448.270833 499 512 499C575.729167 499 627 447.729167 627 384zM512 154C575.729167 154 627 102.729167 627 39C627 -24.729167 575.729167 -76 512 -76C448.270833 -76 397 -24.729167 397 39C397 102.729167 448.270833 154 512 154L512 154z" />
    <glyph glyph-name="layout-inline"
      unicode="&#xEA44;"
      horiz-adv-x="1024" d=" M212 576.768593C212 577.325347 212.455393 577.776685 212.998753 577.776685L802.001247 577.776685C802.552843 577.776685 803 577.3292839999999 803 576.768593L803 192.3381470000001C803 191.781394 802.544607 191.330056 802.001247 191.330056L212.998753 191.330056C212.447157 191.330056 212 191.777457 212 192.3381470000001L212 576.768593zM212 94.718398L803 94.718398L803 -1.8932589999999L212 -1.8932589999999L212 94.718398zM212 771L803 771L803 674.388343L212 674.388343L212 771z" />
    <glyph glyph-name="layout-pop-out"
      unicode="&#xEA45;"
      horiz-adv-x="1024" d=" M112 563.989742C112 571.7270550000001 118.265089 577.999386 125.991187 577.999386L898.008813 577.999386C905.735932 577.999386 912 571.727883 912 563.989742L912 204.007804C912 196.270491 905.734911 189.998159 898.008813 189.998159L125.991187 189.998159C118.264068 189.998159 112 196.2696620000001 112 204.007804L112 563.989742zM297.855988 92.997852L729.592907 92.997852L729.592907 -4.0024550000001L297.855988 -4.0024550000001L297.855988 92.997852zM297.66578 772L729.402699 772L729.402699 674.999693L297.66578 674.999693L297.66578 772z" />
    <glyph glyph-name="line-chart"
      unicode="&#xEA46;"
      horiz-adv-x="1024" d=" M65 -8.0625L960 -8.0625L960 -64L65 -64z M386.046988 359.515625L585.384337 173.292051L960 601.882811L859.256763 698.088118L577.169403 379.33409L388.198396 551.1746519999999L65 178.4818800000001L160.48938 84.491943z" />
    <glyph glyph-name="link"
      unicode="&#xEA47;"
      horiz-adv-x="1024" d=" M451.704132 279.915759C440.521154 279.915759 429.341537 284.180582 420.810211 292.711908C340.879227 372.6445730000001 340.879227 502.704871 420.810211 582.637536L582.127394 743.95472C620.85024 782.675885 672.330586 804 727.089368 804C781.84815 804 833.330177 782.675885 872.053022 743.9564C951.982326 664.023735 951.982326 533.963437 872.053022 454.030772L798.312585 380.2903350000001C781.249932 363.227682 753.589076 363.227682 736.524743 380.2903350000001C719.46377 397.351307 719.46377 425.0155240000001 736.524743 442.078177L810.26518 515.818614C856.126311 561.681426 856.126311 636.305746 810.26518 682.168558C788.048779 704.384959 758.50925 716.619859 727.089368 716.619859C695.669486 716.619859 666.131637 704.384959 643.913556 682.166877L482.596372 520.8513740000001C436.733561 474.988563 436.733561 400.3625620000001 482.596372 354.49975C499.659025 337.438778 499.657345 309.774561 482.596372 292.711908C474.068407 284.1822620000001 462.883749 279.915759 451.704132 279.915759L451.704132 279.915759zM296.910212 -36.193665C242.14975 -36.193665 190.667723 -14.869549 151.948238 23.849935C72.017254 103.7826 72.017254 233.842899 151.948238 313.7755630000001L225.686995 387.51432C242.749648 404.575293 270.413864 404.575293 287.474837 387.51432C304.53749 370.453347 304.53749 342.789131 287.474837 325.7264780000001L213.73608 251.987721C167.873269 206.12491 167.873269 131.498908 213.73608 85.636097C235.950801 63.421377 265.49033 51.186476 296.910212 51.186476C328.330094 51.186476 357.8679430000001 63.421377 380.087704 85.639458L541.404888 246.9549610000001C587.266019 292.817772 587.266019 367.443774 541.404888 413.306585C524.342235 430.369238 524.343915 458.031774 541.404888 475.094427C558.46586 492.1554 586.130077 492.1554 603.19273 475.092747C683.122034 395.161763 683.122034 265.101464 603.19441 185.168799L441.875546 23.851616C403.15102 -14.87123 351.668994 -36.193665 296.910212 -36.193665L296.910212 -36.193665z" />
    <glyph glyph-name="linked"
      unicode="&#xEA48;"
      horiz-adv-x="1024" d=" M512.539063 832.3203125C267.7148440000001 832.3203125 69.25 633.8554690000001 69.25 389.03125C69.25 144.207031 267.7148440000001 -54.2578119999999 512.539063 -54.2578119999999C757.363281 -54.2578119999999 955.828125 144.207031 955.828125 389.03125C955.828125 633.8554690000001 757.363281 832.3203125 512.539063 832.3203125L512.539063 832.3203125zM402.1210940000001 136.75C256.9335940000001 136.75 138.878906 254.8945310000001 138.878906 399.992187C138.878906 545.0898440000001 257.023438 663.234375 402.1210940000001 663.234375C429.703125 663.234375 456.386719 658.921875 481.363281 651.015625C451.175781 634.7539059999999 424.222656 613.28125 401.7617190000001 587.6757809999999C298.441406 587.4960940000001 214.4375 503.3125 214.4375 399.992187C214.4375 296.5820310000001 298.441406 212.488281 401.7617190000001 212.308594C424.222656 186.703125 451.175781 165.230469 481.363281 148.96875C456.296875 140.972656 429.703125 136.75 402.1210940000001 136.75L402.1210940000001 136.75zM615.769531 136.75C577.765625 136.75 541.558594 145.9140630000001 508.945313 159.390625L508.945313 159.390625C505.261719 160.2890630000001 501.667969 162.8046880000001 498.074219 164.6015630000001C497.984375 164.6015630000001 497.894531 164.691406 497.804688 164.691406C494.300781 166.488281 490.796875 168.285156 487.382813 170.261719C487.203125 170.3515630000001 487.113281 170.441406 486.933594 170.53125C483.519531 172.417969 480.195313 174.394531 476.960938 176.4609380000001C476.78125 176.550781 476.601563 176.730469 476.421875 176.8203130000001C473.1875 178.886719 469.953125 180.953125 466.808594 183.109375C466.628906 183.2890630000001 466.359375 183.378906 466.179688 183.558594C463.035156 185.714844 459.980469 187.9609380000001 456.925781 190.207031C456.746094 190.386719 456.476563 190.566406 456.296875 190.65625C453.242188 192.9921880000001 450.2773440000001 195.328125 447.4023440000001 197.753906C447.222656 197.933594 447.0429690000001 198.0234380000001 446.863281 198.203125C443.898438 200.628906 441.023438 203.144531 438.238281 205.75C438.148438 205.839844 437.96875 205.9296880000001 437.878906 206.109375C435.003906 208.8046880000001 432.128906 211.5 429.34375 214.285156L429.34375 214.285156C381.90625 261.902344 352.5273440000001 327.578125 352.5273440000001 399.992188C352.5273440000001 472.40625 381.90625 538.0820309999999 429.34375 585.6992190000001L429.34375 585.6992190000001C432.128906 588.484375 434.914063 591.1796879999999 437.878906 593.875C437.96875 593.9648440000001 438.148438 594.0546879999999 438.238281 594.234375C441.113281 596.8398440000001 443.988281 599.3554690000001 446.863281 601.78125C447.0429690000001 601.9609379999999 447.222656 602.0507809999999 447.4023440000001 602.2304690000001C450.2773440000001 604.65625 453.332031 606.9921879999999 456.296875 609.328125C456.476563 609.5078129999999 456.746094 609.6875 456.925781 609.7773440000001C459.980469 612.1132809999999 463.035156 614.2695309999999 466.179688 616.4257809999999C466.359375 616.6054690000001 466.628906 616.6953129999999 466.808594 616.875C469.953125 619.03125 473.097656 621.0976559999999 476.421875 623.1640629999999C476.601563 623.2539059999999 476.78125 623.4335940000001 476.960938 623.5234379999999C480.195313 625.5898440000001 483.519531 627.5664059999999 486.933594 629.453125C487.113281 629.5429690000001 487.203125 629.6328129999999 487.382813 629.7226559999999C490.796875 631.609375 494.300781 633.4960940000001 497.804688 635.2929690000001C497.894531 635.2929690000001 497.984375 635.1132809999999 498.074219 635.1132809999999C501.667969 636.9101559999999 505.261719 639.15625 508.945313 640.0546879999999L508.945313 640.0546879999999C541.648438 655.328125 577.765625 662.964844 615.769531 662.964844C760.957031 662.964844 879.011719 545 879.011719 399.8125C879.011719 254.625 760.957031 136.75 615.769531 136.75L615.769531 136.75zM608.3125 583.7226559999999C599.238281 583.7226559999999 590.34375 583.0039059999999 581.628906 581.7460940000001C580.371094 581.5664059999999 579.203125 581.3867190000001 577.945313 581.1171870000001C576.597656 580.8476559999999 575.25 580.6679690000001 573.902344 580.3984370000001C572.105469 580.0390620000001 570.398438 579.6796870000001 568.601563 579.3203120000001C567.253906 579.0507809999999 565.90625 578.6914059999999 564.558594 578.421875C563.300781 578.1523440000001 562.042969 577.7929690000001 560.785156 577.4335940000001C558.898438 576.8945309999999 557.011719 576.4453120000001 555.214844 575.8164059999999C553.957031 575.4570309999999 552.609375 575.0078120000001 551.351563 574.5585940000001C550.273438 574.1992190000001 549.195313 573.8398440000001 548.117188 573.4804690000001C546.140625 572.7617190000001 544.074219 572.0429690000001 542.097656 571.234375C541.199219 570.875 540.210938 570.515625 539.3125 570.15625C537.15625 569.2578120000001 535 568.359375 532.84375 567.3710940000001C532.035156 567.0117190000001 531.316406 566.6523440000001 530.507813 566.2929690000001C529.160156 565.6640620000001 527.722656 564.9453120000001 526.375 564.3164059999999C525.746094 564.046875 525.117188 563.6875 524.488281 563.328125C522.152344 562.1601559999999 519.90625 560.9023440000001 517.570313 559.6445309999999C517.03125 559.2851559999999 516.402344 559.015625 515.863281 558.65625C513.4375 557.21875 511.011719 555.78125 508.675781 554.2539059999999C508.316406 553.984375 507.957031 553.8046870000001 507.597656 553.5351559999999C506.25 552.6367190000001 504.8125 551.7382809999999 503.464844 550.75C455.578125 517.5078120000001 424.222656 462.164062 424.222656 399.632812C424.222656 337.101562 455.667969 281.757812 503.464844 248.515625C504.8125 247.527344 506.160156 246.6289060000001 507.597656 245.730469C507.957031 245.460937 508.316406 245.28125 508.675781 245.101562C511.011719 243.574219 513.4375 242.046875 515.863281 240.699219C516.402344 240.339844 517.03125 240.070312 517.570313 239.710937C519.816406 238.453125 522.152344 237.195312 524.488281 235.9375C525.117188 235.667969 525.746094 235.308594 526.285156 235.039062C527.632813 234.320312 529.070313 233.6914060000001 530.417969 233.0625C531.226563 232.703125 531.945313 232.34375 532.753906 231.984375C534.910156 230.996094 537.066406 230.0976560000001 539.222656 229.199219C540.121094 228.839844 541.109375 228.480469 542.007813 228.121094C543.984375 227.3125 546.050781 226.59375 548.027344 225.875C549.105469 225.515625 550.183594 225.15625 551.261719 224.796875C552.519531 224.347656 553.867188 223.988281 555.125 223.539062C557.011719 223 558.808594 222.460937 560.695313 221.921875C561.953125 221.5625 563.210938 221.292969 564.46875 220.933594C565.816406 220.574219 567.164063 220.304687 568.511719 220.035156C570.308594 219.675781 572.015625 219.316406 573.8125 218.957031C575.160156 218.6875 576.507813 218.507812 577.855469 218.238281C579.113281 218.058594 580.28125 217.789062 581.539063 217.609375C590.253906 216.351562 599.148438 215.632812 608.222656 215.632812C709.65625 215.632812 792.132813 298.109375 792.132813 399.5429690000001C792.222656 501.15625 709.746094 583.7226559999999 608.3125 583.7226559999999L608.3125 583.7226559999999zM599.148438 237.2851560000001C570.578125 238.902344 543.984375 247.886719 521.164063 262.4414060000001C558.988281 296.1328130000001 582.976563 345.1875 582.976563 399.8125C582.976563 454.347656 559.078125 503.402344 521.164063 537.1835940000001C543.984375 551.7382809999999 570.578125 560.7226559999999 599.148438 562.3398440000001C635.265625 517.9570309999999 656.917969 461.355469 656.917969 399.8125C656.917969 338.2695310000001 635.175781 281.667969 599.148438 237.2851560000001L599.148438 237.2851560000001z" />
    <glyph glyph-name="list-numbered"
      unicode="&#xEA49;"
      horiz-adv-x="1024" d=" M400.625 103.8125L960 103.8125L960 -8.0625L400.625 -8.0625L400.625 103.8125zM400.625 439.4375L960 439.4375L960 327.5625L400.625 327.5625L400.625 439.4375zM400.625 775.0625L960 775.0625L960 663.1875L400.625 663.1875L400.625 775.0625zM232.8125 831L232.8125 607.25L176.875 607.25L176.875 775.0625L120.9375 775.0625L120.9375 831L232.8125 831zM176.875 371.2636720000001L176.875 327.5625L288.75 327.5625L288.75 271.625L120.9375 271.625L120.9375 399.232422L232.8125 451.673828L232.8125 495.375L120.9375 495.375L120.9375 551.3125L288.75 551.3125L288.75 423.705078L176.875 371.2636720000001zM288.75 215.6875L288.75 -64L120.9375 -64L120.9375 -8.0625L232.8125 -8.0625L232.8125 47.875L120.9375 47.875L120.9375 103.8125L232.8125 103.8125L232.8125 159.75L120.9375 159.75L120.9375 215.6875L288.75 215.6875z" />
    <glyph glyph-name="list2"
      unicode="&#xEA4A;"
      horiz-adv-x="1024" d=" M400.625 775.0625L960 775.0625L960 663.1875L400.625 663.1875L400.625 775.0625L400.625 775.0625zM400.625 439.4375L960 439.4375L960 327.5625L400.625 327.5625L400.625 439.4375L400.625 439.4375zM400.625 103.8125L960 103.8125L960 -8.0625L400.625 -8.0625L400.625 103.8125L400.625 103.8125zM65 719.125C65 780.911465 115.088535 831 176.875 831C238.661465 831 288.75 780.911465 288.75 719.125C288.75 657.338535 238.661465 607.25 176.875 607.25C115.088535 607.25 65 657.338535 65 719.125L65 719.125zM65 383.5C65 445.286465 115.088535 495.375 176.875 495.375C238.661465 495.375 288.75 445.286465 288.75 383.5C288.75 321.713535 238.661465 271.625 176.875 271.625C115.088535 271.625 65 321.713535 65 383.5L65 383.5zM65 47.875C65 109.661465 115.088535 159.75 176.875 159.75C238.661465 159.75 288.75 109.661465 288.75 47.875C288.75 -13.911465 238.661465 -64 176.875 -64C115.088535 -64 65 -13.911465 65 47.875L65 47.875z" />
    <glyph glyph-name="logo"
      unicode="&#xEA4B;"
      horiz-adv-x="1024" d=" M974.19734 594.4336599999999L964.2556 587.80582L904.60511 564.60841C931.1164400000002 508.27185 944.3721100000002 448.62136 944.3721100000002 382.34304C944.3721100000002 143.7411 748.8510700000002 -51.77993 510.2491300000002 -51.77993C271.6471800000002 -51.77993 76.1261490000002 143.7411 76.1261490000002 382.34304C76.1261490000002 620.94498 271.6471800000002 816.466019 510.2491300000002 816.466019C559.9578700000002 816.466019 609.6666000000001 806.524271 652.7475100000001 793.26861L672.631 852.919094L675.94492 866.174758C626.23618 879.430421 569.89962 892.6860842 510.24913 892.6860842C231.8802 892.6860842 3.22 664.02589 3.22 382.34304C3.22 100.6602 231.8802 -128 513.56304 -128C795.24589 -128 1023.906 100.6602 1023.906 382.34304C1020.5922 458.5631 1004.0226 531.4692600000001 974.19734 594.4336599999999z M629.5501 717.04855C593.09703 730.30421 553.3300300000001 736.93204 513.56304 736.93204C314.72809 736.93204 152.34622 577.8640800000001 152.34622 382.34304C152.34622 186.82201 314.72809 27.75404 513.56304 27.75404C712.3979899999999 27.75404 874.7798700000001 186.8220100000001 874.7798700000001 382.34304C874.7798700000001 435.36569 861.52421 485.07444 841.6407100000001 531.46926L831.6989600000002 524.84142L772.0484800000002 498.3301C788.6180500000002 461.87703 798.5598000000001 425.42395 798.5598000000001 382.34304C798.5598000000001 229.90292 672.6310000000001 103.97411 516.87696 103.97411C361.12292 103.97411 235.1941100000001 229.90292 235.1941100000001 382.34304C235.1941100000001 534.7831699999999 361.1229200000001 660.71198 516.87696 660.71198C550.01612 660.71198 579.84136 654.0841399999999 609.6666 644.14239L629.5501 703.79288L629.5501 717.04855z M510.24913 249.7864C434.02906 249.7864 374.37858 309.4368999999999 374.37858 385.65696C374.37858 461.87703 434.02906 521.52751 510.2491299999999 521.52751C526.8187099999999 521.52751 543.3882799999999 518.2135900000001 556.6439499999999 511.58576L579.8413599999999 581.17799C556.6439499999999 587.80582 533.4465399999999 594.43366 506.9352099999999 594.43366C390.9481499999999 594.43366 294.8445999999999 501.64401 294.8445999999999 382.34304C294.8445999999999 266.35599 390.9481499999999 170.25243 506.9352099999999 170.25243C622.9222599999998 170.25243 719.0258199999998 263.04208 719.0258199999998 382.34304L719.0258199999998 382.34304C719.0258199999998 412.16828 712.3979899999998 438.67962 702.4562499999998 461.87703L636.1779299999998 428.73787C642.8057599999999 412.16828 646.1196699999998 398.91262 646.1196699999998 379.02913C646.1196699999998 312.75081 586.4691899999998 253.10033 510.2491299999998 249.7864z M616.29444 495.01618L997.39475 677.28155C941.05819 773.3851099999999 854.89637 849.605178 755.4789 896L616.29444 495.01618z" />
    <glyph glyph-name="lte"
      unicode="&#xEA4C;"
      horiz-adv-x="1024" d=" M216.16802 30.770219L807.827993 30.770219L807.827993 92.178723L216.16802 92.178723L216.16802 30.770219zM765.733374 747.765388L236.045691 492.423344L236.045691 434.730054L765.733374 179.38801L765.733374 253.10563L320.234461 462.50863L320.234461 464.644768L765.733374 674.047768L765.733374 747.765388z" />
    <glyph glyph-name="map"
      unicode="&#xEA4D;"
      horiz-adv-x="1024" d=" M721.875 338C766.4375 411.3125 800.9375 488.9375 800.9375 555.0625C800.9375 713.1875 673 842.5625 513.4375 842.5625C355.3125 842.5625 225.9375 714.625 225.9375 555.0625C225.9375 488.9375 260.4375 412.75 303.5625 340.875L52 192.8125L513.4375 -73.125L972 192.8125L721.875 338L721.875 338zM507.6875 645.625C558 645.625 598.25 605.375 598.25 555.0625C598.25 504.75 558 464.5 507.6875 464.5C457.375 464.5 417.125 504.75 417.125 555.0625C417.125 605.375 457.375 645.625 507.6875 645.625L507.6875 645.625zM165.5625 192.8125L309.3125 276.1875L374 238.8125C391.25 215.8125 408.5 194.25 424.3125 175.5625L310.75 109.4375L165.5625 192.8125L165.5625 192.8125zM513.4375 -7L368.25 76.375L463.125 131C493.3125 97.9375 513.4375 76.375 513.4375 76.375C513.4375 76.375 533.5625 96.5 563.75 129.5625L657.1875 76.375L513.4375 -7L513.4375 -7zM601.125 174.125C618.375 195.6875 638.5 218.6875 657.1875 244.5625L711.8125 276.1875L857 192.8125L713.25 109.4375L601.125 174.125L601.125 174.125z" />
    <glyph glyph-name="move-vertical"
      unicode="&#xEA4E;"
      horiz-adv-x="1024" d=" M572.768907 381.701373C572.768907 348.546159 546.095163 321.8724150000001 512.939949 321.8724150000001C479.784734 321.8724150000001 453.11099 348.546159 453.11099 381.701373C453.11099 414.856587 479.784734 441.530331 512.939949 441.530331C546.095163 441.530331 572.768907 414.856587 572.768907 381.701373zM510.94594 686.590447C511.441819 687.136518 512.68206 687.136518 513.177939 686.590447L641.889878 522.122271C642.261878 521.5762010000001 641.641757 521.029902 640.773879 521.029902L383.226121 521.029902C382.358243 521.029902 381.738122 521.654145 382.110122 522.122271L510.94594 686.590447zM510.94594 80.4145620000001C511.441819 79.868492 512.68206 79.868492 513.177939 80.4145620000001L641.889878 244.882739C642.261878 245.428809 641.641757 245.975108 640.773879 245.975108L383.226121 245.975108C382.358243 245.975108 381.738122 245.350864 382.110122 244.882739L510.94594 80.4145620000001z" />
    <glyph glyph-name="move"
      unicode="&#xEA4F;"
      horiz-adv-x="1024" d=" M972 384L742 556.5L742 441.5L569.5 441.5L569.5 614L684.5 614L512 844L339.5 614L454.5 614L454.5 441.5L282 441.5L282 556.5L52 384L282 211.5L282 326.5L454.5 326.5L454.5 154L339.5 154L512 -76L684.5 154L569.5 154L569.5 326.5L742 326.5L742 211.5z" />
    <glyph glyph-name="number"
      unicode="&#xEA50;"
      horiz-adv-x="1024" d=" M951.875 478.875L972 589.5625L753.5 589.5625L792.3125 809.5L681.625 809.5L641.375 588.125L454.5 588.125L493.3125 808.0625L382.625 808.0625L343.8125 588.125L123.875 588.125L103.75 477.4375L322.25 477.4375L289.1875 289.125L72.125 289.125L52 179.875L270.5 179.875L231.6875 -40.0625L342.375 -40.0625L382.625 179.875L569.5 179.875L530.6875 -40.0625L641.375 -40.0625L680.1875 179.875L900.125 179.875L920.25 290.5625L700.3125 290.5625L733.375 478.875L951.875 478.875L951.875 478.875zM622.6875 478.875L589.625 290.5625L401.3125 290.5625L434.375 478.875L622.6875 478.875L622.6875 478.875z" />
    <glyph glyph-name="official"
      unicode="&#xEA51;"
      horiz-adv-x="1024" d=" M512 785.953125C290.023438 785.953125 110.046875 605.9765620000001 110.046875 384C110.046875 162.023437 290.023438 -17.953125 512 -17.953125C733.976563 -17.953125 913.953125 162.023437 913.953125 384C913.953125 605.9765620000001 733.976563 785.953125 512 785.953125L512 785.953125zM416.4335940000001 124.9453130000001L197.574219 382.1953130000001L288.957031 460.535156L416.4335940000001 310.0078130000001L717.570312 660.855469L808.953125 582.515625L416.4335940000001 124.9453130000001L416.4335940000001 124.9453130000001z" />
    <glyph glyph-name="official2"
      unicode="&#xEA52;"
      horiz-adv-x="1024" d=" M514.252 784.8H560.8412V814.6171999999999H514.252V822.83881H500.2751V745.5944099999999C490.71573 742.7165699999999 483.2823999999999 733.14081 481.4234999999999 721.1235099999999C425.7774 706.28681 383.9522 650.4816099999999 381.7441999999999 583.1235099999999H329.0003999999999V527.9576099999999V478.4922099999999H284.0003999999999V408.78641V292.95741H248.4557999999999V219.89051H773.9748V292.95741H738.9590999999999V405.42541H739.0004539999999V478.49231H688.0004539999999V525.9739099999999V583.12361L640.2282539999999 583.123649C637.8926639999999 654.373749 591.2298539999999 712.696649 530.7702539999999 723.2796490000001C528.5742839999999 733.474249 522.3088639999999 741.621549 514.2516539999999 744.9100490000001V784.800549zM680.747 405.425V292.957H640.4191V405.425H680.747zM482.573 405.425V292.957H439.9009V405.425H482.573zM540.786 405.425V292.957H582.2076999999999V405.425H540.786zM381.689 405.425V292.957H338.9996000000001V405.425H381.689zM531.767 524.9739999999999V478.4924H489.0329V524.9739999999999H531.767zM589.917 524.9739999999999V478.4924H629.0003V524.9739999999999H589.917zM430.883 524.9739999999999V478.4924H385.15V524.9739999999999H430.883zM816.036 771.544C984.644 602.937 984.644 329.5709999999999 816.036 160.964C647.429 -7.644 374.063 -7.644 205.4559999999999 160.964C36.8479999999999 329.5709999999999 36.8479999999999 602.9369999999999 205.4559999999999 771.544C374.0629999999999 940.152 647.4289999999999 940.152 816.036 771.544z" />
    <glyph glyph-name="paragraph-center3"
      unicode="&#xEA53;"
      horiz-adv-x="1024" d=" M65 775.0625L960 775.0625L960 663.1875L65 663.1875L65 775.0625zM232.8125 551.3125L792.1875 551.3125L792.1875 439.4375L232.8125 439.4375L232.8125 551.3125zM232.8125 103.8125L792.1875 103.8125L792.1875 -8.0625L232.8125 -8.0625L232.8125 103.8125zM65 327.5625L960 327.5625L960 215.6875L65 215.6875L65 327.5625z" />
    <glyph glyph-name="paragraph-left"
      unicode="&#xEA54;"
      horiz-adv-x="1024" d=" M65 775.0625L960 775.0625L960 663.1875L65 663.1875L65 775.0625zM65 551.3125L624.375 551.3125L624.375 439.4375L65 439.4375L65 551.3125zM65 103.8125L624.375 103.8125L624.375 -8.0625L65 -8.0625L65 103.8125zM65 327.5625L960 327.5625L960 215.6875L65 215.6875L65 327.5625z" />
    <glyph glyph-name="paragraph-left3"
      unicode="&#xEA55;"
      horiz-adv-x="1024" d=" M0 832H1024V704H0zM0 576H640V448H0zM0 64H640V-64H0zM0 320H1024V192H0z" />
    <glyph glyph-name="paragraph-right3"
      unicode="&#xEA56;"
      horiz-adv-x="1024" d=" M65 775.0625L960 775.0625L960 663.1875L65 663.1875L65 775.0625zM400.625 551.3125L960 551.3125L960 439.4375L400.625 439.4375L400.625 551.3125zM400.625 103.8125L960 103.8125L960 -8.0625L400.625 -8.0625L400.625 103.8125zM65 327.5625L960 327.5625L960 215.6875L65 215.6875L65 327.5625z" />
    <glyph glyph-name="pause"
      unicode="&#xEA57;"
      horiz-adv-x="1024" d=" M226.731958 764.471958L419.753916 764.471958L419.753916 3.423916L226.731958 3.423916L226.731958 764.471958L226.731958 764.471958zM596.44 764.471958L789.461958 764.471958L789.461958 3.423916L596.44 3.423916L596.44 764.471958L596.44 764.471958z" />
    <glyph glyph-name="pie-chart"
      unicode="&#xEA58;"
      horiz-adv-x="1024" d=" M472.540989 746.188791C263.221451 744.497453 94.0390856 568.309514 94.0390856 351.204671C94.0390856 133.049779 264.860485 -43.799748 475.579308 -43.799748C686.29813 -43.799748 857.11953 133.049779 857.11953 351.204671L472.540989 351.204671L472.540989 746.188791zM548.4403 811.4835646L548.4403 419.625605L929.960914 419.625605C928.327228 636.330912 758.144865 811.4835646 548.4403 811.4835646zM591.220962 764.442598C621.666533 760.487839 651.288576 752.2821289999999 679.701174 739.905744C719.870433 722.408287 756.000484 697.3362569999999 787.087765 665.386305C818.16435 633.447426 842.64291 596.2379940000001 859.842519 554.792375C871.943207 525.632715 880.06975 495.20709 884.139261 463.915957L591.220962 463.915957L591.220962 764.442598z" />
    <glyph glyph-name="play"
      unicode="&#xEA59;"
      horiz-adv-x="1024" d=" M846.931958 400.206958C849.02 399.013916 849.02 396.03 846.931958 394.836958L218.045 85.166958C215.956958 84.271958 213.868042 85.763916 213.868042 87.851958L213.868042 707.49C213.868042 709.578042 216.255 711.0699999999999 218.045 710.175L846.931958 400.206958L846.931958 400.206958z" />
    <glyph glyph-name="plus2"
      unicode="&#xEA5A;"
      horiz-adv-x="1024" d=" M932.03125 495.375L624.375 495.375L624.375 803.03125C624.375 818.4769922 611.851992 831 596.40625 831L428.59375 831C413.148008 831 400.625 818.4769922 400.625 803.03125L400.625 495.375L92.96875 495.375C77.5230078 495.375 65 482.851992 65 467.40625L65 299.59375C65 284.148008 77.5230078 271.625 92.96875 271.625L400.625 271.625L400.625 -36.03125C400.625 -51.476992 413.148008 -64 428.59375 -64L596.40625 -64C611.851992 -64 624.375 -51.476992 624.375 -36.03125L624.375 271.625L932.03125 271.625C947.476992 271.625 960 284.148008 960 299.59375L960 467.40625C960 482.851992 947.476992 495.375 932.03125 495.375L932.03125 495.375z" />
    <glyph glyph-name="plus3"
      unicode="&#xEA5B;"
      horiz-adv-x="1024" d=" M904.0625 439.4375L568.4375 439.4375L568.4375 775.0625L456.5625 775.0625L456.5625 439.4375L120.9375 439.4375L120.9375 327.5625L456.5625 327.5625L456.5625 -8.0625L568.4375 -8.0625L568.4375 327.5625L904.0625 327.5625z" />
    <glyph glyph-name="presentation"
      unicode="&#xEA5C;"
      horiz-adv-x="1024" d=" M899.375 836L123.125 836C99.40625 836 80 816.59375 80 792.875L80 131.625C80 107.90625 99.40625 88.5 123.125 88.5L379.25875 88.5L261.973125 -28.785625C249.342891 -41.415859 249.342891 -61.894844 261.973125 -74.525078C268.289141 -80.841094 276.567344 -84 284.84375 -84C293.120156 -84 301.3983590000001 -80.841094 307.714375 -74.526875L470.74125 88.5L482.5 88.5L482.5 -55.25C482.5 -71.1289839999999 495.372813 -84 511.25 -84C527.127188 -84 540 -71.1289839999999 540 -55.25L540 88.5L551.760547 88.5L714.787422 -74.526875C721.101641 -80.841094 729.379844 -84 737.65625 -84C745.932656 -84 754.210859 -80.841094 760.526875 -74.526875C773.158906 -61.896641 773.158906 -41.417656 760.526875 -28.787422L643.239453 88.5L899.375 88.5C923.09375 88.5 942.5 107.90625 942.5 131.625L942.5 792.875C942.5 816.59375 923.09375 836 899.375 836L899.375 836zM425 663.5L655 519.75L425 376L425 663.5L425 663.5zM798.75 203.5L223.75 203.5C207.872813 203.5 195 216.3710160000001 195 232.25C195 248.128984 207.872813 261 223.75 261L798.75 261C814.628984 261 827.5 248.128984 827.5 232.25C827.5 216.3710160000001 814.628984 203.5 798.75 203.5L798.75 203.5z" />
    <glyph glyph-name="preview"
      unicode="&#xEA5D;"
      horiz-adv-x="1024" d=" M297 269C297 269 349.849688 441.5 642 441.5L642 269L987 499L642 729L642 556.5C412 556.5 297 413.044687 297 269L297 269zM699.5 154L182 154L182 499L295.091719 499C304.160547 509.707578 313.879844 519.9641409999999 324.280156 529.708594C363.779063 566.715234 411.035078 594.981875 464.538828 614L67 614L67 39L814.5 39L814.5 280.341875L699.5 203.674609L699.5 154L699.5 154z" />
    <glyph glyph-name="print"
      unicode="&#xEA5E;"
      horiz-adv-x="1024" d=" M267.001 706.57H756.999V839H267.0010000000001V706.57zM102 654.254V273.4300000000001H266.86V82.278H757.139V273.4300000000001H922V654.2540000000001H102zM814.876 543V603.3169H873.2303999999999V543H814.876zM335.671 135.6238V409.7568H688.328V135.6238H335.671z" />
    <glyph glyph-name="private"
      unicode="&#xEA5F;"
      horiz-adv-x="1024" d=" M797.274453 441.5C812.836866 441.5 826.276927 435.821044 837.595042 424.462963C848.913159 413.104881 854.572131 399.617361 854.572131 384L854.572131 -18.5C854.572131 -34.117361 848.913159 -47.604881 837.595042 -58.9629629999999C826.276927 -70.321044 812.836866 -76 797.274453 -76L224.297678 -76C208.735269 -76 195.295207 -70.321044 183.97709 -58.9629629999999C172.658972 -47.604881 167 -34.117361 167 -18.5L167 384C167 399.617361 172.658972 413.104881 183.97709 424.462963C195.295207 435.821044 208.735269 441.5 224.297678 441.5L281.595356 441.5L281.595356 614C281.595356 677.1793270000001 304.054404 731.306873 348.97318 776.384259C393.891956 821.4616450999999 447.829045 844 510.786066 844C573.74309 844 627.680179 821.4616450999999 672.598951 776.384259C717.517727 731.306873 739.976778 677.1793270000001 739.976778 614L739.976778 441.5L797.274453 441.5L797.274453 441.5zM396.1907090000001 614L396.1907090000001 441.5L625.381422 441.5L625.381422 614C625.381422 645.944605 614.240318 673.0971099999999 591.957778 695.458333C569.675234 717.819557 542.618267 729 510.786066 729C478.953864 729 451.896897 717.819557 429.614357 695.458333C407.331813 673.0971099999999 396.1907090000001 645.944605 396.1907090000001 614L396.1907090000001 614L396.1907090000001 614z" />
    <glyph glyph-name="processing"
      unicode="&#xEA60;"
      horiz-adv-x="1024" d=" M307.875 321.46875L198.625 321.46875C163.40625 321.46875 136.09375 349.5 136.09375 384C136.09375 418.5 164.125 446.53125 198.625 446.53125L307.875 446.53125C343.09375 446.53125 370.40625 418.5 370.40625 384C370.40625 349.5 343.09375 321.46875 307.875 321.46875L307.875 321.46875zM323.6875 484.625L245.34375 561.53125C220.90625 585.96875 220.90625 624.78125 245.34375 649.21875C270.5 674.375 309.3125 674.375 333.75 649.21875L411.375 572.3125C436.53125 547.875 436.53125 509.0625 411.375 484.625C387.65625 458.75 348.125 458.75 323.6875 484.625L323.6875 484.625zM334.46875 117.34375C310.03125 92.90625 271.21875 92.90625 246.0625 117.34375C221.625 142.5 221.625 181.3125 246.0625 205.75L323.6875 283.375C348.125 308.53125 386.9375 308.53125 411.375 283.375C436.53125 258.9375 436.53125 220.125 411.375 195.6875L334.46875 117.34375L334.46875 117.34375zM574.53125 588.125C574.53125 552.90625 546.5 525.59375 512 525.59375C477.5 525.59375 449.46875 553.625 449.46875 588.125L449.46875 697.375C449.46875 732.59375 477.5 759.90625 512 759.90625C546.5 759.90625 574.53125 731.875 574.53125 697.375L574.53125 588.125L574.53125 588.125zM574.53125 70.625C574.53125 35.40625 546.5 8.09375 512 8.09375C477.5 8.09375 449.46875 36.125 449.46875 70.625L449.46875 179.875C449.46875 215.09375 477.5 242.40625 512 242.40625C546.5 242.40625 574.53125 214.375 574.53125 179.875L574.53125 70.625L574.53125 70.625zM700.3125 484.625C675.875 459.46875 637.0625 459.46875 612.625 484.625C587.46875 509.0625 587.46875 547.875 612.625 572.3125L689.53125 649.9375C713.96875 675.09375 752.78125 675.09375 777.21875 649.9375C802.375 625.5 802.375 586.6875 777.21875 562.25L700.3125 484.625L700.3125 484.625zM689.53125 117.34375L612.625 195.6875C587.46875 220.125 587.46875 258.9375 612.625 283.375C637.0625 308.53125 675.875 308.53125 700.3125 283.375L777.9375 206.46875C803.09375 182.03125 803.09375 143.21875 777.9375 118.0625C753.5 92.90625 713.96875 92.90625 689.53125 117.34375L689.53125 117.34375zM825.375 321.46875L716.125 321.46875C680.90625 321.46875 653.59375 349.5 653.59375 384C653.59375 418.5 681.625 446.53125 716.125 446.53125L825.375 446.53125C860.59375 446.53125 887.90625 418.5 887.90625 384C887.90625 349.5 860.59375 321.46875 825.375 321.46875L825.375 321.46875z" />
    <glyph glyph-name="progress"
      unicode="&#xEA61;"
      horiz-adv-x="1024" d=" M98 358.5C98 585.7266930000001 282.273307 770 509.5 770C736.726691 770 921 585.7266930000001 921 358.5C921 131.2733090000001 736.726691 -53 509.5 -53C282.273307 -53 98 131.2733090000001 98 358.5zM708.866651 319.222222C709.379277 321.78836 708.354024 324.3544970000001 706.816143 326.4074080000001C705.278263 328.973545 702.202502 330 699.639367 330L642.737786 330C638.636771 330 635.048383 327.433862 634.023129 323.328043C618.644323 268.412699 568.919518 228.380952 509.454803 228.380952C477.15931 228.380952 447.4269530000001 240.1851850000001 424.871371 260.201058L479.209818 314.0899470000001C481.772952 316.656085 482.285579 320.761905 481.260326 324.3544970000001C479.722445 327.94709 476.134057 330 472.545669 330L297.227283 330C292.101015 330 288 325.89418 288 320.761905L288 145.2380950000001C288 141.645503 290.050508 138.05291 293.638895 136.513227C294.664149 136 296.20203 136 297.227283 136C299.790418 136 301.8409250000001 137.0264550000001 303.891433 138.566138L372.583432 207.851852C408.979939 174.492064 456.654236 154.476191 509.454803 154.476191C608.391787 154.476191 690.412084 225.3015870000001 708.866651 319.222222zM310.133349 396.777778C309.620723 394.21164 310.645976 391.645503 312.183857 389.079365C313.721737 387.026455 316.284872 386 319.360633 386L376.262214 386C380.363229 386 383.951617 388.566138 384.976871 392.671957C400.355677 447.587301 450.080482 487.619048 509.545197 487.619048C541.84069 487.619048 571.573047 475.814815 594.128629 455.798942L539.790182 401.910053C537.227048 399.343915 536.714421 395.238095 537.739674 391.645503C539.277555 388.05291 542.865943 386 546.454331 386L721.772717 386C726.898985 386 731 390.10582 731 395.238095L731 570.7619050000001C731 574.354497 728.949492 577.94709 725.361105 579.4867730000001C724.335851 580 722.79797 580 721.772717 580C719.209582 580 717.159075 578.9735450000001 715.108567 577.433862L646.416568 508.148148C610.020061 541.507936 562.345764 561.523809 509.545197 561.523809C410.608213 561.523809 328.075289 490.698413 310.133349 396.777778z" />
    <glyph glyph-name="public-open"
      unicode="&#xEA62;"
      horiz-adv-x="1024" d=" M512.5 810C589.507329 810 660.738041 790.8965450000001 726.194271 752.689063C791.650501 714.48158 843.48158 662.650501 881.689062 597.1942710000001C919.896545 531.7380410000001 939 460.507329 939 383.5C939 306.492671 919.896545 235.2619590000001 881.689062 169.8057290000001C843.48158 104.349499 791.650501 52.51842 726.194271 14.310938C660.738041 -23.8965449999999 589.507329 -43 512.5 -43C435.492671 -43 364.261959 -23.8965449999999 298.805729 14.310938C233.349499 52.51842 181.51842 104.349499 143.310937 169.8057290000001C105.103455 235.2619590000001 86 306.492671 86 383.5C86 460.507329 105.103455 531.7380410000001 143.310937 597.1942710000001C181.51842 662.650501 233.349499 714.48158 298.805729 752.689063C364.261959 790.8965450000001 435.492671 810 512.5 810zM786.816326 192C826.938976 251.082864 847 314.8914 847 383.427523C847 475.596791 813.663298 555.652871 746.988894 623.598165C725.747491 644.277168 703.031332 661.410941 678.839734 675C678.839734 674.409171 677.512166 672.045892 674.856991 667.910092C672.201816 663.774291 671.169263 661.115602 671.759302 659.933945C672.349341 653.43483 673.676909 647.5266320000001 675.742045 642.209174C677.807181 636.891717 678.987242 633.494503 679.282261 632.017431C679.577281 630.54036 678.249713 625.961506 675.299518 618.2807339999999C668.809089 604.1008469999999 667.334014 585.785433 670.874248 563.3339450000001C672.054326 554.471515 685.182496 549.744957 710.259152 549.154128C735.335808 548.5633 749.054009 546.200021 751.414165 542.06422C751.414165 537.337591 748.906537 533.0541479999999 743.891205 529.213761C738.875874 525.373375 732.680558 522.271571 725.305071 519.908257C717.929584 517.544942 713.651865 516.067893 712.471787 515.4770639999999C691.230384 504.25132 678.839752 493.321154 675.299518 482.686239C669.399128 466.733865 668.809098 443.987304 673.52941 414.445872C675.889566 402.629299 681.052329 392.142248 689.017855 382.9844040000001C696.983382 373.82656 706.276356 368.066067 716.897057 365.7027520000001C741.088655 360.3852950000001 758.789559 359.7944750000001 770.000299 363.9302750000001C772.360455 363.9302750000001 774.130546 364.0779800000001 775.310623 364.373394C776.490701 364.668809 777.670762 363.9302840000001 778.85084 362.157798C780.030918 360.385312 780.768455 359.203673 781.063475 358.612844C781.358494 358.022015 781.948524 356.5449660000001 782.833583 354.181651C783.718641 351.8183370000001 784.161164 350.341287 784.161164 349.750459C786.52132 342.0696860000001 788.586425 331.73034 790.356542 318.7321100000001C792.126659 305.73388 791.241614 293.917484 787.70138 283.282569C783.571107 275.6017960000001 780.325941 262.603761 777.965786 244.2880730000001C775.60563 225.9723850000001 775.60563 212.67894 777.965786 204.407339C778.555825 201.4531960000001 781.505975 197.317458 786.816326 192zM425.790811 95.942247C428.176801 85.296876 433.69432 77.756518 442.343535 73.3209470000001C450.992749 68.885375 465.755841 70.807427 486.633255 79.087161C493.791226 82.635618 502.44031 86.627572 512.580768 91.063143C522.721226 95.498715 529.580845 98.751418 533.15983 100.8213520000001C536.738816 102.891285 540.615991 105.996138 544.791474 110.136005C548.966957 114.2758710000001 552.247644 119.598477 554.633634 126.103982C556.423127 130.835258 558.361715 134.975062 560.449456 138.52352C562.537198 142.071977 565.370518 145.17683 568.949504 147.838173C572.528489 150.499516 575.063565 152.421568 576.554809 153.604387C578.046053 154.787206 581.475862 156.709258 586.84434 159.370601L596.6865 164.249705C606.826959 169.5723900000001 614.283066 175.0428460000001 619.055046 180.661237C623.827026 186.279627 628.151569 193.524285 632.028803 202.3954280000001C635.906037 211.26657 639.037602 217.771978 641.423592 221.911844C653.95004 241.428358 648.581643 262.7187810000001 625.318239 285.7837520000001C615.774278 295.246305 590.721758 306.4829170000001 550.159925 319.493926C535.843984 340.784669 523.317724 352.3169810000001 512.580768 354.0912100000001C509.001783 354.6826190000001 503.484264 355.42187 496.028044 356.308984C488.571825 357.196099 481.712206 358.23105 475.448982 359.413869C469.185758 360.596688 463.07175 362.6665900000001 457.106775 365.6236380000001C453.52779 367.397866 449.501492 369.6156190000001 445.02776 372.2769610000001C440.554029 374.938304 437.273341 376.860356 435.1856 378.043175C433.0978590000001 379.225994 429.369805 380.260945 424.001327 381.14806C418.632849 382.035174 412.369719 382.4787250000001 405.211749 382.4787250000001C395.667788 382.4787250000001 388.808169 384.400777 384.632686 388.244938C380.457204 392.0891 378.518616 397.263856 378.816865 403.769361C379.115113 410.274865 379.56248 417.371673 380.158977 425.059997C380.755475 431.565501 379.71162 437.183807 377.027381 441.915084C374.343142 446.64636 370.465966 451.081864 365.395737 455.221731C360.325508 459.361598 356.895699 462.614301 355.106206 464.979939C347.948236 473.259672 338.404418 473.259672 326.474467 464.979939C324.088477 463.205711 321.106034 459.065906 317.527049 452.560402C313.948064 446.054897 310.667377 442.654343 307.684889 442.358638C304.702401 442.062934 297.842783 444.576386 287.105827 449.899072C272.1933880000001 460.544443 270.105678 475.92086 280.842634 496.028784C291.57959 516.136707 308.579515 527.373319 331.842918 529.738957C336.018401 530.330367 343.176264 531.217468 353.3167220000001 532.4002869999999C363.457181 533.583106 370.615044 534.322357 374.790526 534.618061C378.966009 534.913766 384.632651 534.7659160000001 391.790621 534.174507C398.948592 533.583097 404.316989 532.104595 407.895974 529.738957C411.474959 527.373319 415.053891 523.529215 418.632876 518.206529C422.211861 512.883844 424.89606 506.378437 426.6855530000001 498.690113C428.475045 488.636151 434.439931 484.200646 444.5803890000001 485.383466C458.89633 492.48038 466.948926 506.969695 468.738419 528.851847C468.738419 540.088628 464.264754 553.247293 455.317291 568.328235C446.369828 583.409178 441.896164 592.428038 441.896164 595.385085C441.896164 624.364151 461.282043 645.654575 500.054383 659.256993C516.756314 665.1710889999999 543.001812 687.052912 578.791664 724.903121C569.844201 727.268759 560.449505 729.042961 550.607296 730.22578C540.765087 731.408599 533.159857 732 527.791379 732L518.843961 732C425.790345 732 344.966142 697.994463 276.368925 629.9823690000001C231.035112 585.0352459999999 200.912438 531.5134869999999 186 469.415488C202.701931 442.210651 216.719413 424.172931 228.052866 415.301788C241.175812 404.656417 258.1757370000001 397.263909 279.05315 393.124043C324.386963 383.66149 363.75521 360.596865 397.159072 323.929475C396.562575 322.1552470000001 395.51872 319.937494 394.027476 317.276152C392.536232 314.6148090000001 390.001155 308.996503 386.42217 300.421065C382.843185 291.8456270000001 379.860742 283.566018 377.474752 275.581989C375.088762 267.5979610000001 373.2992960000001 258.2834010000001 372.106301 247.638029C370.913306 236.992658 371.062428 227.382398 372.553672 218.80696C374.044916 210.2315220000001 377.623847 201.951913 383.290574 193.967884C388.9573 185.983856 396.860774 179.626299 407.001232 174.895023C415.948695 171.3465660000001 422.51007 167.502462 426.6855530000001 163.3625950000001C430.861035 159.222728 432.948745 155.970025 432.948745 153.604387L432.948745 150.943057C432.352248 147.98601 431.457515 144.141905 430.26452 139.410629C429.071525 134.679353 427.729425 127.434695 426.238182 117.676438C424.746938 107.918181 424.597816 100.673524 425.790811 95.942247z" />
    <glyph glyph-name="pulse"
      unicode="&#xEA63;"
      horiz-adv-x="1024" d=" M205.120136 225.300399L228.338386 287.408321L327.876301 -76L508.548872 560.2822570000001L611.309621 209.869063L963.283118 209.869063L963.283118 287.408337L666.933134 287.408321L508.548868 844L327.876301 193.54499L245.834533 518.233592L157.706329 302.839656L61 302.839673L61 225.300399L205.120136 225.300399z" />
    <glyph glyph-name="puzzle"
      unicode="&#xEA64;"
      horiz-adv-x="1024" d=" M191 -28.3046869999999L191 549.1210940000001L374.820312 549.1210940000001C418.394531 549.1210940000001 434.7460940000001 573.6484379999999 434.7460940000001 602.21875C434.7460940000001 630.7890629999999 400.695312 668.972656 400.695312 719.375C400.695312 769.777344 441.5742190000001 797 487.84375 797C534.113281 797 587.300781 766.9921879999999 587.300781 707.066406C587.300781 647.140625 569.601562 651.183594 569.601562 615.7851559999999C569.601562 580.3867190000001 596.824219 555.859375 628.179688 555.859375C659.535156 555.859375 828.351562 569.515625 828.351562 569.515625C828.351562 569.515625 833.832031 426.484375 833.832031 376.0820310000001C833.832031 325.6796880000001 794.300781 327.027344 786.125 327.027344C786.125 327.027344 727.546875 369.2539060000001 668.96875 369.2539060000001C610.390625 369.2539060000001 595.476562 295.8515630000001 595.476562 278.152344C595.476562 260.453125 596.824219 185.5234380000001 670.40625 185.5234380000001C711.285156 185.5234380000001 703.109375 192.3515630000001 730.332031 192.3515630000001C757.554688 192.3515630000001 768.425781 185.5234380000001 778.039062 137.90625C787.5625 90.199219 799.871094 -28.214844 799.871094 -28.214844L191 -28.214844L191 -28.3046869999999z" />
    <glyph glyph-name="question-inverse"
      unicode="&#xEA65;"
      horiz-adv-x="1024" d=" M563.25 179C563.25 150.6955860000001 540.304414 127.75 512 127.75C483.695586 127.75 460.75 150.6955860000001 460.75 179C460.75 207.304414 483.695586 230.25 512 230.25C540.304414 230.25 563.25 207.304414 563.25 179L563.25 179z M512 794C285.563086 794 102 610.436914 102 384C102 157.563086 285.563086 -26 512 -26C738.436914 -26 922 157.563086 922 384C922 610.436914 738.436914 794 512 794L512 794zM512 50.875C328.020508 50.875 178.875 200.020508 178.875 384C178.875 567.9794919999999 328.020508 717.125 512 717.125C695.979492 717.125 845.125 567.9794919999999 845.125 384C845.125 200.020508 695.979492 50.875 512 50.875L512 50.875z M512 281.299805C490.771289 281.299805 473.5625 298.508594 473.5625 319.737305L473.5625 345.362305C473.5625 372.282969 483.943828 396.495391 504.418203 417.328516C519.524141 432.698711 537.873242 444.226758 555.616953 455.375234C592.10375 478.296797 608.09375 490.591992 608.09375 512.125C608.09375 535.5494530000001 594.576563 551.193516 583.235898 560.192695C565.030938 574.638789 539.731055 582.59375 512 582.59375C469.931758 582.59375 432.088438 554.500742 419.971016 514.275898C413.846641 493.950469 392.406523 482.438437 372.079492 488.559609C351.754063 494.683984 340.24043 516.124102 346.363203 536.451133C356.863047 571.3011329999999 378.713164 602.619687 407.888828 624.6363670000001C438.086289 647.423398 474.087813 659.46875 512 659.46875C557.010313 659.46875 599.280352 645.597617 631.020117 620.409844C665.809258 592.803711 684.96875 554.348594 684.96875 512.125C684.96875 445.852344 633.84207 413.731406 596.512852 390.279727C565.192695 370.604531 550.4375 359.75875 550.4375 345.362305L550.4375 319.737305C550.4375 298.508594 533.228711 281.299805 512 281.299805L512 281.299805z" />
    </font>
</defs>
</svg>
