<?xml version="1.0" encoding="UTF-8" standalone="no"?>
<svg width="166px" height="118px" viewBox="0 0 166 118" version="1.1" xmlns="http://www.w3.org/2000/svg" xmlns:xlink="http://www.w3.org/1999/xlink">
    <defs></defs>
    <g id="Welcome" stroke="none" stroke-width="1" fill="none" fill-rule="evenodd">
        <g id="Blocks" transform="translate(-11.000000, -26.000000)">
            <g id="Text-Block-1-Col" transform="translate(11.000000, 26.000000)">
                <g id="Block-Frame" fill="#FFFFFF">
                    <rect id="Rectangle-6-Copy-20" x="0" y="0" width="165.236842" height="117.108098"></rect>
                </g>
                <path id="Path-35" stroke="#979797" d=""></path>
                <rect id="Rectangle-10-Copy-70" fill="#9B9B9B" x="19" y="25" width="139.449997" height="5"></rect>
                <rect id="Rectangle-10-Copy-60" fill="#4A4A4A" x="8" y="7" width="150" height="10"></rect>
                <path d="M8,34 L159.447266,34 L159.447266,39 L99.4396712,39 L8,39 L8,34 Z" id="Rectangle-10-Copy-61" fill="#9B9B9B"></path>
                <path d="M8,52 L158.449997,52 L158.449997,57 L98.837548,57 L8,57 L8,52 Z" id="Rectangle-10-Copy-62" fill="#9B9B9B"></path>
                <path d="M8,43 L156.449997,43 L156.449997,48 L97.6300033,48 L8,48 L8,43 Z" id="Rectangle-10-Copy-63" fill="#9B9B9B"></path>
                <path d="M8,61 L159.447266,61 L159.447266,66 L99.4396712,66 L8,66 L8,61 Z" id="Rectangle-10-Copy-64" fill="#9B9B9B"></path>
                <path d="M8,70 L156.449997,70 L156.449997,75 L97.6300033,75 L8,75 L8,70 Z" id="Rectangle-10-Copy-65" fill="#9B9B9B"></path>
                <path d="M8,79 L158.449997,79 L158.449997,84 L98.837548,84 L8,84 L8,79 Z" id="Rectangle-10-Copy-66" fill="#9B9B9B"></path>
                <path d="M8,88 L159.447266,88 L159.447266,93 L99.4396712,93 L8,93 L8,88 Z" id="Rectangle-10-Copy-67" fill="#9B9B9B"></path>
                <path d="M8,97 L156.449997,97 L156.449997,102 L97.6300033,102 L8,102 L8,97 Z" id="Rectangle-10-Copy-68" fill="#9B9B9B"></path>
                <path d="M8,106 L103.449997,106 L103.449997,111 L65.6300688,111 L8,111 L8,106 Z" id="Rectangle-10-Copy-69" fill="#9B9B9B"></path>
            </g>
        </g>
    </g>
</svg>