<?xml version="1.0" encoding="UTF-8" standalone="no"?>
<svg width="310px" height="146px" viewBox="0 0 310 146" version="1.1" xmlns="http://www.w3.org/2000/svg" xmlns:xlink="http://www.w3.org/1999/xlink">
    <defs></defs>
    <g id="View-Samples" stroke="none" stroke-width="1" fill="none" fill-rule="evenodd">
        <g id="Desktop-HD" transform="translate(-1093.000000, -735.000000)">
            <g id="Theme-Slab" transform="translate(1077.000000, 672.000000)">
                <g id="theme-sample-slab" transform="translate(16.000000, 63.000000)">
                    <rect id="Swatch-1" fill="#E24816" x="224" y="18" width="36" height="36"></rect>
                    <rect id="Swatch-2" fill="#252525" x="274" y="18" width="36" height="36"></rect>
                    <path d="M1.15917969,87.6949219 L5.59570312,87.6949219 C7.67969792,87.6949219 9.18716982,88.0064422 10.1181641,88.6294922 C11.0491583,89.2525422 11.5146484,90.2372329 11.5146484,91.5835937 C11.5146484,92.514588 11.2550482,93.2826467 10.7358398,93.887793 C10.2166315,94.4929392 9.45931487,94.8850251 8.46386719,95.0640625 L8.46386719,95.1714844 C10.8486447,95.5796895 12.0410156,96.8329322 12.0410156,98.93125 C12.0410156,100.334903 11.5665738,101.430595 10.6176758,102.218359 C9.66877781,103.006124 8.34213092,103.4 6.63769531,103.4 L1.15917969,103.4 L1.15917969,87.6949219 Z M2.98535156,94.4195312 L5.99316406,94.4195312 C7.28223301,94.4195312 8.20963259,94.2172221 8.77539062,93.8125977 C9.34114866,93.4079732 9.62402344,92.7258512 9.62402344,91.7662109 C9.62402344,90.8853472 9.30892242,90.2497741 8.67871094,89.8594727 C8.04849945,89.4691712 7.04590531,89.2740234 5.67089844,89.2740234 L2.98535156,89.2740234 L2.98535156,94.4195312 Z M2.98535156,95.9664062 L2.98535156,101.842383 L6.26171875,101.842383 C7.52930321,101.842383 8.48355799,101.597105 9.12451172,101.106543 C9.76546544,100.615981 10.0859375,99.8479219 10.0859375,98.8023437 C10.0859375,97.8283805 9.75830406,97.1122419 9.10302734,96.6539062 C8.44775063,96.1955706 7.45052753,95.9664062 6.11132812,95.9664062 L2.98535156,95.9664062 Z M25.3076172,97.5025391 C25.3076172,99.4218195 24.8242236,100.92034 23.8574219,101.998145 C22.8906202,103.075949 21.5550215,103.614844 19.8505859,103.614844 C18.7978463,103.614844 17.8632853,103.367776 17.046875,102.873633 C16.2304647,102.37949 15.6002626,101.670512 15.15625,100.74668 C14.7122374,99.8228469 14.4902344,98.7414775 14.4902344,97.5025391 C14.4902344,95.5832586 14.9700473,94.0883192 15.9296875,93.0176758 C16.8893277,91.9470324 18.2213456,91.4117187 19.9257812,91.4117187 C21.5729249,91.4117187 22.8816683,91.9595648 23.8520508,93.0552734 C24.8224332,94.150982 25.3076172,95.6333891 25.3076172,97.5025391 L25.3076172,97.5025391 Z M16.3378906,97.5025391 C16.3378906,99.0064528 16.6386689,100.152275 17.2402344,100.940039 C17.8417999,101.727803 18.7262311,102.12168 19.8935547,102.12168 C21.0608782,102.12168 21.9470998,101.729594 22.5522461,100.94541 C23.1573923,100.161227 23.4599609,99.0136143 23.4599609,97.5025391 C23.4599609,96.0057868 23.1573923,94.8689166 22.5522461,94.0918945 C21.9470998,93.3148724 21.0537168,92.9263672 19.8720703,92.9263672 C18.7047468,92.9263672 17.8238962,93.3095014 17.2294922,94.0757812 C16.6350882,94.8420611 16.3378906,95.9843023 16.3378906,97.5025391 L16.3378906,97.5025391 Z M30.2167969,103.4 L28.4335938,103.4 L28.4335938,86.6851562 L30.2167969,86.6851562 L30.2167969,103.4 Z M42.0117188,101.820898 L41.9150391,101.820898 C41.0914672,103.016868 39.8597087,103.614844 38.2197266,103.614844 C36.6800053,103.614844 35.4822634,103.088482 34.6264648,102.035742 C33.7706663,100.983003 33.3427734,99.4862727 33.3427734,97.5455078 C33.3427734,95.6047429 33.7724566,94.097271 34.6318359,93.0230469 C35.4912152,91.9488228 36.6871668,91.4117187 38.2197266,91.4117187 C39.8167398,91.4117187 41.0413369,91.9917911 41.8935547,93.1519531 L42.0332031,93.1519531 L41.9580078,92.3033203 L41.9150391,91.4761719 L41.9150391,86.6851562 L43.6982422,86.6851562 L43.6982422,103.4 L42.2480469,103.4 L42.0117188,101.820898 Z M38.4453125,102.12168 C39.6627665,102.12168 40.5454074,101.790466 41.0932617,101.128027 C41.641116,100.465589 41.9150391,99.3967522 41.9150391,97.9214844 L41.9150391,97.5455078 C41.9150391,95.8768797 41.6375353,94.6862991 41.0825195,93.9737305 C40.5275037,93.2611618 39.6412821,92.9048828 38.4238281,92.9048828 C37.37825,92.9048828 36.577965,93.3112915 36.0229492,94.1241211 C35.4679334,94.9369507 35.1904297,96.0845629 35.1904297,97.5669922 C35.1904297,99.070906 35.4661431,100.205986 36.0175781,100.972266 C36.5690132,101.738545 37.3782499,102.12168 38.4453125,102.12168 L38.4453125,102.12168 Z M60.4345703,103.4 L60.0800781,101.724219 L59.9941406,101.724219 C59.4068981,102.461853 58.8214547,102.961359 58.237793,103.222754 C57.6541312,103.484148 56.9254601,103.614844 56.0517578,103.614844 C54.8844343,103.614844 53.9695671,103.314066 53.3071289,102.7125 C52.6446907,102.110934 52.3134766,101.255149 52.3134766,100.145117 C52.3134766,97.7675011 54.2148247,96.5214198 58.0175781,96.4068359 L60.015625,96.3423828 L60.015625,95.6119141 C60.015625,94.6880813 59.8168965,94.0059592 59.4194336,93.5655273 C59.0219707,93.1250955 58.3863976,92.9048828 57.5126953,92.9048828 C56.5315706,92.9048828 55.4215557,93.2056611 54.1826172,93.8072266 L53.6347656,92.4429687 C54.2148467,92.127863 54.8504197,91.8807952 55.5415039,91.7017578 C56.2325881,91.5227205 56.9254523,91.4332031 57.6201172,91.4332031 C59.02377,91.4332031 60.0639615,91.7447234 60.7407227,92.3677734 C61.4174839,92.9908234 61.7558594,93.9898369 61.7558594,95.3648437 L61.7558594,103.4 L60.4345703,103.4 Z M56.40625,102.143164 C57.5162816,102.143164 58.3881804,101.838805 59.0219727,101.230078 C59.6557649,100.621351 59.9726562,99.7691461 59.9726562,98.6734375 L59.9726562,97.6099609 L58.1894531,97.6851562 C56.7714773,97.7352867 55.7491893,97.9554994 55.1225586,98.3458008 C54.4959279,98.7361022 54.1826172,99.3430297 54.1826172,100.166602 C54.1826172,100.811136 54.377765,101.301691 54.7680664,101.638281 C55.1583678,101.974871 55.7044236,102.143164 56.40625,102.143164 L56.40625,102.143164 Z M73.4863281,103.4 L73.4863281,95.7837891 C73.4863281,94.8241488 73.2679058,94.1080102 72.8310547,93.6353516 C72.3942035,93.1626929 71.7102911,92.9263672 70.7792969,92.9263672 C69.5475199,92.9263672 68.6451852,93.2593717 68.0722656,93.9253906 C67.4993461,94.5914096 67.2128906,95.6906824 67.2128906,97.2232422 L67.2128906,103.4 L65.4296875,103.4 L65.4296875,91.6265625 L66.8798828,91.6265625 L67.1699219,93.2378906 L67.2558594,93.2378906 C67.6210956,92.6578096 68.1331347,92.2084326 68.7919922,91.8897461 C69.4508496,91.5710596 70.1848918,91.4117187 70.9941406,91.4117187 C72.4121165,91.4117187 73.4791631,91.753675 74.1953125,92.4375977 C74.9114619,93.1215203 75.2695312,94.2154222 75.2695312,95.7193359 L75.2695312,103.4 L73.4863281,103.4 Z M86.9462891,101.820898 L86.8496094,101.820898 C86.0260375,103.016868 84.794279,103.614844 83.1542969,103.614844 C81.6145756,103.614844 80.4168337,103.088482 79.5610352,102.035742 C78.7052366,100.983003 78.2773438,99.4862727 78.2773438,97.5455078 C78.2773438,95.6047429 78.707027,94.097271 79.5664062,93.0230469 C80.4257855,91.9488228 81.6217371,91.4117187 83.1542969,91.4117187 C84.7513101,91.4117187 85.9759072,91.9917911 86.828125,93.1519531 L86.9677734,93.1519531 L86.8925781,92.3033203 L86.8496094,91.4761719 L86.8496094,86.6851562 L88.6328125,86.6851562 L88.6328125,103.4 L87.1826172,103.4 L86.9462891,101.820898 Z M83.3798828,102.12168 C84.5973368,102.12168 85.4799777,101.790466 86.027832,101.128027 C86.5756863,100.465589 86.8496094,99.3967522 86.8496094,97.9214844 L86.8496094,97.5455078 C86.8496094,95.8768797 86.5721056,94.6862991 86.0170898,93.9737305 C85.462074,93.2611618 84.5758524,92.9048828 83.3583984,92.9048828 C82.3128203,92.9048828 81.5125353,93.3112915 80.9575195,94.1241211 C80.4025037,94.9369507 80.125,96.0845629 80.125,97.5669922 C80.125,99.070906 80.4007134,100.205986 80.9521484,100.972266 C81.5035835,101.738545 82.3128202,102.12168 83.3798828,102.12168 L83.3798828,102.12168 Z M105.723633,100.188086 C105.723633,101.283795 105.315434,102.128838 104.499023,102.723242 C103.682613,103.317646 102.536791,103.614844 101.061523,103.614844 C99.5003177,103.614844 98.282882,103.367776 97.4091797,102.873633 L97.4091797,101.219336 C97.9749377,101.505796 98.5818652,101.731379 99.2299805,101.896094 C99.8780957,102.060808 100.502927,102.143164 101.104492,102.143164 C102.035486,102.143164 102.751625,101.994565 103.25293,101.697363 C103.754234,101.400161 104.004883,100.947204 104.004883,100.338477 C104.004883,99.8801409 103.806154,99.488055 103.408691,99.162207 C103.011228,98.836359 102.236008,98.4514345 101.083008,98.0074219 C99.9872992,97.5992167 99.2084984,97.2429377 98.746582,96.9385742 C98.2846657,96.6342107 97.9409191,96.2886738 97.715332,95.9019531 C97.489745,95.5152324 97.3769531,95.053323 97.3769531,94.5162109 C97.3769531,93.5565707 97.7672487,92.7992541 98.5478516,92.2442383 C99.3284544,91.6892225 100.399082,91.4117187 101.759766,91.4117187 C103.02735,91.4117187 104.26627,91.6695287 105.476562,92.1851562 L104.842773,93.6353516 C103.661127,93.14837 102.5905,92.9048828 101.630859,92.9048828 C100.785803,92.9048828 100.14844,93.0373685 99.71875,93.3023437 C99.2890604,93.567319 99.0742188,93.9325498 99.0742188,94.3980469 C99.0742188,94.7131526 99.1547844,94.9817046 99.315918,95.2037109 C99.4770516,95.4257173 99.7366519,95.6369782 100.094727,95.8375 C100.452801,96.0380218 101.140294,96.328058 102.157227,96.7076172 C103.553718,97.2160833 104.497231,97.7281224 104.987793,98.24375 C105.478355,98.7593776 105.723633,99.4074831 105.723633,100.188086 L105.723633,100.188086 Z M112.426758,102.143164 C112.741864,102.143164 113.046222,102.11989 113.339844,102.07334 C113.633465,102.02679 113.86621,101.978451 114.038086,101.92832 L114.038086,103.292578 C113.844726,103.385678 113.56006,103.462662 113.184082,103.523535 C112.808104,103.584408 112.469728,103.614844 112.168945,103.614844 C109.89159,103.614844 108.75293,102.415311 108.75293,100.016211 L108.75293,93.0123047 L107.066406,93.0123047 L107.066406,92.1529297 L108.75293,91.4117187 L109.504883,88.8980469 L110.536133,88.8980469 L110.536133,91.6265625 L113.952148,91.6265625 L113.952148,93.0123047 L110.536133,93.0123047 L110.536133,99.9410156 C110.536133,100.650004 110.704425,101.194269 111.041016,101.573828 C111.377606,101.953387 111.839515,102.143164 112.426758,102.143164 L112.426758,102.143164 Z M121.761719,91.4117187 C122.284508,91.4117187 122.753579,91.4546871 123.168945,91.540625 L122.921875,93.1949219 C122.434893,93.0874995 122.00521,93.0337891 121.632812,93.0337891 C120.680334,93.0337891 119.865726,93.4205039 119.188965,94.1939453 C118.512204,94.9673867 118.173828,95.9305932 118.173828,97.0835937 L118.173828,103.4 L116.390625,103.4 L116.390625,91.6265625 L117.862305,91.6265625 L118.066406,93.8072266 L118.152344,93.8072266 C118.589195,93.0409467 119.115557,92.4501323 119.731445,92.0347656 C120.347334,91.619399 121.024085,91.4117187 121.761719,91.4117187 L121.761719,91.4117187 Z M135.092773,97.5025391 C135.092773,99.4218195 134.60938,100.92034 133.642578,101.998145 C132.675776,103.075949 131.340178,103.614844 129.635742,103.614844 C128.583003,103.614844 127.648442,103.367776 126.832031,102.873633 C126.015621,102.37949 125.385419,101.670512 124.941406,100.74668 C124.497394,99.8228469 124.275391,98.7414775 124.275391,97.5025391 C124.275391,95.5832586 124.755204,94.0883192 125.714844,93.0176758 C126.674484,91.9470324 128.006502,91.4117187 129.710938,91.4117187 C131.358081,91.4117187 132.666825,91.9595648 133.637207,93.0552734 C134.607589,94.150982 135.092773,95.6333891 135.092773,97.5025391 L135.092773,97.5025391 Z M126.123047,97.5025391 C126.123047,99.0064528 126.423825,100.152275 127.025391,100.940039 C127.626956,101.727803 128.511387,102.12168 129.678711,102.12168 C130.846034,102.12168 131.732256,101.729594 132.337402,100.94541 C132.942549,100.161227 133.245117,99.0136143 133.245117,97.5025391 C133.245117,96.0057868 132.942549,94.8689166 132.337402,94.0918945 C131.732256,93.3148724 130.838873,92.9263672 129.657227,92.9263672 C128.489903,92.9263672 127.609052,93.3095014 127.014648,94.0757812 C126.420244,94.8420611 126.123047,95.9843023 126.123047,97.5025391 L126.123047,97.5025391 Z M146.275391,103.4 L146.275391,95.7837891 C146.275391,94.8241488 146.056968,94.1080102 145.620117,93.6353516 C145.183266,93.1626929 144.499354,92.9263672 143.568359,92.9263672 C142.336582,92.9263672 141.434248,93.2593717 140.861328,93.9253906 C140.288409,94.5914096 140.001953,95.6906824 140.001953,97.2232422 L140.001953,103.4 L138.21875,103.4 L138.21875,91.6265625 L139.668945,91.6265625 L139.958984,93.2378906 L140.044922,93.2378906 C140.410158,92.6578096 140.922197,92.2084326 141.581055,91.8897461 C142.239912,91.5710596 142.973954,91.4117187 143.783203,91.4117187 C145.201179,91.4117187 146.268226,91.753675 146.984375,92.4375977 C147.700524,93.1215203 148.058594,94.2154222 148.058594,95.7193359 L148.058594,103.4 L146.275391,103.4 Z M161.357422,91.6265625 L161.357422,92.7544922 L159.176758,93.0123047 C159.37728,93.262957 159.556314,93.5905904 159.713867,93.9952148 C159.87142,94.3998393 159.950195,94.8563777 159.950195,95.3648437 C159.950195,96.5178443 159.556319,97.4380825 158.768555,98.1255859 C157.98079,98.8130894 156.899421,99.1568359 155.524414,99.1568359 C155.173501,99.1568359 154.844077,99.1281904 154.536133,99.0708984 C153.777014,99.4719421 153.397461,99.9768199 153.397461,100.585547 C153.397461,100.907814 153.529947,101.14593 153.794922,101.299902 C154.059897,101.453874 154.514645,101.530859 155.15918,101.530859 L157.243164,101.530859 C158.51791,101.530859 159.49723,101.799411 160.181152,102.336523 C160.865075,102.873635 161.207031,103.654227 161.207031,104.67832 C161.207031,105.981712 160.68425,106.975355 159.638672,107.659277 C158.593094,108.3432 157.067718,108.685156 155.0625,108.685156 C153.522779,108.685156 152.335779,108.398701 151.501465,107.825781 C150.667151,107.252862 150.25,106.443625 150.25,105.398047 C150.25,104.681897 150.479164,104.062438 150.9375,103.539648 C151.395836,103.016859 152.04036,102.662371 152.871094,102.476172 C152.570311,102.340103 152.317872,102.128843 152.11377,101.842383 C151.909667,101.555923 151.807617,101.222919 151.807617,100.843359 C151.807617,100.41367 151.922199,100.037697 152.151367,99.7154297 C152.380535,99.3931625 152.742185,99.0816421 153.236328,98.7808594 C152.627601,98.5302071 152.131675,98.1041046 151.748535,97.5025391 C151.365395,96.9009736 151.173828,96.2134804 151.173828,95.4400391 C151.173828,94.1509701 151.560543,93.1573277 152.333984,92.459082 C153.107426,91.7608364 154.203118,91.4117187 155.621094,91.4117187 C156.236982,91.4117187 156.79199,91.4833326 157.286133,91.6265625 L161.357422,91.6265625 Z M151.96875,105.376562 C151.96875,106.013935 152.237302,106.497329 152.774414,106.826758 C153.311526,107.156187 154.081375,107.320898 155.083984,107.320898 C156.580737,107.320898 157.688961,107.097105 158.408691,106.649512 C159.128422,106.201918 159.488281,105.594991 159.488281,104.828711 C159.488281,104.191338 159.291343,103.749122 158.897461,103.502051 C158.503579,103.254979 157.762375,103.131445 156.673828,103.131445 L154.536133,103.131445 C153.726884,103.131445 153.096682,103.324803 152.645508,103.711523 C152.194334,104.098244 151.96875,104.653252 151.96875,105.376562 L151.96875,105.376562 Z M152.935547,95.3970703 C152.935547,96.2206421 153.168292,96.8436828 153.633789,97.2662109 C154.099286,97.6887391 154.747392,97.9 155.578125,97.9 C157.318368,97.9 158.188477,97.0549564 158.188477,95.3648437 C158.188477,93.5959547 157.307626,92.7115234 155.545898,92.7115234 C154.708004,92.7115234 154.063479,92.9371071 153.612305,93.3882812 C153.161131,93.8394554 152.935547,94.509045 152.935547,95.3970703 L152.935547,95.3970703 Z M177.545898,103.4 L177.545898,95.7837891 C177.545898,94.8241488 177.327476,94.1080102 176.890625,93.6353516 C176.453774,93.1626929 175.769861,92.9263672 174.838867,92.9263672 C173.599929,92.9263672 172.695804,93.2629524 172.126465,93.9361328 C171.557126,94.6093133 171.272461,95.7121668 171.272461,97.2447266 L171.272461,103.4 L169.489258,103.4 L169.489258,86.6851562 L171.272461,86.6851562 L171.272461,91.7447266 C171.272461,92.3534536 171.243815,92.8583313 171.186523,93.259375 L171.293945,93.259375 C171.644859,92.693617 172.144365,92.2478206 172.79248,91.9219727 C173.440596,91.5961247 174.180009,91.4332031 175.010742,91.4332031 C176.450203,91.4332031 177.529782,91.7751593 178.249512,92.459082 C178.969242,93.1430047 179.329102,94.2297452 179.329102,95.7193359 L179.329102,103.4 L177.545898,103.4 Z M187.96582,103.614844 C186.225577,103.614844 184.852381,103.084901 183.846191,102.025 C182.840001,100.965099 182.336914,99.4934339 182.336914,97.6099609 C182.336914,95.712165 182.804195,94.2046931 183.73877,93.0875 C184.673345,91.9703069 185.928378,91.4117187 187.503906,91.4117187 C188.979174,91.4117187 190.14648,91.8969027 191.005859,92.8672852 C191.865239,93.8376676 192.294922,95.1177655 192.294922,96.7076172 L192.294922,97.8355469 L184.18457,97.8355469 C184.220378,99.2177152 184.569495,100.266858 185.231934,100.983008 C185.894372,101.699157 186.827142,102.057227 188.030273,102.057227 C189.297858,102.057227 190.551101,101.792255 191.790039,101.262305 L191.790039,102.852148 C191.159828,103.124285 190.563642,103.319433 190.001465,103.437598 C189.439288,103.555762 188.760746,103.614844 187.96582,103.614844 L187.96582,103.614844 Z M187.482422,92.9048828 C186.537105,92.9048828 185.783369,93.2128224 185.221191,93.8287109 C184.659014,94.4445994 184.3278,95.2968045 184.227539,96.3853516 L190.382812,96.3853516 C190.382812,95.260997 190.132164,94.3998402 189.630859,93.8018555 C189.129555,93.2038707 188.413416,92.9048828 187.482422,92.9048828 L187.482422,92.9048828 Z M202.575195,103.4 L202.220703,101.724219 L202.134766,101.724219 C201.547523,102.461853 200.96208,102.961359 200.378418,103.222754 C199.794756,103.484148 199.066085,103.614844 198.192383,103.614844 C197.025059,103.614844 196.110192,103.314066 195.447754,102.7125 C194.785316,102.110934 194.454102,101.255149 194.454102,100.145117 C194.454102,97.7675011 196.35545,96.5214198 200.158203,96.4068359 L202.15625,96.3423828 L202.15625,95.6119141 C202.15625,94.6880813 201.957522,94.0059592 201.560059,93.5655273 C201.162596,93.1250955 200.527023,92.9048828 199.65332,92.9048828 C198.672196,92.9048828 197.562181,93.2056611 196.323242,93.8072266 L195.775391,92.4429687 C196.355472,92.127863 196.991045,91.8807952 197.682129,91.7017578 C198.373213,91.5227205 199.066077,91.4332031 199.760742,91.4332031 C201.164395,91.4332031 202.204586,91.7447234 202.881348,92.3677734 C203.558109,92.9908234 203.896484,93.9898369 203.896484,95.3648437 L203.896484,103.4 L202.575195,103.4 Z M198.546875,102.143164 C199.656907,102.143164 200.528805,101.838805 201.162598,101.230078 C201.79639,100.621351 202.113281,99.7691461 202.113281,98.6734375 L202.113281,97.6099609 L200.330078,97.6851562 C198.912102,97.7352867 197.889814,97.9554994 197.263184,98.3458008 C196.636553,98.7361022 196.323242,99.3430297 196.323242,100.166602 C196.323242,100.811136 196.51839,101.301691 196.908691,101.638281 C197.298993,101.974871 197.845049,102.143164 198.546875,102.143164 L198.546875,102.143164 Z M215.583984,101.820898 L215.487305,101.820898 C214.663733,103.016868 213.431974,103.614844 211.791992,103.614844 C210.252271,103.614844 209.054529,103.088482 208.19873,102.035742 C207.342932,100.983003 206.915039,99.4862727 206.915039,97.5455078 C206.915039,95.6047429 207.344722,94.097271 208.204102,93.0230469 C209.063481,91.9488228 210.259432,91.4117187 211.791992,91.4117187 C213.389005,91.4117187 214.613603,91.9917911 215.46582,93.1519531 L215.605469,93.1519531 L215.530273,92.3033203 L215.487305,91.4761719 L215.487305,86.6851562 L217.270508,86.6851562 L217.270508,103.4 L215.820312,103.4 L215.583984,101.820898 Z M212.017578,102.12168 C213.235032,102.12168 214.117673,101.790466 214.665527,101.128027 C215.213382,100.465589 215.487305,99.3967522 215.487305,97.9214844 L215.487305,97.5455078 C215.487305,95.8768797 215.209801,94.6862991 214.654785,93.9737305 C214.099769,93.2611618 213.213548,92.9048828 211.996094,92.9048828 C210.950516,92.9048828 210.150231,93.3112915 209.595215,94.1241211 C209.040199,94.9369507 208.762695,96.0845629 208.762695,97.5669922 C208.762695,99.070906 209.038409,100.205986 209.589844,100.972266 C210.141279,101.738545 210.950515,102.12168 212.017578,102.12168 L212.017578,102.12168 Z M222.834961,103.4 L221.051758,103.4 L221.051758,86.6851562 L222.834961,86.6851562 L222.834961,103.4 Z M228.399414,103.4 L226.616211,103.4 L226.616211,91.6265625 L228.399414,91.6265625 L228.399414,103.4 Z M226.46582,88.4361328 C226.46582,88.0279276 226.56608,87.7289398 226.766602,87.5391602 C226.967123,87.3493806 227.217772,87.2544922 227.518555,87.2544922 C227.805014,87.2544922 228.052082,87.3511709 228.259766,87.5445312 C228.467449,87.7378916 228.571289,88.0350891 228.571289,88.4361328 C228.571289,88.8371765 228.467449,89.1361644 228.259766,89.3331055 C228.052082,89.5300466 227.805014,89.6285156 227.518555,89.6285156 C227.217772,89.6285156 226.967123,89.5300466 226.766602,89.3331055 C226.56608,89.1361644 226.46582,88.8371765 226.46582,88.4361328 L226.46582,88.4361328 Z M240.237305,103.4 L240.237305,95.7837891 C240.237305,94.8241488 240.018882,94.1080102 239.582031,93.6353516 C239.14518,93.1626929 238.461268,92.9263672 237.530273,92.9263672 C236.298496,92.9263672 235.396162,93.2593717 234.823242,93.9253906 C234.250323,94.5914096 233.963867,95.6906824 233.963867,97.2232422 L233.963867,103.4 L232.180664,103.4 L232.180664,91.6265625 L233.630859,91.6265625 L233.920898,93.2378906 L234.006836,93.2378906 C234.372072,92.6578096 234.884111,92.2084326 235.542969,91.8897461 C236.201826,91.5710596 236.935868,91.4117187 237.745117,91.4117187 C239.163093,91.4117187 240.23014,91.753675 240.946289,92.4375977 C241.662438,93.1215203 242.020508,94.2154222 242.020508,95.7193359 L242.020508,103.4 L240.237305,103.4 Z M250.657227,103.614844 C248.916983,103.614844 247.543788,103.084901 246.537598,102.025 C245.531408,100.965099 245.02832,99.4934339 245.02832,97.6099609 C245.02832,95.712165 245.495601,94.2046931 246.430176,93.0875 C247.364751,91.9703069 248.619784,91.4117187 250.195312,91.4117187 C251.67058,91.4117187 252.837886,91.8969027 253.697266,92.8672852 C254.556645,93.8376676 254.986328,95.1177655 254.986328,96.7076172 L254.986328,97.8355469 L246.875977,97.8355469 C246.911784,99.2177152 247.260902,100.266858 247.92334,100.983008 C248.585778,101.699157 249.518549,102.057227 250.72168,102.057227 C251.989264,102.057227 253.242507,101.792255 254.481445,101.262305 L254.481445,102.852148 C253.851234,103.124285 253.255048,103.319433 252.692871,103.437598 C252.130694,103.555762 251.452152,103.614844 250.657227,103.614844 L250.657227,103.614844 Z M250.173828,92.9048828 C249.228511,92.9048828 248.474775,93.2128224 247.912598,93.8287109 C247.35042,94.4445994 247.019206,95.2968045 246.918945,96.3853516 L253.074219,96.3853516 C253.074219,95.260997 252.82357,94.3998402 252.322266,93.8018555 C251.820961,93.2038707 251.104822,92.9048828 250.173828,92.9048828 L250.173828,92.9048828 Z M265.621094,100.188086 C265.621094,101.283795 265.212895,102.128838 264.396484,102.723242 C263.580074,103.317646 262.434252,103.614844 260.958984,103.614844 C259.397779,103.614844 258.180343,103.367776 257.306641,102.873633 L257.306641,101.219336 C257.872399,101.505796 258.479326,101.731379 259.127441,101.896094 C259.775557,102.060808 260.400388,102.143164 261.001953,102.143164 C261.932947,102.143164 262.649086,101.994565 263.150391,101.697363 C263.651695,101.400161 263.902344,100.947204 263.902344,100.338477 C263.902344,99.8801409 263.703615,99.488055 263.306152,99.162207 C262.908689,98.836359 262.133469,98.4514345 260.980469,98.0074219 C259.88476,97.5992167 259.105959,97.2429377 258.644043,96.9385742 C258.182127,96.6342107 257.83838,96.2886738 257.612793,95.9019531 C257.387206,95.5152324 257.274414,95.053323 257.274414,94.5162109 C257.274414,93.5565707 257.66471,92.7992541 258.445312,92.2442383 C259.225915,91.6892225 260.296543,91.4117187 261.657227,91.4117187 C262.924811,91.4117187 264.163731,91.6695287 265.374023,92.1851562 L264.740234,93.6353516 C263.558588,93.14837 262.487961,92.9048828 261.52832,92.9048828 C260.683264,92.9048828 260.045901,93.0373685 259.616211,93.3023437 C259.186521,93.567319 258.97168,93.9325498 258.97168,94.3980469 C258.97168,94.7131526 259.052245,94.9817046 259.213379,95.2037109 C259.374513,95.4257173 259.634113,95.6369782 259.992188,95.8375 C260.350262,96.0380218 261.037755,96.328058 262.054688,96.7076172 C263.451179,97.2160833 264.394692,97.7281224 264.885254,98.24375 C265.375816,98.7593776 265.621094,99.4074831 265.621094,100.188086 L265.621094,100.188086 Z M15.8974609,139.8 L15.8974609,132.14082 C15.8974609,131.202665 15.6969421,130.499058 15.2958984,130.02998 C14.8948548,129.560903 14.2718141,129.326367 13.4267578,129.326367 C12.3167262,129.326367 11.4967474,129.645049 10.9667969,130.282422 C10.4368463,130.919795 10.171875,131.900905 10.171875,133.225781 L10.171875,139.8 L8.38867188,139.8 L8.38867188,132.14082 C8.38867188,131.202665 8.18815305,130.499058 7.78710938,130.02998 C7.3860657,129.560903 6.75944437,129.326367 5.90722656,129.326367 C4.79003348,129.326367 3.97184504,129.661162 3.45263672,130.330762 C2.93342839,131.000361 2.67382812,132.097844 2.67382812,133.623242 L2.67382812,139.8 L0.890625,139.8 L0.890625,128.026562 L2.34082031,128.026562 L2.63085938,129.637891 L2.71679688,129.637891 C3.0533871,129.064971 3.52782897,128.617384 4.14013672,128.295117 C4.75244447,127.97285 5.43814725,127.811719 6.19726562,127.811719 C8.03776962,127.811719 9.24088259,128.477728 9.80664062,129.809766 L9.89257812,129.809766 C10.2434913,129.193877 10.7519498,128.706903 11.4179688,128.348828 C12.0839877,127.990753 12.8430947,127.811719 13.6953125,127.811719 C15.0273504,127.811719 16.0245735,128.153675 16.6870117,128.837598 C17.3494499,129.52152 17.6806641,130.615422 17.6806641,132.119336 L17.6806641,139.8 L15.8974609,139.8 Z M28.5947266,139.8 L28.2402344,138.124219 L28.1542969,138.124219 C27.5670544,138.861853 26.981611,139.361359 26.3979492,139.622754 C25.8142874,139.884148 25.0856163,140.014844 24.2119141,140.014844 C23.0445905,140.014844 22.1297234,139.714066 21.4672852,139.1125 C20.8048469,138.510934 20.4736328,137.655149 20.4736328,136.545117 C20.4736328,134.167501 22.374981,132.92142 26.1777344,132.806836 L28.1757812,132.742383 L28.1757812,132.011914 C28.1757812,131.088081 27.9770528,130.405959 27.5795898,129.965527 C27.1821269,129.525095 26.5465538,129.304883 25.6728516,129.304883 C24.6917269,129.304883 23.5817119,129.605661 22.3427734,130.207227 L21.7949219,128.842969 C22.3750029,128.527863 23.010576,128.280795 23.7016602,128.101758 C24.3927443,127.92272 25.0856085,127.833203 25.7802734,127.833203 C27.1839263,127.833203 28.2241177,128.144723 28.9008789,128.767773 C29.5776401,129.390823 29.9160156,130.389837 29.9160156,131.764844 L29.9160156,139.8 L28.5947266,139.8 Z M24.5664062,138.543164 C25.6764378,138.543164 26.5483367,138.238805 27.1821289,137.630078 C27.8159211,137.021351 28.1328125,136.169146 28.1328125,135.073437 L28.1328125,134.009961 L26.3496094,134.085156 C24.9316335,134.135287 23.9093456,134.355499 23.2827148,134.745801 C22.6560841,135.136102 22.3427734,135.74303 22.3427734,136.566602 C22.3427734,137.211136 22.5379212,137.701691 22.9282227,138.038281 C23.3185241,138.374871 23.8645798,138.543164 24.5664062,138.543164 L24.5664062,138.543164 Z M35.3515625,133.773633 C35.6595067,133.336782 36.1285776,132.763871 36.7587891,132.054883 L40.5615234,128.026562 L42.6777344,128.026562 L37.9082031,133.043164 L43.0107422,139.8 L40.8515625,139.8 L36.6943359,134.235547 L35.3515625,135.395703 L35.3515625,139.8 L33.5898438,139.8 L33.5898438,123.085156 L35.3515625,123.085156 L35.3515625,131.947461 C35.3515625,132.341343 35.322917,132.950061 35.265625,133.773633 L35.3515625,133.773633 Z M49.6708984,140.014844 C47.9306554,140.014844 46.5574595,139.484901 45.5512695,138.425 C44.5450796,137.365099 44.0419922,135.893434 44.0419922,134.009961 C44.0419922,132.112165 44.5092727,130.604693 45.4438477,129.4875 C46.3784226,128.370307 47.6334557,127.811719 49.2089844,127.811719 C50.6842522,127.811719 51.8515582,128.296903 52.7109375,129.267285 C53.5703168,130.237668 54,131.517765 54,133.107617 L54,134.235547 L45.8896484,134.235547 C45.9254559,135.617715 46.2745735,136.666858 46.9370117,137.383008 C47.5994499,138.099157 48.5322205,138.457227 49.7353516,138.457227 C51.002936,138.457227 52.2561787,138.192255 53.4951172,137.662305 L53.4951172,139.252148 C52.8649057,139.524285 52.2687203,139.719433 51.706543,139.837598 C51.1443657,139.955762 50.4658243,140.014844 49.6708984,140.014844 L49.6708984,140.014844 Z M49.1875,129.304883 C48.2421828,129.304883 47.4884468,129.612822 46.9262695,130.228711 C46.3640922,130.844599 46.0328781,131.696804 45.9326172,132.785352 L52.0878906,132.785352 C52.0878906,131.660997 51.8372421,130.79984 51.3359375,130.201855 C50.8346329,129.603871 50.1184942,129.304883 49.1875,129.304883 L49.1875,129.304883 Z M68.0615234,129.412305 L65.0644531,129.412305 L65.0644531,139.8 L63.28125,139.8 L63.28125,129.412305 L61.1757812,129.412305 L61.1757812,128.606641 L63.28125,127.962109 L63.28125,127.306836 C63.28125,124.413592 64.5452348,122.966992 67.0732422,122.966992 C67.6962922,122.966992 68.4267536,123.092316 69.2646484,123.342969 L68.8027344,124.77168 C68.1152309,124.549673 67.5279972,124.438672 67.0410156,124.438672 C66.3678352,124.438672 65.8701188,124.662465 65.5478516,125.110059 C65.2255843,125.557652 65.0644531,126.275581 65.0644531,127.263867 L65.0644531,128.026562 L68.0615234,128.026562 L68.0615234,129.412305 Z M80.3720703,133.902539 C80.3720703,135.821819 79.8886767,137.32034 78.921875,138.398145 C77.9550733,139.475949 76.6194747,140.014844 74.9150391,140.014844 C73.8622994,140.014844 72.9277385,139.767776 72.1113281,139.273633 C71.2949178,138.77949 70.6647158,138.070512 70.2207031,137.14668 C69.7766905,136.222847 69.5546875,135.141478 69.5546875,133.902539 C69.5546875,131.983259 70.0345004,130.488319 70.9941406,129.417676 C71.9537808,128.347032 73.2857988,127.811719 74.9902344,127.811719 C76.637378,127.811719 77.9461215,128.359565 78.9165039,129.455273 C79.8868864,130.550982 80.3720703,132.033389 80.3720703,133.902539 L80.3720703,133.902539 Z M71.4023438,133.902539 C71.4023438,135.406453 71.703122,136.552275 72.3046875,137.340039 C72.906253,138.127803 73.7906843,138.52168 74.9580078,138.52168 C76.1253314,138.52168 77.011553,138.129594 77.6166992,137.34541 C78.2218455,136.561227 78.5244141,135.413614 78.5244141,133.902539 C78.5244141,132.405787 78.2218455,131.268917 77.6166992,130.491895 C77.011553,129.714872 76.11817,129.326367 74.9365234,129.326367 C73.7691999,129.326367 72.8883493,129.709501 72.2939453,130.475781 C71.6995413,131.242061 71.4023438,132.384302 71.4023438,133.902539 L71.4023438,133.902539 Z M88.8691406,127.811719 C89.3919297,127.811719 89.8610005,127.854687 90.2763672,127.940625 L90.0292969,129.594922 C89.5423153,129.487499 89.1126321,129.433789 88.7402344,129.433789 C87.7877557,129.433789 86.9731479,129.820504 86.2963867,130.593945 C85.6196255,131.367387 85.28125,132.330593 85.28125,133.483594 L85.28125,139.8 L83.4980469,139.8 L83.4980469,128.026562 L84.9697266,128.026562 L85.1738281,130.207227 L85.2597656,130.207227 C85.6966168,129.440947 86.2229787,128.850132 86.8388672,128.434766 C87.4547557,128.019399 88.1315067,127.811719 88.8691406,127.811719 L88.8691406,127.811719 Z M103.166992,140.014844 C101.426749,140.014844 100.053553,139.484901 99.0473633,138.425 C98.0411734,137.365099 97.5380859,135.893434 97.5380859,134.009961 C97.5380859,132.112165 98.0053664,130.604693 98.9399414,129.4875 C99.8745164,128.370307 101.129549,127.811719 102.705078,127.811719 C104.180346,127.811719 105.347652,128.296903 106.207031,129.267285 C107.066411,130.237668 107.496094,131.517765 107.496094,133.107617 L107.496094,134.235547 L99.3857422,134.235547 C99.4215497,135.617715 99.7706673,136.666858 100.433105,137.383008 C101.095544,138.099157 102.028314,138.457227 103.231445,138.457227 C104.49903,138.457227 105.752272,138.192255 106.991211,137.662305 L106.991211,139.252148 C106.360999,139.524285 105.764814,139.719433 105.202637,139.837598 C104.640459,139.955762 103.961918,140.014844 103.166992,140.014844 L103.166992,140.014844 Z M102.683594,129.304883 C101.738277,129.304883 100.984541,129.612822 100.422363,130.228711 C99.860186,130.844599 99.5289719,131.696804 99.4287109,132.785352 L105.583984,132.785352 C105.583984,131.660997 105.333336,130.79984 104.832031,130.201855 C104.330727,129.603871 103.614588,129.304883 102.683594,129.304883 L102.683594,129.304883 Z M117.776367,139.8 L117.421875,138.124219 L117.335938,138.124219 C116.748695,138.861853 116.163252,139.361359 115.57959,139.622754 C114.995928,139.884148 114.267257,140.014844 113.393555,140.014844 C112.226231,140.014844 111.311364,139.714066 110.648926,139.1125 C109.986488,138.510934 109.655273,137.655149 109.655273,136.545117 C109.655273,134.167501 111.556622,132.92142 115.359375,132.806836 L117.357422,132.742383 L117.357422,132.011914 C117.357422,131.088081 117.158693,130.405959 116.76123,129.965527 C116.363768,129.525095 115.728194,129.304883 114.854492,129.304883 C113.873367,129.304883 112.763353,129.605661 111.524414,130.207227 L110.976562,128.842969 C111.556644,128.527863 112.192217,128.280795 112.883301,128.101758 C113.574385,127.92272 114.267249,127.833203 114.961914,127.833203 C116.365567,127.833203 117.405758,128.144723 118.08252,128.767773 C118.759281,129.390823 119.097656,130.389837 119.097656,131.764844 L119.097656,139.8 L117.776367,139.8 Z M113.748047,138.543164 C114.858078,138.543164 115.729977,138.238805 116.36377,137.630078 C116.997562,137.021351 117.314453,136.169146 117.314453,135.073437 L117.314453,134.009961 L115.53125,134.085156 C114.113274,134.135287 113.090986,134.355499 112.464355,134.745801 C111.837725,135.136102 111.524414,135.74303 111.524414,136.566602 C111.524414,137.211136 111.719562,137.701691 112.109863,138.038281 C112.500165,138.374871 113.04622,138.543164 113.748047,138.543164 L113.748047,138.543164 Z M130.366211,136.588086 C130.366211,137.683795 129.958012,138.528838 129.141602,139.123242 C128.325191,139.717646 127.179369,140.014844 125.704102,140.014844 C124.142896,140.014844 122.92546,139.767776 122.051758,139.273633 L122.051758,137.619336 C122.617516,137.905796 123.224443,138.131379 123.872559,138.296094 C124.520674,138.460808 125.145505,138.543164 125.74707,138.543164 C126.678065,138.543164 127.394203,138.394565 127.895508,138.097363 C128.396812,137.800161 128.647461,137.347204 128.647461,136.738477 C128.647461,136.280141 128.448732,135.888055 128.05127,135.562207 C127.653807,135.236359 126.878586,134.851435 125.725586,134.407422 C124.629877,133.999217 123.851077,133.642938 123.38916,133.338574 C122.927244,133.034211 122.583497,132.688674 122.35791,132.301953 C122.132323,131.915232 122.019531,131.453323 122.019531,130.916211 C122.019531,129.956571 122.409827,129.199254 123.19043,128.644238 C123.971033,128.089222 125.04166,127.811719 126.402344,127.811719 C127.669928,127.811719 128.908848,128.069529 130.119141,128.585156 L129.485352,130.035352 C128.303705,129.54837 127.233078,129.304883 126.273438,129.304883 C125.428381,129.304883 124.791018,129.437368 124.361328,129.702344 C123.931638,129.967319 123.716797,130.33255 123.716797,130.798047 C123.716797,131.113153 123.797362,131.381705 123.958496,131.603711 C124.11963,131.825717 124.37923,132.036978 124.737305,132.2375 C125.095379,132.438022 125.782873,132.728058 126.799805,133.107617 C128.196296,133.616083 129.139809,134.128122 129.630371,134.64375 C130.120933,135.159378 130.366211,135.807483 130.366211,136.588086 L130.366211,136.588086 Z M131.397461,128.026562 L133.30957,128.026562 L135.887695,134.74043 C136.453453,136.272989 136.804361,137.379424 136.94043,138.059766 L137.026367,138.059766 C137.119467,137.694529 137.314614,137.069698 137.611816,136.185254 C137.909018,135.300809 138.881177,132.581273 140.52832,128.026562 L142.44043,128.026562 L137.380859,141.432812 C136.879555,142.757689 136.294111,143.697621 135.624512,144.252637 C134.954912,144.807653 134.133143,145.085156 133.15918,145.085156 C132.614906,145.085156 132.077802,145.024284 131.547852,144.902539 L131.547852,143.473828 C131.941734,143.559766 132.382159,143.602734 132.869141,143.602734 C134.093756,143.602734 134.967445,142.915241 135.490234,141.540234 L136.145508,139.864453 L131.397461,128.026562 Z M155.438477,127.811719 C155.961266,127.811719 156.430336,127.854687 156.845703,127.940625 L156.598633,129.594922 C156.111651,129.487499 155.681968,129.433789 155.30957,129.433789 C154.357092,129.433789 153.542484,129.820504 152.865723,130.593945 C152.188961,131.367387 151.850586,132.330593 151.850586,133.483594 L151.850586,139.8 L150.067383,139.8 L150.067383,128.026562 L151.539062,128.026562 L151.743164,130.207227 L151.829102,130.207227 C152.265953,129.440947 152.792315,128.850132 153.408203,128.434766 C154.024092,128.019399 154.700843,127.811719 155.438477,127.811719 L155.438477,127.811719 Z M163.581055,140.014844 C161.840812,140.014844 160.467616,139.484901 159.461426,138.425 C158.455236,137.365099 157.952148,135.893434 157.952148,134.009961 C157.952148,132.112165 158.419429,130.604693 159.354004,129.4875 C160.288579,128.370307 161.543612,127.811719 163.119141,127.811719 C164.594408,127.811719 165.761714,128.296903 166.621094,129.267285 C167.480473,130.237668 167.910156,131.517765 167.910156,133.107617 L167.910156,134.235547 L159.799805,134.235547 C159.835612,135.617715 160.18473,136.666858 160.847168,137.383008 C161.509606,138.099157 162.442377,138.457227 163.645508,138.457227 C164.913092,138.457227 166.166335,138.192255 167.405273,137.662305 L167.405273,139.252148 C166.775062,139.524285 166.178877,139.719433 165.616699,139.837598 C165.054522,139.955762 164.375981,140.014844 163.581055,140.014844 L163.581055,140.014844 Z M163.097656,129.304883 C162.152339,129.304883 161.398603,129.612822 160.836426,130.228711 C160.274248,130.844599 159.943034,131.696804 159.842773,132.785352 L165.998047,132.785352 C165.998047,131.660997 165.747398,130.79984 165.246094,130.201855 C164.744789,129.603871 164.02865,129.304883 163.097656,129.304883 L163.097656,129.304883 Z M178.19043,139.8 L177.835938,138.124219 L177.75,138.124219 C177.162757,138.861853 176.577314,139.361359 175.993652,139.622754 C175.409991,139.884148 174.681319,140.014844 173.807617,140.014844 C172.640294,140.014844 171.725426,139.714066 171.062988,139.1125 C170.40055,138.510934 170.069336,137.655149 170.069336,136.545117 C170.069336,134.167501 171.970684,132.92142 175.773438,132.806836 L177.771484,132.742383 L177.771484,132.011914 C177.771484,131.088081 177.572756,130.405959 177.175293,129.965527 C176.77783,129.525095 176.142257,129.304883 175.268555,129.304883 C174.28743,129.304883 173.177415,129.605661 171.938477,130.207227 L171.390625,128.842969 C171.970706,128.527863 172.606279,128.280795 173.297363,128.101758 C173.988447,127.92272 174.681312,127.833203 175.375977,127.833203 C176.779629,127.833203 177.819821,128.144723 178.496582,128.767773 C179.173343,129.390823 179.511719,130.389837 179.511719,131.764844 L179.511719,139.8 L178.19043,139.8 Z M174.162109,138.543164 C175.272141,138.543164 176.14404,138.238805 176.777832,137.630078 C177.411624,137.021351 177.728516,136.169146 177.728516,135.073437 L177.728516,134.009961 L175.945312,134.085156 C174.527337,134.135287 173.505049,134.355499 172.878418,134.745801 C172.251787,135.136102 171.938477,135.74303 171.938477,136.566602 C171.938477,137.211136 172.133624,137.701691 172.523926,138.038281 C172.914227,138.374871 173.460283,138.543164 174.162109,138.543164 L174.162109,138.543164 Z M191.199219,138.220898 L191.102539,138.220898 C190.278967,139.416868 189.047209,140.014844 187.407227,140.014844 C185.867505,140.014844 184.669763,139.488482 183.813965,138.435742 C182.958166,137.383003 182.530273,135.886273 182.530273,133.945508 C182.530273,132.004743 182.959957,130.497271 183.819336,129.423047 C184.678715,128.348823 185.874667,127.811719 187.407227,127.811719 C189.00424,127.811719 190.228837,128.391791 191.081055,129.551953 L191.220703,129.551953 L191.145508,128.70332 L191.102539,127.876172 L191.102539,123.085156 L192.885742,123.085156 L192.885742,139.8 L191.435547,139.8 L191.199219,138.220898 Z M187.632812,138.52168 C188.850267,138.52168 189.732907,138.190466 190.280762,137.528027 C190.828616,136.865589 191.102539,135.796752 191.102539,134.321484 L191.102539,133.945508 C191.102539,132.27688 190.825035,131.086299 190.27002,130.37373 C189.715004,129.661162 188.828782,129.304883 187.611328,129.304883 C186.56575,129.304883 185.765465,129.711292 185.210449,130.524121 C184.655433,131.336951 184.37793,132.484563 184.37793,133.966992 C184.37793,135.470906 184.653643,136.605986 185.205078,137.372266 C185.756513,138.138545 186.56575,138.52168 187.632812,138.52168 L187.632812,138.52168 Z M198.450195,139.8 L196.666992,139.8 L196.666992,128.026562 L198.450195,128.026562 L198.450195,139.8 Z M196.516602,124.836133 C196.516602,124.427928 196.616861,124.12894 196.817383,123.93916 C197.017905,123.749381 197.268553,123.654492 197.569336,123.654492 C197.855796,123.654492 198.102864,123.751171 198.310547,123.944531 C198.51823,124.137892 198.62207,124.435089 198.62207,124.836133 C198.62207,125.237176 198.51823,125.536164 198.310547,125.733105 C198.102864,125.930047 197.855796,126.028516 197.569336,126.028516 C197.268553,126.028516 197.017905,125.930047 196.817383,125.733105 C196.616861,125.536164 196.516602,125.237176 196.516602,124.836133 L196.516602,124.836133 Z M210.288086,139.8 L210.288086,132.183789 C210.288086,131.224149 210.069664,130.50801 209.632812,130.035352 C209.195961,129.562693 208.512049,129.326367 207.581055,129.326367 C206.349278,129.326367 205.446943,129.659372 204.874023,130.325391 C204.301104,130.99141 204.014648,132.090682 204.014648,133.623242 L204.014648,139.8 L202.231445,139.8 L202.231445,128.026562 L203.681641,128.026562 L203.97168,129.637891 L204.057617,129.637891 C204.422853,129.05781 204.934893,128.608433 205.59375,128.289746 C206.252607,127.97106 206.98665,127.811719 207.795898,127.811719 C209.213874,127.811719 210.280921,128.153675 210.99707,128.837598 C211.71322,129.52152 212.071289,130.615422 212.071289,132.119336 L212.071289,139.8 L210.288086,139.8 Z M225.370117,128.026562 L225.370117,129.154492 L223.189453,129.412305 C223.389975,129.662957 223.56901,129.99059 223.726562,130.395215 C223.884115,130.799839 223.962891,131.256378 223.962891,131.764844 C223.962891,132.917844 223.569014,133.838082 222.78125,134.525586 C221.993486,135.213089 220.912116,135.556836 219.537109,135.556836 C219.186196,135.556836 218.856772,135.52819 218.548828,135.470898 C217.78971,135.871942 217.410156,136.37682 217.410156,136.985547 C217.410156,137.307814 217.542642,137.54593 217.807617,137.699902 C218.072592,137.853874 218.527341,137.930859 219.171875,137.930859 L221.255859,137.930859 C222.530605,137.930859 223.509925,138.199411 224.193848,138.736523 C224.87777,139.273635 225.219727,140.054227 225.219727,141.07832 C225.219727,142.381712 224.696945,143.375355 223.651367,144.059277 C222.605789,144.7432 221.080414,145.085156 219.075195,145.085156 C217.535474,145.085156 216.348474,144.798701 215.51416,144.225781 C214.679846,143.652862 214.262695,142.843625 214.262695,141.798047 C214.262695,141.081897 214.49186,140.462438 214.950195,139.939648 C215.408531,139.416859 216.053056,139.062371 216.883789,138.876172 C216.583006,138.740103 216.330567,138.528843 216.126465,138.242383 C215.922362,137.955923 215.820312,137.622919 215.820312,137.243359 C215.820312,136.81367 215.934895,136.437697 216.164062,136.11543 C216.39323,135.793162 216.75488,135.481642 217.249023,135.180859 C216.640296,134.930207 216.14437,134.504105 215.76123,133.902539 C215.378091,133.300974 215.186523,132.61348 215.186523,131.840039 C215.186523,130.55097 215.573238,129.557328 216.34668,128.859082 C217.120121,128.160836 218.215813,127.811719 219.633789,127.811719 C220.249678,127.811719 220.804685,127.883333 221.298828,128.026562 L225.370117,128.026562 Z M215.981445,141.776562 C215.981445,142.413935 216.249997,142.897329 216.787109,143.226758 C217.324221,143.556187 218.094071,143.720898 219.09668,143.720898 C220.593432,143.720898 221.701657,143.497105 222.421387,143.049512 C223.141117,142.601918 223.500977,141.994991 223.500977,141.228711 C223.500977,140.591338 223.304038,140.149122 222.910156,139.902051 C222.516274,139.654979 221.775071,139.531445 220.686523,139.531445 L218.548828,139.531445 C217.739579,139.531445 217.109377,139.724803 216.658203,140.111523 C216.207029,140.498244 215.981445,141.053252 215.981445,141.776562 L215.981445,141.776562 Z M216.948242,131.79707 C216.948242,132.620642 217.180987,133.243683 217.646484,133.666211 C218.111981,134.088739 218.760087,134.3 219.59082,134.3 C221.331063,134.3 222.201172,133.454956 222.201172,131.764844 C222.201172,129.995955 221.320321,129.111523 219.558594,129.111523 C218.720699,129.111523 218.076174,129.337107 217.625,129.788281 C217.173826,130.239455 216.948242,130.909045 216.948242,131.79707 L216.948242,131.79707 Z M227.529297,138.661328 C227.529297,138.181508 227.638508,137.818068 227.856934,137.570996 C228.075359,137.323925 228.38867,137.200391 228.796875,137.200391 C229.212242,137.200391 229.536294,137.323925 229.769043,137.570996 C230.001792,137.818068 230.118164,138.181508 230.118164,138.661328 C230.118164,139.126825 230.000001,139.484895 229.763672,139.735547 C229.527343,139.986199 229.20508,140.111523 228.796875,140.111523 C228.431639,140.111523 228.12907,139.998732 227.88916,139.773145 C227.64925,139.547557 227.529297,139.176956 227.529297,138.661328 L227.529297,138.661328 Z" id="Theme-Description" fill="#4A4A4A"></path>
                    <path d="M0.401367188,48.0185547 L3.95605469,47.5058594 L19.0976562,4.234375 L29.3173828,4.234375 L44.3564453,47.5058594 L47.9111328,48.0185547 L47.9111328,54 L30.9580078,54 L30.9580078,48.0185547 L34.4101562,47.4033203 L32.2226562,40.5673828 L16.0898438,40.5673828 L13.9023438,47.4033203 L17.3544922,48.0185547 L17.3544922,54 L0.401367188,54 L0.401367188,48.0185547 Z M18.4482422,33.21875 L29.8642578,33.21875 L24.2587891,15.6845703 L24.0537109,15.6845703 L18.4482422,33.21875 Z M87.1835938,36.5341797 C87.1835938,42.0485302 85.9531373,46.4576658 83.4921875,49.7617188 C81.0312377,53.0657717 77.4765857,54.7177734 72.828125,54.7177734 C70.6634006,54.7177734 68.7835366,54.2677454 67.1884766,53.3676758 C65.5934165,52.4676062 64.2490289,51.1630945 63.1552734,49.4541016 L62.4375,54 L53.8242188,54 L53.8242188,7.72070313 L48.5263672,6.6953125 L48.5263672,0.6796875 L63.7705078,0.6796875 L63.7705078,20.9482422 C64.8414767,19.467115 66.1232022,18.3278035 67.6157227,17.5302734 C69.1082431,16.7327434 70.822907,16.3339844 72.7597656,16.3339844 C77.4537995,16.3339844 81.0312377,18.1056138 83.4921875,21.6489258 C85.9531373,25.1922378 87.1835938,29.914684 87.1835938,35.8164062 L87.1835938,36.5341797 Z M77.2373047,35.8164062 C77.2373047,32.2161278 76.7075248,29.3621525 75.6479492,27.2543945 C74.5883736,25.1466366 72.7825648,24.0927734 70.2304688,24.0927734 C68.6809818,24.0927734 67.3707736,24.4174772 66.2998047,25.0668945 C65.2288358,25.7163118 64.3857453,26.6448507 63.7705078,27.8525391 L63.7705078,43.4726562 C64.3857453,44.6119849 65.2345323,45.4778616 66.3168945,46.0703125 C67.3992567,46.6627634 68.7265546,46.9589844 70.2988281,46.9589844 C72.8737108,46.9589844 74.673823,46.0532317 75.6992188,44.2416992 C76.7246145,42.4301667 77.2373047,39.8610192 77.2373047,36.5341797 L77.2373047,35.8164062 Z M109.161133,47.0615234 C110.938485,47.0615234 112.362625,46.5431367 113.433594,45.5063477 C114.504563,44.4695586 115.040039,43.0852951 115.040039,41.3535156 L124.063477,41.3535156 L124.166016,41.5585938 C124.257162,45.2955916 122.855809,48.4230017 119.961914,50.940918 C117.068019,53.4588342 113.467795,54.7177734 109.161133,54.7177734 C103.646782,54.7177734 99.3971503,52.9746268 96.4121094,49.4882812 C93.4270684,46.0019357 91.9345703,41.5244414 91.9345703,36.0556641 L91.9345703,35.0302734 C91.9345703,29.5842827 93.4669443,25.1067884 96.5317383,21.5976562 C99.5965323,18.0885241 103.965792,16.3339844 109.639648,16.3339844 C112.624689,16.3339844 115.302071,16.7783159 117.671875,17.6669922 C120.041679,18.5556685 122.012687,19.8089112 123.584961,21.4267578 L123.72168,31.3046875 L115.621094,31.3046875 L113.980469,25.5283203 C113.479164,25.0953754 112.863936,24.7364923 112.134766,24.4516602 C111.405595,24.166828 110.573898,24.0244141 109.639648,24.0244141 C106.814113,24.0244141 104.820318,25.0497944 103.658203,27.1005859 C102.496088,29.1513774 101.915039,31.7945802 101.915039,35.0302734 L101.915039,36.0556641 C101.915039,39.359717 102.450515,42.0200094 103.521484,44.0366211 C104.592453,46.0532327 106.472317,47.0615234 109.161133,47.0615234 L109.161133,47.0615234 Z" id="Abc" fill="#E24716"></path>
                </g>
            </g>
        </g>
    </g>
</svg>