<?xml version="1.0" encoding="UTF-8" standalone="no"?>
<svg width="68px" height="15px" viewBox="0 0 68 15" version="1.1" xmlns="http://www.w3.org/2000/svg" xmlns:xlink="http://www.w3.org/1999/xlink">
    <!-- Generator: Sketch 3.7.2 (28276) - http://www.bohemiancoding.com/sketch -->
    <title>socrata-logo-pb-mini</title>
    <desc>Created with Sketch.</desc>
    <defs></defs>
    <g id="Page-1" stroke="none" stroke-width="1" fill="none" fill-rule="evenodd">
        <g id="socrata-logo-pb-mini">
            <g id="Layer_1" transform="translate(16.875000, 0.937500)" fill="#646569">
                <g id="Group">
                    <path d="M6.1875,2.34375 C5.34375,2.015625 4.875,1.875 4.03125,1.875 C3.09375,1.875 2.015625,2.203125 2.015625,3.421875 C2.015625,5.625 6.984375,5.109375 6.984375,8.953125 C6.984375,11.4375 5.0625,12.375 2.765625,12.375 C1.96875,12.375 1.171875,12.140625 0.421875,11.90625 L0.609375,10.359375 C1.171875,10.59375 2.15625,10.921875 3,10.921875 C3.9375,10.921875 5.25,10.40625 5.25,9.046875 C5.25,6.46875 0.28125,7.171875 0.28125,3.5625 C0.28125,1.5 1.921875,0.421875 3.984375,0.421875 C4.734375,0.421875 5.671875,0.5625 6.46875,0.84375 L6.1875,2.34375 L6.1875,2.34375 Z" id="Shape"></path>
                    <path d="M12.046875,3.515625 C14.625,3.515625 16.3125,5.390625 16.3125,7.921875 C16.3125,10.359375 14.578125,12.328125 12.046875,12.328125 C9.515625,12.328125 7.734375,10.3125 7.734375,7.921875 C7.734375,5.34375 9.46875,3.515625 12.046875,3.515625 L12.046875,3.515625 Z M12.046875,11.109375 C13.875,11.109375 14.671875,9.46875 14.671875,7.96875 C14.671875,6.375 13.6875,4.828125 12.046875,4.828125 C10.359375,4.828125 9.421875,6.375 9.421875,7.96875 C9.375,9.421875 10.21875,11.109375 12.046875,11.109375 L12.046875,11.109375 Z" id="Shape"></path>
                    <path d="M23.015625,5.109375 C22.40625,4.875 21.84375,4.734375 21.328125,4.734375 C19.59375,4.734375 18.609375,6.28125 18.609375,7.875 C18.609375,9.375 19.40625,11.015625 21.421875,11.015625 C21.9375,11.015625 22.59375,10.828125 23.109375,10.546875 L23.203125,11.953125 C22.546875,12.234375 21.796875,12.28125 21.234375,12.28125 C18.703125,12.28125 16.921875,10.265625 16.921875,7.875 C16.921875,5.296875 18.65625,3.46875 21.234375,3.46875 C21.84375,3.46875 22.6875,3.609375 23.109375,3.796875 L23.015625,5.109375 L23.015625,5.109375 Z" id="Shape"></path>
                    <path d="M24.28125,3.703125 L25.734375,3.703125 L25.734375,5.015625 L25.78125,5.015625 C26.203125,4.125 27.09375,3.515625 27.984375,3.515625 C28.453125,3.515625 28.6875,3.5625 29.015625,3.609375 L29.015625,5.015625 C28.734375,4.921875 28.40625,4.875 28.171875,4.875 C26.765625,4.875 25.875,6.1875 25.875,8.296875 L25.875,12.140625 L24.328125,12.140625 L24.328125,3.703125 L24.28125,3.703125 Z" id="Shape"></path>
                    <path d="M30.375,4.3125 C31.171875,3.84375 32.0625,3.515625 33.140625,3.515625 C35.578125,3.515625 36.515625,4.6875 36.515625,6.984375 L36.515625,10.5 C36.515625,11.4375 36.5625,11.90625 36.5625,12.140625 L35.15625,12.140625 L35.15625,11.0625 L35.109375,11.0625 C34.734375,11.578125 33.9375,12.375 32.484375,12.375 C30.65625,12.375 29.390625,11.578125 29.390625,9.75 C29.390625,7.640625 31.6875,6.984375 33.328125,6.984375 C33.9375,6.984375 34.359375,6.984375 34.96875,7.03125 C34.96875,5.578125 34.453125,4.828125 32.90625,4.828125 C32.015625,4.828125 31.078125,5.15625 30.46875,5.671875 L30.375,4.3125 L30.375,4.3125 Z M34.96875,8.109375 C34.640625,8.109375 34.3125,8.0625 33.984375,8.0625 C33.140625,8.0625 31.078125,8.203125 31.078125,9.703125 C31.078125,10.59375 31.921875,11.0625 32.671875,11.0625 C34.21875,11.0625 35.015625,10.125 35.015625,8.859375 L35.015625,8.109375 L34.96875,8.109375 Z" id="Shape"></path>
                    <path d="M42.9375,4.96875 L40.6875,4.96875 L40.6875,9.609375 C40.6875,10.59375 41.296875,11.109375 42,11.109375 C42.46875,11.109375 42.84375,10.96875 43.078125,10.828125 L43.078125,12.140625 C42.75,12.234375 42.234375,12.375 41.765625,12.375 C40.171875,12.375 39.1875,11.625 39.1875,9.9375 L39.1875,4.96875 L37.265625,4.96875 L37.265625,3.703125 L39.1875,3.703125 L39.1875,1.734375 L40.734375,1.21875 L40.734375,3.65625 L42.984375,3.65625 L42.984375,4.96875 L42.9375,4.96875 Z" id="Shape"></path>
                    <path d="M44.53125,4.3125 C45.328125,3.84375 46.21875,3.515625 47.296875,3.515625 C49.734375,3.515625 50.671875,4.6875 50.671875,6.984375 L50.671875,10.5 C50.671875,11.4375 50.71875,11.90625 50.71875,12.140625 L49.265625,12.140625 L49.265625,11.0625 L49.21875,11.0625 C48.84375,11.578125 48.046875,12.375 46.59375,12.375 C44.765625,12.375 43.5,11.578125 43.5,9.75 C43.5,7.640625 45.796875,6.984375 47.4375,6.984375 C48.046875,6.984375 48.46875,6.984375 49.078125,7.03125 C49.078125,5.578125 48.5625,4.828125 47.015625,4.828125 C46.125,4.828125 45.1875,5.15625 44.578125,5.671875 L44.53125,4.3125 L44.53125,4.3125 Z M49.125,8.109375 C48.796875,8.109375 48.46875,8.0625 48.140625,8.0625 C47.296875,8.0625 45.234375,8.203125 45.234375,9.703125 C45.234375,10.59375 46.078125,11.0625 46.828125,11.0625 C48.375,11.0625 49.171875,10.125 49.171875,8.859375 L49.171875,8.109375 L49.125,8.109375 Z" id="Shape"></path>
                </g>
            </g>
            <g id="Layer_2">
                <path d="M14.109375,4.6875 L13.96875,4.78125 L13.125,5.109375 C13.5,5.90625 13.6875,6.75 13.6875,7.6875 C13.6875,11.0625 10.921875,13.828125 7.546875,13.828125 C4.171875,13.828125 1.40625,11.0625 1.40625,7.6875 C1.40625,4.3125 4.171875,1.546875 7.546875,1.546875 C8.25,1.546875 8.953125,1.6875 9.5625,1.875 L9.84375,1.03125 L9.890625,0.84375 C9.1875,0.65625 8.390625,0.46875 7.546875,0.46875 C3.609375,0.46875 0.375,3.703125 0.375,7.6875 C0.375,11.671875 3.609375,14.90625 7.59375,14.90625 C11.578125,14.90625 14.8125,11.671875 14.8125,7.6875 C14.765625,6.609375 14.53125,5.578125 14.109375,4.6875 L14.109375,4.6875 Z" id="Shape" fill="#298DC1"></path>
                <path d="M9.234375,2.953125 C8.71875,2.765625 8.15625,2.671875 7.59375,2.671875 C4.78125,2.671875 2.484375,4.921875 2.484375,7.6875 C2.484375,10.453125 4.78125,12.703125 7.59375,12.703125 C10.40625,12.703125 12.703125,10.453125 12.703125,7.6875 C12.703125,6.9375 12.515625,6.234375 12.234375,5.578125 L12.09375,5.671875 L11.25,6.046875 C11.484375,6.5625 11.625,7.078125 11.625,7.6875 C11.625,9.84375 9.84375,11.625 7.640625,11.625 C5.4375,11.625 3.65625,9.84375 3.65625,7.6875 C3.65625,5.53125 5.4375,3.75 7.640625,3.75 C8.109375,3.75 8.53125,3.84375 8.953125,3.984375 L9.234375,3.140625 L9.234375,2.953125 L9.234375,2.953125 Z" id="Shape" fill="#298DC1"></path>
                <path d="M7.546875,9.5625 C6.46875,9.5625 5.625,8.71875 5.625,7.640625 C5.625,6.5625 6.46875,5.71875 7.546875,5.71875 C7.78125,5.71875 8.015625,5.765625 8.203125,5.859375 L8.53125,4.875 C8.203125,4.78125 7.875,4.6875 7.5,4.6875 C5.859375,4.6875 4.5,6 4.5,7.6875 C4.5,9.328125 5.859375,10.6875 7.5,10.6875 C9.140625,10.6875 10.5,9.375 10.5,7.6875 L10.5,7.6875 C10.5,7.265625 10.40625,6.890625 10.265625,6.5625 L9.328125,7.03125 C9.421875,7.265625 9.46875,7.453125 9.46875,7.734375 C9.46875,8.671875 8.625,9.515625 7.546875,9.5625 L7.546875,9.5625 Z" id="Shape" fill="#298DC1"></path>
                <path d="M9.046875,6.09375 L14.4375,3.515625 C13.640625,2.15625 12.421875,1.078125 11.015625,0.421875 L9.046875,6.09375 L9.046875,6.09375 Z" id="Shape" fill="#E28432"></path>
            </g>
        </g>
    </g>
</svg>