<?xml version="1.0" encoding="UTF-8" standalone="no"?>
<svg width="166px" height="118px" viewBox="0 0 166 118" version="1.1" xmlns="http://www.w3.org/2000/svg" xmlns:xlink="http://www.w3.org/1999/xlink">
    <defs></defs>
    <g id="Welcome" stroke="none" stroke-width="1" fill="none" fill-rule="evenodd">
        <g id="Blocks" transform="translate(-11.000000, -167.000000)">
            <g id="Magic-Block" transform="translate(11.000000, 167.000000)">
                <g id="Block-Frame" fill="#FFFFFF">
                    <rect id="Rectangle-6-Copy-20" x="0" y="0" width="165.236842" height="117.108098"></rect>
                </g>
                <rect id="Rectangle-6-Copy-14" stroke="#CCCCCC" stroke-dasharray="6,3" x="5" y="5" width="154.298129" height="107.265527"></rect>
                <path id="Path-35" stroke="#979797" d=""></path>
                <g id="Magic-Block-Icons" transform="translate(61.000000, 33.000000)" fill="#4A4A4A">
                    <path d="M6.73170732,30.4615385 C5.49307317,30.4615385 4.48780488,31.4724103 4.48780488,32.7179487 C4.48780488,33.9634872 5.49307317,34.974359 6.73170732,34.974359 C7.97034146,34.974359 8.97560976,33.9634872 8.97560976,32.7179487 C8.97560976,31.4724103 7.97034146,30.4615385 6.73170732,30.4615385" id="Fill-1"></path>
                    <path d="M14.5853659,38.3589744 L13.4634146,38.3589744 L13.4634146,32.7179487 C13.4634146,28.996 10.4341463,25.9487179 6.73170732,25.9487179 L3.36585366,25.9487179 C1.51463415,25.9487179 0,27.4717949 0,29.3333333 L0,36.1025641 C0,37.9641026 1.51463415,39.4871795 3.36585366,39.4871795 L14.5853659,39.4871795 C15.203561,39.4871795 15.7073171,39.9937436 15.7073171,40.6153846 C15.7073171,41.2392821 15.203561,41.7435897 14.5853659,41.7435897 L0,41.7435897 L0,44 L2.24390244,44 L3.36585366,42.8717949 L14.5853659,42.8717949 C15.824,42.8717949 16.8292683,41.8631795 16.8292683,40.6153846 C16.8292683,39.3709744 15.824,38.3589744 14.5853659,38.3589744 L14.5853659,38.3589744 Z M6.73170732,36.1025641 C4.876,36.1025641 3.36585366,34.584 3.36585366,32.7179487 C3.36585366,30.8518974 4.876,29.3333333 6.73170732,29.3333333 C8.58741463,29.3333333 10.097561,30.8518974 10.097561,32.7179487 C10.097561,34.584 8.58741463,36.1025641 6.73170732,36.1025641 L6.73170732,36.1025641 Z" id="Fill-2"></path>
                    <path d="M41.7971707,37.2443077 C40.2197073,37.9370256 38.1620488,38.3589744 35.902439,38.3589744 C33.6450732,38.3589744 31.5851707,37.9370256 30.0099512,37.2443077 L29.1707317,40.6153846 L29.2144878,40.6153846 L29.1707317,40.8974359 C29.1707317,42.2997949 32.1854146,43.4358974 35.902439,43.4358974 C39.6217073,43.4358974 42.6341463,42.2997949 42.6341463,40.8974359 L42.5903902,40.6153846 L42.6341463,40.6153846 L41.7971707,37.2443077" id="Fill-3"></path>
                    <path d="M35.902439,25.9487179 C30.9456585,25.9487179 26.9268293,27.7154872 26.9268293,29.8974359 C26.9268293,31.284 28.5547805,32.5024615 31.0140976,33.2064615 L30.520439,35.1898462 C32.0193659,35.7595897 33.8773171,36.1025641 35.902439,36.1025641 C37.927561,36.1025641 39.7855122,35.7595897 41.2866829,35.1898462 L40.7930244,33.2064615 C43.2500976,32.5024615 44.8780488,31.284 44.8780488,29.8974359 C44.8780488,27.7154872 40.8592195,25.9487179 35.902439,25.9487179 L35.902439,25.9487179 Z M36.1257073,31.5897436 C33.1525366,31.5897436 30.7414634,30.8315897 30.7414634,29.8974359 C30.7414634,28.9632821 33.1525366,28.2051282 36.1257073,28.2051282 C39.1022439,28.2051282 41.5121951,28.9632821 41.5121951,29.8974359 C41.5121951,30.8315897 39.1022439,31.5897436 36.1257073,31.5897436 L36.1257073,31.5897436 Z" id="Fill-4"></path>
                    <path d="M16.2682927,0 L15.1463415,0 C14.8378049,0 14.5853659,0.252717949 14.5853659,0.564102564 L14.5853659,2.25641026 L12.3414634,2.25641026 L12.3414634,0.564102564 C12.3414634,0.252717949 12.0912683,0 11.7804878,0 L10.6585366,0 C10.35,0 10.097561,0.252717949 10.097561,0.564102564 L10.097561,2.25641026 L7.85365854,2.25641026 L7.85365854,0.564102564 C7.85365854,0.252717949 7.60346341,0 7.29268293,0 L6.17073171,0 C5.86219512,0 5.6097561,0.252717949 5.6097561,0.564102564 L5.6097561,2.25641026 L3.36585366,2.25641026 L3.36585366,0.564102564 C3.36585366,0.252717949 3.11565854,0 2.80487805,0 L1.68292683,0 C1.37439024,0 1.12195122,0.252717949 1.12195122,0.564102564 L1.12195122,5.07692308 C1.12195122,5.38830769 1.37439024,5.64102564 1.68292683,5.64102564 L3.36585366,5.64102564 L2.30112195,17.4364103 C2.28541463,17.594359 2.33814634,17.7500513 2.44360976,17.8673846 C2.55019512,17.9847179 2.70165854,18.0512821 2.85760976,18.0512821 L7.85365854,18.0512821 L7.85365854,15.7948718 C7.85365854,15.1709744 8.35517073,14.6666667 8.97560976,14.6666667 C9.59604878,14.6666667 10.097561,15.1709744 10.097561,15.7948718 L10.097561,18.0512821 L14.4776585,18.0512821 C14.7929268,18.0512821 15.0958537,17.9181538 15.3079024,17.6834872 C15.5210732,17.4499487 15.6242927,17.1363077 15.595122,16.8204103 L14.5853659,5.64102564 L16.2682927,5.64102564 C16.5790732,5.64102564 16.8292683,5.38830769 16.8292683,5.07692308 L16.8292683,0.564102564 C16.8292683,0.252717949 16.5790732,0 16.2682927,0" id="Fill-5"></path>
                    <path d="M39.0394146,5.60266667 C39.0394146,5.60266667 36.8089756,7.01179487 34.4977561,8.47169231 L33.4520976,7.82184615 C33.3163415,7.73610256 33.2198537,7.59958974 33.1861951,7.44164103 C33.1536585,7.28482051 33.1850732,7.12010256 33.2748293,6.98471795 C34.0568293,5.63989744 33.6080488,3.91261538 32.2718049,3.12625641 C31.6771707,2.77764103 31.0107317,2.67271795 30.382439,2.78102564 C29.5937073,2.91753846 28.8689268,3.39025641 28.4336098,4.13712821 C27.6504878,5.48307692 28.1003902,7.21035897 29.4377561,7.99558974 C29.4545854,8.00574359 30.729122,8.81128205 32.3458537,9.83117949 C30.7324878,10.8510769 29.4545854,11.6577436 29.4377561,11.6667692 C28.1003902,12.4531282 27.6504878,14.1804103 28.4336098,15.5252308 C28.8689268,16.2732308 29.5937073,16.7459487 30.382439,16.8824615 C31.0107317,16.9907692 31.6771707,16.8858462 32.2718049,16.5372308 C33.6080488,15.7497436 34.0568293,14.0235897 33.2748293,12.677641 C33.1850732,12.5433846 33.1536585,12.3786667 33.1861951,12.2218462 C33.2198537,12.0638974 33.3163415,11.9262564 33.4520976,11.841641 L34.4977561,11.1917949 C34.8040488,11.3847179 36.2165854,12.2218462 36.5139024,12.4102564 L40.9040976,12.4102564 L36.6866829,9.83117949 L43.5070244,5.59138462 C42.1606829,4.82758974 40.4631707,4.76553846 39.0394146,5.60266667 L39.0394146,5.60266667 Z M31.7029756,15.5635897 C31.3562927,15.7666667 30.9658537,15.84 30.5709268,15.7711795 C30.0795122,15.6854359 29.6531707,15.3887179 29.4007317,14.9554872 C28.932878,14.1510769 29.2010244,13.1131282 30.0032195,12.6404103 C30.0492195,12.6144615 30.1008293,12.6088205 30.1490732,12.5873846 C30.4587317,12.4407179 30.7930732,12.3741538 31.1363902,12.4339487 C31.418,12.4824615 31.6738049,12.6065641 31.8925854,12.7814359 C32.0541463,12.9111795 32.198878,13.0646154 32.3043415,13.2485128 C32.7721951,14.0551795 32.5040488,15.0931282 31.7029756,15.5635897 L31.7029756,15.5635897 Z M32.3043415,6.41497436 C32.198878,6.59887179 32.0541463,6.75230769 31.8925854,6.88205128 C31.6738049,7.05579487 31.418,7.18102564 31.1363902,7.22953846 C30.7930732,7.28820513 30.4587317,7.22276923 30.1490732,7.07610256 C30.1008293,7.05466667 30.0492195,7.04902564 30.0032195,7.02307692 C29.2010244,6.55035897 28.932878,5.51241026 29.4007317,4.70687179 C29.6531707,4.27476923 30.0795122,3.97805128 30.5709268,3.89230769 C30.9658537,3.82348718 31.3562927,3.89682051 31.7029756,4.09876923 C32.5040488,4.57035897 32.7721951,5.60830769 32.3043415,6.41497436 L32.3043415,6.41497436 Z" id="Fill-6"></path>
                    <path d="M37.0243902,13.5384615 L39.2682927,13.5384615 L39.2682927,15.7948718 L37.0243902,15.7948718 L37.0243902,13.5384615 Z" id="Fill-7"></path>
                    <path d="M40.3902439,13.5384615 L42.6341463,13.5384615 L42.6341463,15.7948718 L40.3902439,15.7948718 L40.3902439,13.5384615 Z" id="Fill-8"></path>
                    <path d="M43.7560976,13.5384615 L46,13.5384615 L46,15.7948718 L43.7560976,15.7948718 L43.7560976,13.5384615 Z" id="Fill-9"></path>
                </g>
            </g>
        </g>
    </g>
</svg>