<?xml version="1.0" encoding="UTF-8" standalone="no"?>
<svg width="166px" height="118px" viewBox="0 0 166 118" version="1.1" xmlns="http://www.w3.org/2000/svg" xmlns:xlink="http://www.w3.org/1999/xlink">
    <defs></defs>
    <g id="Blocks" stroke="none" stroke-width="1" fill="none" fill-rule="evenodd">
        <g transform="translate(-11.000000, -588.000000)" id="text-media-4-8">
            <g transform="translate(11.000000, 588.000000)">
                <g id="Block-Frame" fill="#FFFFFF">
                    <rect id="Block-Border-Add-in-CSS" x="0" y="0" width="165.236842" height="117.108098"></rect>
                </g>
                <g id="Rectangle-6-Copy-21-+-Imported-Layers-Copy-2" transform="translate(58.000000, 6.000000)">
                    <rect id="Rectangle-6-Copy-21" stroke="#CCCCCC" stroke-dasharray="6,3" x="0.469148616" y="0.0857505622" width="100.530851" height="106.272328"></rect>
                    <g id="Imported-Layers-Copy-2" transform="translate(29.257260, 32.018978)" fill="#4A4A4A">
                        <path d="M0,35.7604529 L18.5499992,35.7604529 L18.5499992,20.8546577 L0,20.8546577 L0,35.7604529 Z M1.23666662,22.2099385 L17.3133326,22.2099385 L17.3133326,34.6138533 L1.23666662,34.6138533 L1.23666662,22.2099385 Z" id="Fill-1"></path>
                        <path d="M3.20290488,30.530812 C3.48353593,30.6810166 3.83722384,30.5778226 3.98913569,30.3003455 L4.87625453,28.6790536 L7.08419475,30.8381007 L9.36751107,28.5563674 L11.7459173,31.0112373 L14.4339453,25.6978945 C14.5765801,25.4146844 14.4617765,25.0695579 14.1741877,24.9285262 C13.8889181,24.788641 13.5398687,24.9010078 13.3972339,25.1842179 L11.4444128,29.0436723 L9.38142666,26.9121436 L7.07607732,29.2168088 L4.5933042,26.7894574 L2.96865912,29.7545641 C2.81558763,30.0320412 2.92111419,30.3817541 3.20290488,30.530812" id="Fill-2"></path>
                        <path d="M0,14.919858 L18.5541195,14.919858 L18.5541195,0.0140627158 L0,0.0140627158 L0,14.919858 Z M1.15963247,1.36246389 L17.394487,1.36246389 L17.394487,13.4866084 L1.15963247,13.4866084 L1.15963247,1.36246389 Z" id="Fill-3"></path>
                        <path d="M6.66324816,6.60242422 C7.62342384,6.60242422 8.4003776,5.83190927 8.4003776,4.88137817 C8.4003776,3.93199367 7.62342384,3.16262531 6.66324816,3.16262531 C5.70075321,3.16262531 4.92148019,3.93199367 4.92148019,4.88137817 C4.92148019,5.83190927 5.70075321,6.60242422 6.66324816,6.60242422" id="Fill-4"></path>
                        <path d="M15.0752221,7.32134219 L13.2383643,4.02716144 L10.7474737,9.35197015 L9.27705974,7.86597702 C9.27705974,7.86597702 7.24074513,8.61355998 6.57047756,9.76015962 C5.50129643,9.1868598 4.92148019,9.76015962 4.92148019,9.76015962 L3.4788974,11.4800591 L15.0752221,11.4800591 L15.0752221,7.32134219" id="Fill-5"></path>
                        <path d="M24.3522818,35.7604529 L42.9064013,35.7604529 L42.9064013,20.8546577 L24.3522818,20.8546577 L24.3522818,35.7604529 Z M25.5896097,29.7981348 L33.0112575,29.7981348 L33.0112575,34.7663511 L25.5896097,34.7663511 L25.5896097,29.7981348 Z M25.5896097,24.8299186 L33.0112575,24.8299186 L33.0112575,28.8051796 L25.5896097,28.8051796 L25.5896097,24.8299186 Z M34.2474257,29.7981348 L41.6690735,29.7981348 L41.6690735,34.7663511 L34.2474257,34.7663511 L34.2474257,29.7981348 Z M34.2474257,24.8299186 L41.6690735,24.8299186 L41.6690735,28.8051796 L34.2474257,28.8051796 L34.2474257,24.8299186 Z M25.5896097,21.8487596 L41.6702331,21.8487596 L41.6702331,23.8358167 L25.5896097,23.8358167 L25.5896097,21.8487596 Z" id="Fill-6"></path>
                        <path d="M24.3522818,15.1216595 L42.9064013,15.1216595 L42.9064013,0.0209423137 L24.3522818,0.0209423137 L24.3522818,15.1216595 Z M25.5896097,0.782284472 L41.6702331,0.782284472 L41.6702331,14.1585158 L25.5896097,14.1585158 L25.5896097,0.782284472 Z" id="Fill-7"></path>
                        <path d="M25.5119143,2.29120959 L41.7467688,2.29120959 L41.7467688,2.68105347 L25.5119143,2.68105347 L25.5119143,2.29120959 Z" id="Fill-8"></path>
                        <path d="M26.5555835,2.68105347 L25.6278775,2.68105347 L26.4083102,0.387854197 L27.3325373,0.387854197 L26.5555835,2.68105347" id="Fill-9"></path>
                        <path d="M28.7588852,2.68105347 L27.8311792,2.68105347 L28.6116119,0.387854197 L29.5346793,0.387854197 L28.7588852,2.68105347" id="Fill-10"></path>
                        <path d="M30.9621869,2.68105347 L30.0344809,2.68105347 L30.8149136,0.387854197 L31.737981,0.387854197 L30.9621869,2.68105347" id="Fill-11"></path>
                        <path d="M33.1654886,2.68105347 L32.2377826,2.68105347 L33.0182153,0.387854197 L33.9412827,0.387854197 L33.1654886,2.68105347" id="Fill-12"></path>
                        <path d="M35.3687903,2.68105347 L34.4410843,2.68105347 L35.2215169,0.387854197 L36.1445844,0.387854197 L35.3687903,2.68105347" id="Fill-13"></path>
                        <path d="M37.572092,2.68105347 L36.644386,2.68105347 L37.4248186,0.387854197 L38.3478861,0.387854197 L37.572092,2.68105347" id="Fill-14"></path>
                        <path d="M39.7753936,2.68105347 L38.8476877,2.68105347 L39.6281203,0.387854197 L40.5511878,0.387854197 L39.7753936,2.68105347" id="Fill-15"></path>
                        <path d="M41.5148423,2.68105347 L40.5871364,2.68105347 L41.367569,0.387854197 L42.2906365,0.387854197 L41.5148423,2.68105347" id="Fill-16"></path>
                        <path d="M31.3100766,11.6818606 L36.5284227,8.2420617 L31.3100766,4.80226279 L31.3100766,11.6818606" id="Fill-17"></path>
                    </g>
                </g>
                <g id="Rectangle-6-Copy-21-+-Imported-Layers-Copy-2" transform="translate(6.000000, 14.000000)">
                    <rect id="Rectangle-6-Copy-21" stroke="#CCCCCC" stroke-dasharray="6,3" x="0.469148616" y="0.635883633" width="47" height="106.272328" transform="translate(0, -8.7)"></rect>
                    <g id="Imported-Layers-Copy-2" transform="translate(9.885889, 26.568528)" fill="#4A4A4A">
                        <path d="M0,24.7352063 L12.8308794,24.7352063 L12.8308794,14.4249924 L0,14.4249924 L0,24.7352063 Z M0.855391958,15.3624287 L11.9754874,15.3624287 L11.9754874,23.9421129 L0.855391958,23.9421129 L0.855391958,15.3624287 Z" id="Fill-1"></path>
                        <path d="M2.21542252,21.1179074 C2.40953268,21.2218026 2.65417564,21.1504242 2.7592518,20.9584956 L3.37286449,19.8370616 L4.90007827,21.3304564 L6.47942909,19.7522006 L8.12455276,21.4502135 L9.9838393,17.7750188 C10.0824986,17.5791247 10.0030899,17.3404036 9.80416709,17.2428531 C9.6068485,17.1460957 9.36541397,17.2238189 9.26675467,17.419713 L7.91600466,20.0892653 L6.48905438,18.6149047 L4.89446352,20.2090224 L3.17715011,18.5300437 L2.05339669,20.5809832 C1.94751842,20.7729118 2.02051026,21.0148053 2.21542252,21.1179074" id="Fill-2"></path>
                        <path d="M0,10.319941 L12.8337293,10.319941 L12.8337293,0.00972706297 L0,0.00972706297 L0,10.319941 Z M0.802108082,0.942404879 L12.0316212,0.942404879 L12.0316212,9.32857429 L0.802108082,9.32857429 L0.802108082,0.942404879 Z" id="Fill-3"></path>
                        <path d="M4.60891304,4.56684163 C5.27305853,4.56684163 5.81047095,4.03388288 5.81047095,3.37640846 C5.81047095,2.71972715 5.27305853,2.18756149 4.60891304,2.18756149 C3.94316333,2.18756149 3.4041467,2.71972715 3.4041467,3.37640846 C3.4041467,4.03388288 3.94316333,4.56684163 4.60891304,4.56684163" id="Fill-4"></path>
                        <path d="M10.4274051,5.06411118 L9.15686586,2.7855539 L7.4339377,6.46867956 L6.41686466,5.44083053 C6.41686466,5.44083053 5.00836286,5.95792742 4.54474439,6.7510208 C3.80520074,6.35447411 3.4041467,6.7510208 3.4041467,6.7510208 L2.40632425,7.94066087 L10.4274051,7.94066087 L10.4274051,5.06411118" id="Fill-5"></path>
                        <path d="M16.8442697,24.7352063 L29.677999,24.7352063 L29.677999,14.4249924 L16.8442697,14.4249924 L16.8442697,24.7352063 Z M17.700119,20.6111207 L22.8336108,20.6111207 L22.8336108,24.0475943 L17.700119,24.0475943 L17.700119,20.6111207 Z M17.700119,17.1746471 L22.8336108,17.1746471 L22.8336108,19.9243019 L17.700119,19.9243019 L17.700119,17.1746471 Z M23.688658,20.6111207 L28.8221497,20.6111207 L28.8221497,24.0475943 L23.688658,24.0475943 L23.688658,20.6111207 Z M23.688658,17.1746471 L28.8221497,17.1746471 L28.8221497,19.9243019 L23.688658,19.9243019 L23.688658,17.1746471 Z M17.700119,15.1126043 L28.8229518,15.1126043 L28.8229518,16.4870351 L17.700119,16.4870351 L17.700119,15.1126043 Z" id="Fill-6"></path>
                        <path d="M16.8442697,10.4595254 L29.677999,10.4595254 L29.677999,0.0144856233 L16.8442697,0.0144856233 L16.8442697,10.4595254 Z M17.700119,0.541099628 L28.8229518,0.541099628 L28.8229518,9.79332701 L17.700119,9.79332701 L17.700119,0.541099628 Z" id="Fill-7"></path>
                        <path d="M17.6463778,1.58481052 L28.875891,1.58481052 L28.875891,1.85446227 L17.6463778,1.85446227 L17.6463778,1.58481052 Z" id="Fill-8"></path>
                        <path d="M18.3682751,1.85446227 L17.7265886,1.85446227 L18.2664074,0.268275505 L18.9056875,0.268275505 L18.3682751,1.85446227" id="Fill-9"></path>
                        <path d="M19.8922804,1.85446227 L19.250594,1.85446227 L19.7904127,0.268275505 L20.4288907,0.268275505 L19.8922804,1.85446227" id="Fill-10"></path>
                        <path d="M21.4162858,1.85446227 L20.7745993,1.85446227 L21.3144181,0.268275505 L21.9528961,0.268275505 L21.4162858,1.85446227" id="Fill-11"></path>
                        <path d="M22.9402911,1.85446227 L22.2986047,1.85446227 L22.8384234,0.268275505 L23.4769015,0.268275505 L22.9402911,1.85446227" id="Fill-12"></path>
                        <path d="M24.4642965,1.85446227 L23.82261,1.85446227 L24.3624288,0.268275505 L25.0009068,0.268275505 L24.4642965,1.85446227" id="Fill-13"></path>
                        <path d="M25.9883019,1.85446227 L25.3466154,1.85446227 L25.8864341,0.268275505 L26.5249122,0.268275505 L25.9883019,1.85446227" id="Fill-14"></path>
                        <path d="M27.5123072,1.85446227 L26.8706207,1.85446227 L27.4104395,0.268275505 L28.0489175,0.268275505 L27.5123072,1.85446227" id="Fill-15"></path>
                        <path d="M28.7154693,1.85446227 L28.0737829,1.85446227 L28.6136016,0.268275505 L29.2520796,0.268275505 L28.7154693,1.85446227" id="Fill-16"></path>
                        <path d="M21.6569182,8.08024531 L25.2664046,5.70096516 L21.6569182,3.32168502 L21.6569182,8.08024531" id="Fill-17"></path>
                    </g>
                </g>
            </g>
        </g>
    </g>
</svg>
