<?xml version="1.0" encoding="UTF-8" standalone="no"?>
<svg width="166px" height="118px" viewBox="0 0 166 118" version="1.1" xmlns="http://www.w3.org/2000/svg" xmlns:xlink="http://www.w3.org/1999/xlink">
    <defs></defs>
    <g id="Blocks" stroke="none" stroke-width="1" fill="none" fill-rule="evenodd">
        <g transform="translate(-11.000000, -446.000000)" id="media-12">
            <g transform="translate(11.000000, 446.000000)">
                <g id="Block-Frame" fill="#FFFFFF">
                    <rect id="Block-Border-Add-in-CSS" x="0" y="0" width="165.236842" height="117.108098"></rect>
                </g>
                <rect id="Rectangle-6-Copy-14" stroke="#CCCCCC" stroke-dasharray="6,3" x="6" y="6" width="154.298129" height="107.265527"></rect>
                <g id="Imported-Layers" transform="translate(55.000000, 32.000000)" fill="#4A4A4A">
                    <path d="M0,47.2523694 L24.2900009,47.2523694 L24.2900009,27.5564739 L0,27.5564739 L0,47.2523694 Z M1.61933339,29.3472853 L22.6706675,29.3472853 L22.6706675,45.7373005 L1.61933339,45.7373005 L1.61933339,29.3472853 Z" id="Fill-1"></path>
                    <path d="M4.19299787,40.3421402 C4.56037857,40.5406142 5.0233997,40.404258 5.22227107,40.0376114 L6.38361914,37.895304 L9.27408545,40.7481787 L12.2632284,37.7331916 L15.3768557,40.9769541 L18.8958163,33.9561249 C19.0825428,33.5819029 18.9322507,33.1258671 18.5557614,32.9395137 C18.1823083,32.7546753 17.7253596,32.903152 17.538633,33.277374 L14.9821492,38.3770959 L12.2814456,35.5605828 L9.26345874,38.6058713 L6.01320224,35.3984705 L3.88634126,39.3164386 C3.68595179,39.6830853 3.82409908,40.1451813 4.19299787,40.3421402" id="Fill-2"></path>
                    <path d="M0,19.7144774 L24.2896329,19.7144774 L24.2896329,0.0185818856 L0,0.0185818856 L0,19.7144774 Z M1.51810205,1.80030289 L22.7715308,1.80030289 L22.7715308,17.8206413 L1.51810205,17.8206413 L1.51810205,1.80030289 Z" id="Fill-3"></path>
                    <path d="M8.72301441,8.72416769 C9.98000291,8.72416769 10.9971313,7.7060414 10.9971313,6.4500493 C10.9971313,5.19557226 9.98000291,4.17896104 8.72301441,4.17896104 C7.4629897,4.17896104 6.44282512,5.19557226 6.44282512,6.4500493 C6.44282512,7.7060414 7.4629897,8.72416769 8.72301441,8.72416769" id="Fill-4"></path>
                    <path d="M19.7353267,9.67411588 L17.3306531,5.32132298 L14.0697698,12.3573029 L12.1448164,10.3937736 C12.1448164,10.3937736 9.47902923,11.3815985 8.60156624,12.8966674 C7.20187615,12.139133 6.44282512,12.8966674 6.44282512,12.8966674 L4.55430616,15.1692707 L19.7353267,15.1692707 L19.7353267,9.67411588" id="Fill-5"></path>
                    <path d="M31.8801431,47.2523694 L56.169776,47.2523694 L56.169776,27.5564739 L31.8801431,27.5564739 L31.8801431,47.2523694 Z M33.499958,39.3740112 L43.2158112,39.3740112 L43.2158112,45.9388047 L33.499958,45.9388047 L33.499958,39.3740112 Z M33.499958,32.8092177 L43.2158112,32.8092177 L43.2158112,38.0619616 L33.499958,38.0619616 L33.499958,32.8092177 Z M44.834108,39.3740112 L54.5499611,39.3740112 L54.5499611,45.9388047 L44.834108,45.9388047 L44.834108,39.3740112 Z M44.834108,32.8092177 L54.5499611,32.8092177 L54.5499611,38.0619616 L44.834108,38.0619616 L44.834108,32.8092177 Z M33.499958,28.8700386 L54.5514792,28.8700386 L54.5514792,31.495653 L33.499958,31.495653 L33.499958,28.8700386 Z" id="Fill-6"></path>
                    <path d="M31.8801431,19.9811295 L56.169776,19.9811295 L56.169776,0.0276722989 L31.8801431,0.0276722989 L31.8801431,19.9811295 Z M33.499958,1.03367804 L54.5514792,1.03367804 L54.5514792,18.7084716 L33.499958,18.7084716 L33.499958,1.03367804 Z" id="Fill-7"></path>
                    <path d="M33.3982452,3.02750869 L54.651674,3.02750869 L54.651674,3.54263211 L33.3982452,3.54263211 L33.3982452,3.02750869 Z" id="Fill-8"></path>
                    <path d="M34.7645371,3.54263211 L33.5500554,3.54263211 L34.5717381,0.512494342 L35.7816654,0.512494342 L34.7645371,3.54263211" id="Fill-9"></path>
                    <path d="M37.648931,3.54263211 L36.4344493,3.54263211 L37.456132,0.512494342 L38.6645412,0.512494342 L37.648931,3.54263211" id="Fill-10"></path>
                    <path d="M40.5333249,3.54263211 L39.3188432,3.54263211 L40.3405259,0.512494342 L41.5489351,0.512494342 L40.5333249,3.54263211" id="Fill-11"></path>
                    <path d="M43.4177188,3.54263211 L42.2032371,3.54263211 L43.2249198,0.512494342 L44.433329,0.512494342 L43.4177188,3.54263211" id="Fill-12"></path>
                    <path d="M46.3021127,3.54263211 L45.087631,3.54263211 L46.1093137,0.512494342 L47.3177229,0.512494342 L46.3021127,3.54263211" id="Fill-13"></path>
                    <path d="M49.1865066,3.54263211 L47.9720249,3.54263211 L48.9937076,0.512494342 L50.2021168,0.512494342 L49.1865066,3.54263211" id="Fill-14"></path>
                    <path d="M52.0709005,3.54263211 L50.8564188,3.54263211 L51.8781015,0.512494342 L53.0865107,0.512494342 L52.0709005,3.54263211" id="Fill-15"></path>
                    <path d="M54.3480536,3.54263211 L53.1335719,3.54263211 L54.1552546,0.512494342 L55.3636638,0.512494342 L54.3480536,3.54263211" id="Fill-16"></path>
                    <path d="M40.9887555,15.4359228 L47.8202147,10.8907162 L40.9887555,6.34550954 L40.9887555,15.4359228" id="Fill-17"></path>
                </g>
                <path id="Path-35" stroke="#979797" d=""></path>
            </g>
        </g>
    </g>
</svg>