<?xml version="1.0" encoding="UTF-8" standalone="no"?>
<svg width="166px" height="118px" viewBox="0 0 166 118" version="1.1" xmlns="http://www.w3.org/2000/svg" xmlns:xlink="http://www.w3.org/1999/xlink">
    <defs></defs>
    <g id="Blocks" stroke="none" stroke-width="1" fill="none" fill-rule="evenodd">
        <g transform="translate(-11.000000, -588.000000)" id="text-media-4-8">
            <g transform="translate(11.000000, 588.000000)">
                <g id="Block-Frame" fill="#FFFFFF">
                    <rect id="Block-Border-Add-in-CSS" x="0" y="0" width="165.236842" height="117.108098"></rect>
                </g>
                <g id="Rectangle-6-Copy-21-+-Imported-Layers-Copy-2" transform="translate(58.000000, 6.000000)">
                    <rect id="Rectangle-6-Copy-21" stroke="#CCCCCC" stroke-dasharray="6,3" x="0.469148616" y="0.0857505622" width="100.530851" height="106.272328"></rect>
                    <g id="Imported-Layers-Copy-2" transform="translate(29.257260, 32.018978)" fill="#4A4A4A">
                        <path d="M0,35.7604529 L18.5499992,35.7604529 L18.5499992,20.8546577 L0,20.8546577 L0,35.7604529 Z M1.23666662,22.2099385 L17.3133326,22.2099385 L17.3133326,34.6138533 L1.23666662,34.6138533 L1.23666662,22.2099385 Z" id="Fill-1"></path>
                        <path d="M3.20290488,30.530812 C3.48353593,30.6810166 3.83722384,30.5778226 3.98913569,30.3003455 L4.87625453,28.6790536 L7.08419475,30.8381007 L9.36751107,28.5563674 L11.7459173,31.0112373 L14.4339453,25.6978945 C14.5765801,25.4146844 14.4617765,25.0695579 14.1741877,24.9285262 C13.8889181,24.788641 13.5398687,24.9010078 13.3972339,25.1842179 L11.4444128,29.0436723 L9.38142666,26.9121436 L7.07607732,29.2168088 L4.5933042,26.7894574 L2.96865912,29.7545641 C2.81558763,30.0320412 2.92111419,30.3817541 3.20290488,30.530812" id="Fill-2"></path>
                        <path d="M0,14.919858 L18.5541195,14.919858 L18.5541195,0.0140627158 L0,0.0140627158 L0,14.919858 Z M1.15963247,1.36246389 L17.394487,1.36246389 L17.394487,13.4866084 L1.15963247,13.4866084 L1.15963247,1.36246389 Z" id="Fill-3"></path>
                        <path d="M6.66324816,6.60242422 C7.62342384,6.60242422 8.4003776,5.83190927 8.4003776,4.88137817 C8.4003776,3.93199367 7.62342384,3.16262531 6.66324816,3.16262531 C5.70075321,3.16262531 4.92148019,3.93199367 4.92148019,4.88137817 C4.92148019,5.83190927 5.70075321,6.60242422 6.66324816,6.60242422" id="Fill-4"></path>
                        <path d="M15.0752221,7.32134219 L13.2383643,4.02716144 L10.7474737,9.35197015 L9.27705974,7.86597702 C9.27705974,7.86597702 7.24074513,8.61355998 6.57047756,9.76015962 C5.50129643,9.1868598 4.92148019,9.76015962 4.92148019,9.76015962 L3.4788974,11.4800591 L15.0752221,11.4800591 L15.0752221,7.32134219" id="Fill-5"></path>
                        <path d="M24.3522818,35.7604529 L42.9064013,35.7604529 L42.9064013,20.8546577 L24.3522818,20.8546577 L24.3522818,35.7604529 Z M25.5896097,29.7981348 L33.0112575,29.7981348 L33.0112575,34.7663511 L25.5896097,34.7663511 L25.5896097,29.7981348 Z M25.5896097,24.8299186 L33.0112575,24.8299186 L33.0112575,28.8051796 L25.5896097,28.8051796 L25.5896097,24.8299186 Z M34.2474257,29.7981348 L41.6690735,29.7981348 L41.6690735,34.7663511 L34.2474257,34.7663511 L34.2474257,29.7981348 Z M34.2474257,24.8299186 L41.6690735,24.8299186 L41.6690735,28.8051796 L34.2474257,28.8051796 L34.2474257,24.8299186 Z M25.5896097,21.8487596 L41.6702331,21.8487596 L41.6702331,23.8358167 L25.5896097,23.8358167 L25.5896097,21.8487596 Z" id="Fill-6"></path>
                        <path d="M24.3522818,15.1216595 L42.9064013,15.1216595 L42.9064013,0.0209423137 L24.3522818,0.0209423137 L24.3522818,15.1216595 Z M25.5896097,0.782284472 L41.6702331,0.782284472 L41.6702331,14.1585158 L25.5896097,14.1585158 L25.5896097,0.782284472 Z" id="Fill-7"></path>
                        <path d="M25.5119143,2.29120959 L41.7467688,2.29120959 L41.7467688,2.68105347 L25.5119143,2.68105347 L25.5119143,2.29120959 Z" id="Fill-8"></path>
                        <path d="M26.5555835,2.68105347 L25.6278775,2.68105347 L26.4083102,0.387854197 L27.3325373,0.387854197 L26.5555835,2.68105347" id="Fill-9"></path>
                        <path d="M28.7588852,2.68105347 L27.8311792,2.68105347 L28.6116119,0.387854197 L29.5346793,0.387854197 L28.7588852,2.68105347" id="Fill-10"></path>
                        <path d="M30.9621869,2.68105347 L30.0344809,2.68105347 L30.8149136,0.387854197 L31.737981,0.387854197 L30.9621869,2.68105347" id="Fill-11"></path>
                        <path d="M33.1654886,2.68105347 L32.2377826,2.68105347 L33.0182153,0.387854197 L33.9412827,0.387854197 L33.1654886,2.68105347" id="Fill-12"></path>
                        <path d="M35.3687903,2.68105347 L34.4410843,2.68105347 L35.2215169,0.387854197 L36.1445844,0.387854197 L35.3687903,2.68105347" id="Fill-13"></path>
                        <path d="M37.572092,2.68105347 L36.644386,2.68105347 L37.4248186,0.387854197 L38.3478861,0.387854197 L37.572092,2.68105347" id="Fill-14"></path>
                        <path d="M39.7753936,2.68105347 L38.8476877,2.68105347 L39.6281203,0.387854197 L40.5511878,0.387854197 L39.7753936,2.68105347" id="Fill-15"></path>
                        <path d="M41.5148423,2.68105347 L40.5871364,2.68105347 L41.367569,0.387854197 L42.2906365,0.387854197 L41.5148423,2.68105347" id="Fill-16"></path>
                        <path d="M31.3100766,11.6818606 L36.5284227,8.2420617 L31.3100766,4.80226279 L31.3100766,11.6818606" id="Fill-17"></path>
                    </g>
                </g>
                <path d="M5,11.5 L5,6.5 L49.8100057,6.5 L49.8100057,11.5 L37.035659,11.5 L5,11.5 Z" id="Rectangle-10-Copy-117" fill="#787878"></path>
                <path d="M5.41615787,17.5 L47.387435,17.5 L47.387435,22.5 L5.41615787,22.5 L5.41615787,17.5 Z" id="Rectangle-10-Copy-107" fill="#C2C2C2"></path>
                <path d="M5.29507046,31.5 L5.29507046,26.5 L49.8100057,26.5 L49.8100057,31.5 L32.1719574,31.5 L5.29507046,31.5 Z" id="Rectangle-10-Copy-108" fill="#C2C2C2"></path>
                <path d="M5.29507046,40.5 L5.29507046,35.5 L50.1050761,35.5 L50.1050761,40.5 L32.3501128,40.5 L5.29507046,40.5 Z" id="Rectangle-10-Copy-109" fill="#C2C2C2"></path>
                <path d="M5.29507046,49.5 L5.29507046,44.5 L49.2182485,44.5 L49.2182485,49.5 L31.8146708,49.5 L5.29507046,49.5 Z" id="Rectangle-10-Copy-110" fill="#C2C2C2"></path>
                <path d="M5.29507046,58.5 L5.29507046,53.5 L49.8100057,53.5 L49.8100057,58.5 L32.1719574,58.5 L5.29507046,58.5 Z" id="Rectangle-10-Copy-111" fill="#C2C2C2"></path>
                <path d="M5.29507046,67.5 L5.29507046,62.5 L50.1050761,62.5 L50.1050761,67.5 L32.3501128,67.5 L5.29507046,67.5 Z" id="Rectangle-10-Copy-112" fill="#C2C2C2"></path>
                <path d="M5.29507046,76.5 L5.29507046,71.5 L49.2182485,71.5 L49.2182485,76.5 L31.8146708,76.5 L5.29507046,76.5 Z" id="Rectangle-10-Copy-113" fill="#C2C2C2"></path>
                <path d="M5.29507046,94.5 L5.29507046,89.5 L49.2182485,89.5 L49.2182485,94.5 L31.8146708,94.5 L5.29507046,94.5 Z" id="Rectangle-10-Copy-114" fill="#C2C2C2"></path>
                <path d="M5.29507046,85.5 L5.29507046,80.5 L47.2663476,80.5 L47.2663476,85.5 L30.6361671,85.5 L5.29507046,85.5 Z" id="Rectangle-10-Copy-115" fill="#C2C2C2"></path>
                <path d="M5.29507046,103.5 L5.29507046,98.5 L47.2663476,98.5 L47.2663476,103.5 L30.6361671,103.5 L5.29507046,103.5 Z" id="Rectangle-10-Copy-116" fill="#C2C2C2"></path>
            </g>
        </g>
    </g>
</svg>