<?xml version="1.0" encoding="UTF-8" standalone="no"?>
<svg width="166px" height="118px" viewBox="0 0 166 118" version="1.1" xmlns="http://www.w3.org/2000/svg" xmlns:xlink="http://www.w3.org/1999/xlink">
    <defs></defs>
    <g id="Blocks" stroke="none" stroke-width="1" fill="none" fill-rule="evenodd">
        <g transform="translate(-11.000000, -1014.000000)" id="text-media-6-6">
            <g transform="translate(11.000000, 1014.000000)">
                <g id="Block-Frame" fill="#FFFFFF">
                    <rect id="Block-Border-Add-in-CSS" x="0" y="0" width="165.236842" height="117.108098"></rect>
                </g>
                <g id="Rectangle-6-Copy-21-+-Imported-Layers-Copy-2" transform="translate(86.000000, 6.000000)">
                    <rect id="Rectangle-6-Copy-21" stroke="#CCCCCC" stroke-dasharray="6,3" x="0.469148616" y="0.0857505622" width="72.5308514" height="106.272328"></rect>
                    <g id="Imported-Layers-Copy-2" transform="translate(20.885889, 34.568528)" fill="#4A4A4A">
                        <path d="M0,24.7352063 L12.8308794,24.7352063 L12.8308794,14.4249924 L0,14.4249924 L0,24.7352063 Z M0.855391958,15.3624287 L11.9754874,15.3624287 L11.9754874,23.9421129 L0.855391958,23.9421129 L0.855391958,15.3624287 Z" id="Fill-1"></path>
                        <path d="M2.21542252,21.1179074 C2.40953268,21.2218026 2.65417564,21.1504242 2.7592518,20.9584956 L3.37286449,19.8370616 L4.90007827,21.3304564 L6.47942909,19.7522006 L8.12455276,21.4502135 L9.9838393,17.7750188 C10.0824986,17.5791247 10.0030899,17.3404036 9.80416709,17.2428531 C9.6068485,17.1460957 9.36541397,17.2238189 9.26675467,17.419713 L7.91600466,20.0892653 L6.48905438,18.6149047 L4.89446352,20.2090224 L3.17715011,18.5300437 L2.05339669,20.5809832 C1.94751842,20.7729118 2.02051026,21.0148053 2.21542252,21.1179074" id="Fill-2"></path>
                        <path d="M0,10.319941 L12.8337293,10.319941 L12.8337293,0.00972706297 L0,0.00972706297 L0,10.319941 Z M0.802108082,0.942404879 L12.0316212,0.942404879 L12.0316212,9.32857429 L0.802108082,9.32857429 L0.802108082,0.942404879 Z" id="Fill-3"></path>
                        <path d="M4.60891304,4.56684163 C5.27305853,4.56684163 5.81047095,4.03388288 5.81047095,3.37640846 C5.81047095,2.71972715 5.27305853,2.18756149 4.60891304,2.18756149 C3.94316333,2.18756149 3.4041467,2.71972715 3.4041467,3.37640846 C3.4041467,4.03388288 3.94316333,4.56684163 4.60891304,4.56684163" id="Fill-4"></path>
                        <path d="M10.4274051,5.06411118 L9.15686586,2.7855539 L7.4339377,6.46867956 L6.41686466,5.44083053 C6.41686466,5.44083053 5.00836286,5.95792742 4.54474439,6.7510208 C3.80520074,6.35447411 3.4041467,6.7510208 3.4041467,6.7510208 L2.40632425,7.94066087 L10.4274051,7.94066087 L10.4274051,5.06411118" id="Fill-5"></path>
                        <path d="M16.8442697,24.7352063 L29.677999,24.7352063 L29.677999,14.4249924 L16.8442697,14.4249924 L16.8442697,24.7352063 Z M17.700119,20.6111207 L22.8336108,20.6111207 L22.8336108,24.0475943 L17.700119,24.0475943 L17.700119,20.6111207 Z M17.700119,17.1746471 L22.8336108,17.1746471 L22.8336108,19.9243019 L17.700119,19.9243019 L17.700119,17.1746471 Z M23.688658,20.6111207 L28.8221497,20.6111207 L28.8221497,24.0475943 L23.688658,24.0475943 L23.688658,20.6111207 Z M23.688658,17.1746471 L28.8221497,17.1746471 L28.8221497,19.9243019 L23.688658,19.9243019 L23.688658,17.1746471 Z M17.700119,15.1126043 L28.8229518,15.1126043 L28.8229518,16.4870351 L17.700119,16.4870351 L17.700119,15.1126043 Z" id="Fill-6"></path>
                        <path d="M16.8442697,10.4595254 L29.677999,10.4595254 L29.677999,0.0144856233 L16.8442697,0.0144856233 L16.8442697,10.4595254 Z M17.700119,0.541099628 L28.8229518,0.541099628 L28.8229518,9.79332701 L17.700119,9.79332701 L17.700119,0.541099628 Z" id="Fill-7"></path>
                        <path d="M17.6463778,1.58481052 L28.875891,1.58481052 L28.875891,1.85446227 L17.6463778,1.85446227 L17.6463778,1.58481052 Z" id="Fill-8"></path>
                        <path d="M18.3682751,1.85446227 L17.7265886,1.85446227 L18.2664074,0.268275505 L18.9056875,0.268275505 L18.3682751,1.85446227" id="Fill-9"></path>
                        <path d="M19.8922804,1.85446227 L19.250594,1.85446227 L19.7904127,0.268275505 L20.4288907,0.268275505 L19.8922804,1.85446227" id="Fill-10"></path>
                        <path d="M21.4162858,1.85446227 L20.7745993,1.85446227 L21.3144181,0.268275505 L21.9528961,0.268275505 L21.4162858,1.85446227" id="Fill-11"></path>
                        <path d="M22.9402911,1.85446227 L22.2986047,1.85446227 L22.8384234,0.268275505 L23.4769015,0.268275505 L22.9402911,1.85446227" id="Fill-12"></path>
                        <path d="M24.4642965,1.85446227 L23.82261,1.85446227 L24.3624288,0.268275505 L25.0009068,0.268275505 L24.4642965,1.85446227" id="Fill-13"></path>
                        <path d="M25.9883019,1.85446227 L25.3466154,1.85446227 L25.8864341,0.268275505 L26.5249122,0.268275505 L25.9883019,1.85446227" id="Fill-14"></path>
                        <path d="M27.5123072,1.85446227 L26.8706207,1.85446227 L27.4104395,0.268275505 L28.0489175,0.268275505 L27.5123072,1.85446227" id="Fill-15"></path>
                        <path d="M28.7154693,1.85446227 L28.0737829,1.85446227 L28.6136016,0.268275505 L29.2520796,0.268275505 L28.7154693,1.85446227" id="Fill-16"></path>
                        <path d="M21.6569182,8.08024531 L25.2664046,5.70096516 L21.6569182,3.32168502 L21.6569182,8.08024531" id="Fill-17"></path>
                    </g>
                </g>
                <path d="M74,26 L6,26 L6,21 L74,21 L74,26 Z" id="Rectangle-10-Copy-129" fill="#C2C2C2"></path>
                <path d="M75.3266156,14 L5.53454414,14 L5.53454414,7 L75.3266156,7 L75.3266156,14 Z" id="Rectangle-10-Copy-130" fill="#787878"></path>
                <path d="M76,35 L48.0796379,35 L5.53454414,35 L5.53454414,30 L76,30 L76,35 Z" id="Rectangle-10-Copy-131" fill="#C2C2C2"></path>
                <path d="M75.5359904,53 L47.7994817,53 L5.53454414,53 L5.53454414,48 L75.5359904,48 L75.5359904,53 Z" id="Rectangle-10-Copy-132" fill="#C2C2C2"></path>
                <path d="M74.6054294,44 L47.2376347,44 L5.53454414,44 L5.53454414,39 L74.6054294,39 L74.6054294,44 Z" id="Rectangle-10-Copy-133" fill="#C2C2C2"></path>
                <path d="M76,62 L48.0796379,62 L5.53454414,62 L5.53454414,57 L76,57 L76,62 Z" id="Rectangle-10-Copy-134" fill="#C2C2C2"></path>
                <path d="M74.6054294,71 L47.2376347,71 L5.53454414,71 L5.53454414,66 L74.6054294,66 L74.6054294,71 Z" id="Rectangle-10-Copy-135" fill="#C2C2C2"></path>
                <path d="M75.5359904,80 L47.7994817,80 L5.53454414,80 L5.53454414,75 L75.5359904,75 L75.5359904,80 Z" id="Rectangle-10-Copy-136" fill="#C2C2C2"></path>
                <path d="M76,89 L48.0796379,89 L5.53454414,89 L5.53454414,84 L76,84 L76,89 Z" id="Rectangle-10-Copy-137" fill="#C2C2C2"></path>
                <path d="M74.6054294,98 L47.2376347,98 L5.53454414,98 L5.53454414,93 L74.6054294,93 L74.6054294,98 Z" id="Rectangle-10-Copy-138" fill="#C2C2C2"></path>
                <path d="M63.5345441,107 L40.5533403,107 L5.53454414,107 L5.53454414,102 L63.5345441,102 L63.5345441,107 Z" id="Rectangle-10-Copy-139" fill="#C2C2C2"></path>
            </g>
        </g>
    </g>
</svg>