<?xml version="1.0" encoding="UTF-8" standalone="no"?>
<svg width="166px" height="118px" viewBox="0 0 166 118" version="1.1" xmlns="http://www.w3.org/2000/svg" xmlns:xlink="http://www.w3.org/1999/xlink">
    <defs></defs>
    <g id="Blocks" stroke="none" stroke-width="1" fill="none" fill-rule="evenodd">
        <g transform="translate(-11.000000, -162.000000)" id="text-12a">
            <g transform="translate(11.000000, 162.000000)">
                <g id="Block-Frame" fill="#FFFFFF">
                    <rect id="Block-Border-Add-in-CSS" x="0" y="0" width="165.236842" height="117.108098"></rect>
                </g>
                <path id="Path-35" stroke="#979797" d=""></path>
                <rect id="Rectangle-10-Copy-70" fill="#C2C2C2" x="16.1229909" y="8" width="141.009187" height="5"></rect>
                <path d="M5,17 L158.140597,17 L158.140597,22 L97.4620576,22 L5,22 L5,17 Z" id="Rectangle-10-Copy-61" fill="#C2C2C2"></path>
                <path d="M5,35 L157.132177,35 L157.132177,40 L96.853202,40 L5,40 L5,35 Z" id="Rectangle-10-Copy-62" fill="#C2C2C2"></path>
                <path d="M5,26 L155.109815,26 L155.109815,31 L95.6321558,31 L5,31 L5,26 Z" id="Rectangle-10-Copy-63" fill="#C2C2C2"></path>
                <path d="M5,44 L158.140597,44 L158.140597,49 L97.4620576,49 L5,49 L5,44 Z" id="Rectangle-10-Copy-64" fill="#C2C2C2"></path>
                <path d="M5,53 L155.109815,53 L155.109815,58 L95.6321558,58 L5,58 L5,53 Z" id="Rectangle-10-Copy-65" fill="#C2C2C2"></path>
                <path d="M5,62 L157.132177,62 L157.132177,67 L96.853202,67 L5,67 L5,62 Z" id="Rectangle-10-Copy-66" fill="#C2C2C2"></path>
                <path d="M5,71 L158.140597,71 L158.140597,76 L97.4620576,76 L5,76 L5,71 Z" id="Rectangle-10-Copy-67" fill="#C2C2C2"></path>
                <path d="M5,80 L155.109815,80 L155.109815,85 L95.6321558,85 L5,85 L5,80 Z" id="Rectangle-10-Copy-68" fill="#C2C2C2"></path>
                <path d="M5,89 L158.140597,89 L158.140597,94 L97.4620576,94 L5,94 L5,89 Z" id="Rectangle-10-Copy-92" fill="#C2C2C2"></path>
                <path d="M5,98 L151,98 L151,103 L93.1507629,103 L5,103 L5,98 Z" id="Rectangle-10-Copy-93" fill="#C2C2C2"></path>
                <path d="M5,107 L110,107 L110,112 L68.3960966,112 L5,112 L5,107 Z" id="Rectangle-10-Copy-69" fill="#C2C2C2"></path>
            </g>
        </g>
    </g>
</svg>