<?xml version="1.0" encoding="UTF-8" standalone="no"?>
<svg width="145px" height="32px" viewBox="0 0 145 32" version="1.1" xmlns="http://www.w3.org/2000/svg" xmlns:xlink="http://www.w3.org/1999/xlink">
    <!-- Generator: Sketch 3.7.2 (28276) - http://www.bohemiancoding.com/sketch -->
    <title>socrata-logo-1c-dark</title>
    <desc>Created with Sketch.</desc>
    <defs></defs>
    <g id="Page-1" stroke="none" stroke-width="1" fill="none" fill-rule="evenodd">
        <g id="socrata-logo-1c-dark" fill="#FFFFFF">
            <path d="M49.052,6.59 C47.251,5.884 46.263,5.566 44.427,5.566 C42.45,5.566 40.12,6.272 40.12,8.85 C40.12,13.582 50.712,12.487 50.712,20.607 C50.712,25.869 46.652,27.952 41.708,27.952 C39.978,27.952 38.284,27.457 36.66,26.928 L37.012,23.645 C38.212,24.139 40.331,24.845 42.132,24.845 C44.145,24.845 46.969,23.715 46.969,20.82 C46.969,15.312 36.376,16.83 36.376,9.168 C36.376,4.79 39.837,2.459 44.286,2.459 C45.911,2.459 47.852,2.742 49.547,3.342 L49.052,6.59" id="Fill-1"></path>
            <path d="M61.591,25.269 C65.475,25.269 67.205,21.738 67.205,18.524 C67.205,15.1 65.121,11.781 61.591,11.781 C58.025,11.781 55.942,15.1 55.942,18.524 C55.942,21.738 57.671,25.269 61.591,25.269 L61.591,25.269 Z M61.591,9.097 C67.064,9.097 70.736,13.052 70.736,18.524 C70.736,23.68 66.994,27.952 61.591,27.952 C56.154,27.952 52.411,23.68 52.411,18.524 C52.411,13.052 56.082,9.097 61.591,9.097 L61.591,9.097 Z" id="Fill-2"></path>
            <path d="M85.039,12.558 C83.769,12.028 82.497,11.781 81.438,11.781 C77.731,11.781 75.648,15.1 75.648,18.524 C75.648,21.738 77.377,25.269 81.65,25.269 C82.78,25.269 84.192,24.916 85.216,24.244 L85.463,27.211 C84.086,27.846 82.497,27.952 81.297,27.952 C75.859,27.952 72.117,23.68 72.117,18.524 C72.117,13.052 75.788,9.097 81.297,9.097 C82.638,9.097 84.369,9.415 85.322,9.803 L85.039,12.558" id="Fill-3"></path>
            <path d="M87.691,9.521 L90.797,9.521 L90.797,12.31 L90.869,12.31 C91.75,10.439 93.658,9.097 95.564,9.097 C96.553,9.097 97.047,9.203 97.753,9.344 L97.753,12.31 C97.153,12.063 96.482,11.992 95.917,11.992 C92.952,11.992 91.009,14.817 91.009,19.337 L91.009,27.528 L87.691,27.528 L87.691,9.521" id="Fill-4"></path>
            <path d="M110.537,18.948 C109.831,18.948 109.125,18.877 108.418,18.877 C106.619,18.877 102.169,19.16 102.169,22.338 C102.169,24.244 104.005,25.269 105.524,25.269 C108.807,25.269 110.537,23.221 110.537,20.537 L110.537,18.948 L110.537,18.948 Z M100.686,10.792 C102.346,9.803 104.323,9.097 106.619,9.097 C111.773,9.097 113.857,11.639 113.857,16.547 L113.857,23.998 C113.857,26.045 113.927,26.998 113.997,27.528 L110.89,27.528 L110.89,25.197 L110.82,25.197 C110.043,26.293 108.278,27.952 105.241,27.952 C101.357,27.952 98.638,26.258 98.638,22.338 C98.638,17.818 103.581,16.406 107.006,16.406 C108.313,16.406 109.231,16.406 110.537,16.477 C110.537,13.37 109.408,11.781 106.088,11.781 C104.217,11.781 102.204,12.487 100.863,13.617 L100.686,10.792 L100.686,10.792 Z" id="Fill-5"></path>
            <path d="M127.453,12.204 L122.687,12.204 L122.687,22.056 C122.687,24.139 123.957,25.269 125.476,25.269 C126.5,25.269 127.242,24.951 127.736,24.633 L127.736,27.457 C126.995,27.67 125.97,27.952 124.912,27.952 C121.486,27.952 119.368,26.328 119.368,22.727 L119.368,12.204 L115.307,12.204 L115.307,9.521 L119.368,9.521 L119.368,5.355 L122.687,4.295 L122.687,9.521 L127.453,9.521 L127.453,12.204" id="Fill-6"></path>
            <path d="M140.732,18.948 C140.026,18.948 139.32,18.877 138.613,18.877 C136.812,18.877 132.364,19.16 132.364,22.338 C132.364,24.244 134.2,25.269 135.718,25.269 C139.001,25.269 140.732,23.221 140.732,20.537 L140.732,18.948 L140.732,18.948 Z M130.88,10.792 C132.54,9.803 134.517,9.097 136.812,9.097 C141.967,9.097 144.051,11.639 144.051,16.547 L144.051,23.998 C144.051,26.045 144.121,26.998 144.192,27.528 L141.084,27.528 L141.084,25.197 L141.014,25.197 C140.238,26.293 138.472,27.952 135.435,27.952 C131.551,27.952 128.832,26.258 128.832,22.338 C128.832,17.818 133.776,16.406 137.201,16.406 C138.507,16.406 139.425,16.406 140.732,16.477 C140.732,13.37 139.602,11.781 136.283,11.781 C134.412,11.781 132.399,12.487 131.057,13.617 L130.88,10.792 L130.88,10.792 Z" id="Fill-7"></path>
            <path d="M29.961,9.582 L29.626,9.74 L27.898,10.563 C28.665,12.224 29.096,14.071 29.096,16.02 C29.096,23.229 23.233,29.092 16.025,29.092 C8.816,29.092 2.95,23.229 2.95,16.02 C2.95,8.811 8.816,2.946 16.025,2.946 C17.538,2.946 18.991,3.209 20.344,3.682 L21.094,1.526 C19.506,0.969 17.8,0.662 16.025,0.662 C7.556,0.662 0.667,7.551 0.667,16.02 C0.667,24.487 7.556,31.376 16.025,31.376 C24.492,31.376 31.38,24.487 31.38,16.02 C31.38,13.722 30.869,11.541 29.961,9.582" id="Fill-8"></path>
            <path d="M19.573,5.899 C18.46,5.521 17.266,5.311 16.025,5.311 C10.028,5.311 5.148,10.115 5.148,16.019 C5.148,21.926 10.028,26.731 16.025,26.731 C22.021,26.731 26.9,21.926 26.9,16.019 C26.9,14.413 26.537,12.889 25.889,11.518 L25.541,11.683 L23.779,12.522 C24.281,13.587 24.57,14.771 24.57,16.019 C24.57,20.64 20.737,24.402 16.025,24.402 C11.313,24.402 7.478,20.64 7.478,16.019 C7.478,11.4 11.313,7.642 16.025,7.642 C17,7.642 17.932,7.809 18.805,8.106 L19.573,5.899" id="Fill-9"></path>
            <path d="M16.024,19.969 C13.747,19.966 11.908,18.127 11.903,15.849 C11.908,13.573 13.748,11.733 16.024,11.73 C16.526,11.73 17.007,11.827 17.452,11.991 L18.191,9.869 C17.513,9.623 16.786,9.482 16.024,9.482 C12.506,9.483 9.657,12.332 9.657,15.849 C9.657,19.368 12.507,22.217 16.024,22.217 C19.541,22.217 22.391,19.368 22.391,15.849 L22.392,15.849 C22.391,14.986 22.217,14.165 21.907,13.413 L19.868,14.383 C20.043,14.839 20.143,15.332 20.144,15.849 C20.14,18.126 18.298,19.966 16.024,19.969" id="Fill-10"></path>
            <path d="M19.245,12.588 L30.794,7.096 C29.057,4.231 26.509,1.909 23.47,0.45 L19.245,12.588" id="Fill-11"></path>
        </g>
    </g>
</svg>