<?xml version="1.0" encoding="UTF-8" standalone="no"?>
<svg width="145px" height="32px" viewBox="0 0 145 32" version="1.1" xmlns="http://www.w3.org/2000/svg" xmlns:xlink="http://www.w3.org/1999/xlink">
    <!-- Generator: Sketch 3.7.2 (28276) - http://www.bohemiancoding.com/sketch -->
    <title>socrata-logo</title>
    <desc>Created with Sketch.</desc>
    <defs></defs>
    <g id="Page-1" stroke="none" stroke-width="1" fill="none" fill-rule="evenodd">
        <g id="socrata-logo">
            <g id="Layer_1" transform="translate(36.000000, 2.000000)" fill="#646569">
                <g id="Group">
                    <path d="M13.2,5 C11.4,4.3 10.4,4 8.6,4 C6.6,4 4.3,4.7 4.3,7.3 C4.3,12 14.9,10.9 14.9,19.1 C14.9,24.4 10.8,26.4 5.9,26.4 C4.2,26.4 2.5,25.9 0.9,25.4 L1.3,22.1 C2.5,22.6 4.6,23.3 6.4,23.3 C8.4,23.3 11.2,22.2 11.2,19.3 C11.2,13.8 0.6,15.3 0.6,7.6 C0.6,3.2 4.1,0.9 8.5,0.9 C10.1,0.9 12.1,1.2 13.8,1.8 L13.2,5 L13.2,5 Z" id="Shape"></path>
                    <path d="M25.7,7.5 C31.2,7.5 34.8,11.5 34.8,16.9 C34.8,22.1 31.1,26.3 25.7,26.3 C20.3,26.3 16.5,22 16.5,16.9 C16.5,11.4 20.2,7.5 25.7,7.5 L25.7,7.5 Z M25.7,23.7 C29.6,23.7 31.3,20.2 31.3,17 C31.3,13.6 29.2,10.3 25.7,10.3 C22.1,10.3 20.1,13.6 20.1,17 C20,20.1 21.8,23.7 25.7,23.7 L25.7,23.7 Z" id="Shape"></path>
                    <path d="M49.1,10.9 C47.8,10.4 46.6,10.1 45.5,10.1 C41.8,10.1 39.7,13.4 39.7,16.8 C39.7,20 41.4,23.5 45.7,23.5 C46.8,23.5 48.2,23.1 49.3,22.5 L49.5,25.5 C48.1,26.1 46.5,26.2 45.3,26.2 C39.9,26.2 36.1,21.9 36.1,16.8 C36.1,11.3 39.8,7.4 45.3,7.4 C46.6,7.4 48.4,7.7 49.3,8.1 L49.1,10.9 L49.1,10.9 Z" id="Shape"></path>
                    <path d="M51.8,7.9 L54.9,7.9 L54.9,10.7 L55,10.7 C55.9,8.8 57.8,7.5 59.7,7.5 C60.7,7.5 61.2,7.6 61.9,7.7 L61.9,10.7 C61.3,10.5 60.6,10.4 60.1,10.4 C57.1,10.4 55.2,13.2 55.2,17.7 L55.2,25.9 L51.9,25.9 L51.9,7.9 L51.8,7.9 Z" id="Shape"></path>
                    <path d="M64.8,9.2 C66.5,8.2 68.4,7.5 70.7,7.5 C75.9,7.5 77.9,10 77.9,14.9 L77.9,22.4 C77.9,24.4 78,25.4 78,25.9 L75,25.9 L75,23.6 L74.9,23.6 C74.1,24.7 72.4,26.4 69.3,26.4 C65.4,26.4 62.7,24.7 62.7,20.8 C62.7,16.3 67.6,14.9 71.1,14.9 C72.4,14.9 73.3,14.9 74.6,15 C74.6,11.9 73.5,10.3 70.2,10.3 C68.3,10.3 66.3,11 65,12.1 L64.8,9.2 L64.8,9.2 Z M74.6,17.3 C73.9,17.3 73.2,17.2 72.5,17.2 C70.7,17.2 66.3,17.5 66.3,20.7 C66.3,22.6 68.1,23.6 69.7,23.6 C73,23.6 74.7,21.6 74.7,18.9 L74.7,17.3 L74.6,17.3 Z" id="Shape"></path>
                    <path d="M91.6,10.6 L86.8,10.6 L86.8,20.5 C86.8,22.6 88.1,23.7 89.6,23.7 C90.6,23.7 91.4,23.4 91.9,23.1 L91.9,25.9 C91.2,26.1 90.1,26.4 89.1,26.4 C85.7,26.4 83.6,24.8 83.6,21.2 L83.6,10.6 L79.5,10.6 L79.5,7.9 L83.6,7.9 L83.6,3.7 L86.9,2.6 L86.9,7.8 L91.7,7.8 L91.7,10.6 L91.6,10.6 Z" id="Shape"></path>
                    <path d="M95,9.2 C96.7,8.2 98.6,7.5 100.9,7.5 C106.1,7.5 108.1,10 108.1,14.9 L108.1,22.4 C108.1,24.4 108.2,25.4 108.2,25.9 L105.1,25.9 L105.1,23.6 L105,23.6 C104.2,24.7 102.5,26.4 99.4,26.4 C95.5,26.4 92.8,24.7 92.8,20.8 C92.8,16.3 97.7,14.9 101.2,14.9 C102.5,14.9 103.4,14.9 104.7,15 C104.7,11.9 103.6,10.3 100.3,10.3 C98.4,10.3 96.4,11 95.1,12.1 L95,9.2 L95,9.2 Z M104.8,17.3 C104.1,17.3 103.4,17.2 102.7,17.2 C100.9,17.2 96.5,17.5 96.5,20.7 C96.5,22.6 98.3,23.6 99.9,23.6 C103.2,23.6 104.9,21.6 104.9,18.9 L104.9,17.3 L104.8,17.3 Z" id="Shape"></path>
                </g>
            </g>
            <g id="Layer_2">
                <path d="M30.1,10 L29.8,10.2 L28,10.9 C28.8,12.6 29.2,14.4 29.2,16.4 C29.2,23.6 23.3,29.5 16.1,29.5 C8.9,29.5 3,23.6 3,16.4 C3,9.2 8.9,3.3 16.1,3.3 C17.6,3.3 19.1,3.6 20.4,4 L21,2.2 L21.1,1.8 C19.6,1.4 17.9,1 16.1,1 C7.7,1 0.8,7.9 0.8,16.4 C0.8,24.9 7.7,31.8 16.2,31.8 C24.7,31.8 31.6,24.9 31.6,16.4 C31.5,14.1 31,11.9 30.1,10 L30.1,10 Z" id="Shape" fill="#298DC1"></path>
                <path d="M19.7,6.3 C18.6,5.9 17.4,5.7 16.2,5.7 C10.2,5.7 5.3,10.5 5.3,16.4 C5.3,22.3 10.2,27.1 16.2,27.1 C22.2,27.1 27.1,22.3 27.1,16.4 C27.1,14.8 26.7,13.3 26.1,11.9 L25.8,12.1 L24,12.9 C24.5,14 24.8,15.1 24.8,16.4 C24.8,21 21,24.8 16.3,24.8 C11.6,24.8 7.8,21 7.8,16.4 C7.8,11.8 11.6,8 16.3,8 C17.3,8 18.2,8.2 19.1,8.5 L19.7,6.7 L19.7,6.3 L19.7,6.3 Z" id="Shape" fill="#298DC1"></path>
                <path d="M16.1,20.4 C13.8,20.4 12,18.6 12,16.3 C12,14 13.8,12.2 16.1,12.2 C16.6,12.2 17.1,12.3 17.5,12.5 L18.2,10.4 C17.5,10.2 16.8,10 16,10 C12.5,10 9.6,12.8 9.6,16.4 C9.6,19.9 12.5,22.8 16,22.8 C19.5,22.8 22.4,20 22.4,16.4 L22.4,16.4 C22.4,15.5 22.2,14.7 21.9,14 L19.9,15 C20.1,15.5 20.2,15.9 20.2,16.5 C20.2,18.5 18.4,20.3 16.1,20.4 L16.1,20.4 Z" id="Shape" fill="#298DC1"></path>
                <path d="M19.3,13 L30.8,7.5 C29.1,4.6 26.5,2.3 23.5,0.9 L19.3,13 L19.3,13 Z" id="Shape" fill="#E28432"></path>
            </g>
        </g>
    </g>
</svg>