<svg width="1024" height="1024" viewBox="0 0 1024 1024">
    <g fill-rule="evenodd">
        <path d="M846.558 729.984H735.445v110.81h-55.557v-110.81H568.774v-55.405h111.114v-110.81h55.557v110.81h111.113v55.405zM707.666 452.958c-138.003 0-250.006 111.641-250.006 249.323 0 137.682 112.003 249.323 250.006 249.323 138.114 0 250.006-111.641 250.006-249.323 0-137.682-111.892-249.323-250.006-249.323z"/>
        <path d="M398.227 791.57H120.443v-73.91c19.111-11.248 53.057-27.703 79.668-40.502 122.781-59.505 198.116-99.23 198.116-163.39 0-40.058-24.5-63.937-44.168-83.107-28.222-27.537-66.946-65.212-66.946-193.475 0-65.212 87.891-110.644 166.671-110.644 78.89 0 166.67 45.432 166.67 110.644 0 128.263-38.611 165.938-66.834 193.475-8.5 8.2-17.5 17.619-25.39 28.367h75.28c32.112-32.8 72.502-86.487 72.502-221.842 0-103.552-118.17-165.994-222.228-165.994-103.947 0-222.227 62.442-222.227 165.994 0 224.28 111.113 224.834 111.113 276.582 0 55.35-253.506 140.12-277.784 177.795v155.3h333.341V791.57z"/>
    </g>
</svg>
