<?xml version="1.0" encoding="UTF-8"?>
<svg width="1024px" height="1024px" viewBox="0 0 1024 1024" version="1.1" xmlns="http://www.w3.org/2000/svg" xmlns:xlink="http://www.w3.org/1999/xlink">
    <!-- Generator: Sketch 44.1 (41455) - http://www.bohemiancoding.com/sketch -->
    <title>arrow-up2</title>
    <desc>Created with Sketch.</desc>
    <defs>
        <path d="M469.658,107.658 L168.229,409.087 C144.686,432.63 144.686,470.8 168.229,494.344 C180,506.115 195.43,512 210.857,512 C226.284,512 241.713,506.115 253.484,494.344 L452,295.828 L452,873.714 C452,907.009 478.991,934 512.285,934 C545.581,934 572.571,907.009 572.571,873.714 L572.571,295.828 L771.087,494.344 C794.631,517.888 832.801,517.888 856.345,494.344 C879.885,470.8 879.885,432.63 856.345,409.087 L554.916,107.658 C543.144,95.887 527.714,90.001 512.285,90.001 C496.857,90.001 481.428,95.887 469.658,107.658 Z" id="path-1"></path>
    </defs>
    <g id="Page-1" stroke="none" stroke-width="1" fill="none" fill-rule="evenodd">
        <g id="arrow-up2">
            <mask id="mask-2" fill="white">
                <use xlink:href="#path-1"></use>
            </mask>
            <use id="Combined-Shape" fill="#000000" xlink:href="#path-1"></use>
        </g>
    </g>
</svg>