<?xml version="1.0" encoding="UTF-8"?>
<svg width="1024px" height="1024px" viewBox="0 0 1024 1024" version="1.1" xmlns="http://www.w3.org/2000/svg" xmlns:xlink="http://www.w3.org/1999/xlink">
    <!-- Generator: Sketch 44.1 (41455) - http://www.bohemiancoding.com/sketch -->
    <title>arrow-down2</title>
    <desc>Created with Sketch.</desc>
    <defs>
        <path d="M451.428,150.285 L451.428,728.172 L252.913,529.657 C229.37,506.113 191.2,506.113 167.656,529.657 C144.114,553.2 144.114,591.37 167.656,614.914 L469.085,916.342 C492.629,939.886 530.8,939.886 554.342,916.342 L855.771,614.914 C879.314,591.37 879.314,553.2 855.771,529.657 C844,517.885 828.571,512 813.143,512 C797.716,512 782.286,517.885 770.516,529.657 L572,728.172 L572,150.285 C572,116.992 545.009,90 511.715,90 C478.42,90 451.428,116.992 451.428,150.285 Z" id="path-1"></path>
    </defs>
    <g id="Page-1" stroke="none" stroke-width="1" fill="none" fill-rule="evenodd">
        <g id="arrow-down2">
            <mask id="mask-2" fill="white">
                <use xlink:href="#path-1"></use>
            </mask>
            <use id="Combined-Shape" fill="#000000" xlink:href="#path-1"></use>
        </g>
    </g>
</svg>