<svg width="1024" height="1024" viewBox="0 0 1024 1024">
    <path fill-rule="evenodd" d="M469.658 107.658L168.229 409.087c-23.543 23.543-23.543 61.713 0 85.257C180 506.115 195.43 512 210.857 512s30.856-5.885 42.627-17.656L452 295.828v577.886C452 907.009 478.991 934 512.285 934c33.296 0 60.286-26.991 60.286-60.286V295.828l198.516 198.516c23.544 23.544 61.714 23.544 85.258 0 23.54-23.544 23.54-61.714 0-85.257L554.916 107.658c-11.772-11.771-27.202-17.657-42.631-17.657-15.428 0-30.857 5.886-42.627 17.657z" />
</svg>
