<?xml version="1.0" encoding="UTF-8"?>
<svg width="1024px" height="1024px" viewBox="0 0 1024 1024" version="1.1" xmlns="http://www.w3.org/2000/svg" xmlns:xlink="http://www.w3.org/1999/xlink">
    <!-- Generator: Sketch 45.2 (43514) - http://www.bohemiancoding.com/sketch -->
    <title>attachment</title>
    <desc>Created with Sketch.</desc>
    <defs>
        <path d="M335.163,60.737 L64.341,331.558 C52.842,343.057 52.883,361.765 64.341,373.223 C75.882,384.764 94.506,384.722 106.006,373.223 L376.827,102.401 C434.241,44.988 527.694,44.945 585.15,102.401 C642.606,159.858 642.565,253.311 585.15,310.725 L210.168,685.708 C175.711,720.166 119.672,720.206 85.174,685.708 C50.759,651.293 50.717,595.17 85.174,560.715 L418.491,227.396 C429.95,215.938 448.698,215.938 460.156,227.396 C471.614,238.854 471.614,257.603 460.156,269.061 L210.168,519.049 C198.668,530.548 210.168,560.715 210.168,560.715 C221.709,572.255 240.333,572.213 251.832,560.715 L501.821,310.726 C536.277,276.269 536.32,220.23 501.821,185.731 C467.407,151.315 411.284,151.275 376.827,185.731 L43.509,519.049 C-13.947,576.505 -13.947,669.917 43.509,727.373 C100.965,784.828 194.377,784.828 251.832,727.373 L626.816,352.39 C707.229,271.977 707.229,141.15 626.816,60.737 C586.609,20.53 533.799,0.427 480.989,0.427 C428.178,0.427 375.368,20.53 335.163,60.737 Z" id="path-1"></path>
    </defs>
    <g id="Page-1" stroke="none" stroke-width="1" fill="none" fill-rule="evenodd">
        <g id="attachment">
            <g id="Page-1" transform="translate(168.000000, 127.000000)">
                <mask id="mask-2" fill="white">
                    <use xlink:href="#path-1"></use>
                </mask>
                <g id="Clip-2"></g>
                <polygon id="Fill-1" fill="#020303" mask="url(#mask-2)" points="-151.0536 539.8812 147.6714 838.6062 779.7134 206.5642 480.9884 -92.1608"></polygon>
            </g>
        </g>
    </g>
</svg>