<svg width="1024" height="1024" viewBox="0 0 1024 1024" xmlns:xlink="http://www.w3.org/1999/xlink">
    <path fill-rule="evenodd" d="M503.163 187.737L232.341 458.558c-11.499 11.499-11.458 30.207 0 41.665 11.541 11.541 30.165 11.499 41.665 0l270.821-270.822c57.414-57.413 150.867-57.456 208.323 0 57.456 57.457 57.415 150.91 0 208.324L378.168 812.708c-34.457 34.458-90.496 34.498-124.994 0-34.415-34.415-34.457-90.538 0-124.993l333.317-333.319c11.459-11.458 30.207-11.458 41.665 0 11.458 11.458 11.458 30.207 0 41.665L378.168 646.049c-11.5 11.499 0 41.666 0 41.666 11.541 11.54 30.165 11.498 41.664 0l249.989-249.989c34.456-34.457 34.499-90.496 0-124.995-34.414-34.416-90.537-34.456-124.994 0L211.509 646.049c-57.456 57.456-57.456 150.868 0 208.324 57.456 57.455 150.868 57.455 208.323 0L794.816 479.39c80.413-80.413 80.413-211.24 0-291.653-40.207-40.207-93.017-60.31-145.827-60.31-52.811 0-105.621 20.103-145.826 60.31z" />
</svg>
