<svg width="1024" height="1024" viewBox="0 0 1024 1024">
    <path d="M707.304 485.183c37.456-44.493 60.053-101.895 60.053-164.469C767.357 179.712 652.643 65 511.643 65H192v895h383.571c141 0 255.715-114.714 255.715-255.714 0-92.853-49.743-174.302-123.982-219.103zM383.786 192.857h101.386c55.906 0 101.387 57.356 101.387 127.857 0 70.502-45.481 127.857-101.387 127.857H383.786V192.857zm158.822 639.286H383.786V576.429h158.822c58.385 0 105.882 57.355 105.882 127.857 0 70.5-47.497 127.857-105.882 127.857z" fill-rule="evenodd"/>
</svg>
