<?xml version="1.0" encoding="UTF-8" standalone="no"?>
<svg width="1024px" height="1024px" viewBox="0 0 1024 1024" version="1.1" xmlns="http://www.w3.org/2000/svg" xmlns:xlink="http://www.w3.org/1999/xlink">
    <!-- Generator: Sketch 3.7.1 (28215) - http://www.bohemiancoding.com/sketch -->
    <title>bold2</title>
    <desc>Created with Sketch.</desc>
    <defs></defs>
    <g id="Page-1" stroke="none" stroke-width="1" fill="none" fill-rule="evenodd">
        <g id="bold2" fill="#000000">
            <path d="M707.304241,485.182522 C744.760391,440.690234 767.357143,383.288371 767.357143,320.714286 C767.357143,179.71183 652.643315,65 511.642857,65 L192,65 L192,960 L575.571429,960 C716.571886,960 831.285714,845.286172 831.285714,704.285714 C831.285714,611.43346 781.543292,529.984464 707.304241,485.182522 L707.304241,485.182522 Z M383.785714,192.857143 L485.172433,192.857143 C541.077969,192.857143 586.559152,250.213058 586.559152,320.714286 C586.559152,391.215513 541.077969,448.571429 485.172433,448.571429 L383.785714,448.571429 L383.785714,192.857143 L383.785714,192.857143 Z M542.608259,832.142857 L383.785714,832.142857 L383.785714,576.428571 L542.608259,576.428571 C600.993025,576.428571 648.489955,633.784487 648.489955,704.285714 C648.489955,774.786942 600.993025,832.142857 542.608259,832.142857 L542.608259,832.142857 Z" id="Shape"></path>
        </g>
    </g>
</svg>