<svg width="1024" height="1024" viewBox="0 0 1024 1024">
    <path d="M541.375 982H982V541.375H541.375V982zm220.313-365.719c60.218 0 110.156 49.938 110.156 110.157 0 73.437-110.157 183.593-110.157 183.593S651.532 799.875 651.532 726.438c0-60.22 49.938-110.157 110.157-110.157zm54.343 110.157c0 30.012-24.33 54.343-54.343 54.343-30.013 0-54.344-24.33-54.344-54.343 0-30.013 24.33-54.344 54.343-54.344 30.013 0 54.344 24.33 54.344 54.343zM42 42v440.625h940V42H42zm327.531 337.813H188.875V266.719h180.656v113.094zm232.063 0H422.406v-235h180.656v235h-1.468zm233.531 0H654.469V210.905h180.656v168.906zM42 982h440.625V541.375H42V982zm220.313-367.188v146.875l104.28-104.28c26.438 26.437 42.594 63.155 42.594 104.28 0 80.782-66.093 146.875-146.875 146.875-80.78 0-146.875-66.093-146.875-146.875 0-80.78 66.094-146.875 146.875-146.875z" fill-rule="evenodd"/>
</svg>
