<svg width="1024" height="1024" viewBox="0 0 1024 1024">
    <g fill-rule="evenodd">
        <path d="M307 210.831V155H107v741.62h200v-55.83m274-241.637V896.62H381V155h129.005C469.865 207.199 446 272.562 446 343.5c0 106.202 53.49 199.91 135 255.653zm274 37.506V896.62H655V636.318C686.512 647.13 720.32 653 755.5 653c34.808 0 68.273-5.746 99.5-16.341z"/>
        <path d="M754.591 598.538c-140.948 0-255.605-117.835-255.605-262.69 0-144.817 114.657-262.69 255.605-262.69 140.948 0 255.606 117.873 255.606 262.69 0 144.855-114.658 262.69-255.606 262.69zm0-450.325c-100.672 0-182.575 84.173-182.575 187.635 0 103.463 81.903 187.636 182.575 187.636 100.672 0 182.576-84.173 182.576-187.636 0-103.462-81.904-187.635-182.576-187.635zm-36.515 187.635h73.03v150.109h-73.03V335.848zm36.515-37.527c-20.167 0-36.515-16.801-36.515-37.527 0-20.726 16.348-37.527 36.515-37.527s36.515 16.801 36.515 37.527c0 20.726-16.348 37.527-36.515 37.527z"/>
    </g>
</svg>
