<svg width="1024" height="1024" viewBox="0 0 1024 1024">
    <path d="M266.409 685.422c-14.785 22.306-22.993 46.972-22.993 72.912h545.041c0-25.94-8.208-50.606-22.993-72.912H871.02v-57.863c-9.041-14.038-103.456-45.622-103.456-66.245 0-19.28 41.383-19.487 41.383-103.051 0-38.583-44.052-61.848-82.766-61.848-33.989 0-72.02 17.895-80.86 48.324v42.05c4.42 30.144 15.708 44.535 25.098 54.13h28.036c-2.938-4.005-6.29-7.515-9.456-10.57-10.511-10.26-24.891-24.297-24.891-72.086 0-24.298 32.692-41.225 62.073-41.225 29.34 0 62.074 16.927 62.074 41.225 0 47.789-14.422 61.826-24.933 72.086-7.324 7.143-16.449 16.04-16.449 30.965 0 23.905 28.057 38.706 73.785 60.877 9.911 4.769 22.554 10.9 29.671 15.09v27.539H749.351c-41.354-45.472-111.955-77.881-194.483-85.727v-37.335c42.884-28.103 77.863-98.164 77.863-168.236 0-112.514 0-203.725-116.795-203.725-116.794 0-116.794 91.21-116.794 203.725 0 70.072 34.979 140.133 77.863 168.236v37.335c-82.528 7.846-153.13 40.255-194.483 85.727H182.449v-27.54c7.118-4.19 19.76-10.321 29.671-15.09 45.728-22.17 73.785-36.972 73.785-60.877 0-14.925-9.125-23.822-16.45-30.965-10.51-10.26-24.932-24.297-24.932-72.086 0-24.298 32.733-41.225 62.074-41.225 29.381 0 62.073 16.927 62.073 41.225 0 47.789-14.38 61.826-24.891 72.086-3.166 3.055-6.518 6.565-9.456 10.57h28.037c9.389-9.595 20.678-23.986 25.097-54.131V444.74c-8.839-30.43-46.87-48.325-80.86-48.325-38.714 0-82.766 23.265-82.766 61.848 0 83.564 41.383 83.77 41.383 103.051 0 20.623-94.414 52.207-103.457 66.245v57.863H266.41zm559.599-474.27c169.974 170.044 169.974 445.739 0 615.783-169.974 170.044-445.554 170.044-615.528 0-169.974-170.044-169.974-445.74 0-615.783 169.974-170.045 445.554-170.045 615.528 0z" fill-rule="evenodd"/>
</svg>
