<svg width="1024" height="1024" viewBox="0 0 1024 1024">
    <path d="M146.19 397.061c28.311 22.43 64.598 41.87 106.766 57.72 72.274 27.115 161.794 43.264 259.09 43.264 97.295 0 186.815-16.249 259.089-43.264 42.267-15.85 78.454-35.39 106.766-57.72 22.43-17.744 39.775-37.084 51.14-57.72 10.168-18.342 16.05-37.681 16.05-57.719C945.19 161.997 751.395 65 512.144 65S79 161.997 79 281.523c0 20.037 5.882 39.376 16.05 57.719 11.464 20.635 28.81 40.075 51.14 57.82zM878 512.5c-28.311 22.43-64.598 41.869-106.766 57.72-72.274 27.115-161.793 43.264-259.09 43.264-97.295 0-186.815-16.25-259.089-43.265-42.267-15.85-78.454-35.389-106.766-57.719-22.43-17.744-39.775-37.084-51.14-57.72-10.168 18.343-16.05 37.683-16.05 57.72s5.882 39.377 16.05 57.72c11.365 20.635 28.71 40.074 51.14 57.719 76.76 60.61 211.738 101.084 365.856 101.084 154.217 0 289.095-40.474 365.855-101.084 22.43-17.745 39.676-37.084 51.14-57.72 10.169-18.342 16.05-37.682 16.05-57.719s-5.881-39.377-16.05-57.72c-11.464 20.636-28.81 40.075-51.14 57.72zM512.145 844.561c-199.177 0-366.454-67.29-416.996-158.803-10.168 18.343-16.05 37.682-16.05 57.72C79.1 863.002 272.994 960 512.246 960c239.251 0 433.145-96.997 433.145-216.523 0-20.037-5.882-39.376-16.05-57.719-50.841 91.514-218.118 158.803-417.195 158.803z" fill-rule="evenodd"/>
</svg>
