<svg width="1024" height="1024" viewBox="0 0 1024 1024">
    <g fill="none" fill-rule="evenodd">
        <path d="M339.096 271.012v527.49h561.59V286.415L732.582 112.713H339.096v158.3zm51.049-105.55h306.294v158.3h153.147v421.99H390.145v-580.29zm357.343 37.293l66.007 68.257h-66.007v-68.257z" fill="#000"/>
        <path fill="#FFF" d="M328.582 517.295h238.115v312.526H328.582z"/>
        <path d="M157.547 623.08c14.47 11.502 33.014 21.472 54.565 29.6 36.938 13.906 82.69 22.188 132.415 22.188 49.726 0 95.478-8.333 132.415-22.188 21.602-8.128 40.097-18.149 54.566-29.6 11.463-9.1 20.328-19.019 26.137-29.601 5.196-9.407 8.202-19.325 8.202-29.601.051-61.35-98.993-111.093-221.269-111.093-122.276 0-221.37 49.744-221.37 111.042 0 10.275 3.005 20.194 8.202 29.6 5.86 10.583 14.724 20.552 26.137 29.652zm374.012 59.201c-14.47 11.503-33.015 21.472-54.566 29.601-36.937 13.906-82.689 22.188-132.415 22.188-49.725 0-95.477-8.333-132.415-22.188-21.602-8.129-40.096-18.15-54.565-29.6-11.464-9.101-20.329-19.02-26.137-29.602-5.197 9.407-8.203 19.325-8.203 29.601s3.006 20.194 8.203 29.601c5.808 10.583 14.673 20.552 26.137 29.6 39.23 31.084 108.214 51.84 186.98 51.84 78.818 0 147.75-20.756 186.981-51.84 11.463-9.1 20.277-19.017 26.137-29.6 5.196-9.407 8.202-19.325 8.202-29.6 0-10.277-3.006-20.195-8.202-29.602-5.86 10.583-14.725 20.552-26.137 29.601zm-186.98 170.295c-101.796 0-187.287-34.51-213.118-81.441-5.197 9.407-8.203 19.325-8.203 29.6 0 61.299 99.095 111.042 221.371 111.042C466.905 911.777 566 862.034 566 800.736c0-10.276-3.006-20.194-8.203-29.601-25.983 46.932-111.475 81.44-213.219 81.44z" fill="#000"/>
    </g>
</svg>
