<svg width="1024" height="1024" viewBox="0 0 1024 1024">
    <path d="M511.102 65l184.593 106.281L512.5 278.961 326.508 171.28 511.102 65zM245.398 821.555L65 718.07V367.062l180.398 103.485v351.008zM88.773 309.727l177.602-103.485 184.594 106.281-176.203 104.883-185.993-107.68zm391.563 647.476l-170.61-99.289V506.906l170.61 99.29v351.007zm33.562-401.351l-179-103.485L512.5 348.883l179 103.484-177.602 103.485zm206.97 302.062L543.265 960V608.992l176.203-102.086v351.008h1.398zM572.632 313.922L755.828 207.64l179 103.484-183.195 106.281-179-103.484zM960 718.07L785.195 820.156V469.148L960 367.062V718.07z" fill-rule="evenodd"/>
</svg>
