<svg width="1024" height="1024" viewBox="0 0 1024 1024">
    <path d="M969.047 144.465V960H54V144.465l166.004-3.14V78.393S243.167 65 266 65c22.832 0 45.65 13.393 45.65 13.393v62.932h399.749V78.393S737.746 65 759.573 65c21.826 0 43.47 13.393 43.47 13.393v62.932l166.004 3.14zM106.29 193.926l-2.418 116.068h809.931l1.181-116.068-111.94-2.41v21.583h-91.646v-21.584H311.649V213.1h-91.645v-21.584l-113.714 2.411zm229.862 405.828V376.82H107.136v222.934h229.016zm60.863-222.934v222.934h229.017V376.82H397.015zm284.507 0v222.934H910.54V376.82H681.522zm-345.37 528.39V654.408H107.136v222.934l28.627 27.867h200.39zm60.863 0h229.017V654.408H397.015v250.8zm484.897-5.358l28.627-27.867V649.05H681.522v250.801h200.39z" fill-rule="evenodd"/>
</svg>
