<svg width="1024" height="1024" viewBox="0 0 1024 1024">
    <g fill-rule="evenodd">
        <path d="M221.754 161.167c-4.876.915-8.754 5.714-8.671 10.679v64.076h-75.706c-5.252.5-9.715 5.421-9.671 10.679v74.755H62.672c-5.252.5-9.713 5.424-9.672 10.68V695.13c0 5.592 5.086 10.682 10.674 10.682h64.032v74.753c0 5.59 5.085 10.679 10.672 10.679h74.705v64.078c0 5.588 5.086 10.677 10.672 10.677h576.297c5.588 0 10.674-5.09 10.674-10.677v-64.078h74.703c5.589 0 10.674-5.09 10.674-10.68v-74.752h64.032c5.586 0 10.672-5.09 10.672-10.682V332.035c0-5.59-5.086-10.679-10.672-10.679h-64.032v-74.755c0-5.59-5.085-10.68-10.674-10.68h-74.703v-64.075c0-5.59-5.086-10.68-10.674-10.68H223.755a8.067 8.067 0 0 0-2.001 0zm12.67 686.138V245.593l.003-63.068H789.38v660.109l-554.956 4.671zM149.05 257.28h64.034v512.606H149.05V696.8a11.22 11.22 0 0 0 0-1.67V257.28zm661.677 0h64.031v72.753a8.083 8.083 0 0 0 0 2.002v437.851h-64.03V257.28zM74.346 684.45h53.362V342.714H74.346v341.737zm821.757 0h53.362V342.714h-53.362v341.737z"/>
        <path d="M314.016 556.479c0 35.57 89.713 64.521 200 64.521 110.188 0 199.816-28.9 199.984-64.433v-.15c-.016-2.403 0-51.364 0-51.364-41.115 30.227-120.734 44.255-200 44.255S355.08 535.28 314 505l.016 51.483v-.004z"/>
        <path d="M713.965 605.019c-41.096 30.245-120.711 44.28-199.974 44.28-79.263 0-158.91-14.035-199.991-44.299v58.649C325.063 695.91 411.053 721 514.007 721c102.937 0 188.909-25.086 199.993-57.351l-.035-58.63zM314.016 456.47c0 35.576 89.715 64.53 200.001 64.53 110.186 0 199.815-28.903 199.98-64.442v-.153c-.013-2.403.003-51.37.003-51.37-41.114 30.233-120.735 44.281-199.999 44.281-79.266 0-158.919-14.05-200.001-44.316l.016 51.472v-.002z"/>
        <path d="M714 356c0 35.902-89.553 65-200.01 65C403.532 420.998 314 391.902 314 356c0-35.905 89.534-65 199.992-65C624.45 291 714 320.098 714 356"/>
    </g>
</svg>
