<?xml version="1.0" encoding="UTF-8"?>
<svg width="1024px" height="1024px" viewBox="0 0 1024 1024" version="1.1" xmlns="http://www.w3.org/2000/svg" xmlns:xlink="http://www.w3.org/1999/xlink">
    <!-- Generator: Sketch 46.2 (44496) - http://www.bohemiancoding.com/sketch -->
    <title>DB-Collection</title>
    <desc>Created with Sketch.</desc>
    <defs></defs>
    <g id="Page-1" stroke="none" stroke-width="1" fill="none" fill-rule="evenodd">
        <g id="DB-Collection" fill="#000000">
            <g id="Page-1" transform="translate(53.000000, 161.000000)">
                <g id="Group-3">
                    <path d="M168.753661,0.166568335 C163.877661,1.08243827 159.999914,5.88095078 160.08291,10.8455656 L160.08291,74.9218565 L85.377506,74.9218565 L84.376946,74.9218565 C79.1251588,75.4224705 74.6618314,80.3432528 74.7056347,85.6008538 L74.7056347,160.356142 L10.6744072,160.356142 L9.67154182,160.356142 C4.41975467,160.856756 -0.0412673353,165.779845 0.000230543773,171.035139 L0.000230543773,534.130276 C0.000230543773,539.722388 5.08602617,544.81158 10.6744072,544.81158 L74.7056347,544.81158 L74.7056347,619.564561 C74.7056347,625.154367 79.7914303,630.243558 85.377506,630.243558 L160.08291,630.243558 L160.08291,694.322156 C160.08291,699.909655 165.168706,704.998847 170.754781,704.998847 L747.051967,704.998847 C752.640348,704.998847 757.726143,699.909655 757.726143,694.322156 L757.726143,630.243558 L832.429242,630.243558 C838.017623,630.243558 843.103419,625.154367 843.103419,619.564561 L843.103419,544.81158 L907.134646,544.81158 C912.720722,544.81158 917.806518,539.722388 917.806518,534.130276 L917.806518,171.035139 C917.806518,165.445334 912.720722,160.356142 907.134646,160.356142 L843.103419,160.356142 L843.103419,85.6008538 C843.103419,80.0110481 838.017623,74.9218565 832.429242,74.9218565 L757.726143,74.9218565 L757.726143,10.8455656 C757.726143,5.25575997 752.640348,0.166568335 747.051967,0.166568335 L170.754781,0.166568335 C170.08851,0.0835171569 169.419933,0.0835171569 168.753661,0.166568335 L168.753661,0.166568335 Z M181.424347,686.305411 L181.424347,85.5939328 L181.424347,84.5927048 L181.426653,21.524563 L736.380095,21.524563 L736.380095,681.633782 L181.424347,686.305411 Z M96.0493772,96.2798511 L160.08291,96.2798511 L160.08291,608.885564 L96.0493772,608.885564 L96.0493772,535.800527 C96.0908751,535.25608 96.0908751,534.672415 96.0493772,534.130276 L96.0493772,171.032832 L96.0493772,170.033911 L96.0493772,96.2798511 Z M757.726143,96.2798511 L821.757371,96.2798511 L821.757371,169.032683 C821.674375,169.699399 821.674375,170.366116 821.757371,171.035139 L821.757371,534.130276 L821.757371,535.133811 L821.757371,608.885564 L757.726143,608.885564 L757.726143,96.2798511 Z M21.3462785,523.451278 L74.7079401,523.451278 L74.7079401,181.714137 L21.3462785,181.714137 L21.3462785,523.451278 Z M843.103419,523.451278 L896.46508,523.451278 L896.46508,181.714137 L843.103419,181.714137 L843.103419,523.451278 Z" id="Fill-1"></path>
                </g>
                <path d="M261.016128,395.478729 C261.016128,431.049719 350.728821,460 461.016128,460 C571.204364,460 660.831809,431.100594 661,395.566604 L661,395.416291 C660.983872,393.013596 661,344.053188 661,344.053188 C619.885331,374.279973 540.26641,388.307643 461,388.307643 C381.73359,388.307643 302.08011,374.279973 261,344 C261,344 261.016128,393.043659 261.016128,395.483354 L261.016128,395.478729 Z" id="Fill-4"></path>
                <path d="M660.965442,444.018502 C619.868794,474.26449 540.253542,488.298184 460.990784,488.298184 C381.728027,488.298184 302.080521,474.26449 261,444 L261,502.648723 C272.063242,534.911418 358.053335,560 461.006912,560 C563.944361,560 649.916023,534.913731 661,502.648723 L660.965442,444.018502 Z" id="Fill-6"></path>
                <path d="M261.016128,295.469724 C261.016128,331.045678 350.730608,360 461.01728,360 C571.202577,360 660.83181,331.096561 660.997696,295.557611 L660.997696,295.404965 C660.983872,293.001934 661,244.034692 661,244.034692 C619.885567,274.268009 540.264802,288.31614 461.001152,288.31614 C381.735198,288.31614 302.082177,274.265696 261,244 C261,244 261.016128,293.052816 261.016128,295.472037 L261.016128,295.469724 Z" id="Fill-8"></path>
                <path d="M661,195 C661,230.902477 571.44728,260 460.989632,260 C350.531984,259.99767 261,230.902477 261,195 C261,159.095194 350.534288,130 460.991936,130 C571.449584,130 661,159.097523 661,195" id="Fill-10"></path>
            </g>
        </g>
    </g>
</svg>