<svg width="1024" height="1024" viewBox="0 0 1024 1024">
    <path d="M491.3 774.557c56.4 0 96.002-9 118.803-27.001 22.8-18 34.2-40.801 34.2-68.802 0-20.6-5-38.2-14.8-52.801-10-14.6-23.2-27.6-39.601-38.601-16.4-11-35.6-20.8-57.201-29.6-21.601-8.801-43.802-17.201-66.602-25.401-22-8-43.801-17-65.402-27.001-21.6-10-40.8-22-57.801-36.401-16.8-14.4-30.601-31.6-41.201-51.601-10.6-20.201-16-45.002-16-74.202 0-52.002 15.6-94.803 46.8-128.204 31.201-33.4 76.402-54.401 135.804-63.201V25.537H559.7v123.204c32.201 1.4 62.402 5.6 90.203 12.2 27.8 6.6 49.8 12.8 66.001 18.8l-21 85.803c-17.6-6.6-39.601-13.4-66.002-20.4-26.4-7.001-59.402-10.401-99.003-10.401-44 0-78.002 8.4-101.802 25.2-23.8 16.8-35.801 40.802-35.801 71.602 0 16.8 3.4 31.201 10.4 42.801 7 11.8 17 22.201 30.201 31.401 13.2 9.2 28.8 17.4 46.801 24.8 18 7.401 38.001 15.001 60.002 23.201 28.6 11 55.801 22.401 81.402 34.001 25.6 11.8 48.201 25.801 67.602 42.401 19.4 16.4 35 36.201 46.8 58.802 11.801 22.8 17.601 50.201 17.601 82.602 0 52.001-15.8 94.002-47.201 126.003-31.6 32.001-80.202 51.802-146.204 60.002v141.803h-91.4V860.76c-51.401-1.4-93.203-7.2-125.403-17-32.201-9.8-56.402-19.201-72.602-28.001l27.4-82.402c22.001 10.2 48.402 19.8 79.203 28.6 30.8 8.2 69.001 12.6 114.402 12.6z"/>
</svg>
