<svg width="1024" height="1024" viewBox="0 0 1024 1024">
    <path d="M513 943C275.518 943 83 750.482 83 513S275.518 83 513 83s430 192.518 430 430-192.518 430-430 430zm-93.226-245.985l241.366-241.96-87.992-87.962-241.368 241.96L299 730l120.774-32.985zM694.13 287.678c-6.159-5.786-13.219-8.683-21.177-8.678-7.963.005-14.836 2.913-20.614 8.709l-49.902 50.021 87.991 87.961 49.903-50.024c5.778-5.793 8.674-12.682 8.669-20.654-.005-7.964-2.912-15.027-8.697-21.186l-46.173-46.149z" fill-rule="evenodd"/>
</svg>
