<svg width="1024" height="1024" viewBox="0 0 1024 1024">
    <g fill-rule="evenodd">
        <path transform="translate(299 279)" d="M120.774 418.015L0 451l32.78-120.947 241.368-241.96 87.992 87.961-241.366 241.96zM395.13 8.678C388.971 2.892 381.911-.005 373.953 0c-7.963.005-14.836 2.913-20.614 8.709L303.437 58.73l87.991 87.961 49.903-50.024c5.778-5.793 8.674-12.682 8.669-20.654-.005-7.964-2.912-15.027-8.697-21.186L395.13 8.678z" />
        <path d="M512 78c77.64 0 149.455 19.26 215.448 57.781s118.25 90.778 156.77 156.771C922.74 358.545 942 430.361 942 508c0 77.64-19.26 149.455-57.781 215.448s-90.778 118.25-156.771 156.77C661.455 918.74 589.639 938 512 938c-77.64 0-149.455-19.26-215.448-57.781s-118.25-90.778-156.77-156.771C101.26 657.455 82 585.639 82 508c0-77.64 19.26-149.455 57.781-215.448s90.778-118.25 156.771-156.77C362.545 97.26 434.361 78 512 78zm0 788.333c97.424 0 181.502-35.366 252.235-106.098C834.967 689.502 870.333 605.425 870.333 508c0-97.424-35.366-181.502-106.098-252.235C693.502 185.033 609.425 149.667 512 149.667c-97.424 0-181.502 35.366-252.235 106.098C189.033 326.498 153.667 410.575 153.667 508c0 97.424 35.366 181.502 106.098 252.235C330.498 830.967 414.575 866.333 512 866.333z"/>
    </g>
</svg>
