<?xml version="1.0" encoding="UTF-8"?>
<svg width="1024px" height="1024px" viewBox="0 0 1024 1024" version="1.1" xmlns="http://www.w3.org/2000/svg" xmlns:xlink="http://www.w3.org/1999/xlink">
    <!-- Generator: Sketch 47.1 (45422) - http://www.bohemiancoding.com/sketch -->
    <title>draft</title>
    <desc>Created with Sketch.</desc>
    <defs></defs>
    <g id="Page-1" stroke="none" stroke-width="1" fill="none" fill-rule="evenodd">
        <g id="draft">
            <path d="M513,943 C275.517558,943 83,750.482442 83,513 C83,275.517558 275.517558,83 513,83 C750.482442,83 943,275.517558 943,513 C943,750.482442 750.482442,943 513,943 Z M419.774259,697.014593 L419.773808,697.014593 L661.139647,455.054177 L573.148042,367.09279 L331.779948,609.053206 L299,730 L419.774259,697.014593 Z M694.130241,287.678476 C687.971004,281.892077 680.910999,278.99504 672.952932,279.000006 C664.989903,279.004522 658.117088,281.912847 652.338998,287.708728 L602.436779,337.730034 L690.428384,425.691421 L740.330603,375.667406 C746.108693,369.873783 749.004955,362.98474 748.999994,355.013372 C748.995483,347.049229 746.087945,339.986345 740.302638,333.827432 L694.130241,287.678476 L694.130241,287.678476 Z" id="Combined-Shape" fill="#000000"></path>
            <g id="Icon/Public" transform="translate(299.000000, 279.000000)"></g>
        </g>
    </g>
</svg>