<svg width="1024" height="1024" viewBox="0 0 1024 1024">
    <path d="M213.036 695.21a695.96 695.96 0 0 1-17.43-11.16c-39.39-26.058-75.638-55.882-102.068-83.985C61.55 566.057 46 537.365 46 512.346c0-25.02 15.55-53.712 47.535-87.72 26.43-28.1 62.678-57.927 102.067-83.985 58.776-38.883 177.259-104.115 310.396-104.115 11.342 0 22.567.507 33.67 1.398l-61.458 86.042c-94.414 7.854-179.515 53.37-224.056 81.52-69.665 44.031-110.535 88.637-120.438 106.862 9.903 18.226 50.771 62.832 120.436 106.86a623.917 623.917 0 0 0 9.132 5.655l-50.248 70.346zm705.426-270.585c-26.432-28.101-62.68-57.928-102.068-83.986-29.334-19.406-73.56-45.357-127.043-66.497l103.18-144.454L736.97 90l-575 805 55.562 39.69 125.94-176.317c48.859 17.3 104.285 29.792 162.529 29.792 133.14 0 251.618-65.23 310.394-104.113 39.39-26.058 75.638-55.884 102.068-83.984 31.986-34.01 47.536-62.702 47.538-87.727-.002-25.016-15.552-53.709-47.538-87.716zm-160.616 194.58c-48.873 30.89-146.581 82.71-251.846 82.71-38.33 0-75.652-6.877-109.981-17.108l52.176-73.045c16.985 9.901 36.728 15.584 57.805 15.584 63.514 0 115-51.485 115-115 0-34.717-15.403-65.812-39.729-86.891l56.167-78.631c50.575 17.632 93.11 41.41 120.408 58.662 69.667 44.031 110.533 88.635 120.436 106.86-9.903 18.226-50.77 62.83-120.436 106.859z" fill-rule="evenodd"/>
</svg>
