<svg width="1024" height="1024" viewBox="0 0 1024 1024">
    <path d="M502 784c-132.56 0-250.526-65.036-309.046-103.803-39.218-25.98-75.309-55.718-101.624-83.736C59.483 562.552 44 533.945 44 509c0-24.944 15.483-53.552 47.331-87.46 26.316-28.018 62.407-57.755 101.625-83.736C251.474 299.038 369.44 234 502 234c132.559 0 250.524 65.038 309.044 103.805 39.217 25.98 75.307 55.718 101.625 83.736 31.847 33.907 47.33 62.514 47.331 87.454-.002 24.95-15.484 53.557-47.331 87.466-26.316 28.018-62.407 57.753-101.625 83.734C752.524 718.964 634.561 784 502 784zM131.337 509c9.86 18.171 50.55 62.644 119.912 106.542C299.91 646.34 397.195 698.005 502 698.005c104.807 0 202.09-51.666 250.751-82.464 69.362-43.898 110.053-88.37 119.91-106.541-9.86-18.171-50.55-62.643-119.911-106.542-48.661-30.799-145.945-82.465-250.75-82.465s-202.089 51.666-250.75 82.465C181.888 446.356 141.196 490.828 131.337 509zm256.163 0c0-63.323 51.264-114.658 114.5-114.658S616.5 445.677 616.5 509 565.236 623.658 502 623.658 387.5 572.323 387.5 509z" fill-rule="evenodd"/>
</svg>
