<?xml version="1.0" standalone="no"?>
<!DOCTYPE svg PUBLIC "-//W3C//DTD SVG 1.1//EN" "http://www.w3.org/Graphics/SVG/1.1/DTD/svg11.dtd" >
<svg xmlns="http://www.w3.org/2000/svg" xmlns:xlink="http://www.w3.org/1999/xlink" version="1.1" viewBox="0 0 1024 1024">
  <g transform="matrix(1 0 0 -1 0 819)">
   <path fill="currentColor"
d="M910.098 830.545h-795.303c-26.7944 0.455136 -49.3393 -22.0838 -49.3393 -49.3393v-795.303c0 -27.2488 22.0838 -49.3393 49.3393 -49.3393h428.163v346.195h-116.502v134.921h116.502v99.4992c0 115.47 70.5253 178.345 173.531 178.345
c49.3393 0 91.7482 -3.67449 104.105 -5.31578v-120.672l-71.4398 -0.033496c-56.0217 0 -66.8676 -26.6191 -66.8676 -65.6818v-86.1411h133.605l-17.3977 -134.921h-116.207v-346.195h227.811c27.2488 0 49.3393 22.0905 49.3393 49.3393v795.303
c0 27.2555 -22.0905 49.3393 -49.3393 49.3393z" />
  </g>

</svg>
