<svg width="1024" height="1024" viewBox="0 0 1024 1024">
    <path d="M904.644 750.681c0 5.644-1.613 8.869-4.838 12.9L767.581 895.806c-4.031 3.225-8.062 4.838-12.9 4.838-5.644 0-9.675-1.613-13.706-4.838L512 666.831 283.025 895.806c-4.031 3.225-8.063 4.838-13.706 4.838-5.644 0-8.869-1.613-12.9-4.838L124.194 763.581c-3.225-4.031-4.838-8.062-4.838-12.9 0-5.644 1.613-9.675 4.838-13.706L353.169 508 124.194 279.025c-3.225-4.031-4.838-8.063-4.838-13.706 0-5.644 1.613-8.869 4.838-12.9l132.225-132.225c4.031-3.225 8.062-4.838 12.9-4.838 5.643 0 9.675 1.613 13.706 4.838L512 349.169l228.975-228.975c4.031-3.225 8.063-4.838 13.706-4.838 5.644 0 8.869 1.613 12.9 4.838l132.225 132.225c3.225 4.031 4.838 8.062 4.838 12.9 0 5.643-1.613 9.675-4.838 13.706L670.831 508l228.975 228.975c2.419 4.031 4.838 8.063 4.838 13.706z" fill-rule="evenodd"/>
</svg>
