<svg width="1024" height="1024" viewBox="0 0 1024 1024">
    <path d="M642.543 662.71v75.055H374.778l-97.386 75.054v-75.054H167.847V400.021h219.09v-75.054h-219.09c-40.276 0-73.03 33.624-73.03 75.054v337.744c0 41.393 32.754 75.054 73.03 75.054h36.515v150.109l194.735-150.109h243.446c40.276 0 73.03-33.661 73.03-75.054v-75.054h-73.03zm72.048-76.172c-140.948 0-255.605-117.835-255.605-262.69 0-144.817 114.657-262.69 255.605-262.69 140.948 0 255.606 117.873 255.606 262.69 0 144.855-114.658 262.69-255.606 262.69zm0-450.325c-100.672 0-182.575 84.173-182.575 187.635 0 103.463 81.903 187.636 182.575 187.636 100.672 0 182.576-84.173 182.576-187.636 0-103.462-81.904-187.635-182.576-187.635zm-36.515 187.635h73.03v150.109h-73.03V323.848zm36.515-37.527c20.167 0 36.515-16.801 36.515-37.527 0-20.726-16.348-37.527-36.515-37.527s-36.515 16.801-36.515 37.527c0 20.726 16.348 37.527 36.515 37.527z" fill="#2C2C2C" fill-rule="evenodd"/>
</svg>
