<svg width="1024" height="1024" viewBox="0 0 1024 1024">
    <path d="M726.766 876.024C660.98 914.423 589.385 933.623 512 933.623c-77.4 0-148.99-19.2-214.766-57.599-65.786-38.394-117.876-90.484-156.275-156.275C102.56 653.973 83.36 582.383 83.36 504.978c0-77.382 19.2-148.977 57.599-214.767 38.398-65.776 90.489-117.876 156.275-156.275C363.01 95.538 434.6 76.343 512 76.343c77.386 0 148.98 19.2 214.766 57.599 65.782 38.399 117.881 90.499 156.275 156.275 38.399 65.786 57.599 137.381 57.599 214.766 0 77.404-19.2 148.995-57.599 214.766-38.394 65.786-90.499 117.877-156.275 156.275zM369.12 810.388c-30.362-66.086-49.115-148.825-56.259-248.253H183.376c8.93 55.963 29.76 105.373 62.51 148.238 32.731 42.864 73.814 76.21 123.234 100.016zM184.269 447.831h129.485c5.945-94.056 24.402-175.028 55.366-242.896-49.42 23.218-90.348 55.521-122.787 96.89-32.459 41.384-53.134 90.052-62.064 146.006zm295.583 362.111c14.288 21.738 25.003 32.595 32.148 32.595 7.145 0 17.86-10.857 32.148-32.595 14.288-21.728 28.868-55.37 43.757-100.914 14.876-45.543 24.111-94.498 27.683-146.893H408.412c3.572 52.396 12.794 101.356 27.683 146.893 14.871 45.543 29.469 79.186 43.757 100.914zm134.843-362.11c-2.383-37.507-7.008-72.78-13.841-105.821-6.853-33.042-14.288-60.123-22.325-81.264-8.037-21.126-16.676-39.433-25.897-54.919-9.236-15.477-17.272-26.635-24.111-33.492-6.853-6.839-12.366-10.27-16.521-10.27-4.174 0-9.686 3.432-16.52 10.27-6.849 6.853-14.886 18.015-24.112 33.492-9.236 15.486-17.86 33.793-25.897 54.92-8.037 21.136-15.486 48.221-22.325 81.263-6.853 33.04-11.473 68.314-13.841 105.82h205.39zm225.036 0c-8.925-55.955-29.619-104.623-62.063-146.006-32.454-41.37-73.382-73.673-122.788-96.891 30.95 67.868 49.406 148.84 55.36 242.896h129.491zM654.88 810.387c49.406-23.805 90.484-57.151 123.234-100.016 32.735-42.864 53.58-92.275 62.51-148.238H711.139c-7.144 99.429-25.897 182.172-56.259 248.254z" fill-rule="evenodd"/>
</svg>
