<?xml version="1.0" encoding="UTF-8" standalone="no"?>
<svg width="1024px" height="1024px" viewBox="0 0 1024 1024" version="1.1" xmlns="http://www.w3.org/2000/svg" xmlns:xlink="http://www.w3.org/1999/xlink">
    <!-- Generator: Sketch 39.1 (31720) - http://www.bohemiancoding.com/sketch -->
    <title>google</title>
    <desc>Created with Sketch.</desc>
    <defs>
        <path d="M849.732558,446.863636 L808.395349,446.863636 L672.809302,446.863636 L510.767442,446.863636 L510.767442,584.215909 L705.87907,584.215909 C687.690698,671.475 611.630233,721.568182 510.767442,721.568182 C391.716279,721.568182 295.813953,627.845455 295.813953,511.5 C295.813953,395.154545 391.716279,301.431818 510.767442,301.431818 C562.025581,301.431818 608.323256,319.206818 644.7,348.293182 L750.523256,244.875 C686.037209,189.934091 603.362791,156 510.767442,156 C309.04186,156 147,314.359091 147,511.5 C147,708.640909 309.04186,867 510.767442,867 C692.651163,867 858,737.727273 858,511.5 C858,490.493182 854.693023,467.870455 849.732558,446.863636 L849.732558,446.863636 Z" id="path-1"></path>
    </defs>
    <g id="Page-1" stroke="none" stroke-width="1" fill="none" fill-rule="evenodd">
        <g id="google">
            <mask id="mask-2" fill="white">
                <use xlink:href="#path-1"></use>
            </mask>
            <use id="shape" fill="#2C2C2C" xlink:href="#path-1"></use>
        </g>
    </g>
</svg>