<svg width="1024" height="1024" viewBox="0 0 1024 1024">
    <path fill="#2C2C2C" fill-rule="evenodd" d="M849.733 446.864H510.767v137.352H705.88c-18.188 87.259-94.249 137.352-195.112 137.352-119.05 0-214.953-93.723-214.953-210.068 0-116.345 95.902-210.068 214.953-210.068 51.259 0 97.556 17.775 133.933 46.861l105.823-103.418C686.037 189.935 603.363 156 510.767 156 309.042 156 147 314.36 147 511.5S309.042 867 510.767 867C692.651 867 858 737.727 858 511.5c0-21.007-3.307-43.63-8.267-64.636z" />
</svg>
