<svg width="1024" height="1024" viewBox="0 0 1024 1024">
    <path d="M512.5 944C274.741 944 82 751.259 82 513.5S274.741 83 512.5 83 943 275.741 943 513.5 750.259 944 512.5 944zM467 621.264h-50.705V415.299H467V310H257v105.3h50.705v205.964H257V725h210V621.264zM511 310v415h149.79c32.018 0 59.947-7.247 83.222-22.054 21.714-12.72 39.634-29.807 52.58-50.608 4.535-7.356 8.4-14.415 11.652-21.29 3.91-8.988 6.485-17.987 8.156-27.79 3.128-17.075 4.6-45.42 4.6-85.758 0-37.519-.94-64.056-2.928-80.295-3.03-19.54-9.959-37.298-20.745-53.958-28.982-47.725-74.411-72.854-132.633-73.246L537.99 310H511zm105 307V414.024h38.342c19.644-.46 32.61 5.669 42.464 19.258 5.379 6.277 7.997 12.38 9.254 20.96 1.225 11.315 1.94 32.893 1.94 63.244 0 30.993-.713 52.055-2.01 62.275-.98 7.028-3.084 12.354-6.066 16.137-9.83 14.683-23.49 21.102-45.582 21.102H616z" fill-rule="evenodd"/>
</svg>
