<?xml version="1.0" encoding="UTF-8" standalone="no"?>
<svg width="1024px" height="1024px" viewBox="0 0 1024 1024" version="1.1" xmlns="http://www.w3.org/2000/svg" xmlns:xlink="http://www.w3.org/1999/xlink">
    <!-- Generator: Sketch 40.3 (33839) - http://www.bohemiancoding.com/sketch -->
    <title>image</title>
    <desc>Created with Sketch.</desc>
    <defs></defs>
    <g id="Page-1" stroke="none" stroke-width="1" fill="none" fill-rule="evenodd">
        <g id="image" fill="#2F2F2F">
            <path d="M955.214149,160.439244 L955.214149,863.560756 L69.4990401,863.560756 L69.4990401,160.439244 L955.214149,160.439244 Z M137.630972,222.609633 L137.630972,803.860173 L887.082217,803.860173 L887.082217,222.609633 L137.630972,222.609633 Z M583.06676,581.998918 L634.531652,499.395605 L772.924638,720.824382 L219.352695,720.824382 L440.781472,333.324022 L583.06676,581.998918 Z M689.888846,444.03841 C670.859716,444.03841 654.569871,437.335067 641.018823,423.92818 C627.467776,410.521292 620.692353,394.159368 620.692353,374.841918 C620.692353,355.812787 627.467776,339.522942 641.018823,325.971895 C654.569871,312.420847 670.859716,305.645425 689.888846,305.645425 C708.917977,305.645425 725.207822,312.420847 738.758869,325.971895 C752.309917,339.522942 759.085339,355.812787 759.085339,374.841918 C759.085339,394.159368 752.309917,410.521292 738.758869,423.92818 C725.207822,437.335067 708.917977,444.03841 689.888846,444.03841 L689.888846,444.03841 Z"></path>
        </g>
    </g>
</svg>