<svg width="1024" height="1024" viewBox="0 0 1024 1024">
    <path d="M955.214 160.44v703.12H69.5V160.44h885.715zm-817.583 62.17v581.25h749.451V222.61H137.631zm445.436 359.389l51.465-82.603 138.393 221.428H219.353l221.428-387.5 142.286 248.675zm106.822-137.96c-19.03 0-35.32-6.704-48.87-20.11-13.551-13.408-20.327-29.77-20.327-49.087 0-19.03 6.776-35.32 20.327-48.87 13.55-13.551 29.84-20.327 48.87-20.327 19.029 0 35.319 6.776 48.87 20.327 13.55 13.55 20.326 29.84 20.326 48.87 0 19.317-6.775 35.68-20.326 49.086-13.551 13.407-29.841 20.11-48.87 20.11z" fill="#2F2F2F" fill-rule="evenodd"/>
</svg>
