<svg width="1024" height="1024" viewBox="0 0 1024 1024">
    <g fill="#04002B" fill-rule="evenodd">
        <path d="M512 102c-226.46 0-410 183.54-410 410s183.54 410 410 410 410-183.54 410-410-183.54-410-410-410zm0 743.125c-184.02 0-333.125-149.105-333.125-333.125S327.98 178.875 512 178.875 845.125 327.98 845.125 512 696.02 845.125 512 845.125z"/>
        <path d="M571.258 344.477c0 31.62-25.635 57.255-57.256 57.255s-57.256-25.634-57.256-57.255c0-31.622 25.635-57.256 57.256-57.256s57.256 25.634 57.256 57.256zm-57.256 87.765c-25.225 0-45.645 20.42-45.645 45.645V718.44c0 25.225 20.42 45.645 45.645 45.645s45.644-20.42 45.644-45.645V477.887c0-25.145-20.42-45.645-45.644-45.645z"/>
    </g>
</svg>
