<svg width="1024" height="1024" viewBox="0 0 1024 1024">
    <path d="M512 102c-226.46 0-410 183.54-410 410s183.54 410 410 410 410-183.54 410-410-183.54-410-410-410zm47.646 616.441c0 25.225-20.42 45.645-45.644 45.645-25.225 0-45.645-20.42-45.645-45.645V477.887c0-25.225 20.42-45.645 45.645-45.645s45.644 20.42 45.644 45.645V718.44zm-45.644-316.709c-31.63 0-57.256-25.625-57.256-57.255 0-31.631 25.625-57.256 57.256-57.256 31.63 0 57.256 25.625 57.256 57.256 0 31.63-25.625 57.255-57.256 57.255z" fill-rule="evenodd"/>
</svg>
