<svg width="1024" height="1024" viewBox="0 0 1024 1024">
    <path d="M451.704 616.084c-11.183 0-22.362-4.265-30.894-12.796-79.93-79.933-79.93-209.993 0-289.926l161.317-161.317C620.85 113.325 672.331 92 727.09 92c54.76 0 106.241 21.324 144.964 60.044 79.93 79.932 79.93 209.993 0 289.925l-73.74 73.74c-17.063 17.063-44.724 17.063-61.788 0-17.061-17.06-17.061-44.725 0-61.787l73.74-73.74c45.861-45.863 45.861-120.488 0-166.35-22.216-22.217-51.756-34.452-83.176-34.452s-60.957 12.235-83.175 34.453L482.596 375.15c-45.862 45.862-45.862 120.488 0 166.351 17.063 17.061 17.061 44.725 0 61.788-8.528 8.53-19.712 12.796-30.892 12.796zM296.91 932.194c-54.76 0-106.242-21.324-144.962-60.044-79.93-79.933-79.93-209.993 0-289.926l73.739-73.738c17.063-17.061 44.727-17.061 61.788 0 17.062 17.06 17.062 44.725 0 61.788l-73.739 73.738c-45.863 45.863-45.863 120.49 0 166.352 22.215 22.215 51.754 34.45 83.174 34.45 31.42 0 60.958-12.235 83.178-34.453l161.317-161.316c45.861-45.863 45.861-120.489 0-166.352-17.063-17.062-17.061-44.725 0-61.787 17.06-17.061 44.725-17.061 61.788.001 79.929 79.931 79.929 209.992.001 289.924L441.876 872.148c-38.725 38.723-90.207 60.046-144.966 60.046z" fill-rule="evenodd"/>
</svg>
