<svg width="1024" height="1024" viewBox="0 0 1024 1024">
    <path d="M512.54 63.68c-244.825 0-443.29 198.465-443.29 443.289 0 244.824 198.465 443.289 443.29 443.289 244.823 0 443.288-198.465 443.288-443.29 0-244.823-198.465-443.288-443.289-443.288zM402.12 759.25c-145.187 0-263.242-118.145-263.242-263.242 0-145.098 118.144-263.242 263.242-263.242 27.582 0 54.266 4.312 79.242 12.218-30.187 16.262-57.14 37.735-79.601 63.34-103.32.18-187.325 84.363-187.325 187.684 0 103.41 84.004 187.504 187.325 187.683 22.46 25.606 49.414 47.079 79.601 63.34-25.066 7.996-51.66 12.219-79.242 12.219zm213.649 0c-38.004 0-74.211-9.164-106.825-22.64-3.683-.9-7.277-3.415-10.87-5.212-.09 0-.18-.09-.27-.09-3.504-1.796-7.008-3.593-10.422-5.57-.18-.09-.27-.18-.45-.27a182.24 182.24 0 0 1-9.972-5.929c-.18-.09-.36-.27-.54-.36-3.233-2.066-6.468-4.132-9.612-6.288-.18-.18-.45-.27-.63-.45-3.144-2.156-6.199-4.402-9.253-6.648a2.73 2.73 0 0 0-.63-.45c-3.054-2.335-6.019-4.671-8.894-7.097-.18-.18-.359-.27-.539-.45a172.721 172.721 0 0 1-8.625-7.546c-.09-.09-.27-.18-.36-.36-2.874-2.695-5.75-5.39-8.534-8.175-47.438-47.617-76.817-113.293-76.817-185.707 0-72.414 29.38-138.09 76.817-185.707 2.785-2.785 5.57-5.48 8.535-8.176.09-.09.27-.18.36-.36a323.768 323.768 0 0 1 8.624-7.546c.18-.18.36-.27.54-.45 2.874-2.425 5.929-4.761 8.894-7.097.18-.18.45-.36.629-.45 3.054-2.335 6.11-4.492 9.254-6.648.18-.18.449-.27.629-.449a253.48 253.48 0 0 1 9.613-6.29c.18-.089.36-.269.539-.358a182.24 182.24 0 0 1 9.973-5.93c.18-.09.27-.18.449-.27a382.857 382.857 0 0 1 10.422-5.57c.09 0 .18.18.27.18 3.593-1.797 7.187-4.043 10.87-4.942 32.703-15.273 68.82-22.91 106.825-22.91 145.187 0 263.242 117.965 263.242 263.152 0 145.188-118.055 263.063-263.242 263.063zm-7.457-446.973c-9.075 0-17.97.72-26.684 1.977-1.258.18-2.426.36-3.684.629-1.347.27-2.695.449-4.043.719-1.797.359-3.504.718-5.3 1.078-1.348.27-2.696.629-4.043.898-1.258.27-2.516.629-3.774.988-1.887.54-3.773.989-5.57 1.618a64.059 64.059 0 0 0-3.863 1.257l-3.235 1.079c-1.976.718-4.043 1.437-6.02 2.246-.898.359-1.886.718-2.784 1.078-2.157.898-4.313 1.797-6.47 2.785-.808.36-1.527.719-2.335 1.078-1.348.629-2.785 1.348-4.133 1.977-.629.27-1.258.628-1.887.988-2.336 1.168-4.582 2.426-6.918 3.683-.539.36-1.168.63-1.707.989-2.426 1.437-4.851 2.875-7.187 4.402-.36.27-.719.45-1.078.719-1.348.898-2.786 1.797-4.133 2.785-47.887 33.242-79.242 88.586-79.242 151.117 0 62.531 31.445 117.875 79.242 151.117a66.407 66.407 0 0 0 4.133 2.786c.359.27.718.449 1.078.628 2.336 1.528 4.762 3.055 7.187 4.403.54.36 1.168.629 1.707.988a481.108 481.108 0 0 0 6.918 3.774c.63.269 1.258.628 1.797.898 1.348.719 2.785 1.348 4.133 1.976.809.36 1.527.72 2.336 1.079 2.156.988 4.312 1.886 6.469 2.785.898.36 1.886.719 2.785 1.078 1.976.808 4.043 1.527 6.02 2.246l3.234 1.078c1.258.45 2.605.809 3.863 1.258 1.887.539 3.684 1.078 5.57 1.617 1.258.36 2.516.629 3.774.988 1.347.36 2.695.63 4.043.899 1.797.36 3.504.719 5.3 1.078 1.348.27 2.696.45 4.043.719 1.258.18 2.426.449 3.684.629 8.715 1.257 17.61 1.976 26.684 1.976 101.433 0 183.91-82.476 183.91-183.91.09-101.613-82.387-184.18-183.82-184.18zm-9.165 346.438c-28.57-1.617-55.164-10.602-77.984-25.156 37.824-33.692 61.813-82.746 61.813-137.371 0-54.536-23.899-103.59-61.813-137.372 22.82-14.554 49.414-23.539 77.984-25.156 36.118 44.383 57.77 100.985 57.77 162.527 0 61.543-21.742 118.145-57.77 162.528z" fill-rule="evenodd"/>
</svg>
