<svg width="1024" height="1024" viewBox="0 0 1024 1024">
    <path d="M400.625 120.938H960v111.874H400.625V120.938zm0 335.625H960v111.875H400.625V456.563zm0 335.625H960v111.875H400.625V792.188zM65 176.875C65 115.089 115.089 65 176.875 65S288.75 115.089 288.75 176.875 238.661 288.75 176.875 288.75 65 238.661 65 176.875zM65 512.5c0-61.786 50.089-111.875 111.875-111.875S288.75 450.714 288.75 512.5s-50.089 111.875-111.875 111.875S65 574.286 65 512.5zm0 335.625c0-61.786 50.089-111.875 111.875-111.875S288.75 786.339 288.75 848.125 238.661 960 176.875 960 65 909.911 65 848.125z" fill-rule="evenodd"/>
</svg>
