<svg height="1024" width="1024" viewBox="0 0 1024 1024">
    <path d="M974.197 301.566l-9.941 6.628-59.65 23.198c26.51 56.336 39.766 115.987 39.766 182.265 0 238.602-195.52 434.123-434.123 434.123-238.602 0-434.123-195.521-434.123-434.123S271.647 79.534 510.25 79.534c49.709 0 99.418 9.942 142.499 23.197l19.883-59.65 3.314-13.256C626.236 16.57 569.9 3.314 510.249 3.314 231.88 3.314 3.22 231.974 3.22 513.657S231.88 1024 513.563 1024s510.343-228.66 510.343-510.343c-3.314-76.22-19.883-149.126-49.709-212.09z" class="socrata-icon-logo-ring"/>
    <path d="M629.55 178.951c-36.453-13.255-76.22-19.883-115.987-19.883-198.835 0-361.217 159.068-361.217 354.589s162.382 354.589 361.217 354.589c198.835 0 361.217-159.068 361.217-354.589 0-53.023-13.256-102.731-33.14-149.126l-9.941 6.628-59.65 26.51c16.57 36.454 26.51 72.907 26.51 115.988 0 152.44-125.928 278.369-281.682 278.369-155.754 0-281.683-125.929-281.683-278.369 0-152.44 125.929-278.369 281.683-278.369 33.14 0 62.964 6.628 92.79 16.57l19.883-59.65V178.95z" class="socrata-icon-logo-ring"/>
    <path d="M510.25 646.214c-76.22 0-135.871-59.65-135.871-135.871 0-76.22 59.65-135.87 135.87-135.87 16.57 0 33.14 3.313 46.395 9.941l23.197-69.592c-23.197-6.628-46.394-13.256-72.906-13.256-115.987 0-212.09 92.79-212.09 212.091 0 115.987 96.103 212.09 212.09 212.09 115.987 0 212.09-92.79 212.09-212.09 0-29.825-6.627-56.337-16.569-79.534l-66.278 33.14c6.628 16.569 9.942 29.824 9.942 49.708 0 66.278-59.65 125.929-135.87 129.243z" class="socrata-icon-logo-ring"/>
    <path d="M616.294 400.984l381.1-182.266C941.059 122.615 854.897 46.395 755.48 0L616.294 400.984z" class="socrata-icon-logo-pie"/>
</svg>
