<?xml version="1.0" encoding="UTF-8" standalone="no"?>
<svg
   xmlns:dc="http://purl.org/dc/elements/1.1/"
   xmlns:cc="http://creativecommons.org/ns#"
   xmlns:rdf="http://www.w3.org/1999/02/22-rdf-syntax-ns#"
   xmlns:svg="http://www.w3.org/2000/svg"
   xmlns="http://www.w3.org/2000/svg"
   height="1024"
   width="1024"
   version="1.1"
   id="svg4221"
   viewBox="0 0 1024 1024"
   y="0px"
   x="0px">
  <metadata
     id="metadata4235">
    <rdf:RDF>
      <cc:Work
         rdf:about="">
        <dc:format>image/svg+xml</dc:format>
        <dc:type
           rdf:resource="http://purl.org/dc/dcmitype/StillImage" />
        <dc:title></dc:title>
      </cc:Work>
    </rdf:RDF>
  </metadata>
  <defs
     id="defs4233" />
  <path
     id="path4223"
     d="m 974.19734,301.56634 -9.94174,6.62784 -59.65049,23.19741 c 26.51133,56.33656 39.767,115.98705 39.767,182.26537 0,238.60194 -195.52104,434.12297 -434.12298,434.12297 -238.60195,0 -434.122981,-195.52103 -434.122981,-434.12297 0,-238.60194 195.521031,-434.122979 434.122981,-434.122979 49.70874,0 99.41747,9.941748 142.49838,23.197409 L 672.631,43.080906 675.94492,29.825242 C 626.23618,16.569579 569.89962,3.3139158 510.24913,3.3139158 231.8802,3.3139158 3.22,231.97411 3.22,513.65696 3.22,795.3398 231.8802,1024 513.56304,1024 795.24589,1024 1023.906,795.3398 1023.906,513.65696 1020.5922,437.4369 1004.0226,364.53074 974.19734,301.56634 Z"
     class="socrata-icon-logo-ring" />
  <path
     id="path4225"
     d="m 629.5501,178.95145 c -36.45307,-13.25566 -76.22007,-19.88349 -115.98706,-19.88349 -198.83495,0 -361.21682,159.06796 -361.21682,354.589 0,195.52103 162.38187,354.589 361.21682,354.589 198.83495,0 361.21683,-159.06797 361.21683,-354.589 0,-53.02265 -13.25566,-102.7314 -33.13916,-149.12622 l -9.94175,6.62784 -59.65048,26.51132 c 16.56957,36.45307 26.51132,72.90615 26.51132,115.98706 0,152.44012 -125.9288,278.36893 -281.68284,278.36893 -155.75404,0 -281.68285,-125.92881 -281.68285,-278.36893 0,-152.44013 125.92881,-278.36894 281.68285,-278.36894 33.13916,0 62.9644,6.62784 92.78964,16.56959 l 19.8835,-59.65049 0,-13.25567 z"
     class="socrata-icon-logo-ring" />
  <path
     id="path4227"
     d="m 510.24913,646.2136 c -76.22007,0 -135.87055,-59.6505 -135.87055,-135.87056 0,-76.22007 59.65048,-135.87055 135.87055,-135.87055 16.56958,0 33.13915,3.31392 46.39482,9.94175 l 23.19741,-69.59223 c -23.19741,-6.62783 -46.39482,-13.25567 -72.90615,-13.25567 -115.98706,0 -212.09061,92.78965 -212.09061,212.09062 0,115.98705 96.10355,212.09061 212.09061,212.09061 115.98705,0 212.09061,-92.78965 212.09061,-212.09061 l 0,0 c 0,-29.82524 -6.62783,-56.33658 -16.56957,-79.53399 l -66.27832,33.13916 c 6.62783,16.56959 9.94174,29.82525 9.94174,49.70874 0,66.27832 -59.65048,125.9288 -135.87054,129.24273 z"
     class="socrata-icon-logo-ring" />
  <path
     id="path4229"
     d="M 616.29444,400.98382 997.39475,218.71845 C 941.05819,122.61489 854.89637,46.394822 755.4789,0 L 616.29444,400.98382 Z"
     class="socrata-icon-logo-pie" />
</svg>
