<svg width="1024" height="1024" viewBox="0 0 1024 1024">
    <path d="M721.875 558c44.563-73.313 79.063-150.938 79.063-217.063 0-158.125-127.938-287.5-287.5-287.5-158.125 0-287.5 127.938-287.5 287.5 0 66.125 34.5 142.313 77.625 214.188L52 703.188l461.438 265.937L972 703.187 721.875 558zM507.687 250.375c50.313 0 90.563 40.25 90.563 90.563 0 50.312-40.25 90.562-90.563 90.562-50.312 0-90.562-40.25-90.562-90.563 0-50.312 40.25-90.562 90.563-90.562zM165.563 703.188l143.75-83.375L374 657.188c17.25 23 34.5 44.562 50.313 63.25L310.75 786.563l-145.188-83.375zM513.438 903L368.25 819.625 463.125 765c30.188 33.063 50.313 54.625 50.313 54.625s20.125-20.125 50.312-53.188l93.438 53.188L513.438 903zm87.688-181.125c17.25-21.563 37.375-44.563 56.063-70.438l54.625-31.625L857 703.188l-143.75 83.375-112.125-64.687z" fill-rule="evenodd"/>
</svg>
