<svg width="1024" height="1024" viewBox="0 0 1024 1024">
    <path d="M572.769 514.299c0 33.155-26.674 59.829-59.83 59.829-33.154 0-59.828-26.674-59.828-59.83 0-33.155 26.674-59.828 59.829-59.828s59.829 26.673 59.829 59.829zm-61.823-304.89c.496-.546 1.736-.546 2.232 0l128.712 164.47c.372.546-.248 1.092-1.116 1.092H383.226c-.868 0-1.488-.624-1.116-1.092L510.946 209.41zm0 606.176c.496.547 1.736.547 2.232 0L641.89 651.117c.372-.546-.248-1.092-1.116-1.092H383.226c-.868 0-1.488.624-1.116 1.092l128.836 164.468z" fill-rule="evenodd"/>
</svg>
