<?xml version="1.0" encoding="UTF-8" standalone="no"?>
<svg width="1024px" height="1024px" viewBox="0 0 1024 1024" version="1.1" xmlns="http://www.w3.org/2000/svg" xmlns:xlink="http://www.w3.org/1999/xlink">
    <!-- Generator: Sketch 39.1 (31720) - http://www.bohemiancoding.com/sketch -->
    <title>move-vertical</title>
    <desc>Created with Sketch.</desc>
    <defs></defs>
    <g id="Page-1" stroke="none" stroke-width="1" fill="none" fill-rule="evenodd">
        <g id="move-vertical" fill="#000000">
            <path d="M572.768907,514.298627 C572.768907,547.453841 546.095163,574.127585 512.939949,574.127585 C479.784734,574.127585 453.11099,547.453841 453.11099,514.298627 C453.11099,481.143413 479.784734,454.469669 512.939949,454.469669 C546.095163,454.469669 572.768907,481.143413 572.768907,514.298627 Z M510.94594,209.409553 C511.441819,208.863482 512.68206,208.863482 513.177939,209.409553 L641.889878,373.877729 C642.261878,374.423799 641.641757,374.970098 640.773879,374.970098 L383.226121,374.970098 C382.358243,374.970098 381.738122,374.345855 382.110122,373.877729 L510.94594,209.409553 Z M510.94594,815.585438 C511.441819,816.131508 512.68206,816.131508 513.177939,815.585438 L641.889878,651.117261 C642.261878,650.571191 641.641757,650.024892 640.773879,650.024892 L383.226121,650.024892 C382.358243,650.024892 381.738122,650.649136 382.110122,651.117261 L510.94594,815.585438 Z" id="Combined-Shape"></path>
        </g>
    </g>
</svg>