<svg viewBox="0 0 1024 1024">
    <path fill="currentColor" d="M514.252 111.2h46.59V81.383h-46.59V73.16h-13.977v77.245c-9.56 2.877-16.993 12.453-18.852 24.47-55.646 14.837-97.47 70.642-99.679 138H329v104.632h-45v185.535h-35.544v73.066h525.519v-73.066h-35.016V490.575H739v-73.067h-51V312.876h-47.772c-2.335-71.25-48.998-129.573-109.458-140.156-2.196-10.194-8.461-18.342-16.518-21.63V111.2zm166.495 379.375v112.468h-40.328V490.575h40.328zm-198.174 0v112.468h-42.672V490.575h42.672zm58.213 0v112.468h41.422V490.575h-41.422zm-159.097 0v112.468h-42.69V490.575h42.69zm150.078-119.549v46.482h-42.734v-46.482h42.734zm58.15 0v46.482H629v-46.482h-39.083zm-159.034 0v46.482H385.15v-46.482h45.733zm385.153-246.57c168.608 168.607 168.608 441.973 0 610.58-168.607 168.608-441.973 168.608-610.58 0-168.608-168.607-168.608-441.973 0-610.58 168.607-168.608 441.973-168.608 610.58 0z"/>
</svg>
