<svg width="898" height="961" viewBox="0 0 898 961">
    <path d="M323 279c8.667-26.667 16-61 22-103s9.833-74.833 11.5-98.5C358.167 53.833 359 39 359 33c0-8.667 3.167-16.167 9.5-22.5C374.833 4.167 382.333 1 391 1h116c8.667 0 16.167 3.167 22.5 9.5 6.333 6.333 9.5 13.833 9.5 22.5 0 5.333.833 20 2.5 44s5.5 57 11.5 99 13.333 76.333 22 103c4 9.333 2.667 18.667-4 28-6 9.333-14.667 14-26 14H353c-11.333 0-20-4.667-26-14-6-8-7.333-17.333-4-28zm546-161c8 .667 14.667 4.167 20 10.5s8 13.5 8 21.5v744c0 8-2.5 15-7.5 21s-11.5 9.333-19.5 10c-8 2-31 5.5-69 10.5S709.167 946 639.5 952s-133.167 9-190.5 9-120.833-3-190.5-9S135 940.5 97 935.5 36 927 28 925c-7.333-1.333-13.667-4.833-19-10.5S1 902 1 894V150c0-8 2.667-15.167 8-21.5s12-9.833 20-10.5c74-8.667 160-15.333 258-20-3.333 46.667-9 87.333-17 122-61.333 2.667-108.333 6-141 10v586c147.333 15.333 254 23 320 23 115.333 0 222-7.667 320-23V230c-33.333-4-80.333-7.333-141-10-8.667-38-14-78.667-16-122 97.333 4.667 183 11.333 257 20zM297 713c-13.333 16-30 24-50 24-14 0-27.333-4.667-40-14-14-10.667-22-24.833-24-42.5s2.667-33.5 14-47.5l138-160c12.667-15.333 28.333-23.333 47-24 19.333-1.333 35.333 5 48 19l78 77 96-117c11.333-13.333 25.667-21 43-23s33 2.333 47 13c13.333 11.333 21 25.833 23 43.5s-2.333 33.167-13 46.5L563 681c-12 14.667-27.333 22.667-46 24-18.667 1.333-35-5-49-19l-78-77-93 104z"/>
</svg>
