<?xml version="1.0" encoding="UTF-8"?>
<svg width="1024px" height="1024px" viewBox="0 0 1024 1024" version="1.1" xmlns="http://www.w3.org/2000/svg" xmlns:xlink="http://www.w3.org/1999/xlink">
    <!-- Generator: Sketch 47.1 (45422) - http://www.bohemiancoding.com/sketch -->
    <title>pending</title>
    <desc>Created with Sketch.</desc>
    <defs></defs>
    <g id="Page-1" stroke="none" stroke-width="1" fill="none" fill-rule="evenodd">
        <g id="pending" fill="#000000">
            <path d="M512,78 C589.639277,78 661.454531,97.2602241 727.447917,135.78125 C793.441302,174.302276 845.697724,226.558698 884.21875,292.552083 C922.739776,358.545469 942,430.360723 942,508 C942,585.639277 922.739776,657.454531 884.21875,723.447917 C845.697724,789.441302 793.441302,841.697724 727.447917,880.21875 C661.454531,918.739776 589.639277,938 512,938 C434.360723,938 362.545469,918.739776 296.552083,880.21875 C230.558698,841.697724 178.302276,789.441302 139.78125,723.447917 C101.260224,657.454531 82,585.639277 82,508 C82,430.360723 101.260224,358.545469 139.78125,292.552083 C178.302276,226.558698 230.558698,174.302276 296.552083,135.78125 C362.545469,97.2602241 434.360723,78 512,78 Z M648.169178,656.715853 C640.063161,664.905325 630.471186,669 619.392963,669 C608.314741,669 598.722765,664.905325 590.616749,656.715853 L462.54233,546.158526 C451.193907,535.044242 446.060174,521.882787 447.140976,506.673766 L456.057549,283.804235 C456.59795,270.935064 461.191291,260.113423 469.837708,251.338988 C478.484126,242.564553 488.751593,238.469879 500.640417,239.054841 C511.98884,239.639803 521.580815,244.319432 529.416631,253.093867 C537.252447,261.868301 541.440493,272.104989 541.980894,283.804235 L550.08687,482.982911 L650.600971,590.030481 C658.706987,599.389878 662.489738,610.650234 661.949337,623.811886 C661.408936,636.973539 656.815595,647.941418 648.169178,656.715853 Z" id="time"></path>
        </g>
    </g>
</svg>