<svg width="1024" height="1024" viewBox="0 0 1024 1024">
    <path d="M690.625 898.574C675.167 914.192 656.875 922 635.749 922c-21.126 0-39.417-7.808-54.875-23.426l-244.235-210.83c-21.641-21.195-31.431-46.293-29.37-75.296l17.004-425.007c1.03-24.542 9.79-45.178 26.278-61.91 16.488-16.733 36.068-24.542 58.74-23.426 21.641 1.115 39.933 10.039 54.876 26.772 14.942 16.732 22.929 36.253 23.96 58.564l15.457 379.829 191.678 204.137c15.458 17.848 22.672 39.321 21.641 64.42-1.03 25.1-9.79 46.015-26.278 62.747z" fill-rule="evenodd"/>
</svg>
