<?xml version="1.0" encoding="UTF-8"?>
<svg width="1024px" height="1024px" viewBox="0 0 1024 1024" version="1.1" xmlns="http://www.w3.org/2000/svg" xmlns:xlink="http://www.w3.org/1999/xlink">
    <!-- Generator: Sketch 48.1 (47250) - http://www.bohemiancoding.com/sketch -->
    <title>pending</title>
    <desc>Created with Sketch.</desc>
    <defs></defs>
    <g id="Page-1" stroke="none" stroke-width="1" fill="none" fill-rule="evenodd">
        <g id="pending" fill="#000000">
            <path d="M690.624944,898.574417 C675.166959,914.19155 656.875285,922 635.749372,922 C614.623459,922 596.331785,914.19155 580.8738,898.574417 L336.638862,687.744166 C314.997683,666.549484 305.207773,641.450896 307.268838,612.447648 L324.272536,187.440634 C325.303068,162.899424 334.062462,142.262807 350.550979,125.530164 C367.039496,108.797521 386.619316,100.989071 409.291027,102.10458 C430.932206,103.22009 449.22388,112.144032 464.166599,128.876676 C479.109317,145.609319 487.095823,165.130443 488.126355,187.440634 L503.584263,567.269737 L695.262316,771.406964 C710.720301,789.255117 717.933919,810.728353 716.903386,835.827318 C715.872854,860.926283 707.113461,881.841773 690.624944,898.574417 Z" id="time"></path>
        </g>
    </g>
</svg>