<svg width="1024" height="1024" viewBox="0 0 1024 1024">
    <path d="M512 78c77.64 0 149.455 19.26 215.448 57.781s118.25 90.778 156.77 156.771C922.74 358.545 942 430.361 942 508c0 77.64-19.26 149.455-57.781 215.448s-90.778 118.25-156.771 156.77C661.455 918.74 589.639 938 512 938c-77.64 0-149.455-19.26-215.448-57.781s-118.25-90.778-156.77-156.771C101.26 657.455 82 585.639 82 508c0-77.64 19.26-149.455 57.781-215.448s90.778-118.25 156.771-156.77C362.545 97.26 434.361 78 512 78zm0 788.333c97.424 0 181.502-35.366 252.235-106.098C834.967 689.502 870.333 605.425 870.333 508c0-97.424-35.366-181.502-106.098-252.235C693.502 185.033 609.425 149.667 512 149.667c-97.424 0-181.502 35.366-252.235 106.098C189.033 326.498 153.667 410.575 153.667 508c0 97.424 35.366 181.502 106.098 252.235C330.498 830.967 414.575 866.333 512 866.333zm136.17-209.617c-8.108 8.19-17.7 12.284-28.778 12.284s-20.67-4.095-28.776-12.284L462.542 546.159c-11.348-11.115-16.482-24.276-15.401-39.485l8.917-222.87c.54-12.869 5.133-23.69 13.78-32.465 8.646-8.774 18.914-12.87 30.802-12.284 11.349.585 20.94 5.264 28.777 14.039 7.835 8.774 12.023 19.011 12.564 30.71l8.106 199.179L650.6 590.03c8.106 9.36 11.889 20.62 11.348 33.782-.54 13.162-5.133 24.13-13.78 32.904z" fill-rule="evenodd"/>
</svg>
