<svg width="1024" height="1024" viewBox="0 0 1024 1024">
    <path d="M472.541 149.811c-209.32 1.692-378.502 177.88-378.502 394.984C94.04 762.95 264.86 939.8 475.58 939.8s381.54-176.85 381.54-395.005H472.542V149.811zm75.9-65.295v391.858h381.52C928.327 259.67 758.145 84.516 548.44 84.516zm42.78 47.041c30.446 3.955 60.068 12.16 88.48 24.537 40.17 17.498 76.3 42.57 107.387 74.52 31.076 31.939 55.555 69.148 72.755 110.594a356.54 356.54 0 0 1 24.296 90.876H591.221V131.557z" fill="#221F20" fill-rule="evenodd"/>
</svg>
