<svg width="1024" height="1024" viewBox="0 0 1024 1024">
    <path d="M932.031 400.625H624.375V92.969c0-15.446-12.523-27.969-27.969-27.969H428.594c-15.446 0-27.969 12.523-27.969 27.969v307.656H92.969C77.523 400.625 65 413.148 65 428.594v167.812c0 15.446 12.523 27.969 27.969 27.969h307.656v307.656c0 15.446 12.523 27.969 27.969 27.969h167.812c15.446 0 27.969-12.523 27.969-27.969V624.375h307.656c15.446 0 27.969-12.523 27.969-27.969V428.594c0-15.446-12.523-27.969-27.969-27.969z" fill-rule="evenodd"/>
</svg>
