<svg width="1024" height="1024" viewBox="0 0 1024 1024">
    <path d="M899.375 60h-776.25C99.406 60 80 79.406 80 103.125v661.25c0 23.719 19.406 43.125 43.125 43.125h256.134L261.973 924.786c-12.63 12.63-12.63 33.109 0 45.74 6.316 6.315 14.594 9.474 22.87 9.474 8.277 0 16.555-3.159 22.871-9.473L470.741 807.5H482.5v143.75c0 15.879 12.873 28.75 28.75 28.75S540 967.129 540 951.25V807.5h11.76l163.027 163.027c6.315 6.314 14.593 9.473 22.87 9.473 8.276 0 16.554-3.159 22.87-9.473 12.632-12.63 12.632-33.11 0-45.74L643.239 807.5h256.136c23.719 0 43.125-19.406 43.125-43.125v-661.25C942.5 79.406 923.094 60 899.375 60zM425 232.5l230 143.75L425 520V232.5zm373.75 460h-575c-15.877 0-28.75-12.871-28.75-28.75S207.873 635 223.75 635h575c15.879 0 28.75 12.871 28.75 28.75s-12.871 28.75-28.75 28.75z" fill-rule="evenodd"/>
</svg>
