<svg width="1024" height="1024" viewBox="0 0 1024 1024">
    <path d="M797.274 454.5c15.563 0 29.003 5.679 40.321 17.037 11.318 11.358 16.977 24.846 16.977 40.463v402.5c0 15.617-5.659 29.105-16.977 40.463C826.277 966.321 812.837 972 797.275 972H224.297c-15.563 0-29.003-5.679-40.32-17.037C172.658 943.605 167 930.117 167 914.5V512c0-15.617 5.659-29.105 16.977-40.463 11.318-11.358 24.758-17.037 40.32-17.037h57.298V282c0-63.18 22.46-117.307 67.378-162.384C393.892 74.538 447.83 52 510.786 52c62.957 0 116.894 22.538 161.813 67.616 44.919 45.077 67.378 99.205 67.378 162.384v172.5h57.297zM396.191 282v172.5h229.19V282c0-31.945-11.14-59.097-33.423-81.458C569.675 178.18 542.618 167 510.786 167c-31.832 0-58.89 11.18-81.172 33.542-22.282 22.36-33.423 49.513-33.423 81.458z" fill-rule="evenodd"/>
</svg>
