<svg width="1024" height="1024" viewBox="0 0 1024 1024">
    <path d="M307.875 574.531h-109.25c-35.219 0-62.531-28.031-62.531-62.531s28.031-62.531 62.531-62.531h109.25c35.219 0 62.531 28.031 62.531 62.531s-27.312 62.531-62.531 62.531zm15.813-163.156l-78.344-76.906c-24.438-24.438-24.438-63.25 0-87.688 25.156-25.156 63.969-25.156 88.406 0l77.625 76.906c25.156 24.438 25.156 63.25 0 87.688-23.719 25.875-63.25 25.875-87.688 0zm10.78 367.281c-24.437 24.438-63.25 24.438-88.406 0-24.437-25.156-24.437-63.968 0-88.406l77.625-77.625c24.438-25.156 63.25-25.156 87.688 0 25.156 24.438 25.156 63.25 0 87.688l-76.906 78.343zm240.063-470.781c0 35.219-28.031 62.531-62.531 62.531s-62.531-28.031-62.531-62.531v-109.25c0-35.219 28.031-62.531 62.531-62.531s62.531 28.031 62.531 62.531v109.25zm0 517.5c0 35.219-28.031 62.531-62.531 62.531s-62.531-28.031-62.531-62.531v-109.25c0-35.219 28.031-62.531 62.531-62.531s62.531 28.031 62.531 62.531v109.25zm125.782-414c-24.438 25.156-63.25 25.156-87.688 0-25.156-24.438-25.156-63.25 0-87.688l76.906-77.625c24.438-25.156 63.25-25.156 87.688 0 25.156 24.438 25.156 63.25 0 87.688l-76.907 77.625zM689.53 778.656l-76.906-78.343c-25.156-24.438-25.156-63.25 0-87.688 24.438-25.156 63.25-25.156 87.688 0l77.625 76.906c25.156 24.438 25.156 63.25 0 88.407-24.438 25.156-63.97 25.156-88.407.718zm135.844-204.125h-109.25c-35.219 0-62.531-28.031-62.531-62.531s28.031-62.531 62.531-62.531h109.25c35.219 0 62.531 28.031 62.531 62.531s-27.312 62.531-62.531 62.531z" fill-rule="evenodd"/>
</svg>
