<svg width="1024" height="1024" viewBox="0 0 1024 1024">
    <path d="M98 537.5C98 310.273 282.273 126 509.5 126S921 310.273 921 537.5 736.727 949 509.5 949 98 764.727 98 537.5zm610.867 39.278c.512-2.566-.513-5.132-2.05-7.185-1.539-2.567-4.614-3.593-7.178-3.593h-56.901c-4.101 0-7.69 2.566-8.715 6.672-15.379 54.915-65.103 94.947-124.568 94.947-32.296 0-62.028-11.804-84.584-31.82l54.339-53.889c2.563-2.566 3.076-6.672 2.05-10.264-1.538-3.593-5.126-5.646-8.714-5.646H297.227a9.194 9.194 0 0 0-9.227 9.238v175.524c0 3.592 2.05 7.185 5.639 8.725 1.025.513 2.563.513 3.588.513 2.563 0 4.614-1.026 6.664-2.566l68.692-69.286c36.397 33.36 84.071 53.376 136.872 53.376 98.937 0 180.957-70.826 199.412-164.746zm-398.734-77.556c-.512 2.566.513 5.132 2.05 7.699 1.539 2.053 4.102 3.079 7.178 3.079h56.901c4.101 0 7.69-2.566 8.715-6.672 15.379-54.915 65.103-94.947 124.568-94.947 32.296 0 62.028 11.804 84.584 31.82L539.79 494.09c-2.563 2.566-3.076 6.672-2.05 10.264 1.538 3.593 5.126 5.646 8.714 5.646h175.319a9.194 9.194 0 0 0 9.227-9.238V325.238c0-3.592-2.05-7.185-5.639-8.725-1.025-.513-2.563-.513-3.588-.513-2.563 0-4.614 1.026-6.664 2.566l-68.692 69.286c-36.397-33.36-84.071-53.376-136.872-53.376-98.937 0-181.47 70.826-199.412 164.746z" fill="#2C2C2C"/>
</svg>
