<svg width="1024" height="1024" viewBox="0 0 1024 1024">
    <path d="M512.5 86c77.007 0 148.238 19.103 213.694 57.31 65.457 38.208 117.288 90.04 155.495 155.496C919.897 364.262 939 435.493 939 512.5c0 77.007-19.103 148.238-57.31 213.694-38.208 65.457-90.04 117.288-155.496 155.495C660.738 919.897 589.507 939 512.5 939c-77.007 0-148.238-19.103-213.694-57.31-65.457-38.208-117.288-90.04-155.495-155.496C105.103 660.738 86 589.507 86 512.5c0-77.007 19.103-148.238 57.31-213.694 38.208-65.457 90.04-117.288 155.496-155.495C364.262 105.103 435.493 86 512.5 86zm274.316 618C826.94 644.917 847 581.109 847 512.572c0-92.169-33.337-172.225-100.011-240.17-21.242-20.68-43.958-37.813-68.15-51.402 0 .59-1.327 2.954-3.982 7.09-2.655 4.136-3.688 6.794-3.098 7.976.59 6.5 1.918 12.407 3.983 17.725 2.065 5.317 3.245 8.714 3.54 10.192.295 1.477-1.032 6.055-3.982 13.736-6.49 14.18-7.966 32.496-4.426 54.947 1.18 8.862 14.308 13.589 39.385 14.18 25.077.59 38.795 2.954 41.155 7.09 0 4.726-2.507 9.01-7.523 12.85-5.015 3.84-11.21 6.942-18.586 9.306-7.375 2.363-11.653 3.84-12.833 4.43-21.242 11.227-33.632 22.157-37.172 32.792-5.9 15.952-6.49 38.699-1.77 68.24 2.36 11.817 7.522 22.304 15.488 31.462 7.965 9.157 17.258 14.918 27.88 17.281 24.19 5.318 41.892 5.909 53.102 1.773 2.36 0 4.13-.148 5.31-.443 1.18-.296 2.36.443 3.54 2.215 1.18 1.773 1.918 2.954 2.213 3.545.295.591.886 2.068 1.77 4.431.886 2.364 1.328 3.84 1.328 4.432 2.36 7.68 4.425 18.02 6.196 31.018 1.77 12.998.885 24.815-2.656 35.45-4.13 7.68-7.375 20.678-9.735 38.994-2.36 18.316-2.36 31.61 0 39.88.59 2.955 3.54 7.09 8.85 12.408zm-361.025 96.058c2.386 10.645 7.903 18.185 16.553 22.621 8.649 4.436 23.412 2.514 44.29-5.766 7.157-3.549 15.806-7.54 25.947-11.976 10.14-4.436 17-7.688 20.579-9.758 3.579-2.07 7.456-5.175 11.631-9.315 4.176-4.14 7.457-9.462 9.843-15.968 1.79-4.731 3.728-8.871 5.815-12.42 2.088-3.548 4.922-6.653 8.5-9.314 3.58-2.662 6.115-4.584 7.606-5.766 1.491-1.183 4.92-3.105 10.29-5.767l9.841-4.879c10.141-5.322 17.597-10.793 22.369-16.411 4.772-5.619 9.097-12.863 12.974-21.734 3.877-8.872 7.009-15.377 9.395-19.517 12.526-19.516 7.158-40.807-16.106-63.872-9.544-9.462-34.596-20.699-75.158-33.71-14.316-21.29-26.842-32.823-37.58-34.597-3.578-.592-9.096-1.33-16.552-2.218-7.456-.887-14.316-1.922-20.579-3.105s-12.377-3.253-18.342-6.21c-3.58-1.774-7.606-3.992-12.08-6.653-4.473-2.661-7.754-4.583-9.841-5.766-2.088-1.183-5.816-2.218-11.185-3.105-5.368-.887-11.631-1.33-18.79-1.33-9.543 0-16.403-1.923-20.578-5.767-4.176-3.844-6.114-9.019-5.816-15.524.298-6.506.745-13.603 1.342-21.291.596-6.506-.447-12.124-3.132-16.855-2.684-4.731-6.561-9.167-11.631-13.307-5.07-4.14-8.5-7.392-10.29-9.758-7.158-8.28-16.702-8.28-28.632 0-2.386 1.774-5.368 5.914-8.947 12.42-3.579 6.505-6.86 9.906-9.842 10.201-2.983.296-9.842-2.217-20.58-7.54-14.912-10.645-17-26.022-6.262-46.13 10.737-20.108 27.737-31.344 51-33.71 4.175-.591 11.333-1.478 21.474-2.661 10.14-1.183 17.298-1.922 21.474-2.218 4.175-.296 9.842-.148 17 .443 7.158.592 12.526 2.07 16.105 4.436 3.579 2.366 7.158 6.21 10.737 11.532 3.579 5.323 6.263 11.829 8.053 19.517 1.789 10.054 7.754 14.49 17.894 13.307 14.316-7.097 22.369-21.587 24.158-43.469 0-11.237-4.473-24.395-13.42-39.476-8.948-15.081-13.422-24.1-13.422-27.057 0-28.98 19.386-50.27 58.158-63.872 16.702-5.914 42.948-27.796 78.738-65.646-8.948-2.366-18.342-4.14-28.185-5.323-9.842-1.183-17.447-1.774-22.816-1.774h-8.947c-93.054 0-173.878 34.006-242.475 102.018-45.334 44.947-75.457 98.469-90.369 160.567 16.702 27.204 30.72 45.242 42.053 54.113 13.123 10.646 30.123 18.038 51 22.178 45.334 9.463 84.702 32.527 118.106 69.195-.596 1.774-1.64 3.992-3.132 6.653-1.49 2.661-4.026 8.28-7.605 16.855-3.579 8.575-6.561 16.855-8.947 24.839-2.386 7.984-4.176 17.299-5.369 27.944-1.193 10.645-1.044 20.256.448 28.831 1.49 8.575 5.07 16.855 10.737 24.84 5.666 7.983 13.57 14.34 23.71 19.072 8.948 3.548 15.51 7.393 19.685 11.532 4.175 4.14 6.263 7.393 6.263 9.759v2.66c-.597 2.958-1.491 6.802-2.684 11.533-1.193 4.732-2.536 11.976-4.027 21.735-1.491 9.758-1.64 17.002-.447 21.734z" fill-rule="evenodd"/>
</svg>
