<?xml version="1.0" encoding="UTF-8"?>
<svg width="1024px" height="1024px" viewBox="0 0 1024 1024" version="1.1" xmlns="http://www.w3.org/2000/svg" xmlns:xlink="http://www.w3.org/1999/xlink">
    <!-- Generator: Sketch 43.1 (39012) - http://www.bohemiancoding.com/sketch -->
    <title>public-open</title>
    <desc>Created with Sketch.</desc>
    <defs></defs>
    <g id="Page-1" stroke="none" stroke-width="1" fill="none" fill-rule="evenodd">
        <g id="public-open" fill="#000000">
            <path d="M512.5,86 C589.507329,86 660.738041,105.103455 726.194271,143.310937 C791.650501,181.51842 843.48158,233.349499 881.689062,298.805729 C919.896545,364.261959 939,435.492671 939,512.5 C939,589.507329 919.896545,660.738041 881.689062,726.194271 C843.48158,791.650501 791.650501,843.48158 726.194271,881.689062 C660.738041,919.896545 589.507329,939 512.5,939 C435.492671,939 364.261959,919.896545 298.805729,881.689062 C233.349499,843.48158 181.51842,791.650501 143.310937,726.194271 C105.103455,660.738041 86,589.507329 86,512.5 C86,435.492671 105.103455,364.261959 143.310937,298.805729 C181.51842,233.349499 233.349499,181.51842 298.805729,143.310937 C364.261959,105.103455 435.492671,86 512.5,86 Z M786.816326,704 C826.938976,644.917136 847,581.1086 847,512.572477 C847,420.403209 813.663298,340.347129 746.988894,272.401835 C725.747491,251.722832 703.031332,234.589059 678.839734,221 C678.839734,221.590829 677.512166,223.954108 674.856991,228.089908 C672.201816,232.225709 671.169263,234.884398 671.759302,236.066055 C672.349341,242.56517 673.676909,248.473368 675.742045,253.790826 C677.807181,259.108283 678.987242,262.505497 679.282261,263.982569 C679.577281,265.45964 678.249713,270.038494 675.299518,277.719266 C668.809089,291.899153 667.334014,310.214567 670.874248,332.666055 C672.054326,341.528485 685.182496,346.255043 710.259152,346.845872 C735.335808,347.4367 749.054009,349.799979 751.414165,353.93578 C751.414165,358.662409 748.906537,362.945852 743.891205,366.786239 C738.875874,370.626625 732.680558,373.728429 725.305071,376.091743 C717.929584,378.455058 713.651865,379.932107 712.471787,380.522936 C691.230384,391.74868 678.839752,402.678846 675.299518,413.313761 C669.399128,429.266135 668.809098,452.012696 673.52941,481.554128 C675.889566,493.370701 681.052329,503.857752 689.017855,513.015596 C696.983382,522.17344 706.276356,527.933933 716.897057,530.297248 C741.088655,535.614705 758.789559,536.205525 770.000299,532.069725 C772.360455,532.069725 774.130546,531.92202 775.310623,531.626606 C776.490701,531.331191 777.670762,532.069716 778.85084,533.842202 C780.030918,535.614688 780.768455,536.796327 781.063475,537.387156 C781.358494,537.977985 781.948524,539.455034 782.833583,541.818349 C783.718641,544.181663 784.161164,545.658713 784.161164,546.249541 C786.52132,553.930314 788.586425,564.26966 790.356542,577.26789 C792.126659,590.26612 791.241614,602.082516 787.70138,612.717431 C783.571107,620.398204 780.325941,633.396239 777.965786,651.711927 C775.60563,670.027615 775.60563,683.32106 777.965786,691.592661 C778.555825,694.546804 781.505975,698.682542 786.816326,704 Z M425.790811,800.057753 C428.176801,810.703124 433.69432,818.243482 442.343535,822.679053 C450.992749,827.114625 465.755841,825.192573 486.633255,816.912839 C493.791226,813.364382 502.44031,809.372428 512.580768,804.936857 C522.721226,800.501285 529.580845,797.248582 533.15983,795.178648 C536.738816,793.108715 540.615991,790.003862 544.791474,785.863995 C548.966957,781.724129 552.247644,776.401523 554.633634,769.896018 C556.423127,765.164742 558.361715,761.024938 560.449456,757.47648 C562.537198,753.928023 565.370518,750.82317 568.949504,748.161827 C572.528489,745.500484 575.063565,743.578432 576.554809,742.395613 C578.046053,741.212794 581.475862,739.290742 586.84434,736.629399 L596.6865,731.750295 C606.826959,726.42761 614.283066,720.957154 619.055046,715.338763 C623.827026,709.720373 628.151569,702.475715 632.028803,693.604572 C635.906037,684.73343 639.037602,678.228022 641.423592,674.088156 C653.95004,654.571642 648.581643,633.281219 625.318239,610.216248 C615.774278,600.753695 590.721758,589.517083 550.159925,576.506074 C535.843984,555.215331 523.317724,543.683019 512.580768,541.90879 C509.001783,541.317381 503.484264,540.57813 496.028044,539.691016 C488.571825,538.803901 481.712206,537.76895 475.448982,536.586131 C469.185758,535.403312 463.07175,533.33341 457.106775,530.376362 C453.52779,528.602134 449.501492,526.384381 445.02776,523.723039 C440.554029,521.061696 437.273341,519.139644 435.1856,517.956825 C433.097859,516.774006 429.369805,515.739055 424.001327,514.85194 C418.632849,513.964826 412.369719,513.521275 405.211749,513.521275 C395.667788,513.521275 388.808169,511.599223 384.632686,507.755062 C380.457204,503.9109 378.518616,498.736144 378.816865,492.230639 C379.115113,485.725135 379.56248,478.628327 380.158977,470.940003 C380.755475,464.434499 379.71162,458.816193 377.027381,454.084916 C374.343142,449.35364 370.465966,444.918136 365.395737,440.778269 C360.325508,436.638402 356.895699,433.385699 355.106206,431.020061 C347.948236,422.740328 338.404418,422.740328 326.474467,431.020061 C324.088477,432.794289 321.106034,436.934094 317.527049,443.439598 C313.948064,449.945103 310.667377,453.345657 307.684889,453.641362 C304.702401,453.937066 297.842783,451.423614 287.105827,446.100928 C272.193388,435.455557 270.105678,420.07914 280.842634,399.971216 C291.57959,379.863293 308.579515,368.626681 331.842918,366.261043 C336.018401,365.669633 343.176264,364.782532 353.316722,363.599713 C363.457181,362.416894 370.615044,361.677643 374.790526,361.381939 C378.966009,361.086234 384.632651,361.234084 391.790621,361.825493 C398.948592,362.416903 404.316989,363.895405 407.895974,366.261043 C411.474959,368.626681 415.053891,372.470785 418.632876,377.793471 C422.211861,383.116156 424.89606,389.621563 426.685553,397.309887 C428.475045,407.363849 434.439931,411.799354 444.580389,410.616534 C458.89633,403.51962 466.948926,389.030305 468.738419,367.148153 C468.738419,355.911372 464.264754,342.752707 455.317291,327.671765 C446.369828,312.590822 441.896164,303.571962 441.896164,300.614915 C441.896164,271.635849 461.282043,250.345425 500.054383,236.743007 C516.756314,230.828911 543.001812,208.947088 578.791664,171.096879 C569.844201,168.731241 560.449505,166.957039 550.607296,165.77422 C540.765087,164.591401 533.159857,164 527.791379,164 L518.843961,164 C425.790345,164 344.966142,198.005537 276.368925,266.017631 C231.035112,310.964754 200.912438,364.486513 186,426.584512 C202.701931,453.789349 216.719413,471.827069 228.052866,480.698212 C241.175812,491.343583 258.175737,498.736091 279.05315,502.875957 C324.386963,512.33851 363.75521,535.403135 397.159072,572.070525 C396.562575,573.844753 395.51872,576.062506 394.027476,578.723848 C392.536232,581.385191 390.001155,587.003497 386.42217,595.578935 C382.843185,604.154373 379.860742,612.433982 377.474752,620.418011 C375.088762,628.402039 373.299296,637.716599 372.106301,648.361971 C370.913306,659.007342 371.062428,668.617602 372.553672,677.19304 C374.044916,685.768478 377.623847,694.048087 383.290574,702.032116 C388.9573,710.016144 396.860774,716.373701 407.001232,721.104977 C415.948695,724.653434 422.51007,728.497538 426.685553,732.637405 C430.861035,736.777272 432.948745,740.029975 432.948745,742.395613 L432.948745,745.056943 C432.352248,748.01399 431.457515,751.858095 430.26452,756.589371 C429.071525,761.320647 427.729425,768.565305 426.238182,778.323562 C424.746938,788.081819 424.597816,795.326476 425.790811,800.057753 Z" id="earth"></path>
        </g>
    </g>
</svg>