<svg width="1024" height="1024" viewBox="0 0 1024 1024">
    <path d="M191 924.305V346.879h183.82c43.575 0 59.926-24.527 59.926-53.098 0-28.57-34.05-66.754-34.05-117.156S441.573 99 487.843 99s99.457 30.008 99.457 89.934c0 59.925-17.7 55.882-17.7 91.28 0 35.4 27.223 59.927 58.579 59.927 31.355 0 200.172-13.657 200.172-13.657s5.48 143.032 5.48 193.434c0 50.402-39.531 49.055-47.707 49.055 0 0-58.578-42.227-117.156-42.227s-73.492 73.402-73.492 91.102c0 17.699 1.347 92.629 74.93 92.629 40.878 0 32.702-6.829 59.925-6.829s38.094 6.829 47.707 54.446c9.524 47.707 21.832 166.12 21.832 166.12H191v.09z" fill-rule="evenodd"/>
</svg>
