<svg width="1024" height="1024" viewBox="0 0 1024 1024">
    <g fill-rule="evenodd">
        <path d="M563.25 717c0 28.304-22.946 51.25-51.25 51.25s-51.25-22.946-51.25-51.25 22.946-51.25 51.25-51.25 51.25 22.946 51.25 51.25z"/>
        <path d="M512 102c-226.437 0-410 183.563-410 410s183.563 410 410 410 410-183.563 410-410-183.563-410-410-410zm0 743.125c-183.98 0-333.125-149.146-333.125-333.125 0-183.98 149.146-333.125 333.125-333.125 183.98 0 333.125 149.146 333.125 333.125 0 183.98-149.146 333.125-333.125 333.125z"/>
        <path d="M512 614.7c-21.229 0-38.438-17.209-38.438-38.437v-25.625c0-26.921 10.382-51.133 30.856-71.967 15.106-15.37 33.455-26.898 51.199-38.046 36.487-22.922 52.477-35.217 52.477-56.75 0-23.424-13.517-39.069-24.858-48.068-18.205-14.446-43.505-22.4-71.236-22.4-42.068 0-79.912 28.092-92.029 68.317-6.124 20.326-27.564 31.838-47.892 25.716-20.325-6.124-31.839-27.564-25.716-47.891 10.5-34.85 32.35-66.169 61.526-88.185C438.086 248.577 474.088 236.53 512 236.53c45.01 0 87.28 13.871 119.02 39.06 34.79 27.605 53.949 66.06 53.949 108.284 0 66.273-51.127 98.394-88.456 121.845-31.32 19.675-46.076 30.521-46.076 44.918v25.625c0 21.228-17.208 38.437-38.437 38.437z"/>
    </g>
</svg>
