<svg width="1024" height="1024" viewBox="0 0 1024 1024">
    <path d="M261.463 456.563c108.022 0 195.59 87.655 195.59 195.78 0 108.128-87.568 195.782-195.59 195.782-108.021 0-195.59-87.654-195.59-195.781L65 624.375c0-216.254 175.137-391.563 391.18-391.563v111.875c-74.633 0-144.8 29.093-197.575 81.92a283.67 283.67 0 0 0-27.793 32.356 196.865 196.865 0 0 1 30.651-2.4zm502.947 0c108.02 0 195.59 87.655 195.59 195.78 0 108.128-87.57 195.782-195.59 195.782-108.02 0-195.59-87.654-195.59-195.781l-.874-27.969c0-216.254 175.137-391.563 391.18-391.563v111.875c-74.633 0-144.8 29.093-197.575 81.92a283.51 283.51 0 0 0-27.795 32.356c9.99-1.574 20.223-2.4 30.654-2.4z" fill-rule="evenodd"/>
</svg>
