<svg width="1024" height="1024" viewBox="0 0 1024 1024">
    <path d="M709.327 586.853c30.146-51.26 47.621-111.406 47.621-175.338 0-190.629-154.658-345.14-345.286-345.14-190.63 0-345.287 154.657-345.287 345.14 0 190.483 154.658 345.141 345.287 345.141 63.785 0 124.076-17.475 175.338-47.62l248.59 248.588 122.036-122.036-248.298-248.735zm-297.665 54.902c-127.28 0-230.24-102.96-230.24-230.239 0-127.28 102.96-230.094 230.24-230.094 127.28 0 230.239 102.959 230.239 230.094 0 127.135-102.96 230.239-230.24 230.239z" fill-rule="evenodd"/>
</svg>
