<?xml version="1.0" encoding="UTF-8" standalone="no"?>
<svg width="1024px" height="1024px" viewBox="0 0 1024 1024" version="1.1" xmlns="http://www.w3.org/2000/svg" xmlns:xlink="http://www.w3.org/1999/xlink">
    <!-- Generator: Sketch 3.7.1 (28215) - http://www.bohemiancoding.com/sketch -->
    <title>search</title>
    <desc>Created with Sketch.</desc>
    <defs></defs>
    <g stroke="none" stroke-width="1" fill="none" fill-rule="evenodd">
        <g fill="#000000">
            <path d="M709.327422,586.85332 C739.472695,535.59207 756.948203,475.44707 756.948203,411.515156 C756.948203,220.886484 602.290273,66.3741016 411.661602,66.3741016 C221.03293,66.3741016 66.375,221.032031 66.375,411.515156 C66.375,601.998281 221.03293,756.656211 411.661602,756.656211 C475.44707,756.656211 535.737617,739.180703 586.999766,709.03543 L835.589336,957.624102 L957.625898,835.587539 L709.32832,586.85332 L709.327422,586.85332 Z M411.661602,641.755039 C284.381758,641.755039 181.422617,538.795898 181.422617,411.516055 C181.422617,284.236211 284.381758,181.421719 411.661602,181.421719 C538.941445,181.421719 641.900586,284.380859 641.900586,411.516055 C641.900586,538.65125 538.941445,641.755039 411.661602,641.755039 L411.661602,641.755039 Z"></path>
        </g>
    </g>
</svg>
