<svg width="1024" height="1024" viewBox="0 0 1024 1024">
    <path d="M857 512c0-21.563-2.875-43.125-5.75-64.688L972 339.5 819.625 167l-87.688 77.625C701.75 218.75 665.813 200.062 627 185.687V52H397v135.125c-38.813 12.938-73.313 33.063-104.938 58.938l-87.687-77.625L52 339.5l120.75 107.813C169.875 468.875 167 490.438 167 512c0 21.563 2.875 43.125 5.75 64.688L52 684.5 204.375 857l87.688-77.625C322.25 805.25 358.188 823.938 397 838.313V972h230V836.875c38.813-12.938 73.313-33.063 104.938-58.938l87.687 77.625L972 684.5 851.25 576.687C854.125 555.125 857 533.563 857 512zM512 684.5c-94.875 0-172.5-77.625-172.5-172.5S417.125 339.5 512 339.5 684.5 417.125 684.5 512 606.875 684.5 512 684.5z" fill-rule="evenodd"/>
</svg>
