<?xml version="1.0" encoding="UTF-8"?>
<svg width="1024px" height="1024px" viewBox="0 0 1024 1024" version="1.1" xmlns="http://www.w3.org/2000/svg" xmlns:xlink="http://www.w3.org/1999/xlink">
    <!-- Generator: Sketch Beta 48.2 (47327) - http://www.bohemiancoding.com/sketch -->
    <title>settings-switch</title>
    <desc>Created with Sketch Beta.</desc>
    <defs></defs>
    <g id="Page-1" stroke="none" stroke-width="1" fill="none" fill-rule="evenodd">
        <path d="" id="Path-2" stroke="#979797"></path>
        <g id="settings-switch" fill="#000000">
            <path d="M834,374 C910.084,374 972,312.084 972,236 C972,159.916 910.084,98 834,98 C774.108,98 723.554,136.548 704.51,190 L52,190 L52,282 L704.51,282 C723.554,335.452 774.108,374 834,374 Z M834,190 C859.346,190 880,210.654 880,236 C880,261.438 859.346,282 834,282 C808.654,282 788,261.438 788,236 C788,210.654 808.654,190 834,190 Z M374,374 C433.892,374 484.446,412.548 503.49,466 L972,466 L972,558 L503.49,558 C484.446,611.452 433.846,650 374,650 C314.154,650 263.554,611.452 244.51,558 L52,558 L52,466 L244.51,466 C263.554,412.548 314.108,374 374,374 Z M374,558 C399.346,558 420,537.438 420,512 C420,486.654 399.346,466 374,466 C348.654,466 328,486.654 328,512 C328,537.438 348.654,558 374,558 Z M834,650 C910.084,650 972,711.916 972,788 C972,864.084 910.084,926 834,926 C774.154,926 723.554,887.452 704.51,834 L52,834 L52,742 L704.51,742 C723.554,688.548 774.108,650 834,650 Z M834,834 C859.346,834 880,813.438 880,788 C880,762.654 859.346,742 834,742 C808.654,742 788,762.654 788,788 C788,813.438 808.654,834 834,834 Z" id="Mask"></path>
        </g>
    </g>
</svg>