<svg width="1024" height="1024" viewBox="0 0 1024 1024">
    <path d="M834 374c76.084 0 138-61.916 138-138S910.084 98 834 98c-59.892 0-110.446 38.548-129.49 92H52v92h652.51c19.044 53.452 69.598 92 129.49 92zm0-184c25.346 0 46 20.654 46 46 0 25.438-20.654 46-46 46s-46-20.562-46-46c0-25.346 20.654-46 46-46zM374 374c59.892 0 110.446 38.548 129.49 92H972v92H503.49c-19.044 53.452-69.644 92-129.49 92-59.846 0-110.446-38.548-129.49-92H52v-92h192.51c19.044-53.452 69.598-92 129.49-92zm0 184c25.346 0 46-20.562 46-46 0-25.346-20.654-46-46-46s-46 20.654-46 46c0 25.438 20.654 46 46 46zm460 92c76.084 0 138 61.916 138 138s-61.916 138-138 138c-59.846 0-110.446-38.548-129.49-92H52v-92h652.51c19.044-53.452 69.598-92 129.49-92zm0 184c25.346 0 46-20.562 46-46 0-25.346-20.654-46-46-46s-46 20.654-46 46c0 25.438 20.654 46 46 46z" fill-rule="evenodd"/>
</svg>
