<svg width="1024" height="1024" viewBox="0 0 1024 1024">
    <path d="M828.25 684.5c-40.573 0-77.194 16.835-103.331 43.87l-387.23-193.614A144.581 144.581 0 0 0 339.5 512c0-7.746-.63-15.342-1.811-22.754l387.23-193.615c26.137 27.034 62.758 43.869 103.331 43.869 79.391 0 143.75-64.359 143.75-143.75S907.641 52 828.25 52 684.5 116.359 684.5 195.75c0 7.746.633 15.342 1.811 22.754L299.081 412.12c-26.137-27.034-62.758-43.871-103.331-43.871C116.359 368.25 52 432.61 52 512c0 79.393 64.359 143.75 143.75 143.75 40.573 0 77.194-16.835 103.331-43.869l387.23 193.615a144.756 144.756 0 0 0-1.811 22.754c0 79.393 64.359 143.75 143.75 143.75S972 907.643 972 828.25c0-79.39-64.359-143.75-143.75-143.75z" fill-rule="evenodd"/>
</svg>
