<svg width="1024" height="1024" viewBox="0 0 1024 1024">
    <path d="M792 148.867v134.808H493.492v43.368H792v129.179l182.59-153.678L792 148.867zm103.91 591.196l-7.242-.889-23.006 68.417-.155.52c-1.37 5.303-4.364 8.988-14.521 9.736l-.227.02c-28.45 2.795-77.278 3.096-117.269 3.127 54.765-68.461 162.873-204.774 192.821-244.66l2.143-2.852-.771-3.401c-2.939-12.999-7.358-27.656-10.908-39.431L915 524.77H749.669c-34.155 0-56.525-.805-66.07-1.56l-7.792-.614-1.463 7.127c-3.594 17.477-7.186 35.152-10.78 52.83-3.59 17.664-7.18 35.33-10.771 52.796l-1.493 7.263 7.673 1.995c16.063 4.179 28.521 6.772 39.207 8.162l7.539.98 20.696-69.523c1.21-4.016 1.819-6.03 11.042-6.03l.286-.005c22.009-.677 71.522-1.363 101.714-1.541-36.428 48.504-86.667 113.51-131.295 171.257-23.147 29.951-45.01 58.241-63.255 82.034l-2.34 3.052 1.009 3.625c2.69 9.663 6.54 19.851 9.936 28.838l3.08 8.172H810.01c36.233 0 64.687.39 81.689.623 7.22.099 12.438.17 15.287.17h7.137l1.375-6.496c4.377-20.679 9.045-41.423 13.56-61.485 3.606-16.024 7.334-32.595 10.854-48.872l1.53-7.07-7.406-2.186c-13.76-4.057-26.589-6.832-38.125-8.249zM467.796 609.62c-40.96-144.605-83.316-294.133-119.268-415.014l-1.843-6.202h-.506a4802.62 4802.62 0 0 0-5.964-20.238c-17.026 0-34.862 1.015-43.78 2.03a5662.27 5662.27 0 0 0-6.427 20.913l-.18.02-1.678 5.413c-25.067 80.938-53.446 174.173-83.49 272.882-35.808 117.649-72.828 239.279-104.027 339.162l-50.41 3.381v8.111c0 7.379-.191 14.897-.393 22.858-.206 8.098-.418 16.472-.418 24.83v8.673h8.673c10.84 0 22.38-.24 34.595-.495 12.23-.254 24.874-.519 36.75-.519h116.047l.438-8.212c.824-15.449.824-33.017.824-47.135v-8.32l-70.35-2.935c2.771-9.93 5.687-20.338 8.677-31.017 9.698-34.627 20.614-73.6 29.67-107.375l184.793-.967c8.283 27.91 17.553 61.16 26.523 93.327 4.493 16.118 8.766 31.444 12.873 45.958l-63.606 3.063v8.266c0 7.379-.19 14.897-.391 22.858-.207 8.098-.418 16.472-.418 24.83v8.673h8.673c15.708 0 32.325-.234 49.917-.482 18.613-.26 37.86-.532 57.097-.532h84.43l.438-8.212c.824-15.449.824-33.017.824-47.135v-8.156l-51.479-3.17c-17.379-60.62-36.456-127.968-56.614-199.132zm-234.617-6.176c-3.09 0-5.843-1.25-7.705-3.52-3.23-3.94-2.25-8.851-1.665-11.787l.183-.735 46.595-159.705c11.268-38.97 22.685-78.305 33.323-113.941l1.72-5.76h15.156l1.642 5.907c17.334 62.371 50.376 181.726 76.921 280.321l2.754 10.226-168.924-1.006z" fill="#020302" fill-rule="evenodd"/>
</svg>
