<svg width="1024" height="1024" viewBox="0 0 1024 1024">
    <path d="M758.718 308.288h-252.18v34.272h252.18v122.688l169.53-142.604-169.53-142.604v128.248zm162.408 555.12l3.275-1.006.244-3.413c.753-10.557.75-22.754-.004-31.83l-.394-4.721-55.418 1.652-.329-4.058a25.65 25.65 0 0 1-.079-1.95c.75-31.72 1.48-121.327 1.48-155.424 0-60.333-27.361-124.802-104.153-124.802-59.111 0-101.52 33.617-135.206 66.504l-3.33 3.25 3.006 3.553c7.844 9.262 17.384 19.615 26.18 28.407l3.688 3.686 3.529-3.839c27.579-29.99 58.6-47.193 85.113-47.193 16.496 0 28.243 4.18 36.975 13.158 13.474 13.853 19.888 40.684 19.605 82.023l-.029 4.276-4.278-.02a1771.455 1771.455 0 0 1-41.773-.718l-.21-.003c-57.404 0-92.695 19.33-112.18 35.544-23.193 19.301-37.04 45.204-37.04 69.29 0 20.89 10.734 40.773 30.224 55.984 17.239 13.454 39.344 21.487 59.13 21.487 26.76 0 53.642-5.256 104.9-31.419l3.44-1.758 2.104 3.242c8.683 13.369 14.877 22.585 21.622 28.653l1.426 1.282h1.919c33.34 0 75.588-6.459 86.563-9.836zm-117.461-68.065l-78.597 28.711h-.758c-26.22 0-43.836-14.04-43.836-34.936 0-35.363 31.89-55.644 87.493-55.644 16.434 0 26.878.429 31.641.683l4.057.219v60.967zM331.7 869.192c71.244 0 129.145.57 160.25.877l.76.008c11.957.118 19.857.196 23.762.196h3.478l.717-3.403c7.451-35.359 10.572-72.727 13.592-108.864 2.444-29.24 4.968-59.474 9.778-87.991l.628-3.721-3.616-1.091c-16.55-4.99-35.425-8.984-51.789-10.958l-3.3-.4-44.124 113.229-.207.622c-5.432 19.558-14.287 23.734-22.16 26.109-36.413 10.98-75.022 10.691-202.974 9.736l-21.232-.157 4.13-6.52c40.1-63.26 79.022-144.84 124.093-239.302 50.53-105.907 107.803-225.944 177.215-339.093l.916-1.491-.395-1.71c-4.108-17.844-9.671-40.658-16.273-58.855l-1.024-2.824-276.33-.003c-17.113-.593-22.979-1.191-26.86-1.587-3.244-.33-5.582-.57-11.8-.57h-3.665l-.57 3.62c-5.184 32.983-7.941 73.899-10.612 113.467-2.407 35.759-4.893 72.664-9.144 102.917l-.527 3.751 3.66.983c10.706 2.868 21.817 4.806 32.562 6.68 5.606.977 11.404 1.988 16.975 3.109l3.82.768 46.199-152.526c.97-3.811.842-7.151-.421-10.106l-2.054-4.805 5.118-1.07c2.994-.628 9.41-.945 36.154-.945 16.247 0 29.192.2 44.18.431l.1 4.286.067-4.284c17.67.273 37.698.582 68.348.638l7.552.014-3.883 6.474c-49.411 82.37-99.837 188.154-148.603 290.456-55.208 115.816-107.345 225.194-157.024 300.8L96 817.868l.711 2.006c2.67 7.506 5.386 15.424 8.013 23.081l.146.427c2.145 6.25 4.35 12.677 6.541 18.92l6.005-2.134v9.024H331.7z" fill="#221F20" fill-rule="evenodd"/>
</svg>
