<svg width="1024" height="1024" viewBox="0 0 1024 1024">
    <path d="M303.774 478.746h416.453v41.707H303.774v-41.707zm0 83.414h416.453v41.706H303.774V562.16zm0-166.52H512v41.706H303.774V395.64zm0-83.414H512v41.707H303.774v-41.707zm0-83.412H512v41.706H303.774v-41.706zM178.654 104v666.386H845.04V104H178.654zM803.64 728.986H220.36v-583.28h582.974l.306 583.28zM553.706 228.814h166.52V437.04h-166.52V228.814zm-290.412 775.252l-57.654-150.88h-.92c1.226 11.96 1.534 26.067 1.534 42.627v108.253h-18.4v-170.2H217.6l53.974 140.454h.92l54.28-140.454h29.44v170.2H336.28V894.28c0-12.574.614-26.374 1.534-41.094h-.92l-58.267 150.574h-15.333v.306zm234.906 0h-95.066v-170.2H498.2v17.48h-75.134v54.894H493.6v17.48h-70.534v62.56H498.2v17.786zm170.814 0H646.32L553.094 861.16h-.92c1.226 16.866 1.84 32.2 1.84 46v96.906h-18.4v-170.2H558l92.92 142.294h.92c-.306-2.146-.614-8.894-.92-20.24-.614-11.346-.614-19.626-.614-24.534v-97.52h18.4v170.2h.308zm175.412-170.2V943.96c0 19.32-5.826 34.654-17.48 45.694-11.653 11.04-27.906 16.56-48.453 16.56-20.548 0-36.494-5.52-47.534-16.867-11.346-11.04-16.866-26.68-16.866-46v-109.48h19.933v111.014c0 14.106 3.987 25.146 11.654 32.814 7.667 7.667 19.32 11.346 34.346 11.346 14.414 0 25.454-3.68 33.12-11.346 7.667-7.667 11.654-18.707 11.654-32.814V833.867h19.626z" fill-rule="evenodd"/>
</svg>
