<?xml version="1.0" encoding="UTF-8"?>
<svg width="1024px" height="1024px" viewBox="0 0 1024 1024" version="1.1" xmlns="http://www.w3.org/2000/svg" xmlns:xlink="http://www.w3.org/1999/xlink">
    <!-- Generator: Sketch 47.1 (45422) - http://www.bohemiancoding.com/sketch -->
    <title>sub-org</title>
    <desc>Created with Sketch.</desc>
    <defs>
        <path d="M465.456499,111 L465.456499,732.48893 L312.797402,732.48893 L312.797402,615.281472 L234.659097,615.281472 L234.659097,732.48893 L82,728.871416 L82,111 L465.456499,111 Z M234.659097,498.074013 L234.659097,419.935708 L156.520791,419.935708 L156.520791,498.074013 L234.659097,498.074013 Z M234.659097,302.72825 L234.659097,224.589944 L156.520791,224.589944 L156.520791,302.72825 L234.659097,302.72825 Z M390.935708,498.074013 L390.935708,419.935708 L312.797402,419.935708 L312.797402,498.074013 L390.935708,498.074013 Z M390.935708,302.72825 L312.797402,302.72825 L312.797402,224.589944 L390.935708,224.589944 L390.935708,302.72825 Z M699.031678,752.323901 C836.398628,763.549837 942,831.021839 942,912.596471 L375.073916,912.596471 C375.073916,831.021839 480.675289,763.549837 618.042238,752.323901 L618.042238,718.939581 C573.436038,693.81089 537.052797,631.163739 537.052797,568.506467 C537.052797,467.899357 537.052797,386.341171 658.536958,386.341171 C780.021119,386.341171 780.021119,467.899357 780.021119,568.506467 C780.021119,631.163739 743.637878,693.81089 699.031678,718.939581 L699.031678,752.323901 Z" id="sub-org-icon-path"></path>
    </defs>
    <g id="Page-1" stroke="none" stroke-width="1" fill="none" fill-rule="evenodd">
        <g id="sub-org">
            <mask id="mask-2" fill="white">
                <use xlink:href="#sub-org-icon-path"></use>
            </mask>
            <use id="Mask" fill="#000000" xlink:href="#sub-org-icon-path"></use>
        </g>
    </g>
</svg>
