<svg width="1024" height="1024" viewBox="0 0 1024 1024">
    <path fill-rule="evenodd" d="M465.456 111v621.489H312.797V615.28H234.66v117.21L82 728.87V111h383.456zM234.66 498.074v-78.138h-78.138v78.138h78.138zm0-195.346V224.59h-78.138v78.138h78.138zm156.277 195.346v-78.138h-78.139v78.138h78.139zm0-195.346h-78.139V224.59h78.139v78.138zm308.096 449.596C836.399 763.55 942 831.022 942 912.596H375.074c0-81.574 105.601-149.046 242.968-160.272V718.94c-44.606-25.13-80.99-87.776-80.99-150.434 0-100.607 0-182.165 121.485-182.165 121.484 0 121.484 81.558 121.484 182.165 0 62.658-36.383 125.305-80.99 150.434v33.384z" />
</svg>
