<svg width="1024" height="1024" viewBox="0 0 1024 1024">
    <path fill="#2F2F2F" fill-rule="evenodd" d="M412.458 492.538c-25.168-9.169-53.9-15.428-84.744-17.949v-25.321c33.833-19.06 61.429-66.576 61.429-114.1 0-76.308 0-138.168-92.143-138.168s-92.143 61.86-92.143 138.168c0 47.524 27.596 95.04 61.429 114.1v25.321C162.096 483.104 82 534.28 82 596.152h339.494c11.833 31.282 32.975 57.97 57 71.504v27.623c-113.662 9.289-201.04 65.117-201.04 132.614h469.091c0-67.497-87.377-123.325-201.039-132.614v-27.623c24.025-13.534 45.167-40.222 57-71.504H942c0-61.872-80.096-113.048-184.286-121.563v-25.321c33.833-19.06 61.429-66.576 61.429-114.1 0-76.308 0-138.168-92.143-138.168s-92.143 61.86-92.143 138.168c0 47.524 27.596 95.04 61.429 114.1v25.321c-30.844 2.52-59.576 8.78-84.744 17.949-3.602-58.332-20.477-100.083-99.542-100.083s-95.94 41.75-99.542 100.083z" />
</svg>
