<svg viewBox="0 0 1024 1024">
    <path fill="currentColor" d="M972 149.549c-25.306 37.87-57.309 71.13-94.184 97.754a544.79 544.79 0 0 1 .545 24.43c0 249.54-189.849 537.287-537.025 537.287-106.59 0-205.806-31.26-289.336-84.839a383.779 383.779 0 0 0 45.026 2.636c88.43 0 169.816-30.19 234.413-80.836-82.594-1.525-152.3-56.12-176.317-131.145a188.408 188.408 0 0 0 35.51 3.387c17.215 0 33.89-2.306 49.73-6.622-86.347-17.346-151.409-93.67-151.409-185.165 0-.795 0-1.586.014-2.374 25.45 14.144 54.552 22.638 85.495 23.618-50.646-33.863-83.97-91.663-83.97-157.177 0-34.607 9.307-67.046 25.554-94.936C209.14 209.815 348.218 284.994 505.088 292.87c-3.217-13.82-4.89-28.234-4.89-43.034C500.199 145.55 584.712 61 688.955 61c54.286 0 103.34 22.934 137.773 59.636 42.993-8.471 83.388-24.187 119.857-45.825-14.094 44.094-44.02 81.101-82.992 104.474 38.181-4.566 74.559-14.717 108.41-29.736z"/>
</svg>
