<?xml version="1.0" encoding="UTF-8" standalone="no"?>
<svg width="1024px" height="1024px" viewBox="0 0 1024 1024" version="1.1" xmlns="http://www.w3.org/2000/svg" xmlns:xlink="http://www.w3.org/1999/xlink">
    <!-- Generator: Sketch 3.7.1 (28215) - http://www.bohemiancoding.com/sketch -->
    <title>warning</title>
    <desc>Created with Sketch.</desc>
    <defs></defs>
    <g id="Page-1" stroke="none" stroke-width="1" fill="none" fill-rule="evenodd">
        <g id="warning" fill="#000000">
            <path d="M931.363672,812.522852 C946.576016,842.331211 945.573359,870.170195 928.355703,898.032539 C910.470508,926.506719 884.950391,939.800898 851.798047,939.800898 L171.894687,939.800898 C138.770195,939.800898 113.24918,926.502227 95.3648828,898.032539 C78.8183594,870.842227 77.4796875,842.519883 91.3812109,812.040391 L431.349062,132.376914 C448.566719,99.2524219 475.421914,82.7984375 511.862539,82.7984375 C548.970703,82.7984375 575.494375,99.4366016 591.429062,132.561094 L931.36457,812.52375 L931.363672,812.522852 Z M461.156523,831.409805 C475.085,845.283477 491.994492,852.248164 511.862539,852.248164 C531.753047,852.248164 548.634687,845.283477 562.568555,831.409805 C576.442227,817.481328 583.406914,800.598789 583.406914,780.703789 C583.406914,760.808789 576.442227,743.931641 562.568555,729.997773 C548.640078,716.069297 531.757539,709.104609 511.862539,709.104609 C491.999883,709.104609 475.090391,716.069297 461.156523,729.997773 C447.255,743.92625 440.291211,760.808789 440.291211,780.703789 C440.291211,800.598789 447.255898,817.48043 461.156523,831.409805 L461.156523,831.409805 Z M456.8,314.2 L456.8,617.8 L567.2,617.8 L567.2,314.2 L456.8,314.2 L456.8,314.2 Z" id="Shape"></path>
        </g>
    </g>
</svg>