<svg width="1024" height="1024" viewBox="0 0 1024 1024">
    <path d="M931.364 812.523c15.212 29.808 14.21 57.647-3.008 85.51-17.885 28.474-43.406 41.768-76.558 41.768H171.895c-33.125 0-58.646-13.299-76.53-41.768-16.547-27.19-17.885-55.513-3.984-85.993L431.35 132.377c17.218-33.125 44.073-49.579 80.514-49.579 37.108 0 63.631 16.639 79.566 49.763l339.936 679.963-.001-.001zM461.157 831.41c13.928 13.873 30.837 20.838 50.706 20.838 19.89 0 36.772-6.965 50.706-20.838 13.873-13.929 20.838-30.811 20.838-50.706 0-19.895-6.965-36.772-20.838-50.706-13.929-13.929-30.811-20.893-50.706-20.893-19.863 0-36.773 6.964-50.706 20.893-13.902 13.928-20.866 30.81-20.866 50.706 0 19.895 6.965 36.776 20.866 50.706zM456.8 314.2v303.6h110.4V314.2H456.8z" fill-rule="evenodd"/>
</svg>
