<?xml version="1.0" encoding="UTF-8"?>
<svg width="1024px" height="1024px" viewBox="0 0 1024 1024" version="1.1" xmlns="http://www.w3.org/2000/svg" xmlns:xlink="http://www.w3.org/1999/xlink">
    <!-- Generator: Sketch 45.2 (43514) - http://www.bohemiancoding.com/sketch -->
    <title>working-copy</title>
    <desc>Created with Sketch.</desc>
    <defs>
        <path d="M553.0822,686.501 L409.073,686.501 L0.68,686.501 L0.68,159.013 L0.68,0.713 L394.166,0.713 L553.0822,164.920262 L553.0822,686.501 L553.0822,686.501 Z M51.729,53.462 L51.729,633.753 L511.171,633.753 L511.171,211.762 L358.023,211.762 L358.023,53.462 L51.729,53.462 Z M409.073,90.755 L409.073,159.013 L475.079,159.013 L409.073,90.755 Z" id="path-1"></path>
    </defs>
    <g id="Page-1" stroke="none" stroke-width="1" fill="none" fill-rule="evenodd">
        <g id="working-copy">
            <g id="Page-1" transform="translate(122.000000, 112.000000)">
                <g id="Group-3" transform="translate(225.000000, 0.860000)">
                    <mask id="mask-2" fill="white">
                        <use xlink:href="#path-1"></use>
                    </mask>
                    <g id="Clip-2"></g>
                    <path d="M258.0572,610.0773 C258.0722,637.2273 212.2922,664.3663 213.0852,691.5013 L553.0822,691.5013 L553.0822,-4.2867 L-9.5538,-4.2867 L-9.5538,309.0583 C74.9302,307.2333 95.3312,357.3913 146.8522,368.0523" id="Fill-1" fill="#020303" mask="url(#mask-2)"></path>
                </g>
                <path d="M148.3348,354.5756 L253.4838,415.4516 L357.0518,354.5756 L252.6948,294.4896 L148.3348,354.5756 Z M13.9338,432.8436 L119.0828,493.7216 L218.6978,434.4266 L114.3378,374.3406 L13.9338,432.8436 Z M287.4798,435.2166 L388.6758,493.7216 L492.2448,433.6356 L391.0488,375.1316 L287.4798,435.2166 Z M153.0778,513.4856 L254.2748,571.9906 L354.6808,513.4856 L253.4838,454.9816 L153.0778,513.4856 Z M407.6508,522.9736 L407.6508,721.4126 L506.4758,663.6986 L506.4758,465.2596 L407.6508,522.9736 Z M0.4928,663.6986 L102.4798,722.2036 L102.4798,523.7636 L0.4928,465.2596 L0.4928,663.6986 Z M270.8778,602.0336 L270.8778,800.4736 L371.2828,742.7586 L370.4928,742.7586 L370.4928,544.3186 L270.8778,602.0336 Z M138.8468,742.7586 L235.2998,798.8916 L235.2998,600.4516 L138.8468,544.3186 L138.8468,742.7586 Z" id="Fill-4" fill="#020303"></path>
            </g>
        </g>
    </g>
</svg>