<?xml version="1.0" encoding="UTF-8"?>
<svg width="1024px" height="1024px" viewBox="0 0 1024 1024" version="1.1" xmlns="http://www.w3.org/2000/svg" xmlns:xlink="http://www.w3.org/1999/xlink">
    <!-- Generator: Sketch 46.1 (44463) - http://www.bohemiancoding.com/sketch -->
    <title>working-copy</title>
    <desc>Created with Sketch.</desc>
    <defs></defs>
    <g id="Page-1" stroke="none" stroke-width="1" fill="none" fill-rule="evenodd">
        <g id="working-copy" fill="#000000">
            <path d="M337.951323,260.020684 L337,784.162682 L756.53362,783.248555 L913.554304,783.248555 L913.554304,275.298938 L741.255366,103 L337.951323,103 L337.951323,260.020684 Z M704.210833,155.322787 L704.210833,312.343471 L861.179194,312.343471 L861.179194,730.925767 L626.808064,730.925767 L626.808064,784.043488 L337.43698,784.994812 L337.43698,444.568051 L390.27411,444.568051 L390.27411,155.322787 L704.210833,155.322787 Z M756.53362,192.314998 L824.186984,260.020684 L756.53362,260.020684 L756.53362,192.314998 L756.53362,192.314998 Z" id="Shape"></path>
            <path d="M368.95134,403 L475.689826,464.455492 L369.759965,526.719608 L262.212855,464.455492 L368.95134,403 L368.95134,403 Z M215.312611,840.466066 L111,780.627824 L111,577.662976 L215.312611,637.501218 L215.312611,840.466066 L215.312611,840.466066 Z M124.746623,544.509356 L227.441984,484.671114 L334.18047,546.126606 L232.293734,606.773473 L124.746623,544.509356 L124.746623,544.509356 Z M351.161593,918.90268 L252.509356,861.490313 L252.509356,658.525466 L351.161593,715.937833 L351.161593,918.90268 L351.161593,918.90268 Z M370.56859,686.827337 L267.064604,626.989095 L369.759965,567.150853 L473.263951,626.989095 L370.56859,686.827337 L370.56859,686.827337 Z M490.245074,861.490313 L387.549713,920.51993 L387.549713,717.555083 L489.436449,658.525466 L489.436449,861.490313 L490.245074,861.490313 Z M404.530835,546.935231 L510.460696,485.479739 L613.964682,545.317981 L508.034821,606.773473 L404.530835,546.935231 L404.530835,546.935231 Z M628.51993,780.627824 L527.441819,839.657441 L527.441819,636.692593 L628.51993,577.662976 L628.51993,780.627824 L628.51993,780.627824 Z" id="Shape"></path>
        </g>
    </g>
</svg>