<svg width="1024" height="1024" viewBox="0 0 1024 1024">
    <g fill-rule="evenodd">
        <path d="M337.951 260.02L337 784.164l419.534-.914h157.02V275.3L741.255 103H337.951v157.02zm366.26-104.697v157.02h156.968v418.583H626.81v53.117l-289.372.952V444.568h52.837V155.323h313.937zm52.323 36.992l67.653 67.706h-67.653v-67.706z"/>
        <path d="M368.951 403l106.739 61.455-105.93 62.265-107.547-62.265L368.95 403zM215.313 840.466L111 780.628V577.663l104.313 59.838v202.965zM124.747 544.51l102.695-59.838 106.738 61.456-101.886 60.646-107.547-62.264zm226.415 374.394l-98.653-57.413V658.525l98.653 57.413v202.965zm19.407-232.076L267.065 626.99l102.695-59.838 103.504 59.838-102.695 59.838zM490.245 861.49L387.55 920.52V717.555l101.886-59.03V861.49h.81zm-85.714-314.555l105.93-61.455 103.504 59.838-105.93 61.455-103.504-59.838zM628.52 780.628l-101.078 59.03V636.692l101.078-59.03v202.965z"/>
    </g>
</svg>
