<?xml version="1.0" encoding="UTF-8" standalone="no"?>
<svg width="1024px" height="1024px" viewBox="0 0 1024 1024" version="1.1" xmlns="http://www.w3.org/2000/svg" xmlns:xlink="http://www.w3.org/1999/xlink">
    <!-- Generator: Sketch 39.1 (31720) - http://www.bohemiancoding.com/sketch -->
    <title>yahoo</title>
    <desc>Created with Sketch.</desc>
    <defs></defs>
    <g id="Page-1" stroke="none" stroke-width="1" fill="none" fill-rule="evenodd">
        <g id="yahoo" fill="#2C2C2C">
            <path d="M437.395519,279.03466 C438.671122,260.269079 440.03784,241.595038 442.68016,222.920996 L20,222.920996 L20,279.03466 C62.4593565,281.689303 103.734224,285.717037 146.284695,288.371681 C226.009882,385.861161 305.735068,483.350642 386.826972,582.121675 L386.826972,733.070176 C341.634181,737.09791 296.44139,739.752554 251.248598,743.780288 L251.248598,793.120035 L668.644117,793.120035 L668.644117,743.780288 C623.451326,741.034105 578.258535,739.752554 533.065743,738.379462 C534.432461,685.011981 535.708064,630.271409 537.074781,576.812389 C615.43325,507.33397 692.607231,437.947091 769.690097,368.468672 C809.507133,365.814029 849.415283,363.159386 890.599037,359.131651 L890.599037,293.680967 C772.332417,295.054058 655.341401,296.33561 537.074781,298.990253 L537.074781,353.822365 C580.900855,356.477008 624.818043,357.75856 668.644117,359.131651 C611.515327,408.562937 554.295421,456.621132 497.166631,506.052418 C438.671122,433.919356 380.175614,360.504742 321.680106,288.371681 C360.221539,284.343946 398.762972,281.689303 437.395519,279.03466 Z M973,424.000045 C931.579573,422.159591 890.684786,420.350331 849.789999,418.509876 C847.722482,505.447954 845.690008,592.82275 843.657533,679.760828 C863.071168,681.570089 883.010443,683.379349 902.424078,685.219803 C925.937704,597.845007 949.486374,510.906929 973,424.000045 Z M839.759498,785.625615 L902.336248,787.810844 L904.273806,732.326432 C881.680051,729.583015 859.085139,726.872683 836.459142,724.161266 C837.53773,744.968847 838.66358,765.314317 839.759498,785.625615 Z" id="Combined-Shape"></path>
        </g>
    </g>
</svg>