<svg width="1024" height="1024" viewBox="0 0 1024 1024">
    <path d="M437.396 279.035c1.275-18.766 2.642-37.44 5.284-56.114H20v56.114c42.46 2.654 83.734 6.682 126.285 9.337 79.725 97.49 159.45 194.979 240.542 293.75V733.07c-45.193 4.028-90.386 6.683-135.578 10.71v49.34h417.395v-49.34c-45.193-2.746-90.385-4.027-135.578-5.4 1.366-53.368 2.642-108.109 4.009-161.568 78.358-69.478 155.532-138.865 232.615-208.343 39.817-2.655 79.725-5.31 120.909-9.337V293.68c-118.267 1.373-235.258 2.655-353.524 5.31v54.831c43.826 2.655 87.743 3.937 131.57 5.31-57.13 49.43-114.35 97.49-171.478 146.92-58.496-72.133-116.991-145.547-175.487-217.68 38.542-4.028 77.083-6.683 115.716-9.337zM973 424c-41.42-1.84-82.315-3.65-123.21-5.49-2.068 86.938-4.1 174.313-6.132 261.25 19.413 1.81 39.352 3.62 58.766 5.46C925.938 597.845 949.486 510.907 973 424zM839.76 785.626l62.576 2.185 1.938-55.485a43654.072 43654.072 0 0 0-67.815-8.165c1.079 20.808 2.205 41.153 3.3 61.465z" fill="#2C2C2C" fill-rule="evenodd"/>
</svg>
